<svg width="675" height="638" viewBox="0 0 675 638" fill="none" xmlns="http://www.w3.org/2000/svg">
<path d="M93.4853 541.074L77.7902 530.267C77.7902 530.267 68.7246 543.452 54.8751 534.268C52.1742 532.546 50.0763 530.025 48.8725 527.057C47.6686 524.088 47.4186 520.819 48.1571 517.702C48.7425 515.074 49.9413 512.622 51.6554 510.546C53.3696 508.47 55.5505 506.829 58.02 505.757C63.6897 503.203 72.2681 503.232 81.57 512.372L105.903 476.936L90.3847 466.261L76.1365 486.932C76.1365 486.932 50.5047 477.585 33.9975 501.564C18.2138 524.508 35.1196 543.998 43.9343 550.052C50.6671 554.791 74.66 568.951 93.4853 541.074Z" fill="#EBEBEB"/>
<path d="M95.1415 458.899L110.881 469.729L121 455.023L105.26 444.193L95.1415 458.899Z" fill="#EBEBEB"/>
<path d="M160.311 584.469L168.639 582.269C168.391 581.321 168.335 580.334 168.473 579.365C168.61 578.395 168.94 577.463 169.441 576.622C169.943 575.781 170.607 575.048 171.394 574.467C172.181 573.885 173.077 573.465 174.028 573.232C175.415 572.811 176.9 572.833 178.274 573.296C179.648 573.759 180.842 574.641 181.691 575.816C182.42 576.79 182.909 577.922 183.117 579.12C183.324 580.319 183.246 581.549 182.887 582.712C182.09 585.414 179.55 588.352 173.674 588.839L178.62 607.635L186.859 605.464L183.906 594.45C187.021 592.561 189.43 589.702 190.763 586.312C192.097 582.922 192.281 579.188 191.288 575.683C188.069 563.502 176.39 563.547 171.725 564.787C168.225 565.732 156.28 569.807 160.311 584.469Z" fill="#EBEBEB"/>
<path d="M188.02 609.28L179.654 611.487L181.715 619.296L190.081 617.089L188.02 609.28Z" fill="#EBEBEB"/>
<path d="M298.717 58.3655C302.93 55.7988 307.469 53.8123 312.213 52.4595L314.988 39.1711L337.564 38.7725L340.812 52.0609C345.601 53.2338 350.209 55.0465 354.514 57.4501L365.927 49.9642L382.169 65.6446L375.096 77.3088C377.654 81.5311 379.64 86.074 381.002 90.8187L394.364 93.5945L394.748 116.17L381.46 119.418C380.28 124.205 378.468 128.813 376.071 133.12L383.542 144.533L367.861 160.775L356.197 153.702C351.98 156.269 347.435 158.256 342.687 159.608L339.911 172.985L317.336 173.369L314.088 160.081C309.297 158.914 304.687 157.101 300.386 154.692L288.973 162.177L272.731 146.497L279.804 134.833C277.237 130.615 275.25 126.071 273.898 121.323L260.609 118.547L260.211 95.9717L273.499 92.7234C274.65 87.9065 276.448 83.2676 278.844 78.933L271.358 67.5197L287.038 51.2783L298.717 58.3655ZM310.751 88.4416C307.429 91.8917 305.206 96.2493 304.361 100.963C303.516 105.677 304.088 110.536 306.004 114.925C307.921 119.314 311.096 123.036 315.127 125.62C319.159 128.205 323.867 129.536 328.655 129.445C333.443 129.354 338.097 127.846 342.028 125.11C345.958 122.374 348.99 118.534 350.738 114.076C352.487 109.618 352.874 104.741 351.851 100.062C350.828 95.3837 348.44 91.1136 344.991 87.7919C340.362 83.341 334.156 80.9093 327.736 81.0311C321.316 81.1529 315.207 83.8183 310.751 88.4416V88.4416Z" fill="#F5F5F5"/>
<path d="M204.222 11.2951C206.655 9.83375 209.272 8.70174 212.003 7.92875L213.598 0.22147L226.606 0L228.481 7.63345C231.236 8.30733 233.889 9.3503 236.365 10.7341L242.936 6.42273L252.237 15.4441L248.162 22.1621C249.632 24.5932 250.769 27.2101 251.544 29.9432L259.236 31.5378L259.458 44.5457L251.824 46.4504C251.153 49.2069 250.11 51.8594 248.723 54.3348L253.035 60.9052L243.999 70.2661L237.281 66.191C234.85 67.6605 232.233 68.7977 229.5 69.5722L227.846 77.2499L214.838 77.4862L213.081 69.8527C210.327 69.1671 207.676 68.1195 205.197 66.7373L198.626 71.0487L189.265 62.0126L193.281 55.3093C191.809 52.8848 190.672 50.2723 189.9 47.543L182.208 45.9336L181.971 32.9257L189.62 31.0653C190.291 28.3041 191.334 25.6467 192.72 23.1661L188.409 16.5957L197.445 7.24956L204.222 11.2951ZM211.147 28.6291C209.22 30.6112 207.925 33.1209 207.427 35.8398C206.929 38.5588 207.249 41.3645 208.348 43.901C209.447 46.4374 211.274 48.5904 213.599 50.0867C215.923 51.583 218.639 52.3552 221.403 52.3054C224.167 52.2556 226.853 51.3859 229.122 49.8068C231.391 48.2277 233.14 46.0102 234.146 43.4358C235.153 40.8613 235.372 38.0459 234.776 35.3467C234.18 32.6475 232.796 30.1861 230.799 28.2748C228.136 25.711 224.566 24.3085 220.87 24.3749C217.174 24.4413 213.656 25.9714 211.088 28.6291H211.147Z" fill="#EBEBEB"/>
<path d="M619.219 252.731C621.647 251.265 624.258 250.128 626.985 249.35L628.595 241.657L641.588 241.436L643.463 249.069C646.224 249.74 648.882 250.783 651.362 252.17L657.933 247.858L667.279 256.894L663.204 263.612C664.673 266.043 665.81 268.66 666.585 271.394L674.292 272.988L674.513 285.996L666.88 287.871C666.193 290.623 665.151 293.273 663.779 295.756L668.076 302.326L659.055 311.687L652.337 307.612C649.906 309.081 647.289 310.218 644.556 310.993L642.946 318.685L629.953 318.922L628.078 311.274C625.321 310.602 622.669 309.559 620.193 308.173L613.608 312.484L604.262 303.448L608.337 296.73C606.865 294.3 605.728 291.683 604.956 288.949L597.264 287.354L597.027 274.347L604.661 272.471C605.348 269.72 606.39 267.069 607.761 264.587L603.465 258.017L612.486 248.656L619.219 252.731V252.731ZM626.144 270.05C624.226 272.034 622.939 274.543 622.447 277.259C621.955 279.974 622.279 282.775 623.379 285.306C624.479 287.837 626.304 289.986 628.625 291.479C630.946 292.973 633.657 293.745 636.417 293.697C639.176 293.65 641.859 292.785 644.127 291.212C646.395 289.64 648.146 287.43 649.158 284.862C650.17 282.295 650.397 279.485 649.812 276.788C649.227 274.09 647.855 271.628 645.87 269.71C643.207 267.144 639.634 265.738 635.936 265.802C632.239 265.866 628.717 267.393 626.144 270.05Z" fill="#EBEBEB"/>
<path d="M654.227 637.504C654.227 637.725 514.211 637.888 341.55 637.888C168.89 637.888 28.8446 637.725 28.8446 637.504C28.8446 637.283 168.816 637.12 341.55 637.12C514.285 637.12 654.227 637.297 654.227 637.504Z" fill="#263238"/>
<path d="M586.131 636.426L376.469 636.308C364.359 636.3 352.747 631.484 344.186 622.917C335.625 614.351 330.816 602.736 330.816 590.625L330.92 64.995C330.947 52.8736 335.782 41.2581 344.362 32.6967C352.943 24.1352 364.57 19.3271 376.691 19.3271L586.352 19.46C598.463 19.4679 610.075 24.2843 618.636 32.8506C627.197 41.4169 632.006 53.032 632.006 65.1426L631.902 590.773C631.902 596.778 630.717 602.724 628.416 608.271C626.114 613.818 622.741 618.856 618.489 623.096C614.237 627.337 609.19 630.698 603.638 632.985C598.085 635.272 592.136 636.442 586.131 636.426V636.426Z" fill="#455A64"/>
<path d="M586.057 37.9898H545.409C542.729 38.0517 540.184 39.1751 538.331 41.1131C536.479 43.0511 535.472 45.6451 535.532 48.3252V55.7076C535.591 58.3877 534.584 60.9817 532.732 62.9197C530.88 64.8577 528.334 65.9811 525.654 66.0431H446.411C443.733 65.9773 441.191 64.8522 439.342 62.9146C437.493 60.977 436.488 58.3852 436.548 55.7076V48.3252C436.607 45.6451 435.6 43.0511 433.748 41.1131C431.896 39.1751 429.35 38.0517 426.67 37.9898H376.794C368.328 37.9819 360.204 41.3316 354.203 47.3045C348.203 53.2774 344.815 61.3859 344.784 69.8524L344.681 582.962C344.696 591.435 348.072 599.556 354.068 605.543C360.063 611.53 368.188 614.895 376.661 614.899L585.924 615.017C590.126 615.019 594.287 614.193 598.17 612.587C602.052 610.981 605.58 608.626 608.553 605.656C611.525 602.686 613.884 599.16 615.493 595.279C617.103 591.398 617.933 587.238 617.935 583.036L618.023 69.9262C618.011 61.4546 614.639 53.3338 608.646 47.3463C602.653 41.3587 594.529 37.9937 586.057 37.9898V37.9898Z" fill="white"/>
<path d="M618.008 145.833V69.3947C617.858 61.0182 614.426 53.0353 608.451 47.1626C602.476 41.2898 594.435 37.9961 586.057 37.9898H545.409C544.082 38.0185 542.773 38.3088 541.558 38.844C540.342 39.3792 539.244 40.1489 538.327 41.1089C537.409 42.0689 536.69 43.2004 536.211 44.4387C535.731 45.6769 535.5 46.9976 535.532 48.3252V55.7076C535.591 58.3877 534.584 60.9817 532.732 62.9197C530.88 64.8577 528.334 65.9811 525.654 66.0431H446.411C443.733 65.9773 441.191 64.8522 439.342 62.9146C437.493 60.977 436.488 58.3852 436.548 55.7076V48.3252C436.607 45.6451 435.6 43.0511 433.748 41.1131C431.896 39.1751 429.35 38.0517 426.67 37.9898H376.794C368.328 37.9819 360.204 41.3316 354.203 47.3045C348.202 53.2774 344.815 61.3859 344.784 69.8524V146.069H618.008V145.833Z" fill="#EBEBEB"/>
<path d="M400.507 249.512C418.797 249.512 433.624 234.718 433.624 216.468C433.624 198.219 418.797 183.424 400.507 183.424C382.216 183.424 367.389 198.219 367.389 216.468C367.389 234.718 382.216 249.512 400.507 249.512Z" fill="#E0E0E0"/>
<path d="M385.033 224.736L393.715 223.998L414.888 227.571L417.383 243.502L417.029 245.363C412.259 248.055 406.9 249.529 401.424 249.655C395.949 249.781 390.527 248.556 385.639 246.086L385.033 224.736" fill="#455A64"/>
<path d="M410.355 227.32C412.455 227.014 414.598 227.304 416.541 228.158C418.483 229.011 420.146 230.394 421.34 232.149C422.775 234.152 424.091 236.237 425.282 238.394C421.827 242.144 419.022 244.994 414.238 246.662L410.355 227.32Z" fill="#455A64"/>
<path d="M385.033 224.736C385.033 224.736 379.304 225.445 377.09 230.332C374.875 235.219 374.358 236.74 374.358 236.74C377.311 240.313 381.091 244.536 385.712 246.116C385.712 246.116 386.761 233.802 386.894 230.332C387.056 226.582 387.204 224.633 385.033 224.736Z" fill="#455A64"/>
<path d="M390.26 193.435C391.703 191.586 393.543 190.085 395.643 189.043C397.744 188 400.052 187.442 402.397 187.411C404.413 187.41 406.413 187.77 408.303 188.474C410.292 188.945 412.05 190.106 413.264 191.752C414.769 193.686 415.755 195.973 416.128 198.396C416.475 200.875 416.593 203.381 416.482 205.882C416.361 208.4 415.549 210.837 414.135 212.924L407.771 214.017C404.262 214.297 400.732 214.108 397.273 213.456C393.776 212.785 390.687 210.757 388.68 207.816C386.126 203.667 387.189 197.215 390.26 193.435Z" fill="#263238"/>
<path d="M384.118 211.817C384.183 211.097 384.411 210.401 384.784 209.782C385.158 209.163 385.667 208.637 386.273 208.244C386.894 207.871 387.618 207.704 388.339 207.768C389.061 207.831 389.744 208.122 390.29 208.598L391.294 209.779C392.068 210.137 392.712 210.728 393.135 211.469C393.559 212.21 393.741 213.064 393.656 213.914C393.546 214.764 393.191 215.563 392.636 216.216C392.08 216.868 391.347 217.346 390.526 217.59C389.705 217.823 388.837 217.841 388.007 217.642C387.177 217.443 386.412 217.033 385.786 216.453C385.172 215.86 384.702 215.133 384.413 214.329C384.123 213.525 384.023 212.666 384.118 211.817V211.817Z" fill="#263238"/>
<path d="M385.373 216.158C385.134 215.784 385.015 215.346 385.033 214.903C385.246 213.828 385.758 212.836 386.51 212.039C387.222 211.202 388.09 210.51 389.064 210.001C389.802 209.603 390.319 209.455 390.304 209.411C389.833 209.445 389.375 209.581 388.961 209.809C387.92 210.272 387 210.969 386.273 211.847C385.866 212.292 385.518 212.788 385.24 213.323C384.998 213.78 384.857 214.284 384.826 214.8C384.82 215.155 384.917 215.504 385.107 215.804C385.24 216.099 385.373 216.247 385.373 216.158Z" fill="#455A64"/>
<path d="M407.712 226.183V220.277C407.712 220.277 412.894 219.701 414.341 213.057C415.022 208.662 415.288 204.213 415.139 199.769C415.139 195.738 411.669 190.245 406.678 190.231L404.464 189.965L395.974 193.331C395.384 193.364 394.828 193.615 394.413 194.035C393.998 194.455 393.754 195.015 393.73 195.605L393.479 223.968L397.362 229.417C398.073 230.379 399.067 231.094 400.205 231.463C401.343 231.831 402.568 231.834 403.708 231.471C404.848 231.108 405.846 230.397 406.561 229.438C407.277 228.479 407.674 227.32 407.697 226.124L407.712 226.183Z" fill="#FFBE9D"/>
<path d="M404.331 211.522C404.377 211.18 404.551 210.869 404.818 210.651C405.061 210.447 405.363 210.327 405.68 210.309C405.996 210.29 406.31 210.374 406.575 210.547C406.847 210.759 407.058 211.038 407.187 211.357C407.317 211.675 407.36 212.023 407.313 212.364C407.166 212.569 406.976 212.741 406.757 212.868C406.538 212.995 406.295 213.075 406.044 213.102H405.807C405.612 213.107 405.417 213.073 405.234 213.002C405.052 212.931 404.885 212.824 404.744 212.688C404.595 212.535 404.481 212.352 404.41 212.151C404.338 211.949 404.311 211.735 404.331 211.522V211.522Z" fill="#EB996E"/>
<path d="M412.053 204.435C412.045 204.659 411.95 204.872 411.787 205.027C411.624 205.181 411.406 205.266 411.182 205.262C411.071 205.264 410.961 205.244 410.859 205.203C410.756 205.163 410.662 205.102 410.582 205.026C410.503 204.949 410.439 204.857 410.395 204.756C410.351 204.654 410.327 204.545 410.325 204.435C410.337 204.209 410.436 203.996 410.601 203.842C410.766 203.688 410.985 203.604 411.211 203.608C411.321 203.606 411.43 203.626 411.532 203.667C411.634 203.707 411.727 203.768 411.806 203.845C411.884 203.922 411.946 204.014 411.989 204.115C412.031 204.216 412.053 204.325 412.053 204.435Z" fill="#263238"/>
<path d="M413.47 202.309C413.352 202.412 412.717 201.895 411.802 201.851C410.886 201.807 410.163 202.235 410.074 202.117C409.986 201.999 410.148 201.866 410.458 201.659C410.876 201.41 411.36 201.291 411.846 201.319C412.327 201.338 412.789 201.515 413.16 201.821C413.426 202.058 413.515 202.264 413.47 202.309Z" fill="#263238"/>
<path d="M407.638 209.307C408.122 209.193 408.617 209.134 409.115 209.13C409.351 209.13 409.587 209.13 409.631 208.923C409.665 208.68 409.623 208.433 409.513 208.214L408.908 206.384C408.344 204.821 407.904 203.217 407.594 201.585C408.284 203.097 408.852 204.662 409.292 206.265C409.498 206.9 409.676 207.52 409.868 208.111C409.992 208.405 410.018 208.731 409.941 209.041C409.851 209.2 409.703 209.316 409.528 209.366C409.395 209.38 409.262 209.38 409.129 209.366C408.632 209.414 408.13 209.394 407.638 209.307V209.307Z" fill="#263238"/>
<path d="M407.682 220.292C404.513 220.15 401.445 219.127 398.823 217.339C398.823 217.339 400.964 222.108 407.682 221.857V220.292Z" fill="#EB996E"/>
<path d="M404.877 209.809C405.039 209.809 404.98 210.813 405.807 211.566C406.634 212.319 407.697 212.275 407.697 212.408C407.697 212.541 407.446 212.6 407.003 212.585C406.413 212.558 405.85 212.329 405.409 211.935C404.992 211.552 404.739 211.024 404.7 210.459C404.685 210.031 404.818 209.794 404.877 209.809Z" fill="#263238"/>
<path d="M413.278 198.824C413.116 199.046 412.407 198.824 411.58 198.824C410.754 198.824 410.104 199.031 409.883 198.824C409.661 198.617 409.883 198.499 410.207 198.293C410.615 198.037 411.085 197.899 411.566 197.894C412.05 197.881 412.527 198.009 412.939 198.263C413.249 198.529 413.352 198.721 413.278 198.824Z" fill="#263238"/>
<path d="M401.895 204.435C401.891 204.661 401.975 204.88 402.129 205.045C402.283 205.21 402.496 205.309 402.722 205.321C402.831 205.331 402.942 205.319 403.047 205.285C403.152 205.252 403.25 205.198 403.334 205.127C403.418 205.055 403.486 204.967 403.536 204.869C403.585 204.77 403.615 204.663 403.622 204.553C403.622 204.329 403.537 204.114 403.383 203.952C403.229 203.79 403.019 203.693 402.795 203.682C402.686 203.67 402.576 203.68 402.471 203.711C402.366 203.743 402.268 203.795 402.184 203.866C402.1 203.936 402.031 204.023 401.981 204.121C401.931 204.218 401.902 204.325 401.895 204.435V204.435Z" fill="#263238"/>
<path d="M400.773 201.984C400.876 202.102 401.54 201.629 402.47 201.644C403.401 201.659 404.065 202.131 404.168 202.028C404.272 201.924 404.168 201.777 403.814 201.555C403.42 201.267 402.944 201.111 402.456 201.112C401.977 201.097 401.506 201.237 401.112 201.511C400.817 201.733 400.713 201.924 400.773 201.984Z" fill="#263238"/>
<path d="M400.241 200.005C400.418 200.227 401.142 200.005 401.998 200.005C402.854 200.005 403.578 200.182 403.755 200.005C403.932 199.828 403.755 199.68 403.401 199.474C402.971 199.222 402.481 199.089 401.983 199.089C401.485 199.089 400.996 199.222 400.566 199.474C400.256 199.68 400.152 199.887 400.241 200.005Z" fill="#263238"/>
<path d="M394.852 206.93C394.852 206.428 394.379 205.217 393.877 205.114C392.578 204.833 390.201 204.819 389.994 208.155C389.714 212.718 394.424 212.053 394.424 211.92C394.424 211.788 394.763 208.643 394.852 206.93Z" fill="#FFBE9D"/>
<path d="M393.213 210.178C393.213 210.178 393.139 210.178 392.991 210.282C392.898 210.322 392.798 210.342 392.696 210.342C392.595 210.342 392.494 210.322 392.401 210.282C392.115 210.076 391.889 209.798 391.746 209.477C391.603 209.155 391.549 208.801 391.589 208.451C391.606 208.06 391.707 207.677 391.884 207.329C391.937 207.19 392.022 207.065 392.132 206.965C392.243 206.865 392.375 206.792 392.519 206.753C392.613 206.733 392.71 206.747 392.795 206.793C392.879 206.839 392.943 206.914 392.977 207.004C392.987 207.077 392.987 207.152 392.977 207.225C392.977 207.225 393.08 207.225 393.05 206.974C393.032 206.86 392.975 206.756 392.888 206.679C392.832 206.624 392.764 206.583 392.69 206.557C392.616 206.532 392.538 206.523 392.46 206.531C392.271 206.556 392.092 206.628 391.939 206.742C391.786 206.856 391.666 207.007 391.589 207.181C391.37 207.564 391.248 207.995 391.234 208.436C391.184 208.842 391.256 209.254 391.44 209.619C391.624 209.984 391.912 210.287 392.268 210.488C392.389 210.529 392.518 210.544 392.645 210.531C392.772 210.518 392.895 210.479 393.006 210.415C393.213 210.341 393.213 210.193 393.213 210.178Z" fill="#EB996E"/>
<path d="M393.7 205.128L394.852 206.324C399.872 201.541 409.69 189.537 409.144 190.245C406.853 189.4 404.387 189.136 401.968 189.478C398.233 190.112 391.16 191.973 391.264 196.358C391.484 199.415 392.312 202.396 393.7 205.128V205.128Z" fill="#263238"/>
<path d="M387.056 204.125C387.056 204.125 387.056 204.021 387.056 203.859C387.143 203.611 387.246 203.369 387.366 203.135C387.84 202.289 388.496 201.558 389.285 200.994C390.455 200.16 391.758 199.531 393.139 199.134C394.616 198.647 396.387 198.263 398.085 197.539C400.99 196.313 403.613 194.504 405.793 192.224C406.449 191.531 407.065 190.802 407.638 190.039L408.096 189.404C408.146 189.328 408.205 189.258 408.273 189.197L408.14 189.434C408.037 189.581 407.904 189.817 407.712 190.098C407.161 190.885 406.56 191.634 405.911 192.342C404.94 193.386 403.872 194.336 402.721 195.177C401.314 196.212 399.787 197.074 398.174 197.746C396.546 198.37 394.885 198.902 393.198 199.341C391.838 199.72 390.55 200.324 389.389 201.127C388.606 201.667 387.946 202.366 387.455 203.18C387.299 203.484 387.165 203.8 387.056 204.125V204.125Z" fill="#455A64"/>
<path d="M388.385 204.833C388.374 204.495 388.434 204.157 388.562 203.844C388.903 202.969 389.5 202.218 390.275 201.688C391.438 200.946 392.738 200.444 394.099 200.212C395.73 199.901 397.32 199.405 398.838 198.735C400.349 198.049 401.767 197.176 403.061 196.137C404.134 195.283 405.123 194.329 406.014 193.287C406.601 192.586 407.138 191.846 407.624 191.072C407.786 190.821 407.919 190.6 408.007 190.437C408.053 190.358 408.108 190.283 408.17 190.216C408.138 190.298 408.099 190.377 408.052 190.452L407.697 191.116C407.244 191.919 406.72 192.68 406.132 193.39C405.26 194.48 404.269 195.471 403.179 196.343C401.873 197.404 400.44 198.297 398.912 199.001C397.375 199.677 395.765 200.172 394.114 200.477C392.777 200.728 391.499 201.229 390.349 201.954C389.583 202.453 388.982 203.167 388.621 204.006C388.518 204.274 388.439 204.551 388.385 204.833V204.833Z" fill="#455A64"/>
<path d="M385.712 246.087C385.496 243.177 385.496 240.255 385.712 237.346C385.909 240.256 385.909 243.176 385.712 246.087V246.087Z" fill="#263238"/>
<path d="M417.043 245.466C417.005 244.975 417.005 244.481 417.043 243.99C417.132 242.758 417.088 241.521 416.911 240.298C416.681 239.079 416.324 237.886 415.847 236.74C415.624 236.266 415.446 235.772 415.316 235.264C415.605 235.695 415.847 236.155 416.039 236.637C416.586 237.776 416.978 238.982 417.206 240.225C417.382 241.474 417.382 242.741 417.206 243.99C417.214 244.487 417.159 244.983 417.043 245.466V245.466Z" fill="#263238"/>
<path d="M576.416 258.43H463.538C460.849 258.426 458.271 257.356 456.37 255.455C454.468 253.553 453.399 250.975 453.395 248.286V200.891L440.948 189.847H576.416C577.755 189.837 579.083 190.093 580.324 190.599C581.564 191.105 582.691 191.852 583.641 192.797C584.591 193.741 585.345 194.865 585.858 196.102C586.372 197.339 586.635 198.666 586.633 200.005V248.286C586.631 249.624 586.365 250.948 585.85 252.183C585.335 253.418 584.581 254.538 583.632 255.481C582.682 256.423 581.556 257.169 580.318 257.675C579.08 258.181 577.753 258.438 576.416 258.43V258.43Z" fill="#EBEBEB"/>
<path d="M568.679 266.108C564.675 266.488 560.651 266.616 556.631 266.492C552.616 266.616 548.597 266.488 544.597 266.108C548.597 265.728 552.616 265.599 556.631 265.724C560.651 265.599 564.675 265.727 568.679 266.108V266.108Z" fill="#E0E0E0"/>
<path d="M573.655 267.052C573.605 267.052 573.555 267.041 573.51 267.021C573.464 267 573.423 266.971 573.389 266.934L571.056 264.498C570.988 264.429 570.95 264.336 570.95 264.24C570.95 264.143 570.988 264.05 571.056 263.981C571.089 263.946 571.129 263.918 571.174 263.899C571.218 263.879 571.266 263.869 571.314 263.869C571.363 263.869 571.411 263.879 571.455 263.899C571.5 263.918 571.54 263.946 571.573 263.981L573.64 266.137L578.173 261.53C578.206 261.495 578.246 261.467 578.29 261.448C578.335 261.428 578.383 261.418 578.431 261.418C578.479 261.418 578.527 261.428 578.572 261.448C578.616 261.467 578.656 261.495 578.689 261.53C578.757 261.599 578.795 261.692 578.795 261.789C578.795 261.885 578.757 261.978 578.689 262.047L573.891 266.934C573.826 266.998 573.744 267.039 573.655 267.052Z" fill="#FF725E"/>
<path d="M576.977 266.979H576.549C576.451 266.979 576.357 266.94 576.288 266.871C576.218 266.801 576.179 266.707 576.179 266.61C576.19 266.513 576.234 266.422 576.304 266.355C576.374 266.287 576.466 266.247 576.563 266.24H576.829L581.51 261.471C581.544 261.436 581.585 261.407 581.631 261.388C581.677 261.368 581.726 261.358 581.775 261.358C581.825 261.358 581.874 261.368 581.92 261.388C581.965 261.407 582.007 261.436 582.041 261.471C582.109 261.54 582.147 261.633 582.147 261.73C582.147 261.826 582.109 261.919 582.041 261.988L577.243 266.861C577.21 266.899 577.169 266.929 577.123 266.949C577.077 266.97 577.027 266.98 576.977 266.979V266.979Z" fill="#FF725E"/>
<path d="M568.679 451.658C564.675 452.038 560.651 452.167 556.631 452.042C552.616 452.166 548.597 452.038 544.597 451.658C548.597 451.278 552.616 451.15 556.631 451.274C560.651 451.149 564.675 451.278 568.679 451.658Z" fill="#E0E0E0"/>
<path d="M573.655 452.603C573.597 452.609 573.539 452.601 573.486 452.581C573.432 452.56 573.384 452.527 573.345 452.485L571.012 450.049C570.971 450.016 570.937 449.974 570.913 449.927C570.889 449.88 570.876 449.828 570.874 449.776C570.871 449.723 570.881 449.67 570.901 449.621C570.92 449.573 570.951 449.528 570.989 449.492C571.027 449.456 571.073 449.428 571.123 449.411C571.173 449.394 571.226 449.388 571.279 449.393C571.331 449.398 571.382 449.415 571.428 449.441C571.473 449.468 571.513 449.504 571.543 449.547L573.61 451.702L578.143 447.096C578.176 447.06 578.216 447.032 578.261 447.013C578.305 446.994 578.353 446.984 578.402 446.984C578.45 446.984 578.498 446.994 578.542 447.013C578.587 447.032 578.627 447.06 578.66 447.096C578.728 447.165 578.766 447.258 578.766 447.354C578.766 447.451 578.728 447.544 578.66 447.613L573.92 452.485C573.848 452.554 573.754 452.596 573.655 452.603Z" fill="#FF725E"/>
<path d="M576.977 452.485H576.549C576.449 452.481 576.355 452.439 576.287 452.368C576.218 452.296 576.179 452.2 576.179 452.101C576.179 452.052 576.189 452.003 576.209 451.958C576.229 451.913 576.257 451.873 576.293 451.84C576.33 451.806 576.372 451.781 576.419 451.765C576.465 451.749 576.514 451.743 576.563 451.747H576.829L581.51 446.978C581.544 446.942 581.585 446.914 581.631 446.894C581.677 446.875 581.726 446.865 581.775 446.865C581.825 446.865 581.874 446.875 581.92 446.894C581.965 446.914 582.007 446.942 582.041 446.978C582.109 447.047 582.147 447.14 582.147 447.236C582.147 447.333 582.109 447.425 582.041 447.494L577.243 452.367C577.21 452.405 577.169 452.435 577.123 452.456C577.077 452.476 577.027 452.486 576.977 452.485V452.485Z" fill="#FF725E"/>
<path d="M574.969 203.416C574.969 203.623 550.326 203.8 519.925 203.8C489.524 203.8 464.896 203.623 464.896 203.416C464.896 203.209 489.524 203.032 519.925 203.032C550.326 203.032 574.969 203.195 574.969 203.416Z" fill="white"/>
<path d="M574.969 211.492C574.969 211.714 550.326 211.876 519.925 211.876C489.524 211.876 464.896 211.714 464.896 211.492C464.896 211.271 489.524 211.108 519.925 211.108C550.326 211.108 574.969 211.286 574.969 211.492Z" fill="white"/>
<path d="M574.969 219.584C574.969 219.79 550.326 219.967 519.925 219.967C489.524 219.967 464.896 219.79 464.896 219.584C464.896 219.377 489.524 219.2 519.925 219.2C550.326 219.2 574.969 219.377 574.969 219.584Z" fill="white"/>
<path d="M400.507 455.586C418.797 455.586 433.624 440.792 433.624 422.542C433.624 404.292 418.797 389.498 400.507 389.498C382.216 389.498 367.389 404.292 367.389 422.542C367.389 440.792 382.216 455.586 400.507 455.586Z" fill="#E0E0E0"/>
<path d="M385.033 430.81L393.715 430.072L414.888 433.645L417.383 449.532L417.029 451.378C412.261 454.073 406.9 455.55 401.424 455.676C395.948 455.802 390.526 454.574 385.639 452.101L385.033 430.766" fill="#455A64"/>
<path d="M410.355 433.379C412.454 433.076 414.597 433.368 416.539 434.221C418.48 435.075 420.144 436.456 421.34 438.207C422.777 440.214 424.094 442.304 425.282 444.468C421.827 448.218 419.022 451.067 414.238 452.721L410.355 433.379Z" fill="#455A64"/>
<path d="M385.033 430.81C385.033 430.81 379.304 431.504 377.09 436.391C374.875 441.278 374.358 442.814 374.358 442.814C377.311 446.372 381.091 450.595 385.712 452.175C385.712 452.175 386.761 439.876 386.894 436.391C387.056 432.582 387.204 430.692 385.033 430.81Z" fill="#455A64"/>
<path d="M390.26 399.509C391.701 397.658 393.54 396.155 395.641 395.112C397.742 394.069 400.051 393.513 402.397 393.485C404.413 393.473 406.414 393.828 408.303 394.533C410.288 395.015 412.042 396.174 413.264 397.811C414.766 399.747 415.752 402.033 416.128 404.455C416.474 406.939 416.593 409.45 416.482 411.956C416.364 414.47 415.551 416.903 414.135 418.984L407.771 420.091C404.262 420.364 400.733 420.175 397.273 419.53C393.776 418.859 390.687 416.831 388.68 413.89C386.126 409.667 387.189 403.274 390.26 399.509Z" fill="#263238"/>
<path d="M384.118 417.95C384.181 417.229 384.408 416.533 384.781 415.913C385.155 415.294 385.665 414.769 386.273 414.377C386.892 414 387.615 413.829 388.337 413.89C389.059 413.951 389.743 414.241 390.289 414.717L391.294 415.912C392.07 416.269 392.715 416.859 393.138 417.6C393.562 418.342 393.743 419.197 393.656 420.047C393.535 420.893 393.177 421.687 392.623 422.338C392.069 422.989 391.342 423.469 390.526 423.723C389.703 423.953 388.835 423.967 388.006 423.766C387.176 423.564 386.412 423.153 385.786 422.571C385.172 421.981 384.702 421.257 384.413 420.455C384.124 419.654 384.023 418.797 384.118 417.95V417.95Z" fill="#263238"/>
<path d="M385.373 422.232C385.136 421.851 385.018 421.409 385.033 420.962C385.246 419.891 385.758 418.903 386.51 418.112C387.218 417.271 388.086 416.578 389.064 416.075C389.802 415.676 390.319 415.528 390.304 415.469C389.834 415.513 389.378 415.648 388.961 415.868C387.925 416.34 387.007 417.036 386.273 417.905C385.864 418.381 385.516 418.907 385.24 419.471C384.996 419.927 384.855 420.431 384.826 420.947C384.821 421.302 384.919 421.65 385.107 421.951C385.24 422.173 385.373 422.246 385.373 422.232Z" fill="#455A64"/>
<path d="M407.742 432.788V426.882C407.742 426.882 412.924 426.307 414.371 419.677C415.05 415.282 415.317 410.833 415.168 406.389C415.168 402.358 411.699 396.865 406.708 396.851L404.493 396.6L396.004 399.966C395.413 399.995 394.854 400.245 394.439 400.666C394.023 401.087 393.781 401.649 393.759 402.24L393.508 430.588L397.391 436.037C398.102 436.999 399.097 437.714 400.235 438.083C401.373 438.451 402.598 438.454 403.738 438.091C404.878 437.728 405.876 437.017 406.591 436.058C407.306 435.099 407.704 433.94 407.727 432.744L407.742 432.788Z" fill="#FFBE9D"/>
<path d="M404.331 417.596C404.377 417.254 404.551 416.943 404.818 416.725C405.061 416.521 405.363 416.401 405.68 416.382C405.996 416.364 406.31 416.448 406.575 416.621C406.847 416.833 407.058 417.112 407.187 417.431C407.317 417.749 407.36 418.096 407.313 418.437C407.165 418.641 406.975 418.81 406.756 418.935C406.537 419.059 406.294 419.136 406.044 419.161H405.807C405.413 419.152 405.035 419 404.744 418.733C404.593 418.587 404.477 418.409 404.406 418.212C404.334 418.015 404.308 417.804 404.331 417.596Z" fill="#EB996E"/>
<path d="M412.053 411.143C412.025 411.353 411.923 411.546 411.764 411.685C411.605 411.824 411.401 411.901 411.189 411.901C410.978 411.901 410.774 411.824 410.615 411.685C410.456 411.546 410.353 411.353 410.325 411.143C410.337 410.918 410.436 410.705 410.601 410.551C410.766 410.396 410.985 410.312 411.211 410.317C411.321 410.315 411.43 410.335 411.532 410.375C411.634 410.416 411.727 410.476 411.806 410.553C411.884 410.63 411.946 410.722 411.989 410.824C412.031 410.925 412.053 411.034 412.053 411.143Z" fill="#263238"/>
<path d="M413.47 408.943C413.352 409.047 412.717 408.53 411.802 408.486C410.886 408.441 410.163 408.855 410.074 408.737C409.986 408.619 410.148 408.486 410.458 408.294C410.871 408.031 411.359 407.912 411.846 407.954C412.327 407.973 412.789 408.149 413.16 408.456C413.426 408.692 413.515 408.899 413.47 408.943Z" fill="#263238"/>
<path d="M407.638 415.942C408.122 415.827 408.617 415.762 409.115 415.75C409.351 415.75 409.587 415.75 409.631 415.543C409.664 415.3 409.623 415.054 409.513 414.834C409.321 414.259 409.115 413.653 408.908 413.004C408.347 411.445 407.907 409.846 407.594 408.22C408.286 409.726 408.853 411.287 409.292 412.885C409.498 413.535 409.676 414.14 409.868 414.731C409.992 415.025 410.018 415.351 409.941 415.661C409.901 415.743 409.843 415.815 409.772 415.871C409.7 415.927 409.617 415.966 409.528 415.986C409.396 416.006 409.261 416.006 409.129 415.986C408.633 416.039 408.131 416.024 407.638 415.942V415.942Z" fill="#263238"/>
<path d="M407.682 426.912C404.52 426.789 401.454 425.792 398.823 424.033C398.823 424.033 400.964 428.802 407.682 428.551V426.912Z" fill="#EB996E"/>
<path d="M404.877 416.429C405.039 416.429 404.98 417.433 405.807 418.201C406.634 418.969 407.697 418.91 407.697 419.043C407.697 419.175 407.446 419.22 407.003 419.22C406.41 419.194 405.845 418.959 405.409 418.555C404.987 418.176 404.733 417.645 404.7 417.079C404.685 416.665 404.818 416.429 404.877 416.429Z" fill="#263238"/>
<path d="M413.278 405.459C413.116 405.68 412.407 405.459 411.58 405.459C410.754 405.459 410.104 405.665 409.883 405.459C409.661 405.252 409.883 405.134 410.207 404.927C410.611 404.664 411.084 404.526 411.566 404.528C412.05 404.508 412.529 404.637 412.939 404.897C413.249 405.134 413.352 405.355 413.278 405.459Z" fill="#263238"/>
<path d="M401.895 411.025C401.891 411.25 401.975 411.467 402.13 411.63C402.284 411.793 402.497 411.889 402.721 411.896C402.831 411.909 402.941 411.899 403.046 411.867C403.151 411.835 403.249 411.783 403.333 411.712C403.417 411.642 403.486 411.555 403.536 411.457C403.585 411.36 403.615 411.253 403.622 411.143C403.626 410.917 403.542 410.698 403.388 410.533C403.234 410.368 403.021 410.269 402.795 410.257C402.685 410.247 402.575 410.259 402.47 410.293C402.365 410.326 402.267 410.38 402.183 410.452C402.099 410.523 402.031 410.611 401.981 410.709C401.931 410.808 401.902 410.915 401.895 411.025V411.025Z" fill="#263238"/>
<path d="M400.773 408.604C400.876 408.722 401.54 408.249 402.47 408.279C403.401 408.308 404.065 408.766 404.168 408.648C404.272 408.53 404.168 408.397 403.814 408.175C403.417 407.893 402.943 407.738 402.456 407.732C401.976 407.729 401.507 407.873 401.112 408.146C400.817 408.353 400.713 408.559 400.773 408.604Z" fill="#263238"/>
<path d="M400.241 406.625C400.418 406.832 401.142 406.625 401.998 406.625C402.854 406.625 403.578 406.788 403.755 406.625C403.932 406.463 403.755 406.315 403.401 406.109C402.971 405.857 402.481 405.724 401.983 405.724C401.485 405.724 400.996 405.857 400.566 406.109C400.256 406.301 400.152 406.522 400.241 406.625Z" fill="#263238"/>
<path d="M394.852 412.989C394.852 412.487 394.379 411.291 393.877 411.188C392.578 410.907 390.201 410.878 389.994 414.214C389.714 418.777 394.424 418.127 394.424 417.994C394.424 417.861 394.763 414.716 394.852 412.989Z" fill="#FFBE9D"/>
<path d="M393.213 416.252C393.213 416.252 393.139 416.252 392.991 416.355C392.801 416.428 392.591 416.428 392.401 416.355C392.116 416.152 391.891 415.877 391.748 415.557C391.605 415.238 391.55 414.887 391.589 414.539C391.604 414.148 391.705 413.765 391.884 413.417C391.937 413.278 392.022 413.153 392.133 413.053C392.243 412.953 392.375 412.88 392.519 412.841C392.611 412.823 392.706 412.836 392.789 412.879C392.872 412.922 392.938 412.992 392.977 413.077C392.989 413.155 392.989 413.235 392.977 413.313C392.977 413.313 393.08 413.24 393.051 413.048C393.029 412.935 392.972 412.831 392.888 412.752C392.829 412.703 392.761 412.665 392.687 412.643C392.614 412.62 392.537 412.612 392.46 412.62C392.27 412.641 392.09 412.712 391.937 412.827C391.783 412.941 391.663 413.093 391.589 413.269C391.368 413.652 391.247 414.083 391.234 414.524C391.185 414.928 391.257 415.337 391.442 415.7C391.626 416.063 391.913 416.363 392.268 416.562C392.383 416.618 392.509 416.647 392.637 416.647C392.765 416.647 392.891 416.618 393.006 416.562C393.213 416.355 393.213 416.252 393.213 416.252Z" fill="#EB996E"/>
<path d="M393.7 411.143L394.852 412.354C399.872 407.555 409.69 395.552 409.144 396.275C406.855 395.418 404.388 395.149 401.968 395.492C398.233 396.127 391.16 397.988 391.264 402.388C391.485 405.439 392.313 408.416 393.7 411.143Z" fill="#263238"/>
<path d="M387.056 410.184C387.056 410.184 387.056 410.095 387.056 409.918C387.146 409.676 387.25 409.439 387.366 409.209C387.843 408.36 388.498 407.625 389.285 407.053C390.481 406.227 391.809 405.613 393.213 405.237C394.689 404.735 396.461 404.351 398.159 403.628C399.758 402.964 401.274 402.117 402.677 401.103C403.822 400.277 404.89 399.348 405.866 398.327C406.693 397.441 407.343 396.674 407.712 396.142C407.889 395.876 408.052 395.67 408.17 395.507C408.288 395.345 408.332 395.286 408.347 395.301L408.214 395.537L407.786 396.186C407.243 396.979 406.641 397.729 405.985 398.431C405.015 399.48 403.947 400.434 402.795 401.28C401.378 402.285 399.847 403.118 398.233 403.761C396.52 404.484 394.778 404.868 393.257 405.355C391.898 405.73 390.61 406.329 389.448 407.127C388.664 407.671 388.005 408.376 387.514 409.194C387.341 409.514 387.188 409.845 387.056 410.184V410.184Z" fill="#455A64"/>
<path d="M388.385 410.907C388.374 410.563 388.434 410.222 388.562 409.903C388.9 409.03 389.498 408.283 390.275 407.762C391.438 407.019 392.738 406.517 394.099 406.285C395.728 405.967 397.317 405.472 398.838 404.809C400.349 404.122 401.767 403.249 403.061 402.21C404.84 400.786 406.367 399.075 407.579 397.146C407.742 396.88 407.874 396.673 407.963 396.496C408.011 396.423 408.065 396.353 408.126 396.29C408.094 396.372 408.054 396.451 408.007 396.526L407.653 397.19C407.2 397.993 406.676 398.754 406.088 399.464C405.215 400.554 404.225 401.544 403.135 402.417C401.832 403.478 400.398 404.366 398.868 405.06C397.328 405.728 395.719 406.224 394.069 406.536C392.729 406.773 391.449 407.275 390.304 408.013C389.53 408.502 388.927 409.219 388.577 410.065C388.487 410.339 388.422 410.621 388.385 410.907Z" fill="#455A64"/>
<path d="M385.712 452.145C385.496 449.241 385.496 446.324 385.712 443.419C385.909 446.325 385.909 449.24 385.712 452.145V452.145Z" fill="#263238"/>
<path d="M417.043 451.54C417.001 451.024 417.001 450.506 417.043 449.99C417.132 448.753 417.088 447.511 416.911 446.284C416.679 445.069 416.323 443.882 415.847 442.74C415.627 442.265 415.449 441.771 415.316 441.264C415.605 441.695 415.847 442.155 416.039 442.637C416.588 443.775 416.981 444.982 417.206 446.225C417.382 447.474 417.382 448.741 417.206 449.99C417.218 450.511 417.164 451.032 417.043 451.54V451.54Z" fill="#263238"/>
<path d="M576.416 441.972H463.538C460.846 441.968 458.267 440.896 456.365 438.992C454.463 437.087 453.395 434.506 453.395 431.814V406.95L440.948 395.906H576.416C579.105 395.91 581.683 396.98 583.584 398.881C585.485 400.782 586.555 403.36 586.559 406.049V431.814C586.559 434.506 585.491 437.087 583.589 438.992C581.687 440.896 579.107 441.968 576.416 441.972V441.972Z" fill="#EBEBEB"/>
<path d="M574.969 409.475C574.969 409.696 550.326 409.859 519.925 409.859C489.524 409.859 464.896 409.696 464.896 409.475C464.896 409.253 489.524 409.091 519.925 409.091C550.326 409.091 574.969 409.268 574.969 409.475Z" fill="white"/>
<path d="M574.969 417.566C574.969 417.773 550.326 417.95 519.925 417.95C489.524 417.95 464.896 417.773 464.896 417.566C464.896 417.359 489.524 417.182 519.925 417.182C550.326 417.182 574.969 417.359 574.969 417.566Z" fill="white"/>
<path d="M574.969 425.657C574.969 425.864 550.326 426.041 519.925 426.041C489.524 426.041 464.896 425.864 464.896 425.657C464.896 425.451 489.524 425.273 519.925 425.273C550.326 425.273 574.969 425.436 574.969 425.657Z" fill="white"/>
<path d="M574.969 227.674C574.969 227.881 550.326 228.058 519.925 228.058C489.524 228.058 464.896 227.881 464.896 227.674C464.896 227.468 489.524 227.291 519.925 227.291C550.326 227.291 574.969 227.453 574.969 227.674Z" fill="white"/>
<path d="M574.969 235.751C574.969 235.973 550.326 236.135 519.925 236.135C489.524 236.135 464.896 235.973 464.896 235.751C464.896 235.53 489.524 235.367 519.925 235.367C550.326 235.367 574.969 235.544 574.969 235.751Z" fill="white"/>
<path d="M574.969 245.466C574.969 245.688 550.326 245.85 519.925 245.85C489.524 245.85 464.896 245.688 464.896 245.466C464.896 245.245 489.524 245.083 519.925 245.083C550.326 245.083 574.969 245.26 574.969 245.466Z" fill="white"/>
<path d="M465.561 104.964C465.64 103.816 466.052 102.717 466.747 101.801C467.441 100.884 468.389 100.191 469.472 99.805C470.555 99.4193 471.728 99.3583 472.846 99.6294C473.963 99.9006 474.977 100.492 475.763 101.332L474.183 102.808C473.857 102.412 473.446 102.095 472.981 101.878C472.517 101.66 472.009 101.55 471.496 101.553C470.588 101.553 469.717 101.914 469.074 102.556C468.432 103.199 468.071 104.07 468.071 104.978C468.071 105.887 468.432 106.758 469.074 107.401C469.717 108.043 470.588 108.404 471.496 108.404C472.011 108.408 472.52 108.295 472.985 108.076C473.45 107.856 473.86 107.534 474.183 107.134L475.763 108.611C474.978 109.449 473.965 110.041 472.849 110.313C471.733 110.584 470.561 110.525 469.478 110.141C468.395 109.757 467.448 109.065 466.752 108.151C466.056 107.237 465.642 106.139 465.561 104.993V104.964Z" fill="#263238"/>
<path d="M485.582 105.599V110.309H483.279V105.968C483.279 104.639 482.659 104.033 481.61 104.033C480.562 104.033 479.647 104.742 479.647 106.248V110.309H477.255V98.9839H479.647V102.956C479.993 102.623 480.403 102.364 480.852 102.194C481.301 102.024 481.78 101.946 482.26 101.966C482.728 101.947 483.195 102.031 483.628 102.211C484.061 102.392 484.449 102.664 484.765 103.01C485.082 103.356 485.319 103.767 485.46 104.214C485.601 104.661 485.643 105.134 485.582 105.599Z" fill="#263238"/>
<path d="M495.002 105.628V110.309H492.773V109.29C492.496 109.688 492.116 110.004 491.674 110.204C491.233 110.405 490.745 110.481 490.263 110.427C488.343 110.427 487.206 109.364 487.206 107.946C487.206 106.529 488.225 105.48 490.735 105.48H492.625C492.625 104.462 492.005 103.871 490.735 103.871C489.883 103.862 489.05 104.126 488.358 104.624L487.502 102.97C488.555 102.288 489.79 101.938 491.045 101.966C493.614 101.966 495.002 103.133 495.002 105.628ZM492.625 107.71V106.868H490.986C489.879 106.868 489.51 107.282 489.51 107.843C489.51 108.404 490.012 108.832 490.853 108.832C491.23 108.86 491.606 108.767 491.925 108.564C492.244 108.362 492.49 108.063 492.625 107.71V107.71Z" fill="#263238"/>
<path d="M502.473 109.939C501.891 110.305 501.211 110.485 500.524 110.456C500.119 110.512 499.706 110.475 499.317 110.348C498.928 110.221 498.572 110.007 498.278 109.723C497.984 109.438 497.758 109.091 497.618 108.706C497.477 108.322 497.426 107.91 497.468 107.503V104.122H496.198V102.291H497.468V100.283H499.845V102.291H501.897V104.122H499.845V107.474C499.827 107.614 499.841 107.757 499.885 107.892C499.929 108.027 500.002 108.15 500.1 108.253C500.197 108.356 500.316 108.437 500.448 108.488C500.58 108.54 500.722 108.561 500.864 108.552C501.21 108.564 501.55 108.454 501.823 108.241L502.473 109.939Z" fill="#263238"/>
<path d="M544.597 121.441C544.597 121.648 519.497 121.825 488.387 121.825C457.278 121.825 432.192 121.648 432.192 121.441C432.192 121.234 457.292 121.042 488.387 121.042C519.482 121.042 544.597 121.22 544.597 121.441Z" fill="#263238"/>
<path d="M594.399 104.964C595.843 104.964 597.013 103.794 597.013 102.35C597.013 100.907 595.843 99.7368 594.399 99.7368C592.956 99.7368 591.786 100.907 591.786 102.35C591.786 103.794 592.956 104.964 594.399 104.964Z" fill="#263238"/>
<path d="M596.968 109.939C596.971 110.46 596.819 110.97 596.532 111.405C596.244 111.839 595.834 112.178 595.353 112.379C594.872 112.58 594.342 112.633 593.831 112.532C593.32 112.431 592.85 112.181 592.482 111.812C592.113 111.444 591.863 110.974 591.762 110.463C591.661 109.952 591.714 109.422 591.915 108.941C592.116 108.46 592.455 108.05 592.889 107.762C593.324 107.475 593.834 107.323 594.355 107.326C595.047 107.33 595.709 107.606 596.199 108.095C596.688 108.585 596.965 109.247 596.968 109.939V109.939Z" fill="#263238"/>
<path d="M596.968 117.602C596.971 118.123 596.819 118.633 596.532 119.068C596.244 119.502 595.834 119.841 595.353 120.042C594.872 120.243 594.342 120.296 593.831 120.195C593.32 120.094 592.85 119.844 592.482 119.475C592.113 119.107 591.863 118.637 591.762 118.126C591.661 117.615 591.714 117.085 591.915 116.604C592.116 116.124 592.455 115.713 592.889 115.426C593.324 115.138 593.834 114.986 594.355 114.989C595.048 114.989 595.713 115.264 596.203 115.754C596.693 116.244 596.968 116.909 596.968 117.602Z" fill="#263238"/>
<path d="M381.873 111.209C381.713 111.212 381.557 111.16 381.43 111.061L374.506 105.982C374.411 105.912 374.334 105.821 374.28 105.716C374.226 105.611 374.197 105.495 374.196 105.377C374.196 105.261 374.224 105.146 374.278 105.044C374.332 104.941 374.41 104.852 374.506 104.786L381.43 99.7956C381.51 99.739 381.599 99.6986 381.695 99.6768C381.79 99.6551 381.888 99.6523 381.984 99.6688C382.08 99.6853 382.172 99.7206 382.254 99.7728C382.337 99.825 382.408 99.893 382.464 99.9728C382.575 100.13 382.621 100.325 382.59 100.515C382.56 100.706 382.456 100.877 382.301 100.992L376.189 105.421L382.301 109.851C382.457 109.968 382.561 110.142 382.592 110.334C382.622 110.527 382.576 110.724 382.464 110.884C382.399 110.982 382.312 111.063 382.209 111.119C382.106 111.176 381.991 111.207 381.873 111.209V111.209Z" fill="#263238"/>
<path d="M562.581 359.466C580.871 359.466 595.699 344.672 595.699 326.422C595.699 308.173 580.871 293.378 562.581 293.378C544.291 293.378 529.463 308.173 529.463 326.422C529.463 344.672 544.291 359.466 562.581 359.466Z" fill="#E0E0E0"/>
<path d="M571.647 345.956H554.224C553.629 345.956 553.058 345.72 552.637 345.299C552.216 344.878 551.98 344.307 551.98 343.712C551.98 343.116 552.216 342.543 552.636 342.12C553.057 341.697 553.627 341.457 554.224 341.453H571.647C572.243 341.457 572.814 341.697 573.234 342.12C573.655 342.543 573.891 343.116 573.891 343.712V343.712C573.891 344.307 573.654 344.878 573.234 345.299C572.813 345.72 572.242 345.956 571.647 345.956V345.956Z" fill="#263238"/>
<path d="M563.925 304.939H562.389V312.676H563.925V304.939Z" fill="#263238"/>
<path d="M540.581 335.872C543.06 335.872 545.07 333.862 545.07 331.383C545.07 328.904 543.06 326.895 540.581 326.895C538.102 326.895 536.093 328.904 536.093 331.383C536.093 333.862 538.102 335.872 540.581 335.872Z" fill="#FF725E"/>
<path d="M585.968 335.577C588.447 335.577 590.457 333.567 590.457 331.088C590.457 328.609 588.447 326.6 585.968 326.6C583.49 326.6 581.48 328.609 581.48 331.088C581.48 333.567 583.49 335.577 585.968 335.577Z" fill="#FF725E"/>
<path d="M563.821 311.052C563.821 311.052 582.1 310.83 584.994 326.673C587.888 342.516 572.429 342.796 567.985 343.092C565.977 343.224 561.666 343.239 557.856 343.18C549.426 343.033 543.475 341.408 541.453 333.583C541.21 332.665 541.057 331.725 540.995 330.778C540.463 322.214 546.251 310.638 563.821 311.052Z" fill="#FF725E"/>
<path d="M550.562 335.163L577.139 335.577C578.476 335.596 579.766 335.085 580.727 334.155C581.687 333.225 582.239 331.952 582.263 330.616C582.279 329.279 581.764 327.99 580.831 327.033C579.898 326.075 578.624 325.526 577.287 325.507L550.71 325.094C550.048 325.082 549.389 325.201 548.773 325.444C548.157 325.687 547.595 326.05 547.119 326.511C546.643 326.971 546.262 327.522 545.999 328.13C545.737 328.738 545.596 329.392 545.587 330.055V330.055C545.577 330.717 545.698 331.375 545.943 331.99C546.188 332.606 546.552 333.167 547.014 333.642C547.476 334.116 548.028 334.495 548.637 334.756C549.246 335.017 549.9 335.156 550.562 335.163Z" fill="#263238"/>
<path d="M571.617 330.069C571.656 330.278 571.736 330.477 571.852 330.655C571.969 330.833 572.119 330.986 572.295 331.105C572.47 331.225 572.668 331.308 572.876 331.351C573.084 331.393 573.299 331.394 573.507 331.354C573.732 331.331 573.949 331.262 574.146 331.15C574.342 331.039 574.513 330.887 574.648 330.706C574.783 330.525 574.878 330.317 574.928 330.097C574.978 329.877 574.981 329.648 574.938 329.427C574.895 329.205 574.806 328.995 574.676 328.809C574.547 328.624 574.381 328.468 574.188 328.35C573.995 328.233 573.779 328.157 573.555 328.128C573.331 328.098 573.104 328.116 572.887 328.179C572.679 328.22 572.482 328.301 572.306 328.418C572.13 328.535 571.978 328.686 571.86 328.861C571.743 329.037 571.66 329.234 571.619 329.441C571.577 329.648 571.576 329.862 571.617 330.069Z" fill="white"/>
<path d="M553.058 329.774C553.08 329.998 553.15 330.216 553.261 330.412C553.373 330.609 553.524 330.78 553.706 330.915C553.887 331.049 554.094 331.145 554.315 331.194C554.535 331.244 554.763 331.248 554.985 331.204C555.207 331.161 555.417 331.072 555.602 330.943C555.788 330.814 555.944 330.647 556.061 330.454C556.179 330.261 556.255 330.046 556.284 329.822C556.313 329.598 556.296 329.37 556.232 329.154C556.118 328.765 555.863 328.433 555.518 328.223C555.172 328.012 554.76 327.939 554.362 328.016C553.965 328.094 553.611 328.317 553.37 328.642C553.128 328.967 553.017 329.371 553.058 329.774V329.774Z" fill="white"/>
<path d="M565.682 304.836C565.685 305.336 565.539 305.826 565.263 306.243C564.988 306.66 564.594 306.986 564.133 307.179C563.672 307.373 563.164 307.425 562.673 307.329C562.183 307.233 561.731 306.994 561.377 306.641C561.022 306.289 560.78 305.839 560.682 305.349C560.583 304.859 560.632 304.35 560.823 303.888C561.014 303.426 561.337 303.031 561.753 302.753C562.168 302.475 562.657 302.326 563.157 302.326C563.824 302.326 564.464 302.59 564.937 303.06C565.41 303.531 565.678 304.169 565.682 304.836V304.836Z" fill="#FF725E"/>
<path d="M566.966 329.331C566.966 329.331 567.07 329.449 567.129 329.715C567.175 330.092 567.139 330.475 567.025 330.837C566.863 331.398 566.558 331.907 566.139 332.314C565.628 332.825 564.954 333.143 564.235 333.214C563.515 333.274 562.796 333.087 562.197 332.683C561.723 332.361 561.333 331.931 561.06 331.428C560.885 331.089 560.785 330.716 560.765 330.335C560.765 330.069 560.765 329.922 560.853 329.922C560.942 329.922 561.001 330.483 561.488 331.177C561.773 331.561 562.129 331.887 562.537 332.136C563.03 332.43 563.603 332.564 564.176 332.52C564.726 332.45 565.241 332.213 565.652 331.841C566.024 331.532 566.322 331.144 566.523 330.704C566.907 329.936 566.848 329.331 566.966 329.331Z" fill="white"/>
<path d="M584.965 326.156C585.02 326.28 585.064 326.409 585.097 326.54C585.155 326.695 585.204 326.853 585.245 327.013C585.245 327.19 585.348 327.396 585.393 327.647C585.506 328.198 585.584 328.755 585.629 329.316C585.68 330.004 585.68 330.695 585.629 331.383C585.567 332.07 585.454 332.751 585.289 333.421C585.15 333.964 584.973 334.497 584.758 335.015C584.685 335.221 584.601 335.423 584.507 335.621C584.442 335.768 584.368 335.911 584.285 336.049L584.079 336.418C584.111 336.282 584.166 336.152 584.241 336.034L584.433 335.576C584.507 335.399 584.595 335.207 584.669 334.986C584.868 334.466 585.031 333.933 585.156 333.391C585.314 332.725 585.427 332.049 585.496 331.368C585.54 330.685 585.54 329.999 585.496 329.316C585.459 328.761 585.39 328.209 585.289 327.662C585.258 327.433 585.214 327.207 585.156 326.983C585.156 326.791 585.083 326.643 585.053 326.511C585.008 326.397 584.978 326.278 584.965 326.156V326.156Z" fill="#263238"/>
<path d="M541.659 326.245C541.596 326.372 541.546 326.506 541.511 326.644C541.511 326.762 541.423 326.924 541.364 327.101C541.305 327.279 541.26 327.5 541.216 327.736C541.103 328.287 541.029 328.844 540.995 329.405C540.943 330.093 540.943 330.784 540.995 331.472C541.054 332.159 541.167 332.84 541.334 333.509C541.471 334.058 541.649 334.596 541.866 335.119C541.94 335.34 542.043 335.532 542.117 335.709C542.191 335.887 542.279 336.034 542.338 336.152L542.545 336.507C542.506 336.373 542.452 336.244 542.383 336.123C542.383 336.005 542.264 335.857 542.191 335.68C542.117 335.503 542.028 335.311 541.954 335.089C541.756 334.564 541.593 334.027 541.467 333.48C541.308 332.814 541.195 332.138 541.128 331.457C541.084 330.779 541.084 330.098 541.128 329.42C541.164 328.86 541.234 328.303 541.334 327.751C541.365 327.542 541.41 327.335 541.467 327.131C541.467 326.939 541.541 326.777 541.57 326.659C541.6 326.54 541.659 326.245 541.659 326.245Z" fill="#263238"/>
<path d="M545.601 354.801C545.601 354.801 551.035 349.5 562.389 349.5C573.743 349.5 579.561 354.801 579.561 354.801C574.437 357.892 568.566 359.526 562.581 359.526C556.596 359.526 550.725 357.892 545.601 354.801Z" fill="#FF725E"/>
<path d="M381.401 360.116H494.264C495.597 360.118 496.916 359.857 498.148 359.348C499.38 358.839 500.498 358.092 501.441 357.149C502.383 356.207 503.13 355.088 503.639 353.856C504.148 352.625 504.409 351.305 504.407 349.972V317.224L516.854 306.18H381.401C380.069 306.18 378.75 306.442 377.519 306.952C376.289 307.462 375.17 308.209 374.229 309.151C373.287 310.093 372.539 311.211 372.03 312.441C371.52 313.672 371.258 314.991 371.258 316.323V349.972C371.256 351.305 371.517 352.625 372.026 353.856C372.535 355.088 373.282 356.207 374.224 357.149C375.167 358.092 376.285 358.839 377.517 359.348C378.749 359.857 380.068 360.118 381.401 360.116V360.116Z" fill="#EBEBEB"/>
<path d="M489.185 322.185C489.185 322.406 465.945 322.569 437.271 322.569C408.598 322.569 385.358 322.406 385.358 322.185C385.358 321.963 408.598 321.801 437.271 321.801C465.945 321.801 489.185 321.978 489.185 322.185Z" fill="white"/>
<path d="M489.185 330.955C489.185 331.177 465.945 331.339 437.271 331.339C408.598 331.339 385.358 331.177 385.358 330.955C385.358 330.734 408.598 330.571 437.271 330.571C465.945 330.571 489.185 330.748 489.185 330.955Z" fill="white"/>
<path d="M489.185 339.725C489.185 339.932 465.945 340.109 437.271 340.109C408.598 340.109 385.358 339.932 385.358 339.725C385.358 339.519 408.598 339.341 437.271 339.341C465.945 339.341 489.185 339.519 489.185 339.725Z" fill="white"/>
<path d="M489.185 348.496C489.185 348.702 465.945 348.88 437.271 348.88C408.598 348.88 385.358 348.702 385.358 348.496C385.358 348.289 408.598 348.112 437.271 348.112C465.945 348.112 489.185 348.274 489.185 348.496Z" fill="white"/>
<path d="M562.581 542.964C580.871 542.964 595.699 528.17 595.699 509.92C595.699 491.671 580.871 476.876 562.581 476.876C544.291 476.876 529.463 491.671 529.463 509.92C529.463 528.17 544.291 542.964 562.581 542.964Z" fill="#E0E0E0"/>
<path d="M571.647 529.454H554.224C553.928 529.454 553.635 529.396 553.362 529.282C553.089 529.169 552.84 529.002 552.632 528.792C552.423 528.582 552.258 528.333 552.146 528.059C552.034 527.785 551.978 527.491 551.98 527.195C551.98 526.6 552.216 526.029 552.637 525.609C553.058 525.188 553.629 524.951 554.224 524.951H571.647C572.242 524.951 572.813 525.188 573.234 525.609C573.654 526.029 573.891 526.6 573.891 527.195C573.893 527.491 573.836 527.785 573.724 528.059C573.612 528.333 573.447 528.582 573.239 528.792C573.03 529.002 572.782 529.169 572.509 529.282C572.236 529.396 571.943 529.454 571.647 529.454V529.454Z" fill="#263238"/>
<path d="M563.925 488.438H562.389V496.174H563.925V488.438Z" fill="#263238"/>
<path d="M540.581 519.37C543.06 519.37 545.07 517.361 545.07 514.882C545.07 512.403 543.06 510.393 540.581 510.393C538.102 510.393 536.093 512.403 536.093 514.882C536.093 517.361 538.102 519.37 540.581 519.37Z" fill="#FF725E"/>
<path d="M585.968 519.06C588.447 519.06 590.457 517.05 590.457 514.572C590.457 512.093 588.447 510.083 585.968 510.083C583.49 510.083 581.48 512.093 581.48 514.572C581.48 517.05 583.49 519.06 585.968 519.06Z" fill="#FF725E"/>
<path d="M563.821 494.55C563.821 494.55 582.1 494.329 584.994 510.157C587.888 525.985 572.429 526.295 567.985 526.59C565.977 526.723 561.666 526.738 557.856 526.679C549.426 526.531 543.475 524.892 541.453 517.081C541.21 516.163 541.057 515.224 540.995 514.276C540.463 505.712 546.251 494.122 563.821 494.55Z" fill="#FF725E"/>
<path d="M550.562 518.661L577.139 519.075C578.476 519.094 579.766 518.583 580.727 517.653C581.687 516.723 582.239 515.45 582.263 514.114V514.114C582.279 512.777 581.764 511.488 580.831 510.531C579.898 509.573 578.624 509.024 577.287 509.005L550.71 508.577C549.373 508.557 548.083 509.068 547.123 509.998C546.162 510.928 545.61 512.201 545.587 513.538V513.538C545.577 514.201 545.698 514.859 545.943 515.476C546.187 516.092 546.551 516.654 547.013 517.13C547.475 517.606 548.027 517.986 548.636 518.249C549.245 518.511 549.899 518.652 550.562 518.661V518.661Z" fill="#263238"/>
<path d="M571.617 513.567C571.653 513.778 571.73 513.979 571.844 514.16C571.957 514.34 572.105 514.497 572.279 514.62C572.454 514.744 572.65 514.831 572.858 514.879C573.067 514.926 573.282 514.932 573.492 514.896C573.703 514.86 573.904 514.783 574.085 514.67C574.265 514.556 574.422 514.408 574.545 514.234C574.668 514.06 574.756 513.863 574.804 513.655C574.851 513.447 574.857 513.231 574.821 513.021C574.798 512.796 574.729 512.579 574.618 512.382C574.506 512.186 574.355 512.015 574.173 511.88C573.992 511.745 573.784 511.65 573.564 511.6C573.344 511.55 573.116 511.547 572.894 511.59C572.672 511.633 572.462 511.723 572.276 511.852C572.091 511.981 571.935 512.147 571.817 512.34C571.7 512.533 571.624 512.749 571.595 512.973C571.565 513.197 571.583 513.424 571.647 513.641L571.617 513.567Z" fill="white"/>
<path d="M553.058 513.272C553.119 513.587 553.273 513.877 553.499 514.105C553.725 514.333 554.014 514.489 554.328 514.553C554.643 514.617 554.97 514.586 555.267 514.465C555.564 514.343 555.819 514.136 555.998 513.87C556.178 513.603 556.275 513.29 556.276 512.969C556.277 512.647 556.184 512.333 556.006 512.065C555.829 511.797 555.576 511.588 555.28 511.464C554.984 511.34 554.658 511.306 554.342 511.367C554.133 511.408 553.933 511.489 553.756 511.607C553.578 511.725 553.425 511.877 553.305 512.053C553.186 512.23 553.103 512.429 553.06 512.638C553.018 512.847 553.017 513.062 553.058 513.272V513.272Z" fill="white"/>
<path d="M565.682 488.275C565.682 488.774 565.534 489.262 565.256 489.678C564.979 490.093 564.584 490.416 564.123 490.607C563.662 490.798 563.154 490.849 562.664 490.751C562.175 490.654 561.725 490.413 561.372 490.06C561.018 489.707 560.778 489.257 560.681 488.767C560.583 488.278 560.633 487.77 560.824 487.309C561.015 486.847 561.339 486.453 561.754 486.175C562.169 485.898 562.658 485.75 563.157 485.75C563.827 485.75 564.469 486.016 564.942 486.49C565.416 486.963 565.682 487.605 565.682 488.275V488.275Z" fill="#FF725E"/>
<path d="M566.966 512.814C566.966 512.814 567.07 512.947 567.129 513.213C567.174 513.59 567.139 513.973 567.025 514.335C566.859 514.894 566.554 515.402 566.139 515.812C565.628 516.323 564.954 516.641 564.235 516.712C563.515 516.772 562.796 516.585 562.197 516.181C561.723 515.86 561.333 515.429 561.06 514.926C560.887 514.586 560.786 514.214 560.765 513.833C560.765 513.567 560.765 513.42 560.853 513.42C560.942 513.42 561.001 513.981 561.488 514.66C561.768 515.053 562.125 515.384 562.537 515.635C563.034 515.919 563.604 516.052 564.176 516.018C564.726 515.948 565.241 515.711 565.652 515.339C566.018 515.024 566.314 514.637 566.523 514.202C566.907 513.405 566.848 512.829 566.966 512.814Z" fill="white"/>
<path d="M584.965 509.64C584.965 509.64 584.965 509.787 585.097 510.038C585.157 510.192 585.207 510.35 585.245 510.511C585.245 510.688 585.348 510.895 585.393 511.131C585.503 511.682 585.582 512.239 585.629 512.799C585.68 513.487 585.68 514.178 585.629 514.866C585.57 515.554 585.456 516.235 585.289 516.904C585.152 517.453 584.975 517.991 584.758 518.513C584.685 518.715 584.601 518.912 584.507 519.104C584.445 519.257 584.371 519.405 584.285 519.547L584.079 519.901C584.117 519.767 584.172 519.638 584.241 519.517C584.241 519.399 584.359 519.252 584.433 519.074C584.507 518.897 584.595 518.705 584.669 518.484C584.87 517.96 585.032 517.422 585.156 516.874C585.315 516.214 585.429 515.543 585.496 514.866C585.54 514.183 585.54 513.498 585.496 512.814C585.46 512.259 585.391 511.707 585.289 511.16C585.258 510.946 585.214 510.734 585.156 510.526C585.156 510.334 585.083 510.186 585.053 510.053C585.002 509.921 584.973 509.781 584.965 509.64V509.64Z" fill="#263238"/>
<path d="M541.659 509.743C541.596 509.87 541.546 510.004 541.511 510.142C541.511 510.26 541.423 510.422 541.364 510.6C541.305 510.777 541.26 510.998 541.216 511.234C541.103 511.785 541.029 512.342 540.995 512.903C540.943 513.591 540.943 514.282 540.995 514.97C541.055 515.657 541.168 516.338 541.334 517.008C541.471 517.556 541.649 518.094 541.866 518.617C541.94 518.838 542.043 519.03 542.117 519.207C542.191 519.385 542.279 519.532 542.338 519.65L542.545 520.005C542.509 519.87 542.455 519.741 542.383 519.621C542.383 519.503 542.264 519.355 542.191 519.178C542.117 519.001 542.028 518.809 541.954 518.573C541.756 518.053 541.593 517.52 541.467 516.978C541.308 516.312 541.195 515.636 541.128 514.955C541.084 514.277 541.084 513.596 541.128 512.918C541.164 512.358 541.234 511.801 541.334 511.249C541.365 511.04 541.41 510.833 541.467 510.629C541.467 510.437 541.541 510.275 541.57 510.157C541.6 510.038 541.659 509.743 541.659 509.743Z" fill="#263238"/>
<path d="M545.601 538.299C545.601 538.299 551.035 532.998 562.389 532.998C573.743 532.998 579.561 538.299 579.561 538.299C574.437 541.39 568.566 543.024 562.581 543.024C556.596 543.024 550.725 541.39 545.601 538.299V538.299Z" fill="#FF725E"/>
<path d="M381.401 543.614H494.264C495.597 543.616 496.916 543.355 498.148 542.846C499.38 542.337 500.498 541.59 501.441 540.647C502.383 539.705 503.13 538.586 503.639 537.354C504.148 536.123 504.409 534.803 504.407 533.47V500.722L516.854 489.678H381.401C380.069 489.678 378.75 489.94 377.519 490.45C376.289 490.96 375.17 491.707 374.229 492.649C373.287 493.591 372.539 494.709 372.03 495.939C371.52 497.17 371.258 498.489 371.258 499.821V533.47C371.256 534.803 371.517 536.123 372.026 537.354C372.535 538.586 373.282 539.705 374.224 540.647C375.167 541.59 376.285 542.337 377.517 542.846C378.749 543.355 380.068 543.616 381.401 543.614V543.614Z" fill="#EBEBEB"/>
<path d="M381.401 594.833H494.264C495.597 594.833 496.917 594.571 498.149 594.06C499.381 593.549 500.5 592.801 501.442 591.857C502.384 590.914 503.131 589.794 503.64 588.561C504.148 587.329 504.409 586.008 504.407 584.675V573.823L516.854 562.779H381.401C380.069 562.779 378.75 563.041 377.519 563.551C376.289 564.061 375.17 564.808 374.229 565.75C373.287 566.692 372.539 567.81 372.03 569.041C371.52 570.271 371.258 571.59 371.258 572.922V584.734C371.269 587.417 372.343 589.985 374.244 591.878C376.145 593.771 378.718 594.833 381.401 594.833V594.833Z" fill="#EBEBEB"/>
<path d="M489.185 505.639C489.185 505.86 465.945 506.023 437.271 506.023C408.598 506.023 385.358 505.86 385.358 505.639C385.358 505.417 408.598 505.255 437.271 505.255C465.945 505.255 489.185 505.476 489.185 505.639Z" fill="white"/>
<path d="M489.185 514.498C489.185 514.704 465.945 514.882 437.271 514.882C408.598 514.882 385.358 514.704 385.358 514.498C385.358 514.291 408.598 514.114 437.271 514.114C465.945 514.114 489.185 514.247 489.185 514.498Z" fill="white"/>
<path d="M489.185 523.224C489.185 523.43 465.945 523.608 437.271 523.608C408.598 523.608 385.358 523.43 385.358 523.224C385.358 523.017 408.598 522.84 437.271 522.84C465.945 522.84 489.185 523.002 489.185 523.224Z" fill="white"/>
<path d="M489.185 531.994C489.185 532.2 465.945 532.378 437.271 532.378C408.598 532.378 385.358 532.2 385.358 531.994C385.358 531.787 408.598 531.61 437.271 531.61C465.945 531.61 489.185 531.772 489.185 531.994Z" fill="white"/>
<path d="M489.539 579.271C489.539 579.478 466.535 579.655 438.172 579.655C409.809 579.655 386.79 579.478 386.79 579.271C386.79 579.064 409.794 578.887 438.172 578.887C466.55 578.887 489.539 579.05 489.539 579.271Z" fill="white"/>
<path d="M111.853 557.892C113.842 558.371 115.713 559.247 117.355 560.467C118.996 561.688 120.374 563.227 121.406 564.994C123.447 568.55 124.653 572.523 124.935 576.614C125.688 584.469 122.956 593.136 119.56 600.238C111.897 595.956 108.339 586.432 106.833 581.486C104.456 573.676 104.899 558.099 111.853 557.862" fill="#455A64"/>
<path d="M129.748 611.341C128.833 609.248 128.488 606.951 128.747 604.682C129.006 602.413 129.861 600.253 131.224 598.421C132.628 596.618 134.377 595.113 136.37 593.995C138.363 592.877 140.559 592.168 142.83 591.91C143.849 591.69 144.903 591.69 145.922 591.912C146.941 592.133 147.9 592.571 148.736 593.195C149.415 593.915 149.888 594.805 150.106 595.771C150.324 596.737 150.279 597.744 149.976 598.687C149.349 600.565 148.239 602.246 146.757 603.56C141.9 608.255 136.333 611.902 129.6 611.341" fill="#455A64"/>
<path d="M126.441 636.633C126.353 636.097 126.319 635.553 126.337 635.009C126.337 633.857 126.337 632.366 126.219 630.58C125.918 625.684 126.417 620.772 127.696 616.036C129.068 611.287 131.683 606.991 135.27 603.589C136.368 602.579 137.583 601.701 138.887 600.976C139.236 600.777 139.596 600.6 139.965 600.445C140.087 600.37 140.223 600.32 140.364 600.297C138.644 601.33 137.032 602.532 135.551 603.885C132.085 607.297 129.544 611.534 128.168 616.199C126.898 620.882 126.335 625.73 126.5 630.58C126.5 632.455 126.5 633.961 126.5 635.009C126.52 635.551 126.5 636.094 126.441 636.633Z" fill="#263238"/>
<path d="M112.562 569.792C112.656 570.007 112.73 570.229 112.783 570.457C112.931 570.959 113.108 571.609 113.315 572.406C113.772 574.104 114.407 576.57 115.145 579.626C116.622 585.739 118.6 594.214 120.549 603.604C122.498 612.995 124.063 621.558 125.112 627.759C125.629 630.86 126.027 633.37 126.293 635.142C126.411 635.969 126.5 636.618 126.573 637.15C126.597 637.386 126.597 637.623 126.573 637.859C126.497 637.632 126.438 637.4 126.396 637.165C126.293 636.648 126.175 635.998 126.012 635.171C125.673 633.385 125.215 630.89 124.654 627.863C123.502 621.676 121.878 613.098 119.929 603.752C117.98 594.406 116.09 585.886 114.703 579.759C114.009 576.806 113.447 574.281 113.049 572.494C112.872 571.682 112.724 571.018 112.621 570.516C112.573 570.278 112.553 570.035 112.562 569.792V569.792Z" fill="#263238"/>
<path d="M119.56 618.384C117.785 613.91 114.971 609.922 111.351 606.749C107.732 603.576 103.41 601.309 98.7417 600.134C96.3645 599.558 93.4115 599.485 91.9646 601.463C90.5176 603.442 91.5364 606.247 92.88 608.299C95.7525 612.519 99.8068 615.797 104.535 617.723C109.262 619.648 114.453 620.135 119.457 619.122" fill="#455A64"/>
<path d="M101.34 607.118C101.84 607.18 102.334 607.284 102.817 607.428C103.401 607.564 103.978 607.732 104.544 607.93C105.194 608.166 106.021 608.373 106.774 608.742C107.527 609.111 108.486 609.466 109.387 609.968C110.376 610.469 111.333 611.031 112.252 611.651C114.368 613.055 116.316 614.7 118.054 616.553C119.759 618.431 121.245 620.497 122.484 622.71C123.029 623.666 123.522 624.652 123.96 625.663C124.338 626.55 124.668 627.457 124.949 628.38C125.245 629.206 125.363 630.004 125.54 630.683C125.681 631.267 125.79 631.859 125.865 632.455C125.955 632.942 126.005 633.436 126.012 633.931C125.88 633.931 125.643 631.776 124.536 628.453C124.244 627.555 123.903 626.673 123.517 625.811C123.079 624.8 122.586 623.814 122.041 622.858C120.788 620.694 119.303 618.674 117.611 616.833C115.895 615.021 113.995 613.393 111.941 611.976C110.967 611.356 110.052 610.75 109.136 610.293C108.309 609.822 107.456 609.398 106.582 609.023C103.437 607.723 101.296 607.236 101.34 607.118Z" fill="#263238"/>
<path d="M148.263 174.462L142.8 157.409C150.57 144.8 153.343 129.74 150.573 115.191C147.803 100.641 139.692 87.6536 127.832 78.7815C115.973 69.9094 101.223 65.7942 86.4837 67.2449C71.744 68.6956 58.0801 75.6072 48.1778 86.6212C38.2755 97.6351 32.8512 111.955 32.9711 126.765C33.0909 141.576 38.7463 155.805 48.8256 166.658C58.9048 177.51 72.6789 184.199 87.4401 185.411C102.201 186.623 116.882 182.27 128.596 173.207V173.207L148.263 174.462Z" fill="#FAFAFA"/>
<path d="M148.263 174.462H147.023L143.273 174.27L128.508 173.458C128.485 173.458 128.463 173.454 128.442 173.445C128.421 173.435 128.403 173.422 128.387 173.405C128.372 173.389 128.36 173.369 128.353 173.348C128.346 173.326 128.343 173.303 128.345 173.281C128.339 173.252 128.339 173.222 128.345 173.192L128.581 173.429C118.322 181.442 105.706 185.848 92.688 185.964C89.4003 185.946 86.1184 185.685 82.8694 185.181C67.7729 182.819 54.1756 174.708 44.9236 162.547C39.7708 155.701 36.1412 147.833 34.2781 139.469C32.2535 130.577 32.3344 121.335 34.5143 112.479C34.7949 111.357 35.0902 110.22 35.3855 109.098C35.6808 107.976 36.168 106.883 36.5519 105.776C36.926 104.656 37.3597 103.557 37.8512 102.483C38.3532 101.42 38.87 100.357 39.3277 99.2793C39.8358 98.2018 40.4179 97.1608 41.07 96.1639L42.9451 93.0928L45.1008 90.1398L46.1934 88.6633C46.5625 88.1908 46.9907 87.7626 47.3893 87.3049C53.7744 79.9637 61.8742 74.3136 70.9689 70.8568C79.6269 67.5579 88.9241 66.2802 98.1511 67.1213C106.821 67.9834 115.195 70.746 122.676 75.2125C135.97 83.1083 145.667 95.8714 149.71 110.796C150.564 113.994 151.176 117.251 151.541 120.541C151.777 123.616 151.832 126.702 151.703 129.784C151.138 139.604 148.122 149.126 142.933 157.482V157.35C144.675 162.901 146.004 167.183 146.92 170.106C147.362 171.583 147.687 172.602 147.924 173.355L148.248 174.447C148.248 174.447 148.101 174.049 147.85 173.31L146.772 170.047C145.827 167.094 144.424 162.931 142.623 157.453C142.607 157.41 142.607 157.363 142.623 157.32C147.715 148.983 150.652 139.51 151.172 129.754C151.285 126.701 151.216 123.644 150.965 120.6C150.596 117.339 149.979 114.111 149.119 110.944C145.953 99.4544 139.384 89.1922 130.277 81.5053C121.169 73.8184 109.95 69.0667 98.092 67.8743C88.9813 67.0405 79.8004 68.298 71.2494 71.5508C62.2929 74.978 54.3169 80.5557 48.0242 87.7922C47.6403 88.2499 47.2122 88.6633 46.843 89.1358L45.7652 90.6123L43.639 93.4619L41.8082 96.5035C41.1586 97.4968 40.5765 98.5327 40.0659 99.6041C39.5639 100.652 39.0619 101.715 38.5895 102.764C38.1078 103.823 37.6839 104.907 37.3197 106.012C36.9358 107.105 36.4781 108.182 36.1532 109.29C35.8284 110.397 35.5774 111.519 35.2969 112.627C33.156 121.346 33.065 130.443 35.0311 139.204C37.5895 150.708 43.5446 161.178 52.1243 169.258C60.7041 177.337 71.513 182.653 83.1499 184.517C86.3694 185.023 89.6213 185.294 92.88 185.329C95.9218 185.316 98.958 185.064 101.96 184.576C111.634 183 120.766 179.048 128.537 173.074C128.552 173.058 128.571 173.045 128.591 173.037C128.611 173.028 128.633 173.023 128.655 173.023C128.677 173.023 128.699 173.028 128.72 173.037C128.74 173.045 128.758 173.058 128.773 173.074C128.795 173.104 128.807 173.14 128.807 173.178C128.807 173.215 128.795 173.251 128.773 173.281V173.281L128.655 173.015L143.243 174.019L147.023 174.285L148.263 174.462Z" fill="#263238"/>
<path d="M75.6789 126.388C75.6789 127.576 75.3265 128.738 74.6662 129.726C74.0058 130.715 73.0673 131.485 71.9693 131.94C70.8712 132.394 69.6629 132.513 68.4972 132.282C67.3315 132.05 66.2608 131.477 65.4204 130.637C64.5799 129.797 64.0076 128.726 63.7757 127.56C63.5439 126.394 63.6629 125.186 64.1177 124.088C64.5725 122.99 65.3428 122.051 66.331 121.391C67.3192 120.731 68.4811 120.378 69.6696 120.378C71.2622 120.382 72.7884 121.017 73.9145 122.143C75.0406 123.269 75.675 124.795 75.6789 126.388Z" fill="#263238"/>
<path d="M99.7457 126.388C99.7457 127.576 99.3932 128.738 98.7329 129.726C98.0726 130.715 97.1341 131.485 96.036 131.94C94.938 132.394 93.7297 132.513 92.564 132.282C91.3983 132.05 90.3276 131.477 89.4871 130.637C88.6467 129.797 88.0744 128.726 87.8425 127.56C87.6107 126.394 87.7297 125.186 88.1845 124.088C88.6393 122.99 89.4095 122.051 90.3978 121.391C91.386 120.731 92.5478 120.378 93.7364 120.378C95.3289 120.382 96.8552 121.017 97.9813 122.143C99.1074 123.269 99.7418 124.795 99.7457 126.388V126.388Z" fill="#263238"/>
<path d="M123.753 123.39C124.346 124.42 124.62 125.602 124.541 126.787C124.463 127.972 124.034 129.107 123.311 130.049C122.588 130.991 121.601 131.697 120.477 132.079C119.352 132.46 118.14 132.5 116.992 132.193C115.845 131.887 114.814 131.247 114.031 130.354C113.247 129.462 112.745 128.358 112.588 127.18C112.432 126.003 112.628 124.806 113.151 123.74C113.675 122.674 114.502 121.787 115.529 121.19C116.213 120.794 116.969 120.536 117.753 120.431C118.537 120.327 119.334 120.379 120.098 120.583C120.862 120.787 121.578 121.141 122.206 121.622C122.833 122.104 123.359 122.705 123.753 123.39V123.39Z" fill="#263238"/>
<path d="M126.145 391.949L63.9555 385.511L37.6149 325.728L17.1508 331.058C17.1508 331.058 32.27 394.237 49.1906 404.026C66.1112 413.815 123.916 415.572 123.916 415.572L126.145 391.949Z" fill="#FF725E"/>
<path d="M159.206 422.356C169.326 410.97 168.299 393.537 156.914 383.418C145.528 373.299 128.095 374.325 117.976 385.711C107.857 397.096 108.883 414.529 120.269 424.649C131.654 434.768 149.087 433.741 159.206 422.356Z" fill="#263238"/>
<path d="M138.592 431.637C132.201 431.637 126.007 429.421 121.067 425.366C116.126 421.312 112.745 415.67 111.498 409.401C110.251 403.133 111.216 396.626 114.229 390.989C117.242 385.353 122.116 380.935 128.021 378.49C133.925 376.044 140.495 375.721 146.611 377.576C152.727 379.432 158.011 383.35 161.562 388.664C165.112 393.978 166.711 400.359 166.084 406.72C165.458 413.08 162.645 419.027 158.126 423.546C155.567 426.119 152.522 428.159 149.169 429.548C145.816 430.937 142.221 431.647 138.592 431.637V431.637ZM138.592 376.475C132.218 376.469 126.039 378.672 121.108 382.711C116.176 386.75 112.798 392.373 111.547 398.623C110.297 404.874 111.253 411.364 114.252 416.988C117.251 422.613 122.107 427.024 127.993 429.469C133.879 431.915 140.431 432.244 146.533 430.4C152.635 428.556 157.908 424.654 161.455 419.358C165.002 414.062 166.603 407.7 165.985 401.356C165.368 395.012 162.569 389.079 158.067 384.566C155.517 381.997 152.483 379.959 149.14 378.57C145.797 377.181 142.212 376.469 138.592 376.475V376.475Z" fill="#263238"/>
<path d="M58.3808 408.749C69.4895 406.082 76.3328 394.915 73.6659 383.806C70.9989 372.698 59.8315 365.854 48.7228 368.521C37.6141 371.188 30.7708 382.355 33.4377 393.464C36.1047 404.573 47.2721 411.416 58.3808 408.749Z" fill="#263238"/>
<path d="M37.8437 330.562C44.4458 323.959 44.4458 313.255 37.8437 306.653C31.2416 300.051 20.5374 300.051 13.9353 306.653C7.33316 313.255 7.33316 323.96 13.9353 330.562C20.5374 337.164 31.2416 337.164 37.8437 330.562Z" fill="#263238"/>
<path d="M52.2396 309.458L38.3192 321.214L33.2989 315.269L47.2193 303.514C47.9523 302.895 48.9012 302.592 49.8572 302.673C50.8132 302.753 51.698 303.21 52.317 303.943L52.6599 304.349C52.9687 304.712 53.2029 305.132 53.3489 305.586C53.4949 306.039 53.55 306.517 53.5109 306.991C53.4719 307.466 53.3395 307.928 53.1213 308.352C52.9031 308.775 52.6035 309.151 52.2396 309.458V309.458Z" fill="#263238"/>
<path d="M34.5586 287.93V305.648C34.5586 305.785 34.5042 305.916 34.4072 306.013C34.3103 306.11 34.1789 306.165 34.0418 306.165H27.309C27.172 306.165 27.0405 306.11 26.9436 306.013C26.8467 305.916 26.7923 305.785 26.7923 305.648V287.93C26.7923 286.971 27.1734 286.05 27.8518 285.372C28.5302 284.694 29.4503 284.312 30.4097 284.312H30.9412C31.9006 284.312 32.8207 284.694 33.4991 285.372C34.1775 286.05 34.5586 286.971 34.5586 287.93V287.93Z" fill="#263238"/>
<path d="M22.0217 287.997L25.8897 305.287C25.9196 305.421 25.8952 305.561 25.8218 305.677C25.7484 305.793 25.632 305.875 25.4982 305.905L18.9278 307.374C18.7941 307.404 18.6539 307.38 18.5382 307.306C18.4225 307.233 18.3406 307.117 18.3107 306.983L14.4427 289.692C14.2332 288.756 14.4043 287.775 14.9182 286.965C15.4321 286.155 16.2468 285.582 17.1831 285.373L17.7018 285.257C18.638 285.047 19.6191 285.218 20.4293 285.732C21.2394 286.246 21.8122 287.061 22.0217 287.997V287.997Z" fill="#263238"/>
<path d="M8.53453 292.33L17.3935 307.674C17.462 307.793 17.4806 307.934 17.4451 308.066C17.4096 308.199 17.323 308.312 17.2043 308.38L11.3735 311.746C11.2548 311.815 11.1138 311.834 10.9814 311.798C10.849 311.763 10.7361 311.676 10.6676 311.557L1.80867 296.213C1.32898 295.382 1.19899 294.395 1.4473 293.468C1.69561 292.542 2.30189 291.751 3.13275 291.272L3.59307 291.006C4.42393 290.526 5.41132 290.396 6.33802 290.645C7.26472 290.893 8.05483 291.499 8.53453 292.33V292.33Z" fill="#263238"/>
<path d="M396.429 546.818L415.044 538.901L361.332 412.609L342.717 420.526L396.429 546.818Z" fill="#FF725E"/>
<path d="M364 424.677C373.846 413.055 372.406 395.651 360.783 385.805C349.161 375.959 331.757 377.399 321.911 389.022C312.065 400.644 313.505 418.048 325.127 427.894C336.75 437.74 354.154 436.3 364 424.677Z" fill="#263238"/>
<path d="M343.012 434.531C338.685 434.533 334.418 433.519 330.554 431.571C326.69 429.623 323.338 426.795 320.767 423.314C318.196 419.834 316.478 415.799 315.751 411.533C315.024 407.267 315.309 402.891 316.583 398.755C318.093 393.878 320.926 389.514 324.767 386.15C328.608 382.786 333.307 380.553 338.341 379.699C343.375 378.845 348.547 379.404 353.283 381.313C358.018 383.222 362.132 386.408 365.166 390.514C368.2 394.621 370.036 399.489 370.469 404.577C370.902 409.664 369.917 414.773 367.621 419.333C365.325 423.894 361.81 427.729 357.466 430.412C353.121 433.095 348.118 434.521 343.012 434.531V434.531ZM343.012 379.34C337.915 379.345 332.919 380.764 328.58 383.439C324.241 386.115 320.729 389.941 318.436 394.494C316.142 399.046 315.156 404.145 315.588 409.224C316.019 414.303 317.852 419.163 320.881 423.263C323.91 427.362 328.017 430.542 332.745 432.446C337.473 434.351 342.637 434.907 347.662 434.052C352.687 433.196 357.377 430.964 361.209 427.603C365.041 424.241 367.865 419.882 369.367 415.012V415.012C371.512 408.031 370.8 400.486 367.386 394.03C363.973 387.575 358.138 382.737 351.162 380.58C348.494 379.754 345.716 379.335 342.923 379.34H343.012Z" fill="#263238"/>
<path d="M398.799 489.314C401.858 478.307 395.415 466.904 384.407 463.845C373.4 460.786 361.997 467.23 358.939 478.237C355.88 489.244 362.323 500.647 373.331 503.706C384.338 506.765 395.741 500.321 398.799 489.314Z" fill="#263238"/>
<path d="M410.06 565.067C419.396 565.067 426.965 557.498 426.965 548.161C426.965 538.824 419.396 531.255 410.06 531.255C400.723 531.255 393.154 538.824 393.154 548.161C393.154 557.498 400.723 565.067 410.06 565.067Z" fill="#263238"/>
<path d="M387.948 565.187L397.415 549.654L404.059 553.703L394.592 569.236C394.093 570.056 393.289 570.643 392.356 570.869C391.424 571.095 390.44 570.942 389.621 570.443L389.167 570.166C388.759 569.92 388.404 569.596 388.122 569.212C387.84 568.828 387.637 568.392 387.523 567.93C387.41 567.467 387.389 566.987 387.462 566.516C387.535 566.045 387.7 565.594 387.948 565.187V565.187Z" fill="#263238"/>
<path d="M411.518 580.001L405.908 563.195C405.865 563.065 405.875 562.923 405.936 562.8C405.997 562.678 406.104 562.585 406.235 562.541L412.621 560.409C412.751 560.366 412.893 560.376 413.015 560.437C413.138 560.498 413.231 560.606 413.275 560.736L418.885 577.542C419.03 577.994 419.084 578.471 419.045 578.944C419.006 579.418 418.874 579.879 418.656 580.301C418.439 580.724 418.14 581.099 417.778 581.406C417.415 581.713 416.995 581.946 416.543 582.091L416.039 582.259C415.14 582.547 414.164 582.472 413.319 582.05C412.474 581.628 411.828 580.893 411.518 580.001V580.001Z" fill="#263238"/>
<path d="M423.402 575.973L414.258 560.797C414.223 560.739 414.199 560.675 414.189 560.608C414.179 560.541 414.182 560.472 414.199 560.406C414.215 560.34 414.244 560.278 414.285 560.224C414.325 560.169 414.376 560.123 414.434 560.088L420.201 556.613C420.259 556.578 420.323 556.555 420.39 556.545C420.457 556.535 420.526 556.538 420.592 556.554C420.658 556.571 420.72 556.6 420.774 556.64C420.829 556.68 420.875 556.731 420.91 556.789L430.054 571.965C430.549 572.787 430.697 573.772 430.466 574.703C430.235 575.634 429.644 576.435 428.822 576.931L428.367 577.205C427.545 577.7 426.56 577.848 425.629 577.617C424.698 577.387 423.897 576.795 423.402 575.973V575.973Z" fill="#263238"/>
<path d="M434.816 567.606L421.554 555.857C421.452 555.766 421.389 555.638 421.381 555.501C421.373 555.364 421.419 555.23 421.51 555.127L425.965 550.099C426.056 549.996 426.184 549.934 426.321 549.925C426.457 549.917 426.592 549.964 426.695 550.055L439.956 561.804C440.674 562.44 441.11 563.336 441.168 564.293C441.226 565.251 440.901 566.192 440.265 566.91L439.913 567.308C439.275 568.022 438.381 568.454 437.426 568.51C436.47 568.565 435.532 568.241 434.816 567.606V567.606Z" fill="#263238"/>
<path d="M130.398 375.323C130.398 375.323 132.391 568.95 241.046 572.73C349.701 576.51 354.263 376.711 354.263 375.323C354.263 375.323 341.432 346.458 242.33 347.58C143.228 348.702 130.398 375.323 130.398 375.323Z" fill="#FF725E"/>
<path d="M191.406 341.246H283.244C289.237 341.246 294.096 336.387 294.096 330.394V328.814C294.096 322.821 289.237 317.962 283.244 317.962H191.406C185.413 317.962 180.554 322.821 180.554 328.814V330.394C180.554 336.387 185.413 341.246 191.406 341.246Z" fill="#263238"/>
<path d="M233.368 169.073H241.297V128.986H233.368V169.073Z" fill="#263238"/>
<path d="M358.566 288.413C371.085 285.437 378.821 272.877 375.846 260.358C372.87 247.839 360.31 240.102 347.791 243.078C335.272 246.053 327.535 258.614 330.511 271.133C333.486 283.652 346.047 291.388 358.566 288.413Z" fill="#FF725E"/>
<path d="M123.143 286.9C135.692 284.053 143.557 271.573 140.71 259.024C137.864 246.475 125.384 238.609 112.835 241.456C100.286 244.302 92.4204 256.783 95.2668 269.332C98.1133 281.881 110.594 289.746 123.143 286.9Z" fill="#FF725E"/>
<path d="M232.718 160.376C232.718 160.376 137.987 159.239 123.015 241.347C108.044 323.455 188.128 324.931 211.176 326.481C221.615 327.19 243.969 327.264 263.695 326.91C307.37 326.157 338.228 317.711 348.726 277.196C349.976 272.446 350.763 267.585 351.074 262.682C353.835 218.21 323.818 158.191 232.718 160.376Z" fill="#FF725E"/>
<path d="M301.434 285.346L163.811 287.487C160.377 287.548 156.965 286.931 153.77 285.671C150.575 284.411 147.66 282.534 145.191 280.146C142.722 277.759 140.749 274.908 139.384 271.756C138.018 268.605 137.288 265.216 137.234 261.782V261.782C137.175 258.347 137.794 254.935 139.055 251.74C140.317 248.545 142.196 245.629 144.584 243.161C146.973 240.693 149.825 238.719 152.977 237.354C156.129 235.989 159.52 235.259 162.954 235.205L300.578 233.064C304.012 233.001 307.425 233.617 310.621 234.876C313.817 236.135 316.733 238.012 319.202 240.4C321.671 242.788 323.644 245.64 325.009 248.792C326.374 251.945 327.103 255.335 327.155 258.77C327.215 262.205 326.598 265.618 325.337 268.814C324.076 272.01 322.198 274.926 319.809 277.394C317.419 279.863 314.567 281.836 311.414 283.201C308.261 284.565 304.869 285.295 301.434 285.346V285.346Z" fill="#263238"/>
<path d="M192.41 258.932C192.09 260.559 191.295 262.055 190.125 263.23C188.954 264.406 187.462 265.208 185.836 265.535C184.21 265.862 182.524 265.7 180.99 265.069C179.456 264.438 178.144 263.366 177.22 261.989C176.295 260.612 175.799 258.992 175.795 257.334C175.791 255.675 176.279 254.053 177.196 252.672C178.114 251.29 179.421 250.212 180.952 249.574C182.482 248.935 184.168 248.764 185.796 249.084C186.877 249.296 187.905 249.719 188.823 250.328C189.741 250.938 190.529 251.723 191.143 252.637C191.758 253.552 192.186 254.578 192.403 255.658C192.62 256.738 192.623 257.851 192.41 258.932V258.932Z" fill="white"/>
<path d="M288.515 257.396C288.197 259.025 287.404 260.522 286.235 261.7C285.066 262.878 283.574 263.682 281.948 264.011C280.322 264.341 278.634 264.18 277.099 263.55C275.564 262.92 274.251 261.849 273.325 260.473C272.398 259.096 271.902 257.475 271.897 255.816C271.892 254.157 272.379 252.534 273.297 251.151C274.216 249.769 275.523 248.691 277.054 248.052C278.586 247.413 280.272 247.243 281.9 247.563C284.08 247.991 286.002 249.267 287.242 251.111C288.482 252.955 288.94 255.215 288.515 257.396V257.396Z" fill="white"/>
<path d="M274.68 452.219C274.141 459.608 271.423 466.67 266.869 472.514C262.316 478.358 256.132 482.721 249.1 485.05C242.067 487.38 234.502 487.572 227.36 485.602C220.219 483.632 213.822 479.588 208.978 473.983C204.134 468.377 201.061 461.461 200.148 454.109C199.235 446.758 200.522 439.3 203.847 432.68C207.172 426.06 212.385 420.574 218.828 416.916C225.271 413.259 232.653 411.594 240.042 412.132C249.95 412.858 259.164 417.488 265.66 425.005C272.155 432.522 275.4 442.31 274.68 452.219V452.219Z" fill="#263238"/>
<path d="M264.537 451.481C264.143 456.866 262.161 462.013 258.841 466.272C255.521 470.53 251.014 473.709 245.888 475.406C240.762 477.102 235.247 477.241 230.043 475.804C224.838 474.367 220.176 471.418 216.647 467.332C213.118 463.245 210.88 458.203 210.216 452.845C209.552 447.486 210.492 442.051 212.917 437.227C215.343 432.402 219.144 428.406 223.84 425.742C228.537 423.078 233.918 421.867 239.304 422.261C242.88 422.521 246.369 423.483 249.573 425.093C252.777 426.702 255.633 428.927 257.976 431.641C260.32 434.355 262.105 437.504 263.231 440.908C264.357 444.312 264.8 447.905 264.537 451.481V451.481Z" fill="white"/>
<path d="M251.381 456.442C251.173 454.95 251.089 453.444 251.13 451.938C251.056 449.118 250.997 445.087 250.997 440.126L251.293 440.673L237.251 432.478H238.034L223.859 440.436C223.476 441.086 224.376 439.565 224.288 439.728V441.824V443.936C224.288 445.324 224.288 446.712 224.214 448.07C224.214 450.787 224.11 453.415 224.066 455.954L223.682 455.275L237.561 463.75H236.941C241.267 461.417 244.84 459.557 247.277 458.287C248.587 457.541 249.955 456.899 251.366 456.368C250.265 457.265 249.078 458.051 247.823 458.715C245.431 460.192 241.917 462.274 237.487 464.828L237.177 465.005L236.867 464.828L222.811 456.634L222.427 456.412V455.94C222.427 453.4 222.457 450.772 222.516 448.055C222.516 446.697 222.516 445.324 222.516 443.921V441.824V439.787C222.427 439.949 223.328 438.443 222.944 439.078L237.163 431.194L237.576 430.972L237.96 431.208L251.824 439.683L252.134 439.875V440.23C251.972 445.338 251.809 449.443 251.662 452.234C251.699 453.642 251.606 455.051 251.381 456.442Z" fill="#FF725E"/>
<path d="M246.58 137.414C251.683 132.311 251.683 124.037 246.58 118.934C241.478 113.831 233.204 113.831 228.101 118.934C222.998 124.037 222.998 132.311 228.101 137.414C233.204 142.516 241.478 142.517 246.58 137.414Z" fill="#FF725E"/>
<path d="M216.462 255.064C217.082 255.137 216.772 258.017 218.603 261.959C219.64 264.221 221.151 266.235 223.033 267.865C225.238 269.805 227.984 271.026 230.902 271.364C233.836 271.553 236.759 270.853 239.289 269.356C241.43 268.111 243.282 266.425 244.722 264.41C247.232 260.91 247.454 257.972 248.074 258.017C248.325 258.017 248.576 258.755 248.576 260.143C248.52 262.12 248.015 264.059 247.099 265.812C245.724 268.463 243.69 270.715 241.193 272.353C238.107 274.528 234.347 275.534 230.587 275.19C226.827 274.847 223.311 273.176 220.67 270.478C218.514 268.416 216.927 265.833 216.063 262.978C215.448 261.073 215.286 259.05 215.591 257.072C215.842 255.698 216.226 255.019 216.462 255.064Z" fill="white"/>
<path d="M342.599 293.319C342.451 293.319 344.149 290.662 345.788 286.011C347.826 279.92 349.115 273.603 349.627 267.2C350.218 260.82 350.366 254.407 350.07 248.006C349.966 245.54 349.848 243.576 349.73 242.1C349.63 241.386 349.606 240.664 349.656 239.944C349.845 240.64 349.969 241.352 350.025 242.07C350.232 243.444 350.439 245.437 350.616 247.976C351.079 254.429 351.005 260.908 350.394 267.348C349.875 273.811 348.5 280.176 346.305 286.277C345.61 288.117 344.77 289.899 343.795 291.607C343.446 292.211 343.046 292.784 342.599 293.319V293.319Z" fill="#263238"/>
<path d="M123.192 238.601C123.109 239.318 122.955 240.025 122.735 240.712C122.543 241.376 122.336 242.188 122.144 243.163C121.952 244.137 121.657 245.2 121.48 246.426C120.962 249.272 120.617 252.146 120.446 255.034C120.247 258.567 120.297 262.109 120.594 265.635C120.924 269.155 121.496 272.648 122.306 276.089C122.984 278.903 123.832 281.674 124.846 284.387C125.245 285.553 125.702 286.572 126.071 287.487C126.441 288.403 126.795 289.17 127.09 289.79C127.427 290.428 127.704 291.095 127.917 291.784C127.497 291.198 127.131 290.576 126.825 289.923C126.407 289.185 126.028 288.426 125.688 287.65C125.274 286.764 124.772 285.745 124.344 284.578C123.248 281.874 122.34 279.096 121.627 276.266C120.763 272.792 120.161 269.258 119.826 265.694C119.525 262.133 119.495 258.555 119.737 254.99C119.943 252.076 120.348 249.181 120.948 246.323C121.17 245.097 121.48 244.019 121.731 243.06C121.982 242.1 122.218 241.288 122.439 240.623C122.635 239.93 122.887 239.253 123.192 238.601V238.601Z" fill="#263238"/>
<path d="M129.896 375.161L130.457 375.324L132.11 375.885L138.4 378.099L142.948 379.723C144.616 380.285 146.462 380.816 148.425 381.421C152.368 382.588 156.812 384.109 161.862 385.29L169.731 387.313C172.477 388.007 175.371 388.523 178.354 389.173C184.26 390.531 190.742 391.462 197.548 392.554C212.268 394.574 227.104 395.634 241.961 395.729C256.819 395.641 271.655 394.581 286.374 392.554C293.136 391.462 299.574 390.546 305.568 389.173C308.521 388.538 311.474 388.021 314.191 387.327L322.075 385.305C327.11 384.123 331.554 382.603 335.497 381.436C337.46 380.831 339.306 380.299 340.974 379.738L345.522 378.114L351.812 375.899L353.466 375.338C353.652 375.265 353.844 375.21 354.041 375.176L353.495 375.412L351.871 376.047L345.625 378.395L340.974 380.137C339.321 380.713 337.475 381.259 335.511 381.894C331.569 383.105 327.14 384.655 322.09 385.88L314.206 387.948C311.474 388.656 308.566 389.188 305.583 389.852C299.677 391.24 293.18 392.185 286.389 393.307C271.639 395.377 256.767 396.457 241.872 396.541C226.983 396.446 212.116 395.361 197.371 393.292C190.594 392.185 184.083 391.225 178.177 389.837C175.224 389.173 172.271 388.641 169.554 387.933L161.67 385.866C156.62 384.64 152.19 383.09 148.248 381.879C146.285 381.244 144.454 380.698 142.785 380.122L138.252 378.424L132.007 376.077L130.383 375.442C130.212 375.364 130.049 375.27 129.896 375.161Z" fill="#263238"/>
<g opacity="0.3">
<path opacity="0.3" d="M130.398 375.323C130.398 375.323 143.228 348.747 242.33 347.58C341.432 346.414 354.263 375.323 354.263 375.323C354.263 375.323 254.246 424.623 130.398 375.323Z" fill="black"/>
</g>
<path d="M220.714 166.519C220.601 166.529 220.488 166.529 220.375 166.519L219.386 166.622C218.5 166.71 217.2 166.74 215.532 166.932C210.824 167.389 206.153 168.163 201.55 169.25C177.741 174.703 156.74 188.658 142.49 208.495C135.605 218.028 130.393 228.663 127.075 239.944C126.559 241.539 126.278 242.809 126.027 243.65L125.747 244.625C125.72 244.737 125.68 244.846 125.628 244.95C125.609 244.837 125.609 244.722 125.628 244.61C125.628 244.344 125.747 244.019 125.835 243.621C126.042 242.764 126.263 241.48 126.736 239.856C127.968 235.269 129.548 230.782 131.461 226.434C137.772 211.987 147.379 199.219 159.514 189.153C171.7 179.163 186.056 172.165 201.431 168.719C206.062 167.666 210.766 166.97 215.502 166.637C217.186 166.489 218.455 166.504 219.371 166.459H220.375C220.611 166.489 220.714 166.504 220.714 166.519Z" fill="white"/>
<path d="M128.035 280.178C127.443 279.264 126.986 278.27 126.677 277.225C124.925 272.291 124.109 267.074 124.27 261.84C124.228 260.754 124.358 259.668 124.654 258.622C124.89 258.622 124.565 263.553 125.51 269.518C126.455 275.483 128.257 280.09 128.035 280.178Z" fill="white"/>
<path d="M103.186 272.545C103.186 272.545 102.846 272.309 102.389 271.748C101.736 270.953 101.176 270.086 100.72 269.164C99.1434 266.112 98.5401 262.65 98.9915 259.244C99.443 255.839 100.927 252.653 103.245 250.117C103.924 249.341 104.692 248.647 105.534 248.05C105.823 247.807 106.152 247.617 106.508 247.489C106.597 247.607 105.268 248.508 103.658 250.442C101.546 252.972 100.195 256.049 99.7608 259.315C99.327 262.582 99.8286 265.905 101.207 268.898C102.241 271.246 103.289 272.457 103.186 272.545Z" fill="white"/>
<path d="M238.181 119.064C237.029 118.937 235.868 118.912 234.712 118.99C233.334 119.111 232.003 119.545 230.82 120.261C229.637 120.976 228.634 121.952 227.887 123.116C227.14 124.279 226.669 125.598 226.511 126.971C226.353 128.344 226.512 129.736 226.975 131.038C227.373 132.118 227.867 133.161 228.451 134.153C228.451 134.153 228.156 133.976 227.743 133.504C227.175 132.82 226.726 132.047 226.414 131.215C225.85 129.837 225.628 128.342 225.764 126.859C225.9 125.376 226.392 123.948 227.197 122.695C228.003 121.442 229.098 120.401 230.39 119.661C231.683 118.922 233.135 118.504 234.623 118.444C235.507 118.382 236.395 118.467 237.251 118.695C237.916 118.798 238.181 119.019 238.181 119.064Z" fill="white"/>
<path d="M366.872 254.635C366.71 254.812 364.421 252.612 360.966 250.959C357.511 249.305 354.366 248.818 354.396 248.581C356.803 248.521 359.182 249.102 361.291 250.265C363.51 251.193 365.439 252.703 366.872 254.635V254.635Z" fill="white"/>
<path d="M164.357 513.124C164.289 513.036 164.23 512.942 164.18 512.844L163.692 511.973C163.249 511.131 162.659 510.009 161.891 508.577C161.507 507.838 161.094 507.011 160.621 506.126L159.233 503.173C158.229 501.032 157.107 498.595 156 495.79C155.439 494.417 154.848 492.97 154.228 491.479C153.608 489.988 153.076 488.363 152.471 486.725C151.201 483.461 150.123 479.874 148.868 476.153C146.55 468.623 144.277 460.281 142.283 451.422C140.29 442.563 138.843 434.014 137.662 426.233C136.481 418.452 135.713 411.468 135.24 405.473C134.96 402.52 134.783 399.833 134.635 397.471C134.487 395.108 134.355 393.041 134.31 391.417C134.266 389.793 134.222 388.538 134.177 387.593V386.604C134.161 386.491 134.161 386.377 134.177 386.264C134.194 386.377 134.194 386.491 134.177 386.604L134.266 387.593C134.266 388.523 134.428 389.808 134.532 391.402C134.635 392.997 134.783 395.094 134.989 397.441C135.196 399.789 135.388 402.476 135.713 405.429C136.244 411.335 137.189 418.363 138.297 426.1C139.404 433.837 141.014 442.341 142.962 451.2C144.911 460.059 147.2 468.387 149.459 475.902C150.714 479.623 151.762 483.196 153.003 486.459C153.593 488.112 154.154 489.692 154.715 491.213L156.428 495.554C157.491 498.315 158.584 500.766 159.558 502.936L160.887 505.889C161.315 506.79 161.729 507.617 162.098 508.37L163.751 511.825L164.165 512.725C164.254 512.845 164.32 512.98 164.357 513.124Z" fill="white"/>
<path d="M106.582 392.746C102.98 392.883 99.3721 392.754 95.7886 392.362C92.1883 392.236 88.6014 391.856 85.0546 391.226C88.6568 391.089 92.2642 391.218 95.8477 391.609C99.4481 391.734 103.035 392.114 106.582 392.746Z" fill="white"/>
<path d="M51.0363 361.223C48.9422 358.173 47.0625 354.981 45.4108 351.67C43.5389 348.481 41.8911 345.166 40.4794 341.748C42.5671 344.805 44.4417 348.001 46.09 351.316C47.9715 354.497 49.6244 357.807 51.0363 361.223V361.223Z" fill="white"/>
<path d="M216.772 559.678C216.191 559.667 215.612 559.598 215.045 559.471C213.483 559.193 211.939 558.818 210.423 558.349C208.172 557.664 205.971 556.82 203.838 555.824C201.24 554.572 198.742 553.12 196.367 551.483C194.019 549.806 191.807 547.944 189.752 545.917C188.089 544.25 186.549 542.464 185.146 540.572C184.184 539.31 183.311 537.983 182.532 536.6C182.214 536.115 181.951 535.595 181.75 535.05C181.868 534.976 183.108 537.117 185.574 540.247C187.023 542.067 188.587 543.793 190.254 545.415C194.341 549.386 199.031 552.684 204.148 555.189C206.239 556.199 208.389 557.082 210.586 557.832C214.366 559.102 216.802 559.53 216.772 559.678Z" fill="white"/>
<path d="M239.422 491.376C239.08 491.435 238.735 491.47 238.388 491.479C237.406 491.562 236.42 491.592 235.435 491.568C231.764 491.487 228.121 490.895 224.612 489.811C222.188 489.055 219.828 488.107 217.555 486.976C214.948 485.635 212.476 484.048 210.172 482.236C204.835 478.136 200.629 472.746 197.948 466.573C195.267 460.4 194.199 453.647 194.846 446.948C195.087 444.041 195.606 441.163 196.397 438.355C197.104 435.919 198.018 433.548 199.128 431.268C200.73 427.96 202.787 424.894 205.241 422.158C205.899 421.41 206.599 420.7 207.338 420.032C207.582 419.787 207.843 419.56 208.12 419.353C208.12 419.353 207.146 420.401 205.462 422.306C203.1 425.084 201.114 428.162 199.556 431.46C197.234 436.32 195.852 441.575 195.481 446.948C194.883 453.528 195.948 460.153 198.58 466.214C201.212 472.274 205.325 477.576 210.541 481.631C212.778 483.431 215.18 485.013 217.717 486.356C219.94 487.528 222.257 488.516 224.642 489.309C228.099 490.43 231.688 491.09 235.317 491.272C237.989 491.376 239.422 491.287 239.422 491.376Z" fill="white"/>
<path d="M60.663 375.102C60.663 375.22 59.5261 374.674 57.71 374.246C55.2799 373.714 52.7608 373.739 50.3418 374.319C47.9228 374.9 45.6666 376.02 43.7424 377.597C42.2659 378.823 41.5572 379.797 41.4539 379.723C41.859 378.746 42.4858 377.877 43.2847 377.184C45.201 375.426 47.5343 374.185 50.0638 373.581C52.5933 372.976 55.2353 373.027 57.7395 373.729C58.8067 373.955 59.8072 374.425 60.663 375.102V375.102Z" fill="white"/>
<path d="M278.696 228.295C278.696 228.501 260.565 228.678 238.211 228.678C215.857 228.678 197.711 228.501 197.711 228.295C197.711 228.088 215.842 227.911 238.211 227.911C260.58 227.911 278.696 228.058 278.696 228.295Z" fill="white"/>
<path d="M209.596 320.619C209.375 320.682 209.147 320.717 208.917 320.723L206.939 320.9C206.082 320.974 205.034 321.033 203.809 321.062C202.583 321.092 201.195 321.151 199.66 321.062C196.574 321.062 192.912 320.841 188.852 320.413C184.458 319.901 180.095 319.147 175.785 318.154C171.484 317.122 167.245 315.85 163.087 314.344C159.699 313.104 156.378 311.689 153.136 310.107C151.659 309.457 150.522 308.778 149.444 308.202C148.366 307.626 147.451 307.11 146.713 306.726L145.015 305.692C144.814 305.581 144.625 305.447 144.454 305.293C144.454 305.293 144.69 305.293 145.089 305.559L146.86 306.46C147.613 306.873 148.544 307.361 149.636 307.936C150.729 308.512 151.969 309.103 153.372 309.723C156.148 311.022 159.529 312.41 163.338 313.783C171.617 316.752 180.206 318.772 188.94 319.807C192.956 320.28 196.603 320.546 199.66 320.619C201.136 320.708 202.613 320.619 203.809 320.619C205.005 320.619 206.068 320.619 206.924 320.619H208.903C209.132 320.581 209.367 320.581 209.596 320.619V320.619Z" fill="white"/>
<path d="M327.465 387.15C327.356 387.222 327.236 387.277 327.11 387.313L326.047 387.711L321.943 389.188C320.156 389.838 317.971 390.591 315.387 391.344C312.803 392.097 309.894 393.071 306.602 393.898L301.464 395.256C299.677 395.714 297.787 396.098 295.853 396.556C291.985 397.486 287.791 398.224 283.391 399.066C264.227 402.404 244.75 403.597 225.321 402.624C220.892 402.343 216.595 402.122 212.638 401.664C210.66 401.458 208.74 401.31 206.909 401.059L201.638 400.335C198.272 399.937 195.26 399.331 192.617 398.859C189.974 398.386 187.685 397.944 185.84 397.515L181.587 396.57L180.48 396.305C180.352 396.284 180.228 396.244 180.111 396.187C180.244 396.175 180.377 396.175 180.51 396.187L181.617 396.378L185.899 397.191C187.759 397.56 190.033 397.988 192.691 398.386C195.348 398.785 198.346 399.361 201.712 399.73L206.968 400.395C208.799 400.631 210.719 400.764 212.697 400.956C216.639 401.384 220.892 401.576 225.351 401.841C234.283 402.211 244.102 402.225 254.408 401.62C264.714 401.015 274.444 399.73 283.259 398.283C287.688 397.471 291.852 396.807 295.72 395.862C297.654 395.419 299.544 395.05 301.331 394.607L306.469 393.293C309.762 392.51 312.67 391.595 315.254 390.856C317.838 390.118 320.053 389.38 321.839 388.834L325.988 387.505L327.081 387.18L327.465 387.15Z" fill="white"/>
</svg>
