<svg width="676" height="626" viewBox="0 0 676 626" fill="none" xmlns="http://www.w3.org/2000/svg">
<path d="M102.113 294.87C-29.057 370.667 -29.0432 493.32 102.113 569.117C233.27 644.914 445.943 644.846 577.113 569.117C708.284 493.389 708.27 370.667 577.113 294.87C445.957 219.072 233.284 219.183 102.113 294.87Z" fill="#FAFAFA"/>
<path d="M119.23 65.3557C117.976 65.6589 117.741 72.2464 119.078 77.7589C120.415 83.2714 121.71 85.7796 124.053 85.2146C126.396 84.6495 126.382 81.7692 125.045 76.2981C123.709 70.8269 120.498 65.0387 119.23 65.3557Z" fill="#F5F5F5"/>
<path d="M179.468 20.732C181.011 18.8715 179.289 16.5976 174.975 12.9869C170.662 9.37617 164.639 6.7026 163.826 7.69485C163.013 8.68711 166.72 14.1032 171.034 17.7001C175.347 21.297 177.924 22.5924 179.468 20.732Z" fill="#F5F5F5"/>
<path d="M103.174 133.242C101.438 134.91 102.899 137.377 106.799 141.429C110.699 145.48 116.363 148.815 117.3 147.92C118.237 147.024 115.123 141.236 111.223 137.17C107.323 133.105 104.925 131.561 103.174 133.242Z" fill="#F5F5F5"/>
<path d="M92.2046 32.3772C91.4996 32.3772 90.8106 32.5869 90.225 32.9794C89.6394 33.372 89.1838 33.9297 88.9159 34.5818C88.6481 35.2339 88.5801 35.951 88.7207 36.6418C88.8612 37.3326 89.204 37.966 89.7054 38.4616C90.2068 38.9572 90.8442 39.2925 91.5366 39.425C92.229 39.5575 92.9452 39.4811 93.5941 39.2057C94.2431 38.9302 94.7955 38.4681 95.1812 37.8779C95.5668 37.2878 95.7684 36.5964 95.7602 35.8914C95.7457 34.9567 95.3652 34.065 94.7004 33.4079C94.0355 32.7508 93.1394 32.3807 92.2046 32.3772Z" fill="#F5F5F5"/>
<path d="M180.267 97.2321C176.367 101.284 173.266 107.086 174.19 107.981C175.113 108.877 180.805 105.542 184.691 101.49C188.577 97.4388 190.052 94.9719 188.315 93.2906C186.579 91.6093 184.167 93.1804 180.267 97.2321Z" fill="#F5F5F5"/>
<path d="M189.652 54.386C188.948 54.3833 188.26 54.5895 187.673 54.9785C187.087 55.3676 186.629 55.9219 186.357 56.5714C186.086 57.2208 186.014 57.9361 186.149 58.6268C186.285 59.3174 186.623 59.9522 187.119 60.4508C187.616 60.9495 188.25 61.2895 188.94 61.4278C189.63 61.5661 190.345 61.4965 190.996 61.2278C191.646 60.9591 192.202 60.5034 192.594 59.9184C192.985 59.3334 193.194 58.6454 193.194 57.9416C193.194 57.001 192.821 56.0987 192.157 55.4323C191.494 54.7659 190.593 54.3897 189.652 54.386V54.386Z" fill="#F5F5F5"/>
<path d="M38.554 95.151C40.8968 95.716 42.206 93.1665 43.5428 87.7091C44.8796 82.2517 44.6453 75.6642 43.3912 75.3059C42.1371 74.9476 38.8985 80.722 37.5618 86.1931C36.225 91.6643 36.2112 94.5033 38.554 95.151Z" fill="#F5F5F5"/>
<path d="M42.7435 228.058C42.0269 226.983 35.8529 229.05 31.1259 232.192C26.3989 235.334 24.5246 237.457 25.8752 239.455C27.2258 241.453 29.9131 240.433 34.5712 237.291C39.2293 234.149 43.4601 229.119 42.7435 228.058Z" fill="#F5F5F5"/>
<path d="M238.521 51.3954C236.385 52.5392 237.142 55.3093 239.761 60.2706C242.379 65.2318 246.955 69.9175 248.099 69.38C249.242 68.8425 247.837 62.3515 245.191 57.3903C242.545 52.429 240.657 50.2653 238.521 51.3954Z" fill="#F5F5F5"/>
<path d="M71.133 252.023C69.8651 251.844 67.2467 257.88 66.5025 263.462C65.7583 269.043 66.0201 271.882 68.4181 272.213C70.816 272.544 71.8358 269.856 72.5525 264.275C73.2691 258.694 72.4146 252.258 71.133 252.023Z" fill="#F5F5F5"/>
<path d="M30.2301 303.455C28.5074 305.15 29.9958 307.59 33.9235 311.614C37.8512 315.638 43.5704 318.904 44.4937 317.995C45.4171 317.085 42.2612 311.324 38.3197 307.314C34.3783 303.304 31.9528 301.76 30.2301 303.455Z" fill="#F5F5F5"/>
<path d="M63.0709 130.721C62.3678 130.694 61.6726 130.876 61.0732 131.245C60.4738 131.613 59.9972 132.151 59.7038 132.791C59.4103 133.43 59.3132 134.142 59.4247 134.837C59.5362 135.532 59.8514 136.178 60.3302 136.693C60.8091 137.209 61.4301 137.571 62.1147 137.733C62.7993 137.896 63.5167 137.851 64.1761 137.606C64.8355 137.36 65.4072 136.925 65.8188 136.354C66.2305 135.783 66.4636 135.103 66.4887 134.4C66.5222 133.459 66.1812 132.544 65.5405 131.854C64.8998 131.164 64.0117 130.756 63.0709 130.721V130.721Z" fill="#F5F5F5"/>
<path d="M67.1778 0.445937C66.4887 -0.656567 60.1769 1.19013 55.4085 4.16689C50.6402 7.14365 48.6144 9.18328 49.896 11.2367C51.1777 13.2901 53.8926 12.3668 58.6609 9.37622C63.4293 6.38568 67.853 1.53466 67.1778 0.445937Z" fill="#F5F5F5"/>
<path d="M581.372 107.733C582.157 108.767 588.262 106.355 592.741 102.924C597.22 99.492 599.039 97.3008 597.579 95.3852C596.118 93.4696 593.444 94.6272 589.02 98.045C584.597 101.463 580.6 106.713 581.372 107.733Z" fill="#F5F5F5"/>
<path d="M584.28 37.2696C585.575 37.1594 586.774 30.696 586.264 25.087C585.754 19.478 584.886 16.8182 582.447 16.9836C580.007 17.149 579.69 20.043 580.145 25.652C580.6 31.261 582.998 37.3661 584.28 37.2696Z" fill="#F5F5F5"/>
<path d="M593.43 181.973C588.772 185.129 586.829 187.238 588.193 189.236C589.558 191.234 592.218 190.214 596.876 187.059C601.534 183.903 605.778 178.886 605.062 177.811C604.345 176.736 598.088 178.79 593.43 181.973Z" fill="#F5F5F5"/>
<path d="M640.121 139.444C639.418 139.441 638.729 139.648 638.142 140.037C637.556 140.426 637.098 140.98 636.827 141.629C636.555 142.279 636.483 142.994 636.619 143.685C636.754 144.375 637.092 145.01 637.589 145.509C638.085 146.008 638.719 146.348 639.409 146.486C640.099 146.624 640.815 146.555 641.465 146.286C642.116 146.017 642.672 145.561 643.063 144.976C643.454 144.391 643.663 143.704 643.663 143C643.665 142.533 643.575 142.071 643.398 141.64C643.22 141.209 642.96 140.817 642.631 140.486C642.302 140.156 641.911 139.894 641.48 139.715C641.049 139.536 640.588 139.444 640.121 139.444V139.444Z" fill="#F5F5F5"/>
<path d="M608.631 237.098C607.35 236.933 604.745 242.969 603.987 248.537C603.229 254.104 603.518 256.971 605.916 257.288C608.314 257.605 609.334 254.931 610.051 249.364C610.767 243.796 609.899 237.305 608.631 237.098Z" fill="#F5F5F5"/>
<path d="M651.381 220.685C647.067 217.074 641.059 214.401 640.232 215.393C639.405 216.385 643.126 221.801 647.453 225.398C651.78 228.995 654.344 230.29 655.887 228.43C657.431 226.569 655.708 224.282 651.381 220.685Z" fill="#F5F5F5"/>
<path d="M650.623 45.4143C651.45 44.422 647.729 39.006 643.415 35.409C639.102 31.8121 636.525 30.5167 634.981 32.3771C633.437 34.2376 635.16 36.5115 639.474 40.1222C643.787 43.7329 649.81 46.4065 650.623 45.4143Z" fill="#F5F5F5"/>
<path d="M630.874 71.7227C630.17 71.72 629.482 71.9262 628.895 72.3152C628.309 72.7042 627.851 73.2586 627.579 73.908C627.308 74.5575 627.236 75.2728 627.371 75.9634C627.507 76.654 627.845 77.2889 628.341 77.7875C628.838 78.2862 629.472 78.6262 630.162 78.7645C630.852 78.9028 631.567 78.8332 632.218 78.5645C632.868 78.2958 633.424 77.8401 633.816 77.2551C634.207 76.67 634.416 75.9821 634.416 75.2783C634.416 74.3376 634.043 73.4354 633.379 72.7689C632.716 72.1025 631.815 71.7263 630.874 71.7227V71.7227Z" fill="#F5F5F5"/>
<path d="M539.807 126.352C539.104 126.352 538.416 126.561 537.831 126.952C537.246 127.343 536.79 127.899 536.521 128.55C536.252 129.2 536.183 129.916 536.321 130.606C536.459 131.296 536.8 131.93 537.298 132.426C537.797 132.923 538.432 133.261 539.122 133.396C539.813 133.532 540.528 133.46 541.178 133.188C541.827 132.917 542.381 132.459 542.77 131.873C543.159 131.286 543.366 130.597 543.363 129.894C543.359 128.953 542.983 128.052 542.317 127.388C541.65 126.725 540.748 126.352 539.807 126.352Z" fill="#F5F5F5"/>
<path d="M474.443 21.2695C472.982 19.3401 470.308 20.5115 465.898 23.9293C461.488 27.347 457.464 32.5977 458.25 33.5762C459.035 34.5546 465.14 32.198 469.619 28.7665C474.098 25.335 475.917 23.1851 474.443 21.2695Z" fill="#F5F5F5"/>
<path d="M420.227 187.362C418.091 188.492 418.849 191.262 421.412 196.237C423.976 201.212 428.551 205.994 429.681 205.401C430.811 204.809 429.46 198.373 426.842 193.384C424.224 188.395 422.308 186.245 420.227 187.362Z" fill="#F5F5F5"/>
<path d="M457.561 148.292C454.804 153.17 453.922 155.913 456.017 157.126C458.112 158.338 460.069 156.244 462.908 151.365C465.747 146.486 467.331 140.12 466.215 139.472C465.099 138.824 460.372 143.386 457.561 148.292Z" fill="#F5F5F5"/>
<path d="M249.05 3.17455C244.309 0.142665 241.608 -0.822026 240.298 1.21761C238.989 3.25724 240.987 5.352 245.714 8.35632C250.441 11.3606 256.739 13.3176 257.442 12.2289C258.145 11.1401 253.777 6.22022 249.05 3.17455Z" fill="#F5F5F5"/>
<path d="M468.613 85.0079C466.863 86.6892 468.324 89.1423 472.224 93.2767C476.124 97.411 481.802 100.663 482.725 99.7676C483.649 98.8719 480.562 93.0699 476.661 89.0182C472.761 84.9665 470.35 83.3403 468.613 85.0079Z" fill="#F5F5F5"/>
<path d="M528.424 48.7493C527.17 48.4462 523.931 54.1654 522.594 59.6366C521.258 65.1077 521.216 67.9053 523.587 68.5393C525.957 69.1732 527.239 66.5548 528.576 61.0974C529.912 55.64 529.692 49.0525 528.424 48.7493Z" fill="#F5F5F5"/>
<path d="M361.519 347.638C370.656 358.139 384.85 365.554 397.874 369.95C411.346 374.661 425.79 375.893 439.865 373.533C446.318 372.499 452.475 370.093 457.919 366.477C463.638 362.549 464.92 357.561 461.061 351.414C456.734 344.523 450.036 339.452 443.076 335.138C430.552 327.392 417.089 321.278 403.014 316.947C388.599 312.523 372.695 308.678 357.963 313.929C355.601 314.647 353.462 315.956 351.748 317.733C344.843 325.698 356.296 341.629 361.519 347.638Z" fill="#E0E0E0"/>
<path d="M311.686 437.85C307.262 440.951 302.342 444.19 304.189 449.978C305.305 453.451 310.459 456.869 314.139 458.44C324.362 463.028 335.181 466.155 346.277 467.728C341.882 473.23 338.677 479.584 336.864 486.388C335.348 492.107 334.976 498.626 338.242 503.532C344.016 512.173 356.874 514.695 366.177 515.784C382.714 517.741 400.988 516.611 416.837 511.47C432.685 506.33 447.156 495.332 453.633 479.952C454.688 477.562 455.372 475.025 455.659 472.428C456.499 462.547 448.617 455.146 442.415 448.421C435.624 440.922 427.833 434.392 419.262 429.017C406.267 420.996 391.19 416.131 375.865 416.476C360.54 416.82 346.662 421.906 332.564 427.253C323.799 430.602 319.444 432.407 311.686 437.85Z" fill="#E0E0E0"/>
<path d="M577.21 424.248C571.696 423.38 566.05 424.349 561.141 427.005C560.637 427.253 560.19 427.605 559.832 428.038C558.109 430.353 563.056 432.173 564.559 432.669C567.173 433.477 569.875 433.972 572.607 434.143C573.693 434.316 574.8 434.316 575.887 434.143C576.43 434.054 576.944 433.84 577.389 433.517C577.834 433.194 578.197 432.771 578.45 432.283C578.946 431.139 578.602 429.802 578.919 428.589C579.236 427.377 579.994 426.453 579.525 425.461C579.057 424.469 578.106 424.359 577.21 424.248ZM562.188 438.595C558.564 435.976 554.457 437.313 551.37 439.973C550.898 440.288 550.495 440.694 550.182 441.167C549.87 441.641 549.655 442.172 549.551 442.729C549.539 443.462 549.788 444.175 550.254 444.741C550.709 445.366 551.297 445.882 551.977 446.252C552.656 446.621 553.409 446.835 554.181 446.877C554.952 446.908 555.719 446.747 556.412 446.408C557.105 446.069 557.702 445.562 558.15 444.934C558.495 444.232 558.962 443.598 559.528 443.06C560.659 442.329 562.45 442.908 563.277 441.861C563.459 441.6 563.569 441.296 563.596 440.979C563.622 440.661 563.565 440.343 563.429 440.055C563.15 439.469 562.722 438.965 562.188 438.595V438.595ZM633.975 416.834C632.089 414.069 629.607 411.761 626.712 410.081C616.817 404.321 605.406 409.433 595.443 412.259C593.662 412.574 592.032 413.459 590.798 414.781C590.045 416.155 589.44 417.606 588.993 419.108C587.959 420.799 586.788 422.403 585.492 423.904C581.138 430.298 589.089 433.013 594.051 433.744C601.422 434.805 608.908 434.805 616.28 433.744C622.729 432.807 629.413 430.85 633.837 426.067C636.676 422.994 636.166 420.155 633.975 416.834V416.834ZM567.701 409.943C573.091 405.57 576.659 399.345 577.706 392.482C577.706 392.414 577.706 392.358 577.706 392.289C578.21 389.049 577.8 385.732 576.521 382.711C572.634 374.153 561.361 370.556 553.272 367.69C542.881 364.024 532.131 361.034 521.037 360.799C506.36 360.468 491.917 365.127 479.473 372.817C471.274 377.987 463.823 384.256 457.326 391.449C451.387 397.898 443.834 404.982 444.634 414.45C444.911 416.939 445.571 419.37 446.591 421.657C456.568 445.596 482.629 462.023 507.504 466.833L507.904 466.915C518.929 468.982 531.69 467.839 537.396 456.786C540.689 450.391 541.075 443.005 541.062 435.742C541.062 431.837 540.96 427.946 540.758 424.069C550.523 421.064 559.655 416.295 567.701 409.998V409.943Z" fill="#E0E0E0"/>
<path d="M243.758 300.947L381.805 380.658L243.758 460.355L105.71 380.658L243.758 300.947Z" fill="#E0E0E0"/>
<path d="M418.27 580.762L72.6214 433.578C72.2214 433.414 71.8578 433.172 71.5513 432.866C71.2448 432.561 71.0015 432.199 70.8351 431.799C70.6687 431.4 70.5826 430.972 70.5817 430.539C70.5808 430.107 70.6651 429.678 70.8298 429.278C70.9945 428.879 71.2364 428.515 71.5416 428.208C71.8468 427.902 72.2094 427.659 72.6087 427.492C73.0079 427.326 73.4361 427.24 73.8686 427.239C74.3011 427.238 74.7296 427.322 75.1296 427.487L424.169 566.471C426.014 567.292 427.467 568.8 428.219 570.675C428.97 572.549 428.961 574.643 428.193 576.512C427.425 578.38 425.958 579.875 424.105 580.679C422.253 581.483 420.159 581.533 418.27 580.818V580.762Z" fill="#E0E0E0"/>
<path d="M360.292 605.679L48.5041 396.121C47.8543 395.609 47.42 394.872 47.2867 394.055C47.1534 393.239 47.3309 392.402 47.7842 391.71C48.2374 391.018 48.9335 390.521 49.7352 390.317C50.5369 390.113 51.3859 390.217 52.1148 390.608L368.795 592.656C369.648 593.214 370.382 593.935 370.956 594.777C371.529 595.619 371.932 596.566 372.14 597.563C372.348 598.561 372.357 599.589 372.168 600.591C371.978 601.592 371.593 602.546 371.035 603.398C370.476 604.251 369.756 604.985 368.914 605.559C368.072 606.132 367.125 606.535 366.127 606.743C365.13 606.951 364.101 606.96 363.1 606.771C362.099 606.581 361.145 606.196 360.292 605.638V605.679Z" fill="#E0E0E0"/>
<path d="M477.006 274.597C482.656 274.597 487.438 280.11 484.393 310.236C481.347 340.362 458.732 360.028 432.024 364.7L463.569 278.36C467.868 276.534 472.384 275.27 477.006 274.597V274.597Z" fill="#F0997A"/>
<path d="M424.789 292.568C435.373 285.126 466.394 275.162 477.006 274.652C467.249 277.684 474.939 293.946 470.736 316.162C465.526 343.724 458.112 352.379 447.307 358.98C437.44 365.03 425.753 367.07 410.098 364.107C389.426 360.165 375.493 347.9 366.88 336.93C358.266 325.96 353.76 306.294 362.194 282.37C371.179 256.847 393.629 238.16 400.024 239.069C406.418 239.979 421.977 271.441 424.789 292.568Z" fill="#FFBDA7"/>
<path d="M424.789 292.568C424.513 290.487 424.1 288.296 423.603 286.05L422.818 286.546C416.74 290.42 411.066 294.893 405.881 299.9C400.919 304.682 396.716 310.318 389.977 312.716C389.808 312.749 389.648 312.817 389.507 312.917C389.367 313.017 389.25 313.146 389.164 313.295C388.888 314.094 391.273 313.833 391.658 313.805C393.913 313.521 396.085 312.775 398.039 311.614C400.515 310.129 402.907 308.51 405.205 306.763C408.706 304.296 412.096 301.678 415.528 299.1C417.14 297.888 418.766 296.661 420.434 295.49C421.026 295.063 424.692 293.174 424.789 292.568Z" fill="#F0997A"/>
<path d="M463.431 289.853C462.539 288.993 461.472 288.335 460.303 287.924C459.694 287.696 459.06 287.544 458.415 287.469C457.85 287.4 457.188 287.469 456.747 287.056C456.597 286.932 456.496 286.758 456.463 286.565C456.43 286.373 456.468 286.175 456.568 286.008C457.009 285.374 458.071 285.457 458.746 285.512C460.958 285.742 463.027 286.713 464.617 288.268C464.799 288.445 464.911 288.682 464.934 288.934C464.957 289.187 464.888 289.44 464.741 289.647C464.669 289.748 464.579 289.833 464.474 289.899C464.369 289.964 464.252 290.008 464.13 290.027C464.008 290.046 463.883 290.041 463.763 290.011C463.643 289.981 463.53 289.927 463.431 289.853V289.853Z" fill="#F0997A"/>
<path d="M461.791 296.11C461.087 295.605 460.329 295.18 459.531 294.842C458.703 294.482 457.839 294.21 456.954 294.029C455.919 293.906 454.896 293.699 453.895 293.409C453.288 293.175 453.33 292.265 453.757 291.879H453.84H454.005H454.157H454.088C454.208 291.834 454.333 291.802 454.46 291.783C454.79 291.755 455.122 291.755 455.452 291.783C456.017 291.783 456.582 291.907 457.133 292.003C458.202 292.204 459.246 292.518 460.248 292.94C461.157 293.307 462.01 293.799 462.784 294.401C463.123 294.655 463.429 294.952 463.693 295.283C464.093 295.827 464.353 296.462 464.451 297.13C464.451 297.295 464.451 297.461 464.217 297.447C463.298 297.24 462.457 296.777 461.791 296.11V296.11Z" fill="#F0997A"/>
<path d="M464.686 307.383C464.892 307.548 464.41 307.259 464.355 307.218C464.132 307.004 463.938 306.763 463.776 306.501C463.484 306.095 463.162 305.713 462.811 305.357C462.022 304.63 461.158 303.988 460.234 303.442C459.26 302.838 458.226 302.34 457.147 301.953C456.65 301.784 456.144 301.641 455.631 301.526C455.025 301.505 454.433 301.335 453.909 301.03C453.564 300.74 453.481 299.941 453.977 299.734C455.364 299.404 456.822 299.554 458.112 300.162C459.271 300.614 460.383 301.177 461.433 301.843C462.364 302.411 463.224 303.086 463.996 303.855C464.409 304.256 464.754 304.721 465.016 305.233C465.327 305.876 465.409 306.605 465.251 307.3C465.251 307.672 464.878 307.548 464.686 307.383Z" fill="#F0997A"/>
<path d="M462.756 315.321C462.439 313.502 460.717 312 459.297 310.966C458.639 310.476 457.943 310.038 457.216 309.657C456.75 309.399 456.266 309.173 455.769 308.982C454.637 308.751 453.551 308.332 452.558 307.741C452.269 307.48 452.2 306.763 452.654 306.625C454.068 306.425 455.509 306.655 456.789 307.287C458.103 307.784 459.341 308.461 460.468 309.299C462.219 310.594 465.044 312.992 463.831 315.459C463.813 315.602 463.739 315.731 463.625 315.819C463.511 315.907 463.367 315.946 463.225 315.928C463.082 315.909 462.953 315.835 462.865 315.721C462.777 315.608 462.738 315.464 462.756 315.321V315.321Z" fill="#F0997A"/>
<path d="M461.419 325.63C461.502 325.712 461.033 325.464 460.937 325.354C460.716 325.092 460.526 324.806 460.372 324.5C460.055 323.962 459.779 323.397 459.421 322.873C458.699 321.831 457.826 320.903 456.83 320.117C455.75 319.288 454.575 318.589 453.33 318.036C452.021 317.457 450.325 317.209 449.388 316.079C449.342 316.031 449.306 315.973 449.286 315.909C449.265 315.845 449.259 315.778 449.268 315.711C449.277 315.645 449.302 315.581 449.339 315.526C449.377 315.47 449.427 315.424 449.485 315.39C450.346 315.128 451.271 315.172 452.103 315.514C452.859 315.722 453.6 315.98 454.322 316.286C455.704 316.862 457.002 317.623 458.181 318.546C459.191 319.337 460.087 320.264 460.841 321.302C461.235 321.837 461.577 322.41 461.86 323.011C462.023 323.348 462.139 323.705 462.205 324.072C462.231 324.533 462.208 324.995 462.136 325.45C462.136 325.974 461.654 325.864 461.419 325.63Z" fill="#F0997A"/>
<path d="M457.685 334.05C457.553 333.857 457.455 333.642 457.395 333.416C457.244 332.989 457.037 332.575 456.858 332.148C456.627 331.583 456.365 331.031 456.072 330.494C455.518 329.511 454.801 328.631 453.95 327.89C453.051 327.082 452.05 326.397 450.973 325.85C450.449 325.588 449.898 325.34 449.347 325.12L448.479 324.775C448.11 324.609 447.766 324.391 447.459 324.127C447.183 323.907 447.004 323.163 447.528 323.108C449.117 323.098 450.678 323.532 452.034 324.362C453.333 324.979 454.521 325.808 455.549 326.815C456.446 327.681 457.191 328.692 457.754 329.805C458.08 330.418 458.308 331.078 458.429 331.762C458.594 332.516 458.594 333.296 458.429 334.05C458.277 334.394 457.878 334.312 457.685 334.05Z" fill="#F0997A"/>
<path d="M453.385 341.575C452.703 340.372 452.149 339.102 451.731 337.785C451.254 336.787 450.642 335.859 449.912 335.028C449.156 334.156 448.256 333.42 447.252 332.851C446.765 332.59 446.258 332.369 445.736 332.19C445.061 331.941 444.427 331.79 444.069 331.115C444.02 331.029 444.002 330.929 444.017 330.832C444.032 330.734 444.08 330.645 444.151 330.577C444.716 330.109 445.598 330.357 446.232 330.577C446.875 330.758 447.495 331.012 448.079 331.335C449.372 332.022 450.515 332.958 451.442 334.091C452.252 335.092 452.912 336.207 453.399 337.399C454.077 338.753 454.299 340.29 454.033 341.781C454.005 342.016 453.495 341.726 453.385 341.575Z" fill="#F0997A"/>
<path d="M450.132 348.52C449.636 348.203 449.581 347.459 449.443 346.935C449.009 345.144 448.132 343.491 446.894 342.126C446.089 341.27 445.16 340.541 444.138 339.962C443.619 339.647 443.081 339.366 442.525 339.121C441.992 338.845 441.444 338.597 440.885 338.377C440.086 338.143 440.224 336.586 441.119 336.82C441.974 336.996 442.813 337.24 443.628 337.55C444.25 337.812 444.853 338.116 445.433 338.46C446.554 339.152 447.563 340.012 448.424 341.009C449.244 341.942 449.897 343.01 450.353 344.165C450.607 344.828 450.787 345.517 450.89 346.219C451.053 346.943 451.005 347.698 450.753 348.396C450.725 348.451 450.686 348.499 450.638 348.536C450.589 348.573 450.533 348.598 450.473 348.61C450.413 348.622 450.351 348.62 450.292 348.605C450.233 348.589 450.179 348.56 450.132 348.52V348.52Z" fill="#F0997A"/>
<path d="M444.868 353.027C444.368 352.36 444.028 351.586 443.876 350.767C443.742 350.354 443.586 349.949 443.407 349.554C443.034 348.719 442.527 347.951 441.905 347.28C441.268 346.614 440.534 346.047 439.728 345.599C439.312 345.35 438.874 345.143 438.418 344.978C437.803 344.849 437.226 344.575 436.737 344.179C436.489 343.903 436.351 343.242 436.82 343.09C437.749 342.868 438.726 342.985 439.576 343.421C440.127 343.623 440.658 343.877 441.161 344.179C442.134 344.786 442.997 345.555 443.71 346.453C444.38 347.283 444.914 348.213 445.295 349.209C445.492 349.738 445.621 350.289 445.681 350.849C445.774 351.507 445.713 352.177 445.502 352.806C445.494 352.876 445.467 352.942 445.423 352.997C445.379 353.052 445.321 353.093 445.254 353.116C445.188 353.139 445.117 353.143 445.048 353.127C444.98 353.111 444.917 353.076 444.868 353.027V353.027Z" fill="#F0997A"/>
<path d="M439.921 355.755L439.438 355.246L439.369 355.149C439.327 355.074 439.29 354.995 439.259 354.915L439.052 354.543C438.943 354.341 438.818 354.147 438.68 353.964C438.336 353.509 437.953 353.085 437.536 352.696C437.132 352.35 436.693 352.045 436.227 351.786L435.579 351.442C435.115 351.273 434.685 351.021 434.312 350.698C434.036 350.408 433.995 349.664 434.491 349.554C435.365 349.464 436.246 349.647 437.013 350.078C437.634 350.411 438.217 350.814 438.749 351.277C439.23 351.683 439.661 352.145 440.031 352.655C440.657 353.369 440.987 354.296 440.954 355.246C440.948 355.37 440.909 355.49 440.841 355.594C440.773 355.698 440.679 355.782 440.568 355.838C440.293 356.003 440.141 355.866 439.921 355.755Z" fill="#F0997A"/>
<path d="M434.477 357.671C434.559 357.687 434.643 357.687 434.725 357.671C434.882 357.659 435.029 357.59 435.138 357.478C435.319 357.274 435.428 357.017 435.448 356.746C435.468 356.474 435.398 356.204 435.249 355.976C435.142 355.797 435.022 355.627 434.89 355.466C434.671 355.189 434.411 354.948 434.119 354.749L433.733 354.515C433.608 354.452 433.479 354.396 433.347 354.35C433.086 354.26 432.808 354.232 432.534 354.267C432.313 354.267 432.162 354.529 432.12 354.722C432.093 354.845 432.092 354.973 432.118 355.097C432.144 355.22 432.197 355.337 432.272 355.438C432.356 355.568 432.463 355.68 432.589 355.769L432.451 355.659C432.559 355.772 432.674 355.878 432.796 355.976L432.92 356.086L433.154 356.307C433.325 356.486 433.486 356.674 433.636 356.872C433.721 357.037 433.828 357.19 433.953 357.326L434.077 357.423L434.243 357.547C434.491 357.726 434.532 357.726 434.477 357.671Z" fill="#F0997A"/>
<path d="M398.067 252.396C398.001 252.233 397.997 252.053 398.055 251.888C398.114 251.723 398.231 251.585 398.384 251.5C398.839 251.307 399.307 251.155 399.762 250.935C399.975 250.827 400.182 250.707 400.382 250.576L400.713 250.342L400.823 250.246C400.961 250.108 401.099 249.97 401.223 249.819V249.736L401.374 249.488C401.44 249.34 401.495 249.188 401.54 249.033C401.622 248.757 401.677 248.399 401.926 248.22L401.76 248.454C401.794 248.333 401.86 248.223 401.953 248.137C402.033 248.084 402.126 248.055 402.222 248.055C402.318 248.055 402.411 248.084 402.491 248.137L402.821 248.496L402.656 248.234C402.864 248.443 402.999 248.714 403.042 249.005C403.069 249.207 403.069 249.411 403.042 249.612C402.979 249.874 402.887 250.128 402.766 250.37C402.565 250.811 402.279 251.209 401.926 251.541C401.043 252.334 399.953 252.859 398.783 253.057C398.494 253.085 398.163 252.685 398.067 252.396Z" fill="#F0997A"/>
<path d="M399.018 260.72C398.704 260.782 398.381 260.78 398.068 260.714C397.756 260.647 397.46 260.518 397.199 260.334C397.139 260.289 397.09 260.231 397.057 260.164C397.023 260.097 397.006 260.023 397.006 259.948C397.006 259.873 397.023 259.799 397.057 259.732C397.09 259.665 397.139 259.607 397.199 259.562C397.738 259.203 398.342 258.95 398.976 258.818C399.431 258.666 399.872 258.528 400.354 258.363C401.135 258.048 401.887 257.666 402.601 257.219C403.293 256.78 403.935 256.267 404.516 255.69C404.916 255.29 405.288 254.849 405.646 254.422C405.881 254.059 406.223 253.779 406.625 253.622C407.107 253.485 407.479 254.008 407.493 254.435C407.493 255.565 406.391 256.64 405.633 257.371C404.937 258.039 404.175 258.635 403.359 259.149C402.532 259.655 401.649 260.062 400.727 260.361C400.174 260.551 399.6 260.671 399.018 260.72V260.72Z" fill="#F0997A"/>
<path d="M398.37 267.128C397.764 267.128 397.391 265.833 398.081 265.626C399.211 265.309 400.382 265.185 401.498 264.84C402.478 264.551 403.432 264.182 404.351 263.738C405.257 263.282 406.124 262.752 406.942 262.153C407.343 261.865 407.729 261.557 408.099 261.23L408.541 260.816C408.826 260.61 409.086 260.369 409.312 260.1C409.671 259.466 410.511 260.306 410.387 260.816C410.312 261.317 410.113 261.79 409.808 262.194C409.338 262.701 408.821 263.162 408.265 263.572C407.33 264.298 406.323 264.926 405.261 265.447C404.245 265.964 403.178 266.375 402.077 266.673C400.883 267.065 399.623 267.219 398.37 267.128V267.128Z" fill="#F0997A"/>
<path d="M397.901 274.653C397.378 274.515 397.061 273.633 397.681 273.385C399.16 272.962 400.659 272.617 402.174 272.351C404.941 271.616 407.578 270.453 409.988 268.906C410.635 268.52 411.255 268.093 411.876 267.679C412.321 267.307 412.851 267.051 413.419 266.935C413.695 266.935 414.177 267.28 414.039 267.597C413.199 268.97 412.011 270.097 410.594 270.863C409.405 271.644 408.145 272.313 406.832 272.861C405.5 273.449 404.116 273.91 402.697 274.239C401.152 274.745 399.511 274.886 397.901 274.653V274.653Z" fill="#F0997A"/>
<path d="M403.441 282.122C402.477 282.274 401.512 282.411 400.534 282.494C399.609 282.757 398.618 282.643 397.777 282.177C397.626 282.053 397.405 281.722 397.598 281.529C398.309 280.978 399.179 280.673 400.079 280.661L402.835 280.234C404.738 279.922 406.613 279.461 408.444 278.856C409.98 278.356 411.451 277.676 412.826 276.83C413.46 276.43 414.067 276.003 414.659 275.548C415.097 275.163 415.557 274.804 416.038 274.473C416.313 274.308 416.547 274.363 416.809 274.253C417.071 274.143 417.457 274.349 417.361 274.597C417.23 275.123 417.001 275.618 416.685 276.058C416.405 276.387 416.106 276.7 415.789 276.995C415.125 277.599 414.405 278.139 413.64 278.608C412.2 279.474 410.67 280.181 409.078 280.716C407.242 281.342 405.356 281.812 403.441 282.122V282.122Z" fill="#F0997A"/>
<path d="M402.201 290.115C400.988 290.225 399.776 290.322 398.549 290.349C397.534 290.475 396.504 290.376 395.531 290.06C395.145 289.881 394.842 289.205 395.338 288.971C396.272 288.619 397.262 288.437 398.26 288.434C399.514 288.323 400.754 288.227 401.994 288.089C404.248 287.854 406.481 287.458 408.678 286.904C410.699 286.384 412.658 285.65 414.522 284.713C415.404 284.272 416.23 283.748 417.085 283.224C417.647 282.784 418.341 282.546 419.056 282.549C419.166 282.549 419.331 282.659 419.317 282.797C419.166 283.831 418.187 284.534 417.402 285.126C416.511 285.777 415.566 286.348 414.577 286.835C412.713 287.779 410.748 288.51 408.72 289.013C406.579 289.551 404.4 289.92 402.201 290.115V290.115Z" fill="#F0997A"/>
<path d="M402.16 297.144C400.368 297.268 398.205 297.461 396.647 296.386C396.441 296.248 396.248 295.779 396.551 295.641C398.094 294.911 400.106 295.242 401.774 295.145C403.568 295.032 405.348 294.76 407.093 294.332C408.773 293.935 410.418 293.406 412.013 292.747C413.019 292.32 414.012 291.852 414.976 291.369C415.646 290.906 416.4 290.578 417.195 290.405C417.636 290.405 418.16 291.038 417.857 291.438C416.406 292.884 414.642 293.978 412.702 294.635C410.996 295.369 409.23 295.954 407.424 296.386C405.692 296.776 403.932 297.029 402.16 297.144V297.144Z" fill="#F0997A"/>
<path d="M398.494 303.745C396.882 303.969 395.24 303.813 393.698 303.29C393.381 303.152 393.105 302.56 393.574 302.436C394.991 302.164 396.431 302.03 397.874 302.036C399.432 301.917 400.979 301.687 402.504 301.347C403.962 301.034 405.394 300.615 406.79 300.093C407.548 299.803 408.279 299.486 409.009 299.169C409.671 298.768 410.416 298.523 411.187 298.453C411.614 298.453 411.986 299.032 411.696 299.404C410.567 300.477 409.189 301.254 407.686 301.664C406.21 302.233 404.695 302.693 403.152 303.042C401.619 303.394 400.062 303.629 398.494 303.745V303.745Z" fill="#F0997A"/>
<path opacity="0.2" d="M370.049 295.462C369.526 299.597 368.85 306.17 371.593 309.712C374.859 313.957 377.726 309.12 377.477 305.578C376.265 288.847 381.309 272.103 389.343 257.674C389.963 256.544 391.424 252.396 388.53 253.54C387.622 253.993 386.862 254.695 386.339 255.565C377.668 267.299 372.069 281.013 370.049 295.462V295.462Z" fill="white"/>
<path opacity="0.2" d="M406.901 310.677C404.615 312.557 402.187 314.258 399.638 315.762C396.013 317.843 392.747 320.834 399.155 321.743C403.8 322.405 409.354 320.007 413.392 317.939C419.566 314.77 425.05 310.387 431.045 306.914C433.215 305.795 435.234 304.406 437.054 302.78C438.603 301.188 439.519 299.086 439.631 296.868C439.741 292.733 434.119 293.505 431.652 294.373C426.25 296.306 421.182 299.067 416.63 302.56C415.376 303.51 414.177 304.516 412.978 305.523C410.938 307.287 408.954 309.023 406.901 310.677Z" fill="white"/>
<path opacity="0.2" d="M385.774 321.536C386.489 322.165 387.334 322.628 388.249 322.892C389.164 323.156 390.125 323.216 391.066 323.066C392.444 322.708 393.092 321.495 391.989 320.462C390.715 319.562 389.207 319.05 387.648 318.987C385.87 318.78 383.72 319.786 385.774 321.536Z" fill="white"/>
<path d="M613.303 380.892C608.025 377.364 605.103 379.625 605.641 384.944C606.007 388.765 605.503 392.619 604.166 396.217C603.88 397.171 603.412 398.06 602.788 398.836C601.68 399.826 600.406 400.615 599.026 401.165C598.334 401.444 597.715 401.877 597.216 402.431C596.717 402.985 596.351 403.645 596.145 404.362C596.11 405.673 596.47 406.965 597.179 408.069C597.814 409.402 598.34 410.785 598.75 412.204C599.113 413.142 599.157 414.173 598.874 415.139C598.309 416.517 596.724 417.027 595.36 417.564C592.107 418.832 593.293 421.299 591.336 423.38C590.399 424.372 587.959 427.997 591.032 428.176C599.797 428.714 607.57 427.997 618.595 420.445C629.62 412.893 620.58 385.936 613.303 380.892Z" fill="#F0997A"/>
<path d="M613.303 380.892C621.875 386.157 630.709 403.204 632.721 410.784C634.733 418.364 633.272 425.64 617.672 427.983C608.834 429.226 599.869 429.272 591.019 428.121C591.019 428.121 603.022 427.377 607.984 423.463C611.25 420.872 606.151 414.56 607.873 407.78C609.596 400.999 615.77 400.572 617.989 395.473C620.207 390.374 613.303 380.892 613.303 380.892Z" fill="#FFBDA7"/>
<path d="M570.168 378.811C570.267 379.285 570.415 379.746 570.609 380.189C571.449 382.215 572.717 384.062 573.654 386.06C574.686 387.953 575.032 390.144 574.633 392.262C574.377 392.945 573.989 393.572 573.49 394.104C572.991 394.636 572.391 395.064 571.725 395.363L566.502 398.491C566.008 398.749 565.568 399.1 565.206 399.525C564.379 400.613 565.441 402.915 565.344 404.252C565.254 405.015 565.01 405.752 564.626 406.417C564.242 407.083 563.727 407.664 563.112 408.124C559.473 411.115 553.933 413.292 549.758 410.095C545.582 406.898 544.479 400.31 544.479 395.225C544.479 382.077 551.094 366.835 559.639 361.902C560.939 361.205 562.374 360.798 563.847 360.707C565.319 360.617 566.794 360.846 568.169 361.378C570.815 362.37 574.771 366.491 573.792 369.578C573.343 370.653 572.76 371.667 572.056 372.596C571.333 373.713 570.776 374.93 570.402 376.207C570.171 376.889 570.069 377.609 570.099 378.329C570.112 378.467 570.14 378.632 570.168 378.811Z" fill="#F0997A"/>
<path d="M554.939 365.457C568.721 367.966 578.45 368.324 588.814 358.567C604.387 343.876 599.577 328.689 611.126 310.732C619.574 297.598 632.817 293.781 642.74 293.257C641.003 298.177 642.161 305.481 646.654 312.758C649.597 317.796 651.88 323.192 653.448 328.813C653.448 328.813 638.289 330.701 633.438 351.428C629.524 367.965 624.81 382.877 603.711 396.093C583.632 408.662 559.887 406.76 547.552 404.141C547.552 404.128 545.113 380.851 554.939 365.457Z" fill="#FAFAFA"/>
<path d="M640.893 294.759C639.832 300.148 641.472 306.969 645.482 313.474C648.117 317.97 650.208 322.763 651.712 327.752C647.577 328.854 636.29 333.43 632.101 351.097C628.049 368.117 623.35 382.16 602.981 394.908C592.631 401.385 580.242 404.665 566.143 404.665C560.337 404.666 554.545 404.103 548.848 402.984C548.545 398.519 547.814 379.997 555.628 366.973C559.775 367.795 563.985 368.257 568.211 368.351C572.209 368.426 576.18 367.687 579.884 366.178C583.587 364.668 586.944 362.421 589.751 359.573C598.888 350.959 601.217 342.236 603.684 333.002C605.517 326.112 607.405 319.056 612.283 311.476C620.414 298.839 632.955 295.531 640.893 294.773V294.759ZM642.74 293.257C632.817 293.781 619.574 297.598 611.126 310.732C599.577 328.647 604.387 343.876 588.814 358.567C582.102 364.892 575.653 366.973 568.211 366.973C563.751 366.866 559.31 366.363 554.939 365.471C545.113 380.865 547.552 404.141 547.552 404.141C553.667 405.418 559.897 406.06 566.143 406.057C577.734 406.057 591.405 403.797 603.711 396.093C624.81 382.877 629.524 367.91 633.438 351.428C638.357 330.756 653.448 328.813 653.448 328.813C651.88 323.192 649.597 317.796 646.654 312.758C642.161 305.481 641.003 298.177 642.74 293.257V293.257Z" fill="#E0E0E0"/>
<path d="M529.416 456.607C526.977 460.824 514.918 461.458 501.785 456.097C488.651 450.736 458.015 438.305 451.855 410.743C451.855 410.743 520.5 436.293 526.357 442.55C532.214 448.807 531.594 451.907 529.416 456.607Z" fill="#F0997A"/>
<path d="M568.955 361.709C566.35 360.193 563.787 361.268 561.099 361.819C560.564 361.868 560.069 362.126 559.721 362.536C559.563 362.865 559.506 363.235 559.556 363.597C559.79 367.924 562.312 371.728 564.421 375.531C565.226 376.705 565.587 378.126 565.441 379.542C565.152 380.602 564.459 381.508 563.511 382.064C560.916 383.59 558.239 384.97 555.491 386.198C554.444 386.593 553.538 387.288 552.886 388.196C552.62 388.742 552.482 389.34 552.482 389.947C552.482 390.553 552.62 391.152 552.886 391.697C553.409 392.784 554.037 393.818 554.76 394.784C555.218 395.407 555.507 396.138 555.601 396.906C555.697 398.601 554.14 399.869 552.707 400.793C551.273 401.716 549.661 402.832 549.523 404.527C549.534 405.63 549.951 406.69 550.695 407.504C552.624 409.998 556.111 411.873 559.253 410.591C551.356 415.07 539.49 414.491 531.07 411.969C533.675 422.195 534.901 449.937 529.458 456.607C530.519 452.872 528.08 448.338 519.011 445.871C507.449 442.757 500.31 444.052 481.623 437.065C462.935 430.078 455.81 424.496 451.304 408.786C446.797 393.075 456.431 374.567 480.052 358.801C503.673 343.035 509.626 340.692 524.992 344.124C536.417 346.701 558.591 355.617 568.955 361.709Z" fill="#FFBDA7"/>
<path d="M525.971 381.802C523.104 375.876 519.645 368.241 520.762 359.89C518.75 364.024 517.895 370.308 521.134 380.134C524.372 389.96 528.782 398.05 531.029 411.983C532.839 412.513 534.68 412.931 536.541 413.237C536.169 399.952 528.851 387.714 525.971 381.802Z" fill="#F0997A"/>
<path d="M530.684 375.394C529.037 378.102 527.959 381.117 527.514 384.255C527.239 385.81 527.129 387.39 527.184 388.968C527.246 390.669 527.629 392.343 528.314 393.902C528.438 394.191 528.948 394.398 528.989 393.902C529.21 390.829 528.989 387.728 529.485 384.655C530.071 381.642 531.034 378.716 532.352 375.945C532.738 375.049 531.18 374.705 530.684 375.394Z" fill="#F0997A"/>
<path d="M538.305 381.416C537.51 382.156 536.868 383.046 536.417 384.035C535.804 385.126 535.247 386.248 534.75 387.397C533.758 389.692 533.01 392.085 532.517 394.536C532.029 396.945 531.78 399.396 531.773 401.854C531.615 404.459 532.088 407.064 533.151 409.447C533.289 409.709 533.689 409.764 533.73 409.447C533.84 408.203 533.812 406.951 533.647 405.713C533.551 404.458 533.523 403.191 533.523 401.936C533.521 399.557 533.761 397.184 534.24 394.853C534.714 392.566 535.402 390.328 536.293 388.169C536.734 387.108 537.23 386.074 537.768 385.068L538.581 383.607C538.918 383.149 539.161 382.63 539.298 382.078C539.449 381.554 538.719 381.072 538.305 381.416Z" fill="#F0997A"/>
<path d="M542.991 387.315C542.28 387.906 541.718 388.657 541.351 389.506C540.91 390.291 540.496 391.104 540.124 391.918C539.365 393.591 538.761 395.33 538.319 397.113C537.879 398.804 537.575 400.528 537.409 402.267C537.32 403.146 537.279 404.03 537.285 404.913C537.195 405.857 537.357 406.808 537.754 407.67C537.988 408.014 538.581 408.221 538.788 407.738C539.004 406.907 539.084 406.046 539.022 405.189C539.022 404.348 539.091 403.494 539.16 402.653C539.308 400.851 539.617 399.067 540.083 397.32C540.518 395.651 541.084 394.02 541.778 392.441C542.109 391.697 542.467 390.953 542.867 390.222C543.267 389.492 543.942 388.665 543.9 387.907C543.873 387.48 543.363 387.053 542.991 387.315Z" fill="#F0997A"/>
<path d="M545.885 393.723C544.426 395.812 543.512 398.233 543.225 400.765C543.017 401.906 542.911 403.064 542.908 404.224C542.868 405.442 543.055 406.657 543.459 407.807C543.597 408.152 544.273 408.441 544.369 407.917C544.491 406.773 544.551 405.623 544.548 404.472C544.601 403.284 544.73 402.101 544.934 400.93C545.128 399.806 545.4 398.696 545.747 397.609C546.195 396.502 546.564 395.364 546.85 394.205C546.919 393.778 546.188 393.351 545.885 393.723Z" fill="#F0997A"/>
<path d="M519.797 437.644C521.264 436.437 522.311 434.797 522.787 432.958C522.925 432.407 522.925 431.732 523.394 431.359C523.542 431.229 523.733 431.156 523.931 431.156C524.129 431.156 524.32 431.229 524.469 431.359C525.034 431.869 524.827 432.917 524.676 433.578C524.509 434.383 524.235 435.161 523.862 435.894C523.241 437.127 522.362 438.213 521.285 439.077C521.092 439.238 520.848 439.327 520.596 439.327C520.344 439.327 520.101 439.238 519.907 439.077C519.796 438.997 519.703 438.894 519.636 438.775C519.568 438.655 519.528 438.523 519.517 438.386C519.507 438.249 519.526 438.112 519.575 437.984C519.623 437.856 519.699 437.739 519.797 437.644Z" fill="#F0997A"/>
<path d="M513.788 435.246C514.377 434.605 514.894 433.903 515.332 433.151C515.793 432.377 516.167 431.554 516.448 430.698C516.704 429.685 517.041 428.695 517.454 427.735C517.757 427.17 518.639 427.322 518.984 427.735C518.984 427.735 518.984 427.735 518.984 427.804V427.887C518.992 427.937 518.992 427.988 518.984 428.038V427.956C519.004 428.083 519.004 428.214 518.984 428.341C518.977 428.671 518.936 428.999 518.86 429.32C518.736 429.871 518.598 430.422 518.433 430.96C518.099 431.999 517.661 433.001 517.123 433.95C516.645 434.804 516.051 435.587 515.359 436.279C515.063 436.583 514.73 436.846 514.367 437.065C513.776 437.395 513.114 437.579 512.438 437.602C512.272 437.602 512.121 437.52 512.162 437.327C512.506 436.499 513.068 435.78 513.788 435.246Z" fill="#F0997A"/>
<path d="M502.24 436.734C502.047 436.913 502.391 436.472 502.446 436.431C502.683 436.229 502.948 436.062 503.232 435.935C503.669 435.695 504.088 435.423 504.486 435.122C505.304 434.428 506.043 433.647 506.691 432.793C507.414 431.903 508.037 430.937 508.551 429.912C508.772 429.444 508.992 428.962 509.172 428.465C509.267 427.865 509.508 427.297 509.874 426.812C510.191 426.508 510.991 426.522 511.142 427.032C511.317 428.477 510.986 429.938 510.205 431.167C509.62 432.264 508.922 433.299 508.124 434.254C507.452 435.119 506.674 435.897 505.809 436.569C505.358 436.923 504.856 437.206 504.321 437.409C503.647 437.644 502.913 437.644 502.24 437.409C501.895 437.258 502.06 436.927 502.24 436.734Z" fill="#F0997A"/>
<path d="M494.605 433.84C496.451 433.744 498.16 432.214 499.359 430.946C499.923 430.35 500.443 429.714 500.917 429.044C501.223 428.601 501.504 428.141 501.757 427.666C502.295 426.688 502.529 425.392 503.397 424.634C503.687 424.372 504.403 424.414 504.472 424.882C504.49 426.28 504.092 427.652 503.328 428.824C502.668 430.071 501.838 431.222 500.861 432.241C499.359 433.826 496.644 436.376 494.329 434.832C494.231 434.771 494.156 434.679 494.114 434.571C494.072 434.463 494.067 434.345 494.098 434.234C494.129 434.122 494.195 434.024 494.286 433.953C494.377 433.882 494.489 433.842 494.605 433.84V433.84Z" fill="#F0997A"/>
<path d="M484.544 431.249C484.448 431.318 484.751 430.891 484.875 430.808C485.158 430.619 485.463 430.466 485.785 430.353C486.364 430.105 486.956 429.885 487.521 429.595C488.64 429.011 489.663 428.258 490.553 427.363C491.509 426.395 492.346 425.317 493.047 424.152C493.778 422.925 494.233 421.272 495.473 420.472C495.527 420.432 495.59 420.404 495.657 420.392C495.724 420.379 495.793 420.383 495.858 420.401C495.924 420.42 495.984 420.453 496.034 420.499C496.085 420.545 496.124 420.602 496.148 420.665C496.301 421.551 496.141 422.463 495.693 423.242C495.391 423.965 495.046 424.669 494.66 425.351C493.906 426.651 492.979 427.843 491.904 428.893C490.981 429.799 489.937 430.573 488.803 431.194C488.221 431.527 487.607 431.799 486.97 432.007C486.618 432.125 486.252 432.194 485.881 432.214C485.415 432.186 484.953 432.107 484.503 431.98C484.117 431.911 484.324 431.415 484.544 431.249Z" fill="#F0997A"/>
<path d="M476.634 426.508C476.847 426.404 477.075 426.335 477.309 426.302C477.75 426.191 478.191 426.054 478.687 425.916C479.183 425.778 479.859 425.571 480.424 425.351C481.467 424.915 482.431 424.309 483.277 423.559C484.188 422.748 484.99 421.822 485.661 420.803C485.991 420.321 486.295 419.811 486.584 419.287L487.039 418.46C487.248 418.119 487.503 417.808 487.797 417.537C488.059 417.289 488.817 417.206 488.817 417.73C488.626 419.307 488.001 420.8 487.011 422.043C486.232 423.255 485.265 424.334 484.145 425.24C483.169 426.015 482.075 426.629 480.906 427.06C480.256 427.303 479.573 427.447 478.88 427.487C478.113 427.556 477.339 427.448 476.62 427.17C476.234 427.046 476.372 426.66 476.634 426.508Z" fill="#F0997A"/>
<path d="M467.704 421.919C468.976 421.386 470.302 420.994 471.659 420.748C472.722 420.394 473.733 419.898 474.663 419.273C475.625 418.638 476.465 417.835 477.144 416.903C477.476 416.469 477.771 416.008 478.026 415.525C478.357 414.891 478.577 414.284 479.28 414.009C479.372 413.972 479.473 413.966 479.568 413.994C479.663 414.021 479.746 414.08 479.804 414.16C480.203 414.767 479.804 415.621 479.597 416.228C479.339 416.847 479.011 417.434 478.618 417.978C477.771 419.17 476.699 420.186 475.463 420.968C474.363 421.648 473.17 422.164 471.921 422.498C470.499 423.008 468.95 423.037 467.511 422.581C467.194 422.429 467.538 422.016 467.704 421.919Z" fill="#F0997A"/>
<path d="M462.343 416.889C462.729 416.434 463.473 416.462 464.01 416.407C464.703 416.319 465.386 416.167 466.05 415.952C467.136 415.62 468.16 415.113 469.082 414.45C470.036 413.757 470.882 412.926 471.59 411.983C471.963 411.505 472.303 411.003 472.61 410.481C472.953 409.99 473.266 409.48 473.547 408.951C473.891 408.179 475.407 408.51 475.063 409.364C474.789 410.195 474.448 411.002 474.043 411.776C473.703 412.356 473.326 412.913 472.913 413.444C472.086 414.469 471.11 415.366 470.019 416.104C468.992 416.805 467.849 417.318 466.643 417.619C465.959 417.803 465.256 417.905 464.548 417.923C463.807 417.989 463.062 417.846 462.398 417.509C462.348 417.476 462.307 417.432 462.276 417.381C462.246 417.329 462.227 417.272 462.222 417.212C462.217 417.153 462.225 417.093 462.246 417.037C462.267 416.981 462.3 416.93 462.343 416.889V416.889Z" fill="#F0997A"/>
<path d="M459.821 410.522C460.545 410.106 461.357 409.865 462.191 409.819C462.62 409.741 463.044 409.635 463.459 409.502C464.327 409.23 465.146 408.821 465.885 408.29C466.617 407.741 467.259 407.081 467.786 406.333C468.077 405.951 468.335 405.545 468.558 405.12C468.761 404.523 469.107 403.983 469.564 403.549C469.867 403.328 470.543 403.273 470.639 403.756C470.732 404.688 470.498 405.623 469.978 406.402C469.708 406.922 469.39 407.416 469.027 407.876C468.302 408.771 467.431 409.535 466.45 410.136C465.523 410.696 464.514 411.105 463.459 411.349C462.914 411.484 462.353 411.544 461.791 411.528C461.125 411.537 460.466 411.396 459.862 411.115C459.814 411.083 459.774 411.041 459.744 410.992C459.715 410.942 459.698 410.886 459.694 410.829C459.69 410.771 459.699 410.714 459.721 410.661C459.743 410.607 459.777 410.56 459.821 410.522V410.522Z" fill="#F0997A"/>
<path d="M458.139 404.583L458.704 404.169H458.815L459.049 404.073L459.462 403.921C459.67 403.831 459.872 403.73 460.069 403.618C460.558 403.336 461.02 403.009 461.447 402.639C461.843 402.284 462.199 401.887 462.508 401.454L462.935 400.848C463.163 400.412 463.466 400.02 463.831 399.69C464.148 399.456 464.892 399.511 464.934 400.007C464.925 400.888 464.635 401.742 464.107 402.446C463.707 403.024 463.245 403.555 462.729 404.031C462.258 404.458 461.734 404.824 461.171 405.12C460.366 405.671 459.376 405.884 458.415 405.713C458.294 405.689 458.181 405.635 458.087 405.556C457.992 405.476 457.92 405.373 457.878 405.258C457.85 404.913 458.002 404.789 458.139 404.583Z" fill="#F0997A"/>
<path d="M457.202 398.408C457.152 398.482 457.124 398.568 457.12 398.657C457.117 398.81 457.165 398.961 457.257 399.084C457.439 399.285 457.68 399.423 457.945 399.478C458.21 399.532 458.486 399.501 458.732 399.387L459.283 399.084C459.586 398.905 459.856 398.677 460.083 398.408C460.186 398.298 460.279 398.178 460.358 398.05C460.448 397.941 460.522 397.821 460.579 397.692C460.699 397.442 460.765 397.17 460.772 396.893C460.755 396.783 460.707 396.681 460.634 396.598C460.56 396.515 460.465 396.454 460.358 396.424C460.238 396.384 460.112 396.37 459.986 396.381C459.86 396.393 459.738 396.431 459.628 396.493C459.494 396.564 459.373 396.657 459.27 396.768L459.394 396.644C459.268 396.739 459.149 396.84 459.035 396.948L458.911 397.058C458.83 397.134 458.742 397.203 458.649 397.265C458.458 397.414 458.255 397.547 458.043 397.664C457.87 397.726 457.707 397.815 457.561 397.926L457.437 398.05L457.285 398.202C457.147 398.422 457.147 398.464 457.202 398.408Z" fill="#F0997A"/>
<path d="M573.379 419.935C574.271 419.896 575.156 420.116 575.926 420.568C576.696 421.02 577.319 421.686 577.72 422.484C578.974 424.731 576.521 426.205 576.548 428.383C576.548 429.527 577.361 430.615 576.204 431.511C575.681 431.859 575.068 432.051 574.44 432.062C570.859 432.235 567.286 431.57 564.007 430.119C563.266 429.828 562.548 429.483 561.858 429.086C561.549 428.938 561.265 428.743 561.017 428.507C560.8 428.255 560.648 427.953 560.576 427.629C560.504 427.304 560.513 426.966 560.603 426.646C561.1 424.758 563.994 423.89 565.578 423.105C567.632 422.14 569.713 421.299 571.78 420.348C572.284 420.117 572.826 419.977 573.379 419.935V419.935Z" fill="#FFBDA7"/>
<path d="M554.87 434.171C554.637 434.374 554.421 434.595 554.223 434.832C553.481 435.799 552.921 436.891 552.569 438.057C552.255 438.981 552.002 439.925 551.811 440.882C551.618 441.52 551.618 442.201 551.811 442.839C552.202 443.495 552.82 443.985 553.547 444.217C554.152 444.568 554.87 444.668 555.548 444.495C556.225 444.322 556.808 443.891 557.172 443.294C557.709 442.329 557.337 440.841 558.853 440.772C559.942 440.772 561.32 441.406 562.312 440.51C563.304 439.614 562.243 438.14 561.472 437.382C560.371 436.251 559.392 435.009 558.55 433.675C558.437 433.47 558.282 433.292 558.095 433.151C557.835 433.022 557.541 432.979 557.255 433.027C556.362 433.155 555.529 433.555 554.87 434.171Z" fill="#FFBDA7"/>
<path opacity="0.2" d="M519.797 393.116C519.934 392.62 519.934 392.096 519.797 391.6C518.708 386.529 516.214 382.05 514.712 377.13C513.03 371.618 512.686 365.402 515.428 360.331C516.585 358.311 518.045 356.48 519.756 354.901C527.928 346.99 509.709 346.15 505.051 350.312C501.826 353.192 501.178 357.988 501.44 362.301C501.725 366.494 502.655 370.617 504.197 374.525C505.899 378.545 508.103 382.332 510.756 385.799C511.487 386.956 518.639 396.548 519.797 393.116ZM519.659 396.562C517.179 395.997 516.241 398.491 517.992 400.214C518.666 400.867 519.562 401.241 520.5 401.261C520.896 401.304 521.297 401.232 521.653 401.053C522.01 400.875 522.308 400.598 522.512 400.255C523.284 398.477 521.189 396.961 519.659 396.562Z" fill="white"/>
<path d="M577.802 378.122L579.994 377.433C580.968 377.13 581.533 377.24 581.689 377.764C581.726 377.899 581.726 378.042 581.689 378.178C581.66 378.24 581.637 378.304 581.62 378.371C581.62 378.371 581.62 378.467 581.482 378.522L581.124 378.743L580.903 378.825C580.671 378.934 580.432 379.027 580.187 379.101C579.856 379.211 579.36 379.377 578.698 379.569C578.037 379.762 577.237 379.983 576.273 380.203L577.361 383.855L581.399 382.643C581.479 382.623 581.562 382.621 581.642 382.635C581.723 382.649 581.8 382.68 581.868 382.725C581.943 382.763 582.009 382.816 582.064 382.88C582.118 382.944 582.159 383.018 582.185 383.097C582.364 383.704 582.185 384.09 581.689 384.241L577.83 385.399L579.456 390.567C579.649 391.242 579.525 391.642 579.07 391.78C578.615 391.917 578.257 391.697 577.995 391.104C577.899 390.925 577.375 389.244 576.424 386.088C575.473 382.932 574.908 381.113 574.743 380.644C574.274 380.837 573.944 380.644 573.764 380.038C573.698 379.846 573.698 379.637 573.764 379.445C573.792 379.281 573.881 379.134 574.013 379.032L574.385 378.908C574.536 378.908 574.922 378.77 575.528 378.646C576.295 378.513 577.054 378.338 577.802 378.122Z" fill="#455A64"/>
<path d="M586.305 374.264C587.107 373.83 588.047 373.726 588.924 373.974C589.898 374.312 590.789 374.856 591.533 375.569C592.278 376.283 592.859 377.149 593.237 378.109C593.79 379.062 594.145 380.118 594.28 381.212C594.415 382.306 594.328 383.416 594.023 384.476C593.716 385.42 593.081 386.222 592.231 386.736C591.729 387.026 591.166 387.194 590.587 387.228C590.008 387.261 589.429 387.159 588.896 386.929C587.848 386.476 586.908 385.804 586.14 384.958C585.393 384.169 584.762 383.278 584.266 382.312C583.504 380.956 583.204 379.388 583.411 377.847C583.553 377.054 583.893 376.31 584.399 375.684C584.905 375.057 585.56 374.569 586.305 374.264V374.264ZM586.967 375.862C586.22 376.157 585.611 376.721 585.262 377.444C584.912 378.166 584.847 378.994 585.079 379.762C585.207 380.355 585.42 380.926 585.713 381.457C586.123 382.216 586.633 382.916 587.229 383.538C587.933 384.392 588.904 384.984 589.985 385.22C590.537 385.314 591.104 385.222 591.597 384.958C591.874 384.806 592.113 384.595 592.299 384.34C592.485 384.086 592.612 383.793 592.672 383.483C592.877 382.73 592.877 381.935 592.672 381.182C592.454 380.357 592.149 379.558 591.763 378.798C591.269 377.694 590.523 376.722 589.585 375.959C589.211 375.676 588.76 375.516 588.291 375.498C587.823 375.481 587.361 375.608 586.967 375.862V375.862Z" fill="#455A64"/>
<path d="M600.362 381.471C600.319 381.732 600.182 381.967 599.977 382.133C599.77 382.298 599.536 382.271 599.246 382.064C598.116 380.686 597 379.211 595.911 377.778L592.7 373.644C592.397 373.296 592.215 372.86 592.18 372.401C592.145 371.941 592.26 371.483 592.507 371.094C592.954 370.303 593.565 369.617 594.299 369.082C594.767 368.74 595.302 368.501 595.87 368.379C596.509 368.216 597.174 368.183 597.827 368.283C598.125 368.313 598.414 368.403 598.677 368.547C598.94 368.692 599.171 368.888 599.356 369.123C599.738 369.69 599.914 370.372 599.852 371.053C599.818 371.927 599.651 372.792 599.356 373.616C599.082 374.414 598.707 375.174 598.24 375.876C599.715 375.813 601.193 375.901 602.65 376.138C603.605 376.194 604.515 376.562 605.241 377.185C605.298 377.267 605.335 377.36 605.35 377.458C605.364 377.556 605.355 377.656 605.324 377.75C605.303 377.867 605.259 377.978 605.195 378.077C605.132 378.176 605.049 378.262 604.952 378.329C604.85 378.404 604.733 378.455 604.609 378.479C604.485 378.502 604.357 378.498 604.235 378.467C603.38 378.016 602.442 377.744 601.479 377.668C600.232 377.55 598.977 377.55 597.73 377.668L600.225 380.741C600.298 380.846 600.349 380.965 600.373 381.091C600.397 381.217 600.393 381.347 600.362 381.471V381.471ZM598.171 373.037C598.64 371.756 598.695 370.887 598.35 370.419C598.175 370.194 597.94 370.022 597.672 369.925C597.404 369.827 597.113 369.807 596.834 369.868C596.13 369.995 595.468 370.293 594.905 370.736C594.357 371.097 593.888 371.566 593.527 372.114C593.94 372.679 594.905 373.933 596.283 375.849C597.143 375.089 597.794 374.121 598.171 373.037V373.037Z" fill="#455A64"/>
<path d="M598.557 366.16L604.07 359.89C604.428 359.683 604.717 359.669 604.91 359.89C605.42 360.345 605.489 360.786 605.103 361.268C604.414 362.026 603.725 362.853 602.953 363.748C603.78 364.589 604.414 365.223 604.855 365.623L605.696 366.395L611.112 371.246C611.429 371.535 611.525 371.783 611.429 371.99C611.336 372.177 611.215 372.349 611.07 372.5C611.011 372.567 610.938 372.621 610.856 372.658C610.774 372.695 610.685 372.714 610.595 372.714C610.505 372.714 610.416 372.695 610.334 372.658C610.252 372.621 610.179 372.567 610.12 372.5C609.293 371.838 607.804 370.529 605.654 368.572C603.518 366.615 602.264 365.402 601.878 364.947L601.024 365.912L599.646 367.442C599.584 367.518 599.506 367.579 599.418 367.622C599.33 367.665 599.234 367.688 599.136 367.69C598.95 367.687 598.773 367.613 598.64 367.483C598.486 367.322 598.393 367.113 598.378 366.891C598.357 366.763 598.363 366.633 598.393 366.507C598.424 366.382 598.48 366.264 598.557 366.16V366.16Z" fill="#455A64"/>
<path d="M609.017 350.312C608.962 350.2 608.934 350.078 608.934 349.954C608.934 349.829 608.962 349.707 609.017 349.595C609.077 349.489 609.162 349.399 609.266 349.334C609.369 349.269 609.488 349.231 609.61 349.223C610.894 349.647 612.135 350.192 613.317 350.849L614.695 351.594C615.322 351.91 615.93 352.264 616.514 352.655L617.079 353.096C617.286 353.261 617.451 353.385 617.548 353.482L617.975 353.881C618.33 354.242 618.628 354.656 618.857 355.108C619.325 355.792 619.609 356.584 619.684 357.409C619.763 358.141 619.624 358.879 619.284 359.532C618.865 360.211 618.221 360.723 617.465 360.979C616.555 361.344 615.579 361.518 614.598 361.489C612.917 361.421 611.276 360.948 609.816 360.11C609.251 359.807 607.942 358.994 605.902 357.657C605.75 357.464 605.646 357.237 605.599 356.996C605.52 356.782 605.52 356.548 605.599 356.334C605.751 356.059 606.013 356.004 606.412 356.141C608.424 357.437 609.692 358.25 610.257 358.553C611.472 359.241 612.832 359.633 614.226 359.697C615.023 359.746 615.822 359.647 616.583 359.408C617.155 359.246 617.646 358.877 617.961 358.374C618.388 357.602 618.14 356.624 617.258 355.439C616.781 354.826 616.174 354.327 615.481 353.978C615.305 353.894 615.139 353.793 614.984 353.675L612.614 352.296C611.59 351.745 610.52 351.284 609.417 350.918C609.22 350.766 609.079 350.553 609.017 350.312V350.312Z" fill="#455A64"/>
<path d="M611.856 337.233C611.958 337.027 612.136 336.869 612.352 336.792C612.578 336.703 612.829 336.703 613.055 336.792C617.961 339.039 620.938 340.362 621.985 340.789L623.584 341.437C623.859 341.563 624.093 341.763 624.259 342.016C624.339 342.103 624.395 342.211 624.419 342.327C624.443 342.444 624.436 342.565 624.397 342.677C624.339 342.818 624.265 342.952 624.176 343.077C624.123 343.16 624.064 343.238 623.997 343.311C623.926 343.379 623.842 343.43 623.749 343.463L623.474 343.559C623.348 343.597 623.219 343.621 623.088 343.628H622.647H622.082L620.428 343.711L618.154 343.848C616.296 343.95 614.451 344.217 612.641 344.648C615.481 345.88 618.242 347.283 620.91 348.851C621.2 349.03 621.241 349.333 621.048 349.761C620.97 349.938 620.841 350.087 620.676 350.188C620.586 350.232 620.487 350.255 620.387 350.255C620.286 350.255 620.187 350.232 620.097 350.188L616.431 348.341C614.213 347.225 612.834 346.536 612.297 346.274L611.236 345.792C610.34 345.378 609.858 345.089 609.858 344.896C609.795 344.732 609.795 344.55 609.858 344.386C610.161 343.697 611.773 343.159 614.681 342.773C615.251 342.691 616.408 342.581 618.154 342.443C619.9 342.305 620.975 342.236 621.379 342.236L613.468 338.901C612.393 338.405 611.828 338.005 611.787 337.702C611.772 337.543 611.796 337.382 611.856 337.233V337.233Z" fill="#455A64"/>
<path d="M619.27 335.621C619.176 335.675 619.069 335.704 618.96 335.704C618.851 335.704 618.744 335.675 618.65 335.621C618.456 335.499 618.31 335.314 618.237 335.097C617.024 334.422 615.77 333.719 614.474 332.878C614.273 332.688 614.129 332.444 614.061 332.176C614.03 331.9 614.083 331.621 614.213 331.376C615.232 329.874 616.307 328.22 617.41 326.415C617.782 326.029 618.113 325.919 618.402 326.098C618.692 326.277 618.898 327.063 618.402 328.069C618.264 328.344 618.099 328.62 617.906 328.937L617.203 330.081C617.065 330.301 616.638 330.88 615.921 331.831C617.382 332.741 618.416 333.333 618.995 333.636L621.227 330.053C621.558 329.681 621.889 329.585 622.178 329.764C622.329 329.866 622.447 330.011 622.515 330.181C622.584 330.35 622.601 330.536 622.564 330.715C622.576 330.792 622.576 330.871 622.564 330.949L620.648 333.953C620.547 334.104 620.464 334.266 620.4 334.436L623.46 336.227C624.149 336.654 624.617 336.971 624.838 337.178L628.214 332.699C628.504 332.355 628.779 332.272 629.041 332.424C629.234 332.556 629.368 332.759 629.413 332.989C629.496 333.234 629.496 333.501 629.413 333.747L625.789 338.667C625.686 338.881 625.51 339.052 625.293 339.149C625.083 339.177 624.87 339.123 624.7 338.997C624.213 338.609 623.697 338.259 623.157 337.95L621.93 337.192L619.27 335.621Z" fill="#455A64"/>
<path d="M342.68 494.919C341.894 500.776 346.883 506.509 378.511 507.722C410.139 508.934 446.039 497.909 454.791 470.939L348.592 481.537C346.038 485.717 344.05 490.217 342.68 494.919V494.919Z" fill="#F0997A"/>
<path d="M359.121 462.119C350.695 471.31 345.001 482.669 342.68 494.919C347.228 485.272 374.694 496.2 398.301 495.704C426.001 495.126 440.389 488.993 451.29 475.542C462.191 462.092 459.683 457.42 448.672 446.987C438.694 437.52 431.128 423.849 421.04 413.347C410.952 402.846 395.917 396.3 364.261 408.414C332.606 420.527 309.935 438.484 309.935 445.196C309.935 451.907 348.289 462.119 359.121 462.119Z" fill="#FFBDA7"/>
<path d="M384.782 434.378C388.158 427.487 387.993 420.596 386.532 419.99C385.071 419.384 385.994 430.891 375.107 440.235C365.364 448.586 357.398 456.262 353.746 461.651C355.525 461.926 357.321 462.083 359.121 462.119C366.756 452.914 379.779 444.672 384.782 434.378Z" fill="#F0997A"/>
<path d="M370.973 482.157C370.21 481.116 369.684 479.922 369.429 478.657C369.29 477.991 369.225 477.311 369.236 476.631C369.236 476.038 369.429 475.363 369.043 474.853C368.939 474.676 368.774 474.543 368.578 474.48C368.383 474.416 368.171 474.426 367.982 474.509C367.266 474.867 367.197 475.983 367.169 476.7C367.123 477.555 367.188 478.411 367.362 479.249C367.667 480.655 368.258 481.983 369.098 483.15C369.253 483.358 369.475 483.505 369.727 483.566C369.979 483.626 370.245 483.596 370.477 483.48C370.599 483.43 370.71 483.355 370.802 483.26C370.895 483.164 370.966 483.051 371.013 482.927C371.059 482.803 371.08 482.67 371.073 482.538C371.066 482.406 371.032 482.276 370.973 482.157V482.157Z" fill="#F0997A"/>
<path d="M377.684 481.372C377.257 480.572 376.924 479.726 376.692 478.85C376.442 477.95 376.285 477.026 376.223 476.094C376.249 475.006 376.185 473.918 376.03 472.841C375.865 472.18 374.928 472.097 374.459 472.483L374.39 472.552L374.308 472.703C374.242 472.819 374.195 472.945 374.17 473.075C374.083 473.409 374.036 473.751 374.032 474.095C374.032 474.688 374.032 475.28 374.032 475.873C374.09 477.009 374.265 478.136 374.556 479.236C374.806 480.204 375.191 481.131 375.7 481.992C375.913 482.376 376.172 482.732 376.471 483.053C376.979 483.554 377.605 483.918 378.291 484.114C378.325 484.133 378.364 484.142 378.403 484.142C378.443 484.142 378.481 484.131 378.516 484.112C378.55 484.093 378.579 484.065 378.6 484.032C378.621 483.999 378.633 483.961 378.635 483.921C378.553 483.002 378.224 482.121 377.684 481.372V481.372Z" fill="#F0997A"/>
<path d="M388.916 486.002C389.068 486.237 388.833 485.699 388.792 485.644C388.617 485.371 388.399 485.129 388.144 484.928C387.763 484.572 387.413 484.184 387.097 483.77C386.454 482.85 385.918 481.861 385.498 480.821C385.012 479.729 384.647 478.588 384.409 477.417C384.297 476.88 384.218 476.337 384.175 475.791C384.244 475.163 384.154 474.528 383.913 473.944C383.665 473.544 382.866 473.337 382.535 473.82C381.97 475.226 381.912 476.785 382.37 478.23C382.661 479.492 383.081 480.72 383.624 481.896C384.062 482.949 384.637 483.941 385.333 484.845C385.691 485.327 386.118 485.754 386.601 486.113C387.226 486.516 387.968 486.7 388.709 486.636C389.123 486.636 389.068 486.223 388.916 486.002Z" fill="#F0997A"/>
<path d="M397.405 485.162C395.572 484.555 394.263 482.557 393.395 480.945C392.984 480.197 392.634 479.419 392.348 478.616C392.153 478.093 391.992 477.559 391.865 477.017C391.796 475.806 391.517 474.617 391.038 473.503C390.818 473.172 390.074 473.007 389.881 473.503C389.486 474.909 389.52 476.401 389.977 477.789C390.287 479.233 390.802 480.625 391.507 481.923C392.596 483.921 394.663 487.201 397.405 486.306C397.557 486.306 397.702 486.245 397.81 486.138C397.917 486.031 397.977 485.885 397.977 485.734C397.977 485.582 397.917 485.437 397.81 485.329C397.702 485.222 397.557 485.162 397.405 485.162Z" fill="#F0997A"/>
<path d="M408.251 485.272C408.32 485.369 408.141 484.845 408.044 484.735C407.8 484.467 407.527 484.227 407.231 484.018C406.721 483.618 406.184 483.246 405.702 482.805C404.735 481.909 403.908 480.873 403.248 479.732C402.544 478.494 401.994 477.175 401.609 475.804C401.195 474.426 401.181 472.593 400.161 471.449C400.118 471.392 400.061 471.346 399.997 471.314C399.932 471.282 399.861 471.266 399.789 471.266C399.717 471.266 399.646 471.282 399.582 471.314C399.517 471.346 399.461 471.392 399.417 471.449C399.02 472.312 398.933 473.286 399.169 474.206C399.282 475.018 399.443 475.824 399.652 476.617C400.041 478.126 400.64 479.574 401.429 480.917C402.114 482.081 402.953 483.148 403.924 484.087C404.43 484.572 404.979 485.01 405.564 485.396C405.886 485.605 406.233 485.772 406.597 485.892C407.051 485.985 407.513 486.027 407.975 486.016C408.527 486.058 408.527 485.548 408.251 485.272Z" fill="#F0997A"/>
<path d="M417.512 482.626C417.322 482.472 417.114 482.342 416.892 482.24C416.465 482.02 416.065 481.744 415.652 481.496C415.105 481.176 414.576 480.826 414.067 480.448C413.127 479.732 412.316 478.86 411.669 477.871C410.972 476.821 410.411 475.687 410.001 474.495C409.795 473.916 409.629 473.324 409.478 472.717C409.409 472.4 409.326 472.083 409.243 471.766C409.132 471.359 408.955 470.973 408.72 470.622C408.541 470.292 407.783 470.016 407.659 470.54C407.419 472.181 407.643 473.857 408.306 475.377C408.758 476.809 409.437 478.158 410.318 479.373C411.082 480.435 412.013 481.366 413.075 482.13C413.664 482.553 414.314 482.883 415.004 483.108C415.756 483.387 416.562 483.49 417.361 483.411C417.774 483.287 417.733 482.86 417.512 482.626Z" fill="#F0997A"/>
<path d="M425.905 479.263C424.76 478.388 423.527 477.635 422.225 477.017C421.251 476.379 420.37 475.609 419.607 474.729C418.81 473.82 418.176 472.781 417.733 471.656C417.519 471.124 417.349 470.575 417.223 470.016C417.071 469.286 417.016 468.638 416.368 468.142C416.288 468.078 416.188 468.043 416.086 468.043C415.983 468.043 415.884 468.078 415.803 468.142C415.238 468.652 415.362 469.603 415.459 470.292C415.554 470.978 415.72 471.652 415.955 472.304C416.495 473.739 417.304 475.058 418.339 476.19C419.262 477.167 420.32 478.007 421.481 478.685C422.784 479.579 424.34 480.028 425.919 479.966C426.277 479.925 426.043 479.401 425.905 479.263Z" fill="#F0997A"/>
<path d="M433.567 476.893C433.292 476.342 432.534 476.176 432.01 475.956C431.336 475.681 430.685 475.349 430.067 474.964C429.073 474.318 428.182 473.529 427.421 472.621C426.649 471.664 426.026 470.595 425.574 469.451C425.326 468.868 425.114 468.269 424.94 467.659C424.732 467.068 424.557 466.465 424.417 465.854C424.279 465 422.653 464.917 422.763 465.854C422.822 466.781 422.951 467.703 423.149 468.61C423.335 469.286 423.565 469.949 423.838 470.595C424.388 471.853 425.127 473.019 426.029 474.054C426.875 475.04 427.887 475.87 429.02 476.507C429.666 476.87 430.35 477.161 431.059 477.375C431.787 477.642 432.575 477.7 433.333 477.541C433.399 477.524 433.461 477.492 433.511 477.447C433.562 477.401 433.601 477.344 433.624 477.28C433.647 477.215 433.654 477.147 433.644 477.079C433.634 477.012 433.608 476.948 433.567 476.893V476.893Z" fill="#F0997A"/>
<path d="M438.983 472.125C438.367 471.505 437.618 471.034 436.792 470.747C436.381 470.548 435.981 470.327 435.593 470.085C434.787 469.582 434.07 468.948 433.471 468.211C432.887 467.449 432.422 466.604 432.093 465.703C431.903 465.258 431.756 464.797 431.652 464.324C431.6 463.667 431.397 463.03 431.059 462.464C430.811 462.175 430.15 461.927 429.915 462.395C429.592 463.314 429.592 464.315 429.915 465.234C430.299 467.013 431.178 468.647 432.451 469.947C433.256 470.773 434.186 471.466 435.207 472.001C435.721 472.275 436.267 472.484 436.834 472.621C437.5 472.815 438.203 472.853 438.887 472.731C438.937 472.701 438.98 472.66 439.013 472.612C439.046 472.563 439.068 472.508 439.077 472.45C439.086 472.393 439.083 472.333 439.067 472.277C439.05 472.221 439.022 472.169 438.983 472.125Z" fill="#F0997A"/>
<path d="M442.511 467.411L442.057 466.846L441.96 466.75L441.753 466.598L441.381 466.323C441.19 466.181 441.01 466.025 440.844 465.854C440.418 465.434 440.035 464.972 439.7 464.476C439.399 464.011 439.145 463.517 438.942 463.002C438.859 462.767 438.763 462.519 438.68 462.271C438.569 461.782 438.373 461.315 438.101 460.893C437.84 460.562 437.068 460.411 436.889 460.893C436.668 461.786 436.73 462.725 437.068 463.58C437.32 464.274 437.653 464.935 438.06 465.551C438.418 466.115 438.849 466.63 439.342 467.081C439.982 467.852 440.895 468.345 441.891 468.459C442.018 468.471 442.146 468.449 442.262 468.396C442.378 468.342 442.479 468.26 442.553 468.156C442.718 467.839 442.608 467.66 442.511 467.411Z" fill="#F0997A"/>
<path d="M445.281 461.871L445.185 461.678L445.089 461.527C444.97 461.374 444.825 461.243 444.661 461.141C444.482 460.962 444.331 460.755 444.165 460.562L443.958 460.286C443.931 460.237 443.899 460.191 443.862 460.149C443.78 460.005 443.688 459.866 443.586 459.735L443.697 459.901C443.627 459.754 443.523 459.626 443.393 459.528C443.3 459.435 443.188 459.361 443.065 459.314C442.941 459.266 442.809 459.246 442.677 459.253C442.562 459.254 442.45 459.289 442.355 459.352C442.26 459.416 442.185 459.506 442.139 459.611C442.084 459.898 442.084 460.193 442.139 460.479C442.168 460.621 442.209 460.759 442.263 460.893C442.315 461.043 442.374 461.19 442.442 461.334C442.609 461.662 442.822 461.964 443.076 462.23C443.222 462.387 443.379 462.535 443.545 462.671C443.766 462.845 444.035 462.948 444.315 462.965C444.596 462.982 444.876 462.913 445.116 462.767C445.182 462.724 445.238 462.667 445.281 462.6C445.324 462.534 445.352 462.459 445.364 462.381C445.392 462.291 445.392 462.195 445.364 462.106C445.337 462.133 445.337 462.078 445.281 461.871Z" fill="#F0997A"/>
<path d="M317.818 443.032C317.64 442.996 317.454 443.027 317.297 443.118C317.139 443.21 317.021 443.356 316.964 443.529C316.854 444.025 316.798 444.548 316.647 445.031C316.583 445.27 316.505 445.504 316.413 445.734C316.361 445.866 316.301 445.995 316.233 446.119V446.119L316.151 446.257C316.04 446.429 315.921 446.595 315.792 446.753V446.822L315.558 447.015C315.428 447.121 315.284 447.209 315.131 447.277C314.869 447.429 314.511 447.539 314.373 447.842L314.593 447.622C314.47 447.674 314.368 447.766 314.304 447.883C314.267 447.974 314.258 448.073 314.278 448.169C314.298 448.264 314.345 448.352 314.414 448.421L314.841 448.71L314.552 448.572C314.805 448.75 315.111 448.838 315.42 448.821C315.633 448.798 315.841 448.747 316.04 448.669C316.297 448.559 316.538 448.415 316.757 448.242C317.169 447.949 317.52 447.58 317.791 447.153C318.426 446.088 318.751 444.865 318.728 443.625C318.604 443.322 318.149 443.06 317.818 443.032Z" fill="#F0997A"/>
<path d="M326.542 442.343C326.544 442.009 326.478 441.677 326.348 441.369C326.218 441.061 326.026 440.783 325.784 440.552C325.73 440.496 325.664 440.453 325.592 440.427C325.519 440.4 325.441 440.39 325.364 440.398C325.287 440.406 325.213 440.432 325.147 440.473C325.081 440.513 325.026 440.569 324.984 440.634C324.722 441.264 324.582 441.937 324.571 442.619C324.502 443.101 324.447 443.584 324.364 444.066C324.21 444.933 323.97 445.782 323.648 446.602C323.331 447.401 322.929 448.163 322.449 448.876C322.118 449.358 321.746 449.827 321.374 450.254C321.058 450.57 320.842 450.973 320.754 451.411C320.754 451.935 321.319 452.225 321.76 452.142C322.917 451.935 323.799 450.585 324.406 449.647C324.957 448.802 325.419 447.901 325.784 446.96C326.138 446.017 326.383 445.037 326.514 444.038C326.583 443.476 326.593 442.908 326.542 442.343V442.343Z" fill="#F0997A"/>
<path d="M332.978 440.414C332.785 439.807 331.462 439.67 331.393 440.414C331.283 441.627 331.393 442.853 331.255 444.066C331.157 445.127 330.968 446.179 330.69 447.208C330.408 448.227 330.035 449.219 329.574 450.171C329.363 450.644 329.123 451.105 328.857 451.549C328.761 451.742 328.637 451.907 328.526 452.087C328.374 452.423 328.18 452.737 327.947 453.024C327.369 453.52 328.388 454.223 328.898 453.988C329.402 453.81 329.853 453.507 330.208 453.106C330.621 452.525 330.981 451.907 331.283 451.26C331.859 450.162 332.321 449.007 332.661 447.814C332.991 446.673 333.198 445.499 333.281 444.314C333.437 443.007 333.334 441.681 332.978 440.414V440.414Z" fill="#F0997A"/>
<path d="M340.599 438.443C340.351 437.933 339.386 437.782 339.221 438.443C339.078 440.047 339.018 441.657 339.041 443.267C338.939 444.779 338.718 446.281 338.38 447.759C338.046 449.19 337.608 450.595 337.071 451.963C336.795 452.693 336.492 453.41 336.189 454.14C335.891 454.666 335.73 455.258 335.72 455.863C335.72 456.152 336.23 456.579 336.533 456.359C337.77 455.24 338.688 453.813 339.193 452.224C340.317 449.411 340.964 446.43 341.109 443.404C341.331 441.733 341.156 440.034 340.599 438.443V438.443Z" fill="#F0997A"/>
<path d="M349.35 442.633C349.35 441.613 349.267 440.593 349.171 439.587C349.243 438.591 348.933 437.605 348.302 436.831C348.151 436.693 347.765 436.528 347.6 436.762C347.172 437.613 347.036 438.582 347.214 439.518C347.214 440.483 347.296 441.461 347.31 442.426C347.375 444.433 347.287 446.441 347.048 448.435C346.843 450.107 346.441 451.749 345.849 453.327C345.56 454.057 345.243 454.705 344.898 455.463C344.58 455.98 344.3 456.519 344.058 457.075C343.948 457.379 344.058 457.627 343.989 457.902C343.92 458.178 344.209 458.55 344.457 458.398C344.976 458.172 345.445 457.844 345.836 457.434C346.122 457.08 346.385 456.707 346.621 456.318C347.109 455.518 347.52 454.673 347.848 453.796C348.46 452.154 348.886 450.448 349.116 448.71C349.365 446.695 349.444 444.662 349.35 442.633V442.633Z" fill="#F0997A"/>
<path d="M357.302 439.78C357.178 438.512 357.04 437.244 356.819 435.99C356.754 434.925 356.448 433.888 355.923 432.958C355.662 432.6 354.917 432.407 354.78 432.958C354.601 433.989 354.601 435.042 354.78 436.073C354.917 437.368 355.069 438.664 355.166 439.973C355.375 442.328 355.411 444.696 355.276 447.056C355.152 449.225 354.792 451.374 354.201 453.465C353.911 454.457 353.539 455.422 353.181 456.386C352.831 457.045 352.724 457.806 352.878 458.536C352.878 458.66 353.057 458.812 353.181 458.757C354.215 458.398 354.738 457.268 355.193 456.331C355.674 455.288 356.075 454.21 356.392 453.106C356.986 451.008 357.342 448.849 357.453 446.671C357.588 444.373 357.538 442.069 357.302 439.78V439.78Z" fill="#F0997A"/>
<path d="M365.805 438.209C365.57 436.348 365.336 434.075 363.93 432.696C363.751 432.517 363.228 432.407 363.145 432.696C362.704 434.419 363.448 436.417 363.669 438.14C363.912 440.004 363.99 441.885 363.903 443.763C363.827 445.56 363.606 447.348 363.241 449.11C363.007 450.226 362.731 451.342 362.401 452.431C362.063 453.211 361.876 454.048 361.849 454.898C361.849 455.353 362.704 455.766 363.048 455.367C364.25 453.598 365.024 451.574 365.309 449.454C365.715 447.558 365.964 445.631 366.053 443.694C366.11 441.862 366.028 440.028 365.805 438.209V438.209Z" fill="#F0997A"/>
<path d="M372.861 434.047C372.776 432.351 372.305 430.696 371.483 429.21C371.29 428.92 370.614 428.755 370.587 429.21C370.583 430.718 370.73 432.223 371.028 433.702C371.212 435.326 371.285 436.961 371.248 438.595C371.211 440.147 371.064 441.694 370.807 443.225C370.656 444.052 370.477 444.865 370.297 445.692C370.021 446.45 369.918 447.26 369.994 448.062C370.023 448.171 370.079 448.271 370.157 448.353C370.235 448.434 370.332 448.494 370.44 448.527C370.547 448.56 370.662 448.565 370.772 448.542C370.882 448.519 370.984 448.467 371.069 448.393C371.943 447.021 372.464 445.454 372.585 443.832C372.888 442.208 373.068 440.563 373.123 438.912C373.171 437.286 373.084 435.658 372.861 434.047V434.047Z" fill="#F0997A"/>
<path d="M379.476 434.171C379.434 432.786 379.306 431.405 379.09 430.037C379.03 428.639 378.576 427.287 377.781 426.137C377.601 425.944 377.092 425.847 376.995 426.137C376.843 427.524 376.959 428.928 377.34 430.271C377.505 431.566 377.601 432.862 377.643 434.157C377.684 435.453 377.643 436.665 377.56 437.92C377.274 439.283 377.274 440.691 377.56 442.054C377.643 442.288 378.125 442.702 378.359 442.385C379.077 441.151 379.444 439.746 379.421 438.319C379.518 436.939 379.537 435.554 379.476 434.171V434.171Z" fill="#F0997A"/>
<g opacity="0.2">
<path opacity="0.2" d="M403.745 410.591C399.9 405.327 381.102 402.24 387.731 412.079C389.142 414.063 390.239 416.253 390.983 418.57C392.678 424.331 390.983 430.629 388.062 435.88C385.14 441.13 381.171 445.665 377.629 450.557C377.379 450.816 377.241 451.162 377.243 451.522C377.367 452.362 378.621 452.321 379.407 452.004C385.518 449.509 390.982 445.656 395.385 440.738C399.788 435.819 403.014 429.964 404.82 423.614C406.032 419.26 406.418 414.229 403.745 410.591ZM374.666 454.223C373.026 454.223 370.532 455.38 370.959 457.379C371.089 457.773 371.333 458.12 371.658 458.377C371.984 458.634 372.378 458.79 372.792 458.826C373.742 459.007 374.726 458.825 375.548 458.316C377.726 456.938 377.326 454.181 374.666 454.223V454.223Z" fill="white"/>
</g>
<path d="M243.151 443.211V429.237L352.134 366.312V380.3L243.151 443.211Z" fill="#BA68C8"/>
<path opacity="0.75" d="M243.151 443.211V429.237L352.134 366.312V380.3L243.151 443.211Z" fill="white"/>
<path opacity="0.7" d="M243.151 433.964V429.237L352.134 366.312V371.039L243.151 433.964Z" fill="#BA68C8"/>
<path d="M243.151 429.237V261.45L376.347 184.55L352.134 366.312L243.151 429.237Z" fill="#BA68C8"/>
<path opacity="0.75" d="M243.151 429.237V261.45L376.347 184.55L352.134 366.312L243.151 429.237Z" fill="white"/>
<path d="M134.169 380.3V366.312L243.151 429.237V443.211L134.169 380.3Z" fill="#BA68C8"/>
<path opacity="0.5" d="M134.169 380.3V366.312L243.151 429.237V443.211L134.169 380.3Z" fill="white"/>
<path d="M134.169 371.039V366.312L243.151 429.237V433.964L134.169 371.039Z" fill="#BA68C8"/>
<path d="M243.151 429.237V261.45L109.955 184.55L134.169 366.326L243.151 429.237Z" fill="#BA68C8"/>
<path opacity="0.5" d="M243.151 429.237V261.45L109.955 184.55L134.169 366.326L243.151 429.237Z" fill="white"/>
<path d="M243.151 261.45V107.651L376.347 184.55L243.151 261.45Z" fill="#BA68C8"/>
<path opacity="0.6" d="M243.151 261.45V107.651L376.347 184.55L243.151 261.45Z" fill="white"/>
<path d="M109.955 184.55L243.151 107.651V261.45L109.955 184.55Z" fill="#BA68C8"/>
<path opacity="0.7" d="M109.955 184.55L243.151 107.651V261.45L109.955 184.55Z" fill="white"/>
<path d="M243.151 261.45L146.282 247.462L85.7412 226.501L0.972412 177.563L13.0862 170.562L109.955 184.55L243.151 261.45Z" fill="#BA68C8"/>
<path opacity="0.8" d="M243.151 261.45L146.282 247.462L85.7412 226.501L0.972412 177.563L13.0862 170.562L109.955 184.55L243.151 261.45Z" fill="white"/>
<path d="M303.706 16.7492L340.02 9.37622L364.275 23.3642L369.691 15.2195L381.598 12.4632L402.408 24.4805C403.593 29.5107 404.199 32.1567 405.385 37.1869L400.589 44.4221L424.789 58.3136L436.902 93.6626L376.347 184.537L243.151 107.637L303.706 16.7492Z" fill="#BA68C8"/>
<path opacity="0.8" d="M303.706 16.7492L340.02 9.37622L364.275 23.3642L369.691 15.2195L381.598 12.4632L402.408 24.4805C403.593 29.5107 404.199 32.1567 405.385 37.1869L400.589 44.4221L424.789 58.3136L436.902 93.6626L376.347 184.537L243.151 107.637L303.706 16.7492Z" fill="white"/>
<path opacity="0.3" d="M376.347 184.55L248.402 263.889L243.151 429.237V261.45L376.347 184.55Z" fill="white"/>
<path d="M325.453 334.463L329.091 332.355L325.729 331.335L326.831 318.422L283.53 343.531L282.4 356.431L278.486 361.681L282.138 359.573L325.453 334.463ZM280.278 340.982L330.883 311.655L327.52 310.622L328.609 297.86L285.308 322.97L284.206 335.717L280.278 340.982ZM329.725 287.676C314.249 292.444 311.81 281.515 310.431 271.248C306.959 284.354 302.273 299.376 286.039 312.923C269.804 326.47 270.355 314.839 270.355 314.839C270.355 314.839 269.212 327.931 278.459 322.584L307.4 305.881L336.34 289.178C345.601 283.844 346.745 270.752 346.745 270.752C346.745 270.752 345.202 282.921 329.725 287.676ZM270.052 379.046L335.183 341.436L335.941 332.823L270.81 370.363L270.052 379.046Z" fill="#BA68C8"/>
<path d="M419.166 570.813L73.5172 423.642C73.1172 423.477 72.7536 423.236 72.4471 422.93C72.1406 422.625 71.8972 422.263 71.7309 421.863C71.5645 421.464 71.4784 421.036 71.4775 420.603C71.4766 420.171 71.5609 419.742 71.7256 419.342C71.8903 418.942 72.1321 418.579 72.4373 418.272C72.7426 417.966 73.1051 417.722 73.5044 417.556C73.9037 417.39 74.3318 417.304 74.7644 417.303C75.1969 417.302 75.6254 417.386 76.0253 417.551L425.064 556.48C426.965 557.262 428.477 558.767 429.268 560.664C430.059 562.561 430.063 564.695 429.281 566.596C428.499 568.496 426.994 570.008 425.097 570.799C423.2 571.59 421.066 571.595 419.166 570.813V570.813Z" fill="#455A64"/>
<path d="M145.4 445.168L104.635 428.948L136.952 450.667L188.191 472.483L145.4 445.168Z" fill="#37474F"/>
<path d="M419.166 570.812L328.485 532.225C325.729 527.319 328.609 521.034 333.488 520.056L425.064 556.48C426.965 557.262 428.477 558.767 429.268 560.664C430.059 562.561 430.064 564.695 429.281 566.595C428.499 568.496 426.994 570.008 425.097 570.799C423.2 571.59 421.066 571.595 419.166 570.812V570.812Z" fill="#BA68C8"/>
<path d="M363.613 547.178L360.954 546.048C360.954 545.703 360.954 545.372 360.954 545.042C361.117 542.994 361.616 540.988 362.428 539.102C363.162 537.375 364.198 535.793 365.488 534.43C365.832 534.072 366.232 533.658 366.687 533.259L369.14 534.237C368.709 534.55 368.3 534.891 367.913 535.257C366.707 536.443 365.734 537.845 365.047 539.391C364.306 541.089 363.841 542.894 363.669 544.738C363.609 545.55 363.59 546.364 363.613 547.178V547.178Z" fill="#455A64"/>
<path d="M359.176 531.619C357.973 532.811 356.998 534.212 356.296 535.753C355.555 537.451 355.09 539.256 354.917 541.1C354.835 541.872 354.807 542.63 354.793 543.402L352.134 542.272C352.134 541.968 352.134 541.679 352.134 541.39C352.297 539.342 352.796 537.336 353.608 535.45C354.347 533.722 355.387 532.14 356.681 530.778C356.998 530.447 357.371 530.061 357.77 529.689L360.292 530.64C359.897 530.939 359.524 531.266 359.176 531.619V531.619Z" fill="#455A64"/>
<path d="M361.133 596.418L49.3448 386.86C48.9828 386.623 48.6711 386.317 48.4274 385.959C48.1837 385.602 48.0129 385.199 47.9246 384.776C47.8363 384.352 47.8323 383.915 47.9128 383.49C47.9933 383.065 48.1568 382.66 48.3938 382.298C48.6309 381.936 48.937 381.624 49.2945 381.381C49.6521 381.137 50.0541 380.966 50.4777 380.878C50.9013 380.79 51.3381 380.786 51.7633 380.866C52.1884 380.947 52.5935 381.11 52.9555 381.347L369.636 583.45C370.528 583.989 371.303 584.703 371.913 585.549C372.524 586.394 372.957 587.354 373.188 588.371C373.419 589.388 373.443 590.441 373.258 591.468C373.073 592.494 372.683 593.472 372.111 594.344C371.539 595.217 370.797 595.964 369.93 596.543C369.062 597.122 368.087 597.521 367.063 597.714C366.038 597.908 364.984 597.893 363.966 597.67C362.947 597.447 361.983 597.022 361.133 596.418V596.418Z" fill="#455A64"/>
<path d="M361.133 596.418L279.327 541.444C277.577 536.097 281.56 530.419 286.548 530.419L369.636 583.45C370.528 583.989 371.303 584.703 371.913 585.549C372.524 586.394 372.957 587.354 373.188 588.371C373.419 589.388 373.443 590.441 373.258 591.468C373.073 592.494 372.683 593.472 372.111 594.344C371.539 595.217 370.797 595.964 369.93 596.543C369.062 597.122 368.087 597.521 367.062 597.714C366.038 597.908 364.984 597.893 363.966 597.67C362.947 597.447 361.983 597.022 361.133 596.418V596.418Z" fill="#BA68C8"/>
<path d="M311.024 562.737L308.626 561.124C308.695 560.793 308.75 560.476 308.833 560.146C309.389 558.184 310.255 556.323 311.396 554.633C312.452 553.079 313.772 551.722 315.296 550.623C315.74 550.292 316.2 549.984 316.674 549.699L318.907 551.078C318.426 551.295 317.965 551.553 317.529 551.849C316.114 552.793 314.889 553.995 313.918 555.391C312.882 556.92 312.095 558.604 311.589 560.38C311.355 561.166 311.176 561.951 311.024 562.737Z" fill="#455A64"/>
<path d="M309.591 546.64C308.179 547.588 306.955 548.789 305.98 550.182C304.945 551.714 304.163 553.403 303.665 555.184C303.442 555.919 303.258 556.664 303.114 557.417L300.716 555.805C300.716 555.529 300.826 555.24 300.909 554.95C301.456 552.985 302.322 551.123 303.472 549.438C304.523 547.884 305.838 546.527 307.358 545.427C307.73 545.152 308.171 544.862 308.64 544.559L310.859 545.937C310.42 546.141 309.996 546.376 309.591 546.64V546.64Z" fill="#455A64"/>
<path opacity="0.3" d="M58.6747 384.999C58.6747 384.999 121.573 426.936 179.041 464.931C236.509 502.926 317.57 550.306 317.57 550.306L317.115 549.948L58.6747 384.999Z" fill="white"/>
<path d="M521.699 276.651L527.694 265.391L522.911 251.486V242.969L537.657 251.486V260.003L531.318 271.028C531.223 271.201 531.072 271.337 530.891 271.414V271.414L521.699 276.651Z" fill="#BA68C8"/>
<path opacity="0.2" d="M521.699 276.651L527.694 265.391L522.911 251.486V242.969L537.657 251.486V260.003L531.318 271.028C531.223 271.201 531.072 271.337 530.891 271.414V271.414L521.699 276.651Z" fill="black"/>
<path d="M486.488 175.303C486.57 173.768 487.014 172.274 487.782 170.942C488.551 169.611 489.623 168.48 490.911 167.641L494.508 165.56C495.88 164.867 497.395 164.506 498.932 164.506C500.469 164.506 501.984 164.867 503.356 165.56L558.55 197.491C559.84 198.328 560.913 199.459 561.682 200.791C562.451 202.123 562.893 203.618 562.974 205.153V265.888C562.889 267.42 562.444 268.912 561.676 270.24C560.907 271.569 559.836 272.698 558.55 273.536L554.953 275.686C553.584 276.379 552.071 276.74 550.536 276.74C549.002 276.74 547.489 276.379 546.119 275.686L528.424 265.364L522.098 276.389C522.01 276.548 521.876 276.678 521.715 276.762C521.554 276.847 521.371 276.882 521.19 276.865C521.009 276.847 520.836 276.777 520.694 276.663C520.552 276.549 520.446 276.397 520.39 276.223L513.706 256.93L490.98 243.755C489.694 242.917 488.623 241.788 487.854 240.459C487.086 239.13 486.641 237.639 486.556 236.106L486.488 175.303Z" fill="#BA68C8"/>
<path opacity="0.2" d="M562.974 265.888C562.892 267.421 562.449 268.914 561.68 270.243C560.911 271.572 559.839 272.701 558.55 273.536L554.953 275.686C553.707 276.316 552.342 276.674 550.947 276.736C549.552 276.798 548.16 276.562 546.863 276.044C548.944 276.83 550.529 275.659 550.529 273.137V212.292C550.478 210.754 550.032 209.254 549.234 207.937L561.637 200.743C562.433 202.066 562.879 203.569 562.932 205.112L562.974 265.888Z" fill="black"/>
<path opacity="0.3" d="M486.639 174.035C487.149 172.161 488.858 171.568 490.911 172.74L546.119 204.671C547.428 205.483 548.502 206.623 549.234 207.978L561.637 200.798C560.905 199.447 559.831 198.311 558.522 197.505L503.328 165.56C501.955 164.873 500.44 164.516 498.904 164.516C497.369 164.516 495.854 164.873 494.481 165.56L490.884 167.654C489.778 168.372 488.831 169.308 488.101 170.405C487.371 171.503 486.873 172.738 486.639 174.035V174.035Z" fill="white"/>
<path d="M535.177 225.453C535.155 222.053 534.448 218.692 533.096 215.572V215.503C531.866 212.248 529.674 209.446 526.812 207.469C522.526 204.947 518.942 210.128 518.377 216.206C517.868 209.494 514.353 200.151 510.109 197.642C507.614 196.182 505.34 196.54 503.783 198.304C502.22 200.443 501.45 203.06 501.606 205.705C501.606 215.985 507.711 225.302 512.851 235.086L518.364 244.54L523.738 241.481C528.92 237.801 535.122 235.72 535.177 225.453Z" fill="#FAFAFA"/>
</svg>
