<svg width="651" height="559" viewBox="0 0 651 559" fill="none" xmlns="http://www.w3.org/2000/svg">
<path d="M481.521 236.795V288.947H496.67" stroke="#92E3A9" stroke-width="3" stroke-linecap="round" stroke-linejoin="round"/>
<path d="M494.992 304.291H478.15V357.22" stroke="#92E3A9" stroke-width="3" stroke-linecap="round" stroke-linejoin="round"/>
<path d="M490.781 296.619H452.888" stroke="#92E3A9" stroke-width="3" stroke-linecap="round" stroke-linejoin="round"/>
<path d="M323.888 493.38C321.773 493.129 319.653 492.857 317.529 492.563C319.653 492.866 321.773 493.138 323.888 493.38Z" fill="white" stroke="#263238" stroke-linejoin="round"/>
<path d="M317.046 492.485L317.529 492.55L317.046 492.485Z" fill="white" stroke="#263238" stroke-linejoin="round"/>
<path d="M336.945 494.546C334.726 494.404 332.479 494.235 330.203 494.028C332.479 494.235 334.726 494.404 336.945 494.546Z" fill="white" stroke="#263238" stroke-linejoin="round"/>
<path d="M343.659 494.857C341.497 494.78 339.292 494.689 337.045 494.546C339.292 494.689 341.497 494.78 343.659 494.857Z" fill="white" stroke="#263238" stroke-linejoin="round"/>
<path d="M330.189 494.028L329.464 493.963C327.614 493.782 325.751 493.6 323.888 493.38C325.993 493.626 328.098 493.846 330.189 494.028Z" fill="white" stroke="#263238" stroke-linejoin="round"/>
<path d="M443.443 115.695L443.742 115.799L444.396 115.993L443.443 115.695Z" fill="white" stroke="#263238" stroke-linejoin="round"/>
<path d="M472.716 127.929C472.716 127.929 471.707 127.333 469.872 126.387C468.691 125.778 467.155 125.013 465.291 124.145H465.163L463.328 123.303L463.101 123.199L461.138 122.344L460.782 122.188L458.691 121.307L458.265 121.125L455.989 120.205L455.548 120.037L453.059 119.078L451.963 118.676L449.929 117.937L448.635 117.484L446.757 116.836L447.682 117.147L447.184 116.965L445.463 116.408C444.908 116.213 444.325 116.032 443.742 115.851L441.878 115.254L439.986 114.684L440.897 114.956L439.858 114.632H439.787C438.251 114.166 436.644 113.712 434.994 113.272L433.571 112.896H433.486H433.642H433.457C432.305 112.585 431.125 112.287 429.93 112.001L428.28 111.457L424.311 110.576L422.889 110.265L422.462 110.187C421.196 110.278 356.66 114.995 324.599 154.42C292.224 194.247 305.993 259.138 305.183 277.541C304.372 295.945 301.939 317.355 297.089 326.207C292.238 335.058 288.185 334.32 290.603 340.217C293.021 346.114 303.575 371.956 303.575 371.956L296.292 388.908L303.575 402.179C303.575 402.179 297.103 411.031 301.954 418.405C304.516 422.569 308.123 426.122 312.48 428.773C312.48 428.773 316.519 450.158 310.858 463.429C306.05 474.678 312.878 487.496 317.046 492.485L317.529 492.55C321.541 493.12 325.523 493.574 329.463 493.95L330.203 494.015C332.493 494.222 334.769 494.39 337.017 494.533C339.264 494.663 341.469 494.766 343.645 494.844C357.087 495.259 369.007 494.378 377.2 492.187C390.969 488.494 485.661 444.986 499.416 431.715C509.373 422.06 515.574 379.641 518.177 357.233C514.458 358.531 510.51 359.198 506.528 359.203C481.08 359.203 460.455 331.987 460.455 298.485C460.455 264.983 481.08 237.78 506.528 237.78C522.473 237.78 536.527 248.459 544.791 264.685C545.92 256.992 546.443 249.235 546.356 241.473C545.559 193.56 501.848 144.156 472.716 127.929ZM422.604 296.904C412.121 305.561 397.868 315.411 387.214 315.411C376.56 315.411 362.307 305.561 351.824 296.904C349.856 295.281 348.283 293.3 347.206 291.089C346.129 288.878 345.573 286.486 345.573 284.067C345.573 281.648 346.129 279.256 347.206 277.045C348.283 274.834 349.856 272.853 351.824 271.23C362.307 262.572 376.56 252.723 387.214 252.723C397.868 252.723 412.121 262.572 422.604 271.23C424.572 272.853 426.146 274.834 427.222 277.045C428.299 279.256 428.855 281.648 428.855 284.067C428.855 286.486 428.299 288.878 427.222 291.089C426.146 293.3 424.572 295.281 422.604 296.904V296.904Z" fill="white" stroke="#263238" stroke-linejoin="round"/>
<path d="M412.704 471.231C414.34 471.646 416.004 472.034 417.725 472.384Z" fill="white"/>
<path d="M412.704 471.231C414.34 471.646 416.004 472.034 417.725 472.384" stroke="#263238" stroke-linejoin="round"/>
<path d="M342.009 402.685C342.009 402.685 350.188 451.7 405.763 469.274Z" fill="white"/>
<path d="M342.009 402.685C342.009 402.685 350.188 451.7 405.763 469.274" stroke="#263238" stroke-linejoin="round"/>
<path d="M450.811 118.184L450 117.912L450.968 118.249L450.811 118.184Z" fill="white" stroke="#263238" stroke-linejoin="round"/>
<path d="M445.562 116.382L447.184 116.914L446.43 116.667L445.847 116.473L444.424 116.032L443.685 115.786L444.424 116.019H444.339L445.406 116.382H445.562Z" fill="white" stroke="#263238" stroke-linejoin="round"/>
<path d="M449.886 117.938H449.958H449.886Z" fill="white" stroke="#263238" stroke-linejoin="round"/>
<path d="M440.954 114.905L439.901 114.581L440.954 114.905Z" fill="white" stroke="#263238" stroke-linejoin="round"/>
<path d="M448.948 117.536L448.606 117.419L450.598 118.119L449.744 117.821L449.104 117.587L447.838 117.147L447.397 116.991L447.838 117.147H447.682L448.635 117.484L448.948 117.536Z" fill="white" stroke="#263238" stroke-linejoin="round"/>
<path d="M441.878 115.203L443.542 115.721L442.917 115.527L442.376 115.345L440.954 114.892L441.878 115.203Z" fill="white" stroke="#263238" stroke-linejoin="round"/>
<path d="M305.823 338.26C298.426 334.501 290.176 336.756 290.176 336.756H289.963C289.837 337.989 290.063 339.229 290.617 340.359C293.049 346.256 303.575 372.073 303.575 372.073C303.575 372.073 326.334 366.02 329.663 360.033C332.991 354.045 313.219 341.979 305.823 338.26Z" fill="#263238" stroke="#263238" stroke-linejoin="round"/>
<path d="M296.292 388.96C296.292 388.96 306.634 384.696 320.616 390.696C328.266 393.837 335.438 397.867 341.953 402.685H303.547C303.547 402.685 297.459 399.976 296.292 388.96Z" fill="#263238" stroke="#263238" stroke-linejoin="round"/>
<path d="M303.575 402.685C303.575 402.685 297.587 404.94 300.048 413.934C302.508 422.928 312.48 428.786 312.48 428.786C312.48 428.786 339.506 426.674 342.009 402.685H303.575Z" fill="white" stroke="#263238" stroke-linejoin="round"/>
<path d="M490.966 148.834C495.589 149.327 498.818 150.13 499.956 150.843Z" fill="white"/>
<path d="M490.966 148.834C495.589 149.327 498.818 150.13 499.956 150.843" stroke="#263238" stroke-linejoin="round"/>
<path d="M388.324 249.859C388.139 233.36 390.486 200.61 409.404 176.336C428.323 152.061 464.367 147.525 484.907 148.394" stroke="#263238" stroke-linejoin="round"/>
<path d="M421.537 284.644H461.294" stroke="#263238" stroke-linejoin="round"/>
<path d="M500.696 279.019C492.531 279.019 485.917 287.741 485.917 298.459C485.917 309.177 492.531 317.899 500.696 317.899H538.276V279.019H500.696Z" fill="#263238" stroke="#263238" stroke-linejoin="round"/>
<path d="M538.333 317.99C546.503 317.99 553.127 309.263 553.127 298.498C553.127 287.733 546.503 279.006 538.333 279.006C530.163 279.006 523.54 287.733 523.54 298.498C523.54 309.263 530.163 317.99 538.333 317.99Z" fill="white" stroke="#263238" stroke-linejoin="round"/>
<path d="M549.727 258.451C532.942 258.451 519.33 276.375 519.33 298.498C519.33 320.621 532.942 338.558 549.727 338.558H587.649V258.451H549.727Z" fill="white" stroke="#263238" stroke-linejoin="round"/>
<path d="M587.649 338.558C604.437 338.558 618.046 320.623 618.046 298.498C618.046 276.374 604.437 258.438 587.649 258.438C570.861 258.438 557.252 276.374 557.252 298.498C557.252 320.623 570.861 338.558 587.649 338.558Z" fill="white" stroke="#263238" stroke-linejoin="round"/>
<path d="M592.912 359.216C618.357 359.216 638.984 332.032 638.984 298.498C638.984 264.964 618.357 237.78 592.912 237.78C567.467 237.78 546.839 264.964 546.839 298.498C546.839 332.032 567.467 359.216 592.912 359.216Z" fill="#263238" stroke="#263238" stroke-linejoin="round"/>
<path d="M603.609 359.216C629.054 359.216 649.681 332.032 649.681 298.498C649.681 264.964 629.054 237.78 603.609 237.78C578.164 237.78 557.536 264.964 557.536 298.498C557.536 332.032 578.164 359.216 603.609 359.216Z" fill="white" stroke="#263238" stroke-linejoin="round"/>
<path d="M603.609 323.55C614.112 323.55 622.627 312.334 622.627 298.498C622.627 284.662 614.112 273.446 603.609 273.446C593.105 273.446 584.591 284.662 584.591 298.498C584.591 312.334 593.105 323.55 603.609 323.55Z" fill="#263238" stroke="#263238" stroke-linejoin="round"/>
<path d="M608.331 323.55C618.834 323.55 627.349 312.334 627.349 298.498C627.349 284.662 618.834 273.446 608.331 273.446C597.828 273.446 589.313 284.662 589.313 298.498C589.313 312.334 597.828 323.55 608.331 323.55Z" fill="white" stroke="#263238" stroke-linejoin="round"/>
<path d="M618.032 276.297L603.609 323.563" stroke="#263238" stroke-linejoin="round"/>
<path d="M509.842 291.344H492.773" stroke="#92E3A9" stroke-width="3" stroke-linecap="round" stroke-linejoin="round"/>
<path d="M517.964 281.767H500.895" stroke="#92E3A9" stroke-width="3" stroke-linecap="round" stroke-linejoin="round"/>
<path d="M508.619 301.388H491.55" stroke="#92E3A9" stroke-width="3" stroke-linecap="round" stroke-linejoin="round"/>
<path d="M515.133 311.043H498.064" stroke="#92E3A9" stroke-width="3" stroke-linecap="round" stroke-linejoin="round"/>
<path d="M401.908 495.726C399.703 495.726 397.911 498.084 397.911 501C397.911 503.916 399.703 506.275 401.908 506.275H412.064V495.726H401.908Z" fill="white" stroke="#263238" stroke-linejoin="round"/>
<path d="M416.075 501C416.075 503.916 414.283 506.275 412.064 506.275C409.845 506.275 408.067 503.916 408.067 501C408.067 498.084 409.859 495.726 412.064 495.726C414.269 495.726 416.075 498.084 416.075 501Z" fill="white" stroke="#263238" stroke-linejoin="round"/>
<path d="M415.151 490.166C410.613 490.166 406.929 495.013 406.929 501C406.929 506.988 410.613 511.835 415.151 511.835H425.406V490.166H415.151Z" fill="white" stroke="#263238" stroke-linejoin="round"/>
<path d="M433.628 501C433.628 506.988 429.944 511.835 425.406 511.835C420.869 511.835 417.185 506.988 417.185 501C417.185 495.013 420.869 490.166 425.406 490.166C429.944 490.166 433.628 495.077 433.628 501Z" fill="white" stroke="#263238" stroke-linejoin="round"/>
<path d="M426.829 517.421C433.711 517.421 439.289 510.069 439.289 501C439.289 491.931 433.711 484.58 426.829 484.58C419.947 484.58 414.368 491.931 414.368 501C414.368 510.069 419.947 517.421 426.829 517.421Z" fill="white" stroke="#263238" stroke-linejoin="round"/>
<path d="M429.731 517.421C436.612 517.421 442.191 510.069 442.191 501C442.191 491.931 436.612 484.58 429.731 484.58C422.849 484.58 417.27 491.931 417.27 501C417.27 510.069 422.849 517.421 429.731 517.421Z" fill="white" stroke="#263238" stroke-linejoin="round"/>
<path d="M434.866 501C434.866 504.746 432.561 507.778 429.731 507.778C426.9 507.778 424.581 504.746 424.581 501C424.581 497.255 426.886 494.222 429.731 494.222C432.575 494.222 434.866 497.255 434.866 501Z" fill="white" stroke="#263238" stroke-linejoin="round"/>
<path d="M436.146 501C436.146 504.746 433.842 507.778 431.011 507.778C428.18 507.778 425.862 504.746 425.862 501C425.862 497.255 428.166 494.222 431.011 494.222C433.856 494.222 436.146 497.255 436.146 501Z" fill="white" stroke="#263238" stroke-linejoin="round"/>
<path d="M401.908 536.291C399.703 536.291 397.911 538.65 397.911 541.566C397.911 544.482 399.703 546.828 401.908 546.828H412.064V536.291H401.908Z" fill="white" stroke="#263238" stroke-linejoin="round"/>
<path d="M416.075 541.566C416.075 544.469 414.283 546.828 412.064 546.828C409.845 546.828 408.067 544.469 408.067 541.566C408.067 538.663 409.859 536.291 412.064 536.291C414.269 536.291 416.075 538.65 416.075 541.566Z" fill="white" stroke="#263238" stroke-linejoin="round"/>
<path d="M415.151 530.731C410.613 530.731 406.929 535.578 406.929 541.566C406.929 547.553 410.613 552.4 415.151 552.4H425.406V530.731H415.151Z" fill="white" stroke="#263238" stroke-linejoin="round"/>
<path d="M433.628 541.566C433.628 547.54 429.944 552.4 425.406 552.4C420.869 552.4 417.185 547.54 417.185 541.566C417.185 535.591 420.869 530.731 425.406 530.731C429.944 530.731 433.628 535.578 433.628 541.566Z" fill="white" stroke="#263238" stroke-linejoin="round"/>
<path d="M426.829 557.986C433.711 557.986 439.289 550.634 439.289 541.566C439.289 532.497 433.711 525.145 426.829 525.145C419.947 525.145 414.368 532.497 414.368 541.566C414.368 550.634 419.947 557.986 426.829 557.986Z" fill="white" stroke="#263238" stroke-linejoin="round"/>
<path d="M429.731 557.986C436.612 557.986 442.191 550.634 442.191 541.566C442.191 532.497 436.612 525.145 429.731 525.145C422.849 525.145 417.27 532.497 417.27 541.566C417.27 550.634 422.849 557.986 429.731 557.986Z" fill="white" stroke="#263238" stroke-linejoin="round"/>
<path d="M434.866 541.566C434.866 545.311 432.561 548.344 429.731 548.344C426.9 548.344 424.581 545.311 424.581 541.566C424.581 537.82 426.886 534.788 429.731 534.788C432.575 534.788 434.866 537.846 434.866 541.566Z" fill="white" stroke="#263238" stroke-linejoin="round"/>
<path d="M436.146 541.566C436.146 545.311 433.842 548.344 431.011 548.344C428.18 548.344 425.862 545.311 425.862 541.566C425.862 537.82 428.166 534.788 431.011 534.788C433.856 534.788 436.146 537.846 436.146 541.566Z" fill="white" stroke="#263238" stroke-linejoin="round"/>
<path d="M443.158 363.636C441.583 364.671 439.835 365.467 437.981 365.994" stroke="#263238" stroke-linejoin="round"/>
<path d="M425.222 365.476C421.626 364.092 418.603 361.706 416.586 358.661C414.569 355.616 413.662 352.067 413.994 348.523C414.326 344.979 415.88 341.622 418.434 338.932C420.988 336.243 424.411 334.358 428.213 333.549C432.014 332.741 435.999 333.048 439.596 334.429C443.194 335.81 446.22 338.192 448.24 341.235C450.261 344.279 451.172 347.826 450.845 351.371C450.517 354.915 448.967 358.273 446.416 360.966" stroke="#263238" stroke-linejoin="round"/>
<path d="M456.901 171.735C459.786 162.809 450.212 152.377 435.517 148.434C420.822 144.49 406.571 148.53 403.686 157.456C400.801 166.382 410.374 176.814 425.069 180.757C439.764 184.7 454.016 180.661 456.901 171.735Z" fill="white" stroke="#263238" stroke-linejoin="round"/>
<path d="M396.858 391.396C401.572 391.396 405.393 387.915 405.393 383.62C405.393 379.326 401.572 375.844 396.858 375.844C392.145 375.844 388.324 379.326 388.324 383.62C388.324 387.915 392.145 391.396 396.858 391.396Z" fill="white" stroke="#263238" stroke-linejoin="round"/>
</svg>
