<svg width="764" height="573" viewBox="0 0 764 573" fill="none" xmlns="http://www.w3.org/2000/svg">
<path d="M118.319 515.04C263.951 591.115 500.049 591.115 645.681 515.04C791.314 438.965 791.296 315.615 645.681 239.54C500.067 163.465 263.951 163.465 118.319 239.54C-27.3136 315.615 -27.2962 439 118.319 515.04Z" fill="#F5F5F5"/>
<path d="M648.375 456.206C640.234 459.544 631.106 459.544 622.965 456.206C616.013 452.852 616.013 447.516 622.965 444.04C631.103 440.685 640.237 440.685 648.375 444.04C655.397 447.429 655.397 452.904 648.375 456.206Z" fill="#E0E0E0"/>
<path d="M90.9093 446.543C99.1935 449.95 108.488 449.95 116.772 446.543C123.915 443.067 123.915 437.609 116.772 434.202C108.484 430.814 99.1972 430.814 90.9093 434.202C83.7659 437.609 83.7659 443.136 90.9093 446.543Z" fill="#E0E0E0"/>
<path d="M529.37 407.715C533.715 408.271 538.738 406.776 540.911 403.891C543.466 400.502 542.336 395.201 543.57 392.368C544.804 389.535 548.784 389.986 550.644 387.588C552.504 385.189 549.619 379.454 550.644 376.412C551.67 373.371 554.624 370.468 555.963 368.382C557.301 366.297 555.963 363.168 551.392 364.75C546.82 366.331 544.439 371.806 540.007 370.885C535.575 369.964 531.786 372.623 531.717 377.02C531.842 378.74 531.506 380.462 530.743 382.009C529.909 383.364 527.684 384.129 526.676 386.232L529.37 407.715Z" fill="#BA68C8"/>
<path opacity="0.2" d="M529.37 407.715C533.715 408.271 538.738 406.776 540.911 403.891C543.466 400.502 542.336 395.201 543.57 392.368C544.804 389.535 548.784 389.986 550.644 387.588C552.504 385.189 549.619 379.454 550.644 376.412C551.67 373.371 554.624 370.468 555.963 368.382C557.301 366.297 555.963 363.168 551.392 364.75C546.82 366.331 544.439 371.806 540.007 370.885C535.575 369.964 531.786 372.623 531.717 377.02C531.842 378.74 531.506 380.462 530.743 382.009C529.909 383.364 527.684 384.129 526.676 386.232L529.37 407.715Z" fill="black"/>
<path d="M553.929 366.001C547.55 369.477 530.239 389.361 528.814 399.928" stroke="white" stroke-width="0.5" stroke-miterlimit="10" stroke-linecap="round"/>
<path d="M134.9 354.634L212.556 309.792V118.206L134.9 163.048V354.634Z" fill="#37474F"/>
<path d="M134.9 163.048L50.1692 114.139V305.708L134.9 354.634V163.048Z" fill="#455A64"/>
<path d="M212.556 118.205L127.843 69.2964L50.1692 114.138L134.9 163.047L212.556 118.205Z" fill="#37474F"/>
<path d="M81.8888 324.061V291.438L103.841 304.056V336.662L81.8888 324.061Z" fill="#E0E0E0"/>
<path d="M91.4656 296.948L93.6034 298.182V330.788L91.4656 329.554V296.948Z" fill="#263238"/>
<path d="M126.018 300.563V282.383L111.488 273.988V292.168L126.018 300.563Z" fill="#E0E0E0"/>
<path d="M111.488 292.168L115.121 290.083V276.091L111.488 273.988V292.168Z" fill="#263238"/>
<path d="M126.018 296.374L115.121 290.083L111.488 292.168L126.018 300.563V296.374Z" fill="#37474F"/>
<path d="M126.018 335.394V317.213L111.488 308.836V327.016L126.018 335.394Z" fill="#E0E0E0"/>
<path d="M111.488 327.016L115.121 324.913V310.922L111.488 308.836V327.016Z" fill="#263238"/>
<path d="M126.018 331.205L115.121 324.913L111.488 327.016L126.018 335.394V331.205Z" fill="#37474F"/>
<path d="M126.018 266.462V248.282L111.488 239.905V258.085L126.018 266.462Z" fill="#E0E0E0"/>
<path d="M111.488 258.085L115.121 255.982V241.99L111.488 239.905V258.085Z" fill="#263238"/>
<path d="M126.018 262.274L115.121 255.982L111.488 258.085L126.018 266.462V262.274Z" fill="#37474F"/>
<path d="M126.018 232.361V214.181L111.488 205.804V223.984L126.018 232.361Z" fill="#E0E0E0"/>
<path d="M111.488 223.984L115.121 221.881V207.889L111.488 205.804V223.984Z" fill="#263238"/>
<path d="M126.018 228.173L115.121 221.881L111.488 223.984L126.018 232.361V228.173Z" fill="#37474F"/>
<path d="M126.018 198.278V180.081L111.488 171.703V189.883L126.018 198.278Z" fill="#E0E0E0"/>
<path d="M111.488 189.883L115.121 187.78V173.806L111.488 171.703V189.883Z" fill="#263238"/>
<path d="M126.018 194.072L115.121 187.78L111.488 189.883L126.018 198.278V194.072Z" fill="#37474F"/>
<path d="M73.5982 270.304V252.123L59.068 243.729V261.909L73.5982 270.304Z" fill="#E0E0E0"/>
<path d="M59.068 261.909L62.7006 259.823V245.832L59.068 243.729V261.909Z" fill="#263238"/>
<path d="M73.5982 266.115L62.7005 259.823L59.068 261.909L73.5982 270.304V266.115Z" fill="#37474F"/>
<path d="M73.5982 305.134V286.954L59.068 278.577V296.739L73.5982 305.134Z" fill="#E0E0E0"/>
<path d="M59.068 296.739L62.7006 294.654V280.662L59.068 278.577V296.739Z" fill="#263238"/>
<path d="M73.5982 300.946L62.7005 294.654L59.068 296.739L73.5982 305.134V300.946Z" fill="#37474F"/>
<path d="M73.5982 235.907V217.727L59.068 209.35V227.53L73.5982 235.907Z" fill="#E0E0E0"/>
<path d="M59.068 227.53L62.7006 225.427V211.435L59.068 209.35V227.53Z" fill="#263238"/>
<path d="M73.5982 231.719L62.7005 225.427L59.068 227.53L73.5982 235.907V231.719Z" fill="#37474F"/>
<path d="M73.5982 201.528V183.348L59.068 174.953V193.133L73.5982 201.528Z" fill="#E0E0E0"/>
<path d="M59.068 193.133L62.7006 191.048V177.056L59.068 174.953V193.133Z" fill="#263238"/>
<path d="M73.5982 197.34L62.7005 191.048L59.068 193.134L73.5982 201.528V197.34Z" fill="#37474F"/>
<path d="M73.5982 167.132V148.952L59.068 140.574V158.754L73.5982 167.132Z" fill="#FAFAFA"/>
<path d="M59.068 158.754L62.7006 156.651V142.66L59.068 140.574V158.754Z" fill="#263238"/>
<path d="M73.5982 162.944L62.7005 156.652L59.068 158.755L73.5982 167.132V162.944Z" fill="#37474F"/>
<path d="M81.8888 152.828L90.3531 157.712V279.984L81.8888 275.118V152.828Z" fill="#FAFAFA"/>
<path d="M81.8888 152.828L85.4692 154.896V273.102L81.8888 275.118V152.828Z" fill="#263238"/>
<path d="M85.4692 273.102L90.3531 275.813V279.984L81.8888 275.118L85.4692 273.102Z" fill="#37474F"/>
<path d="M95.3588 160.527L103.841 165.394V287.684L95.3588 282.8V160.527Z" fill="#FAFAFA"/>
<path d="M95.3588 160.527L98.9392 162.596V280.784L95.3588 282.8V160.527Z" fill="#263238"/>
<path d="M98.9392 280.784L103.841 283.496V287.684L95.3588 282.8L98.9392 280.784Z" fill="#37474F"/>
<path d="M143.885 300.563V282.383L158.398 273.988V292.168L143.885 300.563Z" fill="#E0E0E0"/>
<path d="M158.398 292.168L154.766 290.083L154.783 276.091L158.398 273.988V292.168Z" fill="#455A64"/>
<path d="M143.885 296.374L154.766 290.083L158.398 292.168L143.885 300.563V296.374Z" fill="#263238"/>
<path d="M166.463 287.58V269.4L180.993 261.022V279.203L166.463 287.58Z" fill="#E0E0E0"/>
<path d="M180.993 279.203L177.361 277.1V263.108L180.993 261.022V279.203Z" fill="#455A64"/>
<path d="M166.463 283.391L177.361 277.099L180.993 279.202L166.463 287.58V283.391Z" fill="#263238"/>
<path d="M189.04 274.614V256.434L203.57 248.039V266.219L189.04 274.614Z" fill="#E0E0E0"/>
<path d="M203.571 266.219L199.938 264.134V250.142L203.571 248.039V266.219Z" fill="#455A64"/>
<path d="M189.04 270.408L199.938 264.133L203.57 266.219L189.04 274.614V270.408Z" fill="#263238"/>
<path d="M143.885 335.394V317.213L158.398 308.836V327.016L143.885 335.394Z" fill="#E0E0E0"/>
<path d="M158.398 327.016L154.766 324.913L154.783 310.922L158.398 308.836V327.016Z" fill="#455A64"/>
<path d="M143.885 331.205L154.766 324.913L158.398 327.016L143.885 335.394V331.205Z" fill="#263238"/>
<path d="M166.463 322.428V304.23L180.993 295.853V314.033L166.463 322.428Z" fill="#E0E0E0"/>
<path d="M180.993 314.033L177.361 311.93V297.956L180.993 295.853V314.033Z" fill="#455A64"/>
<path d="M166.463 318.222L177.361 311.93L180.993 314.033L166.463 322.428V318.222Z" fill="#263238"/>
<path d="M189.04 309.445V291.264L203.57 282.87V301.05L189.04 309.445Z" fill="#E0E0E0"/>
<path d="M203.571 301.05L199.938 298.964V284.973L203.571 282.87V301.05Z" fill="#455A64"/>
<path d="M189.04 305.256L199.938 298.964L203.57 301.05L189.04 309.444V305.256Z" fill="#263238"/>
<path d="M143.885 266.462V248.282L158.398 239.905V258.085L143.885 266.462Z" fill="#E0E0E0"/>
<path d="M158.398 258.085L154.766 255.982L154.783 241.99L158.398 239.905V258.085Z" fill="#455A64"/>
<path d="M143.885 262.274L154.766 255.982L158.398 258.085L143.885 266.462V262.274Z" fill="#263238"/>
<path d="M166.463 253.34V235.16L180.993 226.782V244.962L166.463 253.34Z" fill="#E0E0E0"/>
<path d="M180.993 244.962L177.361 242.859V228.868L180.993 226.782V244.962Z" fill="#455A64"/>
<path d="M166.463 249.151L177.361 242.859L180.993 244.962L166.463 253.34V249.151Z" fill="#263238"/>
<path d="M189.04 240.218V222.038L203.57 213.66V231.84L189.04 240.218Z" fill="#E0E0E0"/>
<path d="M203.571 231.84L199.938 229.737V215.746L203.571 213.66V231.84Z" fill="#455A64"/>
<path d="M189.04 236.029L199.938 229.737L203.57 231.84L189.04 240.217V236.029Z" fill="#263238"/>
<path d="M143.885 232.361V214.181L158.398 205.804V223.984L143.885 232.361Z" fill="#E0E0E0"/>
<path d="M158.398 223.984L154.766 221.881L154.783 207.889L158.398 205.804V223.984Z" fill="#455A64"/>
<path d="M143.885 228.173L154.766 221.881L158.398 223.984L143.885 232.361V228.173Z" fill="#263238"/>
<path d="M166.463 219.1V200.92L180.993 192.525V210.722L166.463 219.1Z" fill="#E0E0E0"/>
<path d="M180.993 210.722L177.361 208.619V194.628L180.993 192.525V210.722Z" fill="#455A64"/>
<path d="M166.463 214.911L177.361 208.62L180.993 210.723L166.463 219.1V214.911Z" fill="#263238"/>
<path d="M189.04 205.839V187.659L203.57 179.264V197.444L189.04 205.839Z" fill="#E0E0E0"/>
<path d="M203.571 197.444L199.938 195.358V181.367L203.571 179.264V197.444Z" fill="#455A64"/>
<path d="M189.04 201.65L199.938 195.358L203.57 197.444L189.04 205.839V201.65Z" fill="#263238"/>
<path d="M143.885 198.278V180.081L158.398 171.703V189.883L143.885 198.278Z" fill="#E0E0E0"/>
<path d="M158.398 189.883L154.766 187.78L154.783 173.806L158.398 171.703V189.883Z" fill="#455A64"/>
<path d="M143.885 194.072L154.766 187.78L158.398 189.883L143.885 198.278V194.072Z" fill="#263238"/>
<path d="M166.463 184.86V166.68L180.993 158.285V176.465L166.463 184.86Z" fill="#E0E0E0"/>
<path d="M180.993 176.465L177.361 174.38V160.388L180.993 158.285V176.465Z" fill="#455A64"/>
<path d="M166.463 180.672L177.361 174.38L180.993 176.466L166.463 184.86V180.672Z" fill="#263238"/>
<path d="M189.04 171.442V153.262L203.57 144.885V163.065L189.04 171.442Z" fill="#E0E0E0"/>
<path d="M203.571 163.065L199.938 160.962V146.97L203.571 144.885V163.065Z" fill="#455A64"/>
<path d="M189.04 167.254L199.938 160.962L203.57 163.065L189.04 171.442V167.254Z" fill="#263238"/>
<path d="M64.2997 114.139L127.843 77.4482L198.426 118.206L134.9 154.896L64.2997 114.139Z" fill="#F0F0F0"/>
<path d="M127.843 77.4482V85.5998L191.369 122.29L198.426 118.206L127.843 77.4482Z" fill="#455A64"/>
<path d="M127.843 77.4482L64.2997 114.139L71.3562 118.206L127.843 85.5998V77.4482Z" fill="#263238"/>
<path d="M624.912 354.634L547.255 309.792V118.206L624.929 163.048L624.912 354.634Z" fill="#455A64"/>
<path d="M624.929 163.048L709.642 114.139V305.708L624.912 354.634L624.929 163.048Z" fill="#37474F"/>
<path d="M547.255 118.205L631.986 69.2964L709.642 114.138L624.929 163.047L547.255 118.205Z" fill="#37474F"/>
<path d="M677.94 324.061V291.438L655.971 304.056L655.988 336.662L677.94 324.061Z" fill="#E0E0E0"/>
<path d="M668.346 296.948L666.225 298.182V330.788L668.346 329.554V296.948Z" fill="#263238"/>
<path d="M633.793 300.563V282.383L648.323 273.988V292.168L633.793 300.563Z" fill="#E0E0E0"/>
<path d="M648.323 292.168L644.691 290.083V276.091L648.323 273.988V292.168Z" fill="#263238"/>
<path d="M633.793 296.374L644.691 290.083L648.323 292.168L633.793 300.563V296.374Z" fill="#455A64"/>
<path d="M633.793 335.394V317.213L648.323 308.836V327.016L633.793 335.394Z" fill="#E0E0E0"/>
<path d="M648.323 327.016L644.691 324.913V310.922L648.323 308.836V327.016Z" fill="#263238"/>
<path d="M633.793 331.205L644.691 324.913L648.323 327.016L633.793 335.394V331.205Z" fill="#455A64"/>
<path d="M633.793 266.462V248.282L648.323 239.905V258.085L633.793 266.462Z" fill="#E0E0E0"/>
<path d="M648.323 258.085L644.691 255.982V241.99L648.323 239.905V258.085Z" fill="#263238"/>
<path d="M633.793 262.274L644.691 255.982L648.323 258.085L633.793 266.462V262.274Z" fill="#455A64"/>
<path d="M633.793 232.361V214.181L648.323 205.804V223.984L633.793 232.361Z" fill="#E0E0E0"/>
<path d="M648.323 223.984L644.691 221.881V207.889L648.323 205.804V223.984Z" fill="#263238"/>
<path d="M633.793 228.173L644.691 221.881L648.323 223.984L633.793 232.361V228.173Z" fill="#455A64"/>
<path d="M633.793 198.278V180.081L648.323 171.703V189.883L633.793 198.278Z" fill="#E0E0E0"/>
<path d="M648.323 189.883L644.691 187.78V173.806L648.323 171.703V189.883Z" fill="#263238"/>
<path d="M633.793 194.072L644.691 187.78L648.323 189.883L633.793 198.278V194.072Z" fill="#455A64"/>
<path d="M686.23 270.304V252.123L700.743 243.729V261.909L686.23 270.304Z" fill="#E0E0E0"/>
<path d="M700.743 261.909L697.128 259.823V245.832L700.743 243.729V261.909Z" fill="#263238"/>
<path d="M686.23 266.115L697.128 259.823L700.743 261.909L686.23 270.304V266.115Z" fill="#455A64"/>
<path d="M686.23 305.134V286.954L700.743 278.577V296.739L686.23 305.134Z" fill="#E0E0E0"/>
<path d="M700.743 296.739L697.128 294.654V280.662L700.743 278.577V296.739Z" fill="#263238"/>
<path d="M686.23 300.946L697.128 294.654L700.743 296.739L686.23 305.134V300.946Z" fill="#455A64"/>
<path d="M686.23 235.907V217.727L700.743 209.35V227.53L686.23 235.907Z" fill="#E0E0E0"/>
<path d="M700.743 227.53L697.128 225.427V211.435L700.743 209.35V227.53Z" fill="#263238"/>
<path d="M686.23 231.719L697.128 225.427L700.743 227.53L686.23 235.907V231.719Z" fill="#455A64"/>
<path d="M686.23 201.528V183.348L700.743 174.953V193.133L686.23 201.528Z" fill="#E0E0E0"/>
<path d="M700.743 193.133L697.128 191.048V177.056L700.743 174.953V193.133Z" fill="#263238"/>
<path d="M686.23 197.34L697.128 191.048L700.743 193.134L686.23 201.528V197.34Z" fill="#455A64"/>
<path d="M686.23 167.132V148.952L700.743 140.574V158.754L686.23 167.132Z" fill="#FAFAFA"/>
<path d="M700.743 158.754L697.128 156.651V142.66L700.743 140.574V158.754Z" fill="#263238"/>
<path d="M686.23 162.944L697.128 156.652L700.743 158.755L686.23 167.132V162.944Z" fill="#455A64"/>
<path d="M677.94 152.828L669.458 157.712V279.984L677.94 275.118V152.828Z" fill="#FAFAFA"/>
<path d="M677.94 152.828L674.342 154.896V273.102L677.94 275.118V152.828Z" fill="#263238"/>
<path d="M674.342 273.102L669.458 275.813V279.984L677.94 275.118L674.342 273.102Z" fill="#455A64"/>
<path d="M664.453 160.527L655.988 165.394V287.684L664.453 282.8V160.527Z" fill="#FAFAFA"/>
<path d="M664.452 160.527L660.872 162.596V280.784L664.452 282.8V160.527Z" fill="#263238"/>
<path d="M660.872 280.784L655.988 283.496V287.684L664.453 282.8L660.872 280.784Z" fill="#455A64"/>
<path d="M615.943 300.563V282.383L601.413 273.988V292.168L615.943 300.563Z" fill="#E0E0E0"/>
<path d="M601.413 292.168L605.046 290.083V276.091L601.413 273.988V292.168Z" fill="#37474F"/>
<path d="M615.943 296.374L605.046 290.083L601.413 292.168L615.943 300.563V296.374Z" fill="#263238"/>
<path d="M593.348 287.58V269.4L578.836 261.022V279.203L593.348 287.58Z" fill="#E0E0E0"/>
<path d="M578.836 279.203L582.451 277.1V263.108L578.836 261.022V279.203Z" fill="#37474F"/>
<path d="M593.348 283.391L582.451 277.099L578.836 279.202L593.348 287.58V283.391Z" fill="#263238"/>
<path d="M570.771 274.614V256.434L556.241 248.039V266.219L570.771 274.614Z" fill="#E0E0E0"/>
<path d="M556.241 266.219L559.873 264.134V250.142L556.241 248.039V266.219Z" fill="#37474F"/>
<path d="M570.771 270.408L559.873 264.133L556.241 266.219L570.771 274.614V270.408Z" fill="#263238"/>
<path d="M615.943 335.394V317.213L601.413 308.836V327.016L615.943 335.394Z" fill="#E0E0E0"/>
<path d="M601.413 327.016L605.046 324.913V310.922L601.413 308.836V327.016Z" fill="#37474F"/>
<path d="M615.943 331.205L605.046 324.913L601.413 327.016L615.943 335.394V331.205Z" fill="#263238"/>
<path d="M593.348 322.428V304.23L578.836 295.853V314.033L593.348 322.428Z" fill="#E0E0E0"/>
<path d="M578.836 314.033L582.451 311.93V297.956L578.836 295.853V314.033Z" fill="#37474F"/>
<path d="M593.348 318.222L582.451 311.93L578.836 314.033L593.348 322.428V318.222Z" fill="#263238"/>
<path d="M570.771 309.445V291.264L556.241 282.87V301.05L570.771 309.445Z" fill="#E0E0E0"/>
<path d="M556.241 301.05L559.873 298.964V284.973L556.241 282.87V301.05Z" fill="#37474F"/>
<path d="M570.771 305.256L559.873 298.964L556.241 301.05L570.771 309.444V305.256Z" fill="#263238"/>
<path d="M615.943 266.462V248.282L601.413 239.905V258.085L615.943 266.462Z" fill="#E0E0E0"/>
<path d="M601.413 258.085L605.046 255.982V241.99L601.413 239.905V258.085Z" fill="#37474F"/>
<path d="M615.943 262.274L605.046 255.982L601.413 258.085L615.943 266.462V262.274Z" fill="#263238"/>
<path d="M593.348 253.34V235.16L578.836 226.782V244.962L593.348 253.34Z" fill="#E0E0E0"/>
<path d="M578.836 244.962L582.451 242.859V228.868L578.836 226.782V244.962Z" fill="#37474F"/>
<path d="M593.348 249.151L582.451 242.859L578.836 244.962L593.348 253.34V249.151Z" fill="#263238"/>
<path d="M570.771 240.218V222.038L556.241 213.66V231.84L570.771 240.218Z" fill="#E0E0E0"/>
<path d="M556.241 231.84L559.873 229.737V215.746L556.241 213.66V231.84Z" fill="#37474F"/>
<path d="M570.771 236.029L559.873 229.737L556.241 231.84L570.771 240.217V236.029Z" fill="#263238"/>
<path d="M615.943 232.361V214.181L601.413 205.804V223.984L615.943 232.361Z" fill="#E0E0E0"/>
<path d="M601.413 223.984L605.046 221.881V207.889L601.413 205.804V223.984Z" fill="#37474F"/>
<path d="M615.943 228.173L605.046 221.881L601.413 223.984L615.943 232.361V228.173Z" fill="#263238"/>
<path d="M593.348 219.1V200.92L578.836 192.525V210.722L593.348 219.1Z" fill="#E0E0E0"/>
<path d="M578.836 210.722L582.451 208.619V194.628L578.836 192.525V210.722Z" fill="#37474F"/>
<path d="M593.348 214.911L582.451 208.62L578.836 210.723L593.348 219.1V214.911Z" fill="#263238"/>
<path d="M570.771 205.839V187.659L556.241 179.264V197.444L570.771 205.839Z" fill="#E0E0E0"/>
<path d="M556.241 197.444L559.873 195.358V181.367L556.241 179.264V197.444Z" fill="#37474F"/>
<path d="M570.771 201.65L559.873 195.358L556.241 197.444L570.771 205.839V201.65Z" fill="#263238"/>
<path d="M615.943 198.278V180.081L601.413 171.703V189.883L615.943 198.278Z" fill="#E0E0E0"/>
<path d="M601.413 189.883L605.046 187.78V173.806L601.413 171.703V189.883Z" fill="#37474F"/>
<path d="M615.943 194.072L605.046 187.78L601.413 189.883L615.943 198.278V194.072Z" fill="#263238"/>
<path d="M593.348 184.86V166.68L578.836 158.285V176.465L593.348 184.86Z" fill="#E0E0E0"/>
<path d="M578.836 176.465L582.451 174.38V160.388L578.836 158.285V176.465Z" fill="#37474F"/>
<path d="M593.348 180.672L582.451 174.38L578.836 176.466L593.348 184.86V180.672Z" fill="#263238"/>
<path d="M570.771 171.442V153.262L556.241 144.885V163.065L570.771 171.442Z" fill="#E0E0E0"/>
<path d="M556.241 163.065L559.873 160.962V146.97L556.241 144.885V163.065Z" fill="#37474F"/>
<path d="M570.771 167.254L559.873 160.962L556.241 163.065L570.771 171.442V167.254Z" fill="#263238"/>
<path d="M695.529 114.139L631.986 77.4482L561.385 118.206L624.929 154.896L695.529 114.139Z" fill="#F0F0F0"/>
<path d="M631.986 77.4482V85.5998L568.442 122.29L561.385 118.206L631.986 77.4482Z" fill="#263238"/>
<path d="M631.986 77.4482L695.529 114.139L688.455 118.206L631.986 85.5998V77.4482Z" fill="#455A64"/>
<path d="M509.73 533.672C500.895 537.305 490.983 537.305 482.147 533.672C474.534 530.04 474.534 524.165 482.147 520.533C490.983 516.901 500.895 516.901 509.73 520.533C517.36 524.165 517.36 530.04 509.73 533.672Z" fill="#E0E0E0"/>
<path d="M224.462 521.697C233.303 525.33 243.221 525.33 252.062 521.697C259.675 518.064 259.675 512.189 252.062 508.557C243.221 504.924 233.303 504.924 224.462 508.557C216.884 512.189 216.884 518.064 224.462 521.697Z" fill="#E0E0E0"/>
<path d="M385.772 519.576L554.746 422.019C555.881 421.417 556.83 420.517 557.492 419.416C558.154 418.315 558.503 417.055 558.503 415.771C558.503 414.486 558.154 413.226 557.492 412.125C556.83 411.024 555.881 410.125 554.746 409.522L385.754 311.965C384.588 311.374 383.299 311.066 381.991 311.066C380.684 311.066 379.395 311.374 378.228 311.965L209.254 409.453C208.119 410.055 207.17 410.955 206.508 412.056C205.846 413.156 205.496 414.417 205.496 415.701C205.496 416.986 205.846 418.246 206.508 419.347C207.17 420.447 208.119 421.347 209.254 421.949L378.246 519.507C379.407 520.109 380.693 520.428 382 520.441C383.308 520.453 384.6 520.157 385.772 519.576V519.576Z" fill="#BA68C8"/>
<path d="M385.772 519.576L554.746 422.019C555.881 421.417 556.83 420.517 557.492 419.416C558.154 418.315 558.503 417.055 558.503 415.771C558.503 414.486 558.154 413.226 557.492 412.125C556.83 411.024 555.881 410.125 554.746 409.522L385.754 311.965C384.588 311.374 383.299 311.066 381.991 311.066C380.684 311.066 379.395 311.374 378.228 311.965L209.254 409.453C208.119 410.055 207.17 410.955 206.508 412.056C205.846 413.156 205.496 414.417 205.496 415.701C205.496 416.986 205.846 418.246 206.508 419.347C207.17 420.447 208.119 421.347 209.254 421.949L378.246 519.507C379.407 520.109 380.693 520.428 382 520.441C383.308 520.453 384.6 520.157 385.772 519.576V519.576Z" fill="#BA68C8"/>
<path d="M385.772 519.576L554.746 422.019C555.881 421.417 556.83 420.517 557.492 419.416C558.154 418.315 558.503 417.055 558.503 415.771C558.503 414.486 558.154 413.226 557.492 412.125C556.83 411.024 555.881 410.125 554.746 409.522L385.754 311.965C384.588 311.374 383.299 311.066 381.991 311.066C380.684 311.066 379.395 311.374 378.228 311.965L209.254 409.453C208.119 410.055 207.17 410.955 206.508 412.056C205.846 413.156 205.496 414.417 205.496 415.701C205.496 416.986 205.846 418.246 206.508 419.347C207.17 420.447 208.119 421.347 209.254 421.949L378.246 519.507C379.407 520.109 380.693 520.428 382 520.441C383.308 520.453 384.6 520.157 385.772 519.576V519.576Z" fill="#BA68C8"/>
<path opacity="0.2" d="M385.772 519.576L554.746 422.019C555.881 421.417 556.83 420.517 557.492 419.416C558.154 418.315 558.503 417.055 558.503 415.771C558.503 414.486 558.154 413.226 557.492 412.125C556.83 411.024 555.881 410.125 554.746 409.522L385.754 311.965C384.588 311.374 383.299 311.066 381.991 311.066C380.684 311.066 379.395 311.374 378.228 311.965L209.254 409.453C208.119 410.055 207.17 410.955 206.508 412.056C205.846 413.156 205.496 414.417 205.496 415.701C205.496 416.986 205.846 418.246 206.508 419.347C207.17 420.447 208.119 421.347 209.254 421.949L378.246 519.507C379.407 520.109 380.693 520.428 382 520.441C383.308 520.453 384.6 520.157 385.772 519.576V519.576Z" fill="black"/>
<path d="M209.254 413.867L378.246 511.425C379.412 512.016 380.701 512.324 382.009 512.324C383.316 512.324 384.605 512.016 385.772 511.425L554.746 413.867C555.2 413.713 555.594 413.421 555.874 413.031C556.153 412.642 556.303 412.174 556.303 411.695C556.303 411.215 556.153 410.748 555.874 410.358C555.594 409.969 555.2 409.676 554.746 409.522L385.754 311.965C384.588 311.374 383.299 311.066 381.991 311.066C380.684 311.066 379.395 311.374 378.228 311.965L209.254 409.453C208.773 409.589 208.351 409.878 208.049 410.276C207.748 410.675 207.585 411.161 207.585 411.66C207.585 412.16 207.748 412.645 208.049 413.044C208.351 413.442 208.773 413.731 209.254 413.867Z" fill="#BA68C8"/>
<path d="M410.244 476.907L530.257 407.61V118.206L410.244 187.502V476.907Z" fill="#37474F"/>
<path d="M382 497.294V203.805L233.743 118.206V411.695L382 497.294Z" fill="#455A64"/>
<path d="M382 375.004L233.743 289.405V281.253L219.613 289.405L382 383.156V375.004Z" fill="#BA68C8"/>
<path opacity="0.5" d="M382 375.004L233.743 289.405V281.253L219.613 289.405L382 383.156V375.004Z" fill="white"/>
<path d="M219.613 289.405L382 383.156V391.307L219.613 297.556V289.405Z" fill="#BA68C8"/>
<path d="M382 375.004L410.244 358.701L417.3 362.786L382 383.156V375.004Z" fill="#BA68C8"/>
<path opacity="0.5" d="M382 375.004L410.244 358.701L417.3 362.786L382 383.156V375.004Z" fill="white"/>
<path d="M382 391.307L417.3 370.937V362.786L382 383.156V391.307Z" fill="#BA68C8"/>
<path opacity="0.2" d="M382 391.307L417.3 370.937V362.786L382 383.156V391.307Z" fill="black"/>
<path d="M382 203.805L410.244 187.502V358.701L382 375.004V203.805Z" fill="#263238"/>
<path d="M382 391.307L410.244 375.004V480.991L382 497.294V391.307Z" fill="#263238"/>
<path d="M367.887 350.55V309.792L339.644 293.489V334.247L367.887 350.55Z" fill="#BA68C8"/>
<path opacity="0.5" d="M367.887 350.55V309.792L339.644 293.489V334.247L367.887 350.55Z" fill="white"/>
<path d="M339.644 334.247L346.7 330.18V297.556L339.644 293.489V334.247Z" fill="#263238"/>
<path d="M367.887 342.398L346.7 330.18L339.644 334.247L367.887 350.55V342.398Z" fill="#263238"/>
<path d="M325.513 326.095V285.338L290.213 264.95V305.708L325.513 326.095Z" fill="#BA68C8"/>
<path opacity="0.5" d="M325.513 326.095V285.338L290.213 264.95V305.708L325.513 326.095Z" fill="white"/>
<path d="M297.27 301.641L297.287 269.035L290.213 264.95V305.708L297.27 301.641Z" fill="#263238"/>
<path d="M325.513 317.944V326.095L290.213 305.708L297.27 301.641L325.513 317.944Z" fill="#263238"/>
<path d="M427.885 438.183V397.425L463.185 377.055V417.813L427.885 438.183Z" fill="#BA68C8"/>
<path d="M456.128 413.728V381.122L463.185 377.055V417.813L456.128 413.728Z" fill="#263238"/>
<path d="M427.885 430.032V438.183L463.185 417.813L456.128 413.729L427.885 430.032Z" fill="#263238"/>
<path d="M427.885 370.259V329.502L463.185 309.114V349.872L427.885 370.259Z" fill="#BA68C8"/>
<path d="M456.128 345.805V313.181L463.185 309.114V349.872L456.128 345.805Z" fill="#263238"/>
<path d="M427.885 362.108V370.259L463.185 349.872L456.128 345.805L427.885 362.108Z" fill="#263238"/>
<path d="M427.885 302.319V261.561L463.185 241.174V281.931L427.885 302.319Z" fill="#BA68C8"/>
<path d="M456.128 277.864V245.258L463.185 241.174V281.931L456.128 277.864Z" fill="#263238"/>
<path d="M427.885 294.167V302.319L463.185 281.931L456.128 277.864L427.885 294.167Z" fill="#263238"/>
<path d="M427.885 234.377V193.62L463.185 173.232V214.007L427.885 234.377Z" fill="#BA68C8"/>
<path d="M456.128 209.923V177.317L463.185 173.232V214.007L456.128 209.923Z" fill="#263238"/>
<path d="M427.885 226.226V234.377L463.185 214.007L456.128 209.923L427.885 226.226Z" fill="#263238"/>
<path d="M478.08 409.209V368.452L513.398 348.082L513.38 388.839L478.08 409.209Z" fill="#BA68C8"/>
<path d="M506.324 384.755V352.149L513.398 348.082L513.38 388.839L506.324 384.755Z" fill="#263238"/>
<path d="M478.08 401.075V409.209L513.38 388.839L506.324 384.755L478.08 401.075Z" fill="#263238"/>
<path d="M478.08 341.286V300.511L513.398 280.141L513.38 320.899L478.08 341.286Z" fill="#BA68C8"/>
<path d="M506.324 316.832V284.208L513.398 280.141L513.38 320.899L506.324 316.832Z" fill="#263238"/>
<path d="M478.08 333.135V341.286L513.38 320.899L506.324 316.832L478.08 333.135Z" fill="#263238"/>
<path d="M478.08 273.345V232.587L513.398 212.2L513.38 252.975L478.08 273.345Z" fill="#BA68C8"/>
<path d="M506.324 248.89V216.284L513.398 212.2L513.38 252.975L506.324 248.89Z" fill="#263238"/>
<path d="M478.08 265.194V273.345L513.38 252.975L506.324 248.891L478.08 265.194Z" fill="#263238"/>
<path d="M478.08 205.404V164.646L513.398 144.276L513.38 185.034L478.08 205.404Z" fill="#BA68C8"/>
<path d="M506.324 180.949V148.343L513.398 144.276L513.38 185.034L506.324 180.949Z" fill="#263238"/>
<path d="M478.08 197.253V205.404L513.38 185.034L506.324 180.95L478.08 197.253Z" fill="#263238"/>
<path d="M276.1 297.556V256.799L247.856 240.496V281.253L276.1 297.556Z" fill="#BA68C8"/>
<path opacity="0.5" d="M276.1 297.556V256.799L247.856 240.496V281.253L276.1 297.556Z" fill="white"/>
<path d="M254.913 277.186L247.856 281.253V240.496L254.913 244.58V277.186Z" fill="#263238"/>
<path d="M276.1 289.405L254.913 277.186L247.856 281.253L276.1 297.556V289.405Z" fill="#263238"/>
<path d="M290.213 375.404C290.213 363.898 298.121 359.119 307.872 364.75C317.622 370.381 325.513 384.268 325.513 395.792V464.688L290.213 444.301V375.404Z" fill="#263238"/>
<path d="M325.513 395.792C325.513 384.268 317.622 370.364 307.872 364.75C305.389 363.177 302.502 362.362 299.564 362.403C297.951 365.096 297.159 368.201 297.287 371.337V440.234L325.513 456.537V395.792Z" fill="#455A64"/>
<path d="M325.513 395.792C325.513 384.268 317.622 370.364 307.872 364.75C305.389 363.177 302.502 362.362 299.564 362.403C297.951 365.096 297.159 368.201 297.287 371.337V440.234L325.513 456.537V395.792Z" fill="#BA68C8"/>
<path opacity="0.5" d="M325.513 395.792C325.513 384.268 317.622 370.364 307.872 364.75C305.389 363.177 302.502 362.362 299.564 362.403C297.951 365.096 297.159 368.201 297.287 371.337V440.234L325.513 456.537V395.792Z" fill="white"/>
<path d="M312.964 368.591C311.88 367.569 310.718 366.633 309.488 365.792V384.112L297.322 377.055V381.279L309.488 388.352V441.172L312.964 443.171V390.334L325.513 397.582V395.844C325.513 395.009 325.513 394.106 325.391 393.323L312.964 386.163V368.591Z" fill="#455A64"/>
<path d="M382 203.805V179.351L226.669 89.6841V114.139L382 203.805Z" fill="#BA68C8"/>
<path opacity="0.5" d="M382 203.805V179.351L226.669 89.6841V114.139L382 203.805Z" fill="white"/>
<path d="M382 203.805V179.351L537.331 89.6841V114.139L382 203.805Z" fill="#BA68C8"/>
<path opacity="0.2" d="M382 203.805V179.351L537.331 89.6841V114.139L382 203.805Z" fill="black"/>
<path d="M247.856 160.041C247.856 150.447 254.183 146.31 261.97 150.812C269.756 155.313 276.1 166.75 276.1 176.344V240.496L247.856 224.193V160.041Z" fill="#263238"/>
<path d="M261.969 150.794C260.29 149.787 258.396 149.192 256.442 149.056C255.367 151.212 254.842 153.6 254.913 156.008V220.16L276.1 232.327V176.326C276.1 166.732 269.773 155.296 261.969 150.794Z" fill="#BA68C8"/>
<path opacity="0.5" d="M261.969 150.794C260.29 149.787 258.396 149.192 256.442 149.056C255.367 151.212 254.842 153.6 254.913 156.008V220.16L276.1 232.327V176.326C276.1 166.732 269.773 155.296 261.969 150.794Z" fill="white"/>
<path d="M247.856 224.193L254.913 220.108L276.1 232.327V240.496L247.856 224.193Z" fill="#263238"/>
<path d="M290.213 187.971C290.213 176.448 298.121 171.686 307.872 177.317C317.622 182.948 325.513 196.835 325.513 208.359V269.034L290.213 248.647V187.971Z" fill="#263238"/>
<path d="M325.513 208.359C325.513 196.836 317.622 182.931 307.872 177.317C305.389 175.744 302.502 174.929 299.564 174.971C297.951 177.663 297.159 180.768 297.287 183.904V244.563L325.513 260.883V208.359Z" fill="#BA68C8"/>
<path opacity="0.5" d="M325.513 208.359C325.513 196.836 317.622 182.931 307.872 177.317C305.389 175.744 302.502 174.929 299.564 174.971C297.951 177.663 297.159 180.768 297.287 183.904V244.563L325.513 260.883V208.359Z" fill="white"/>
<path d="M297.287 244.563L290.213 248.647L325.513 269.035V260.883L297.287 244.563Z" fill="#263238"/>
<path d="M339.644 213.052C339.644 203.458 345.953 199.321 353.757 203.823C361.561 208.324 367.887 219.761 367.887 229.355V293.507L339.644 277.204V213.052Z" fill="#263238"/>
<path d="M353.757 203.805C352.076 202.801 350.183 202.205 348.23 202.067C347.152 204.222 346.626 206.611 346.7 209.019V273.171L367.887 285.337V229.337C367.887 219.743 361.56 208.307 353.757 203.805Z" fill="#BA68C8"/>
<path opacity="0.5" d="M353.757 203.805C352.076 202.801 350.183 202.205 348.23 202.067C347.152 204.222 346.626 206.611 346.7 209.019V273.171L367.887 285.337V229.337C367.887 219.743 361.56 208.307 353.757 203.805Z" fill="white"/>
<path d="M346.7 273.102L339.644 277.186L367.887 293.489V285.338L346.7 273.102Z" fill="#263238"/>
<path d="M339.644 400.467C339.644 390.873 345.953 386.736 353.757 391.238C361.561 395.739 367.887 407.176 367.887 416.77V489.143L339.644 472.84V400.467Z" fill="#263238"/>
<path d="M353.756 391.238C352.076 390.234 350.182 389.638 348.229 389.5C347.154 391.656 346.629 394.044 346.7 396.452V468.808L367.887 480.974V416.666C367.887 407.176 361.56 395.74 353.756 391.238Z" fill="#BA68C8"/>
<path opacity="0.5" d="M353.756 391.238C352.076 390.234 350.182 389.638 348.229 389.5C347.154 391.656 346.629 394.044 346.7 396.452V468.808L367.887 480.974V416.666C367.887 407.176 361.56 395.74 353.756 391.238Z" fill="white"/>
<path d="M339.644 472.84V448.385L367.887 464.688V489.143L339.644 472.84Z" fill="#37474F"/>
<path d="M339.644 448.385L346.7 444.301L367.87 456.537L367.887 464.688L339.644 448.385Z" fill="#263238"/>
<path d="M247.856 347.474C247.856 337.879 254.183 333.743 261.97 338.244C269.756 342.746 276.1 354.183 276.1 363.777V436.15L247.856 419.881V347.474Z" fill="#263238"/>
<path d="M261.969 338.192C260.286 337.193 258.394 336.598 256.442 336.454C255.367 338.61 254.842 340.998 254.913 343.406V415.779L276.1 427.946V363.637C276.1 354.165 269.773 342.729 261.969 338.192Z" fill="#BA68C8"/>
<path opacity="0.5" d="M261.969 338.192C260.286 337.193 258.394 336.598 256.442 336.454C255.367 338.61 254.842 340.998 254.913 343.406V415.779L276.1 427.946V363.637C276.1 354.165 269.773 342.729 261.969 338.192Z" fill="white"/>
<path d="M276.1 436.15V411.695L247.856 395.392V419.847L276.1 436.15Z" fill="#37474F"/>
<path d="M247.856 395.392L254.913 391.308L276.1 403.544V411.695L247.856 395.392Z" fill="#263238"/>
<path d="M290.213 444.301V436.149L325.513 456.537V464.688L290.213 444.301Z" fill="#37474F"/>
<path d="M290.213 436.15L297.287 432.083L325.513 448.386V456.537L290.213 436.15Z" fill="#263238"/>
<path d="M382 179.351L537.331 89.684L382 0L226.669 89.684L382 179.351Z" fill="#BA68C8"/>
<path opacity="0.7" d="M382 179.351L537.331 89.684L382 0L226.669 89.684L382 179.351Z" fill="white"/>
<path d="M382 163.048L509.087 89.6842L382 16.3032L254.913 89.6842L382 163.048Z" fill="#BA68C8"/>
<path d="M382 16.3032V40.7751L276.1 101.903L254.913 89.6842L382 16.3032Z" fill="#BA68C8"/>
<path opacity="0.2" d="M382 16.3032V40.7751L276.1 101.903L254.913 89.6842L382 16.3032Z" fill="black"/>
<path d="M382 16.3032L509.087 89.6842L487.9 101.903L382 40.7751V16.3032Z" fill="#BA68C8"/>
<path opacity="0.5" d="M382 16.3032L509.087 89.6842L487.9 101.903L382 40.7751V16.3032Z" fill="white"/>
<path d="M360.813 36.6904L325.513 57.0779L374.943 85.5995L410.243 65.2294L360.813 36.6904Z" fill="#455A64"/>
<path d="M325.513 57.0781V81.5327L374.943 110.054V85.5997L325.513 57.0781Z" fill="#37474F"/>
<path d="M410.244 65.2295V89.684L374.943 110.054V85.5996L410.244 65.2295Z" fill="#263238"/>
<path d="M349.22 50.3692C342.807 54.0713 342.807 60.0676 349.22 63.7697C352.815 65.5955 356.79 66.5471 360.822 66.5471C364.854 66.5471 368.829 65.5955 372.423 63.7697C378.819 60.0676 378.819 54.0713 372.423 50.3692C368.829 48.5434 364.854 47.5918 360.822 47.5918C356.79 47.5918 352.815 48.5434 349.22 50.3692Z" fill="#37474F"/>
<path d="M355.39 54.1927C352.383 55.7743 352.383 58.3641 355.39 59.9457C357.092 60.7359 358.946 61.1452 360.822 61.1452C362.698 61.1452 364.551 60.7359 366.253 59.9457C369.243 58.3641 369.243 55.7743 366.253 54.1927C364.551 53.4025 362.698 52.9932 360.822 52.9932C358.946 52.9932 357.092 53.4025 355.39 54.1927V54.1927Z" fill="#263238"/>
<path d="M385.859 87.4419L392.915 91.509V107.829" stroke="#455A64" stroke-width="2" stroke-linecap="round" stroke-linejoin="round"/>
<path d="M396.113 81.5327L403.17 85.5998V101.903" stroke="#455A64" stroke-width="2" stroke-linecap="round" stroke-linejoin="round"/>
<path d="M177.812 327.208V383.382C177.846 383.782 177.986 384.165 178.219 384.492C178.451 384.819 178.767 385.078 179.133 385.241C180.136 385.747 181.243 386.011 182.366 386.011C183.489 386.011 184.596 385.747 185.599 385.241C185.965 385.078 186.281 384.819 186.514 384.492C186.746 384.165 186.886 383.782 186.92 383.382V327.242L177.812 327.208Z" fill="#37474F"/>
<path d="M204.301 343.545C204.301 349.362 201.99 354.941 197.876 359.055C193.763 363.168 188.184 365.479 182.366 365.479C176.549 365.479 170.97 363.168 166.856 359.055C162.743 354.941 160.432 349.362 160.432 343.545C160.432 321.124 170.252 296.617 182.366 296.617C194.481 296.617 204.301 320.811 204.301 343.545Z" fill="#BA68C8"/>
<path d="M204.3 343.545C204.3 342.972 204.3 342.398 204.3 341.807V341.234C204.131 343.624 203.199 345.896 201.641 347.717C197.487 352.931 188.328 358.597 178.873 354.669C162.987 348.012 162.552 329.224 166.08 313.668C162.376 323.2 160.472 333.336 160.467 343.563C160.467 349.38 162.777 354.959 166.891 359.073C171.004 363.186 176.584 365.497 182.401 365.497C188.218 365.497 193.797 363.186 197.911 359.073C202.024 354.959 204.335 349.38 204.335 343.563L204.3 343.545Z" fill="#BA68C8"/>
<path opacity="0.1" d="M204.3 343.545C204.3 342.972 204.3 342.398 204.3 341.807V341.234C204.131 343.624 203.199 345.896 201.641 347.717C197.487 352.931 188.328 358.597 178.873 354.669C162.987 348.012 162.552 329.224 166.08 313.668C162.376 323.2 160.472 333.336 160.467 343.563C160.467 349.38 162.777 354.959 166.891 359.073C171.004 363.186 176.584 365.497 182.401 365.497C188.218 365.497 193.797 363.186 197.911 359.073C202.024 354.959 204.335 349.38 204.335 343.563L204.3 343.545Z" fill="black"/>
<path d="M17.3719 228.694V284.851C17.408 285.261 17.5547 285.654 17.7965 285.988C18.0383 286.321 18.3661 286.583 18.745 286.745C19.7446 287.251 20.849 287.514 21.9691 287.514C23.0893 287.514 24.1937 287.251 25.1932 286.745C25.5608 286.581 25.8783 286.323 26.1134 285.996C26.3485 285.669 26.4927 285.286 26.5315 284.885V228.694H17.3719Z" fill="#37474F"/>
<path d="M43.86 245.084C43.9425 248.015 43.4365 250.933 42.3717 253.666C41.307 256.398 39.7052 258.889 37.661 260.991C35.6169 263.094 33.1719 264.765 30.4707 265.906C27.7694 267.048 24.8668 267.636 21.9343 267.636C19.0019 267.636 16.0993 267.048 13.398 265.906C10.6968 264.765 8.25181 263.094 6.20766 260.991C4.16352 258.889 2.56171 256.398 1.49696 253.666C0.43222 250.933 -0.0738471 248.015 0.00869085 245.084C0.00869085 222.663 9.82875 198.156 21.9257 198.156C34.0226 198.156 43.86 222.298 43.86 245.084Z" fill="#BA68C8"/>
<path d="M746.628 228.694V284.851C746.589 285.251 746.445 285.634 746.21 285.961C745.975 286.288 745.657 286.546 745.29 286.71C744.29 287.216 743.186 287.479 742.066 287.479C740.946 287.479 739.841 287.216 738.842 286.71C738.474 286.546 738.157 286.288 737.922 285.961C737.687 285.634 737.542 285.251 737.503 284.851V228.694H746.628Z" fill="#37474F"/>
<path d="M720.14 245.084C720.058 248.015 720.564 250.933 721.628 253.666C722.693 256.398 724.295 258.889 726.339 260.991C728.383 263.094 730.828 264.765 733.529 265.906C736.231 267.048 739.133 267.636 742.066 267.636C744.998 267.636 747.901 267.048 750.602 265.906C753.303 264.765 755.748 263.094 757.792 260.991C759.837 258.889 761.438 256.398 762.503 253.666C763.568 250.933 764.074 248.015 763.991 245.084C763.991 222.663 754.171 198.156 742.074 198.156C729.978 198.156 720.14 222.298 720.14 245.084Z" fill="#BA68C8"/>
<path d="M625.329 387.726H640.572V370.919C640.572 369.918 640.374 368.927 639.99 368.002C639.607 367.077 639.044 366.237 638.336 365.53C637.627 364.823 636.786 364.263 635.86 363.881C634.934 363.5 633.943 363.304 632.941 363.307V363.307C630.922 363.307 628.986 364.109 627.558 365.536C626.131 366.964 625.329 368.9 625.329 370.919V387.726Z" fill="#BA68C8"/>
<g opacity="0.5">
<path opacity="0.5" d="M625.329 387.726H640.572V370.919C640.572 369.918 640.374 368.927 639.99 368.002C639.607 367.077 639.044 366.237 638.336 365.53C637.627 364.823 636.786 364.263 635.86 363.881C634.934 363.5 633.943 363.304 632.941 363.307V363.307C630.922 363.307 628.986 364.109 627.558 365.536C626.131 366.964 625.329 368.9 625.329 370.919V387.726Z" fill="black"/>
</g>
<path d="M627.362 393.323C628.388 388.213 630.317 382.582 630.213 380.044L628.718 380.131C627.831 380.191 626.99 380.55 626.333 381.15C625.676 381.75 625.242 382.555 625.103 383.434C624.564 386.753 623.747 391.829 623.365 393.862C623.023 396.459 622.441 399.02 621.627 401.51C621.486 401.869 621.221 402.165 620.879 402.344C620.138 402.782 619.47 403.333 618.898 403.978C618.342 404.464 617.907 404.569 617.959 404.742C618.044 404.936 618.198 405.089 618.392 405.173C618.585 405.257 618.803 405.265 619.002 405.194C619.447 405.057 619.874 404.864 620.271 404.621C619.916 405.386 619.434 406.085 618.846 406.689C617.525 408.079 617.403 408.983 619.854 409.192C621.383 409.313 622.67 408.462 624.077 405.194C624.615 403.993 625.068 402.756 625.433 401.492C626.372 398.242 626.963 395.339 627.362 393.323Z" fill="#FFA8A7"/>
<path d="M649.922 437.261C650.496 436.948 650.878 437.696 651.4 438.287C651.851 438.724 652.207 439.251 652.442 439.834C652.424 440.302 652.306 440.762 652.096 441.181C651.887 441.601 651.59 441.971 651.226 442.267C650.355 442.801 649.731 443.656 649.488 444.648C649.422 445.26 649.185 445.84 648.803 446.323C648.422 446.806 647.912 447.171 647.333 447.377C646.658 447.658 645.934 447.803 645.203 447.803C644.473 447.803 643.749 447.658 643.074 447.377C642.257 446.855 643.074 446.264 644.152 444.631C645.647 442.493 646.811 440.963 646.811 438.965L649.922 437.261Z" fill="#263238"/>
<path d="M648.723 435.419L649.94 437.157C650.2 437.53 650.304 437.989 650.229 438.438C650.154 438.886 649.907 439.287 649.54 439.556C649.169 439.781 648.729 439.868 648.3 439.801C647.871 439.735 647.479 439.518 647.194 439.191L645.282 437.087L648.723 435.419Z" fill="#FFA8A7"/>
<path d="M625.329 402.778C625.506 407.383 626.373 411.935 627.901 416.283C628.82 418.779 629.984 421.178 631.377 423.444C631.881 424.313 646.255 438.304 646.255 438.304C646.942 438.248 647.591 437.967 648.103 437.505C648.615 437.044 648.961 436.427 649.088 435.749C649.088 435.749 643.196 425.738 641.91 423.687C640.229 421.692 638.282 419.937 636.122 418.473L636.539 400.501L625.329 402.778Z" fill="#37474F"/>
<path d="M630.346 444.735L627.312 444.045L626.306 448.469L629.34 449.159L630.346 444.735Z" fill="#FFA8A7"/>
<path d="M627.901 400.275L640.832 400.779C641.713 402.692 642.089 404.798 641.927 406.897C641.493 413.207 635.514 424.487 635.514 424.487C635.793 427.04 635.664 429.621 635.132 432.134C633.772 436.734 632.171 441.26 630.334 445.691C629.748 445.78 629.148 445.741 628.578 445.576C628.008 445.411 627.481 445.124 627.032 444.735C627.032 444.735 628.979 427.441 629.5 423.009C630.074 418.212 631.534 409.452 631.534 409.452C630.566 408.496 629.692 407.449 628.927 406.324C627.571 404.607 626.874 402.461 626.963 400.275" fill="#37474F"/>
<path d="M645.768 396.869C645.33 392.413 644.61 387.99 643.613 383.625C643.495 382.906 643.143 382.245 642.612 381.746C642.081 381.247 641.401 380.936 640.676 380.861V380.861C636.452 383.138 636.487 386.162 640.085 389.812C640.085 389.812 641.58 395.687 642.049 398.503C642.54 401.074 642.773 403.689 642.744 406.307C642.723 406.69 642.555 407.051 642.275 407.315C641.698 407.954 641.218 408.674 640.85 409.452C640.467 410.078 640.068 410.304 640.172 410.461C640.308 410.622 640.5 410.727 640.709 410.753C640.919 410.778 641.131 410.724 641.302 410.6C641.687 410.338 642.038 410.029 642.344 409.678C642.225 410.507 641.973 411.311 641.597 412.06C640.728 413.798 640.867 414.684 643.335 414.18C644.83 413.867 645.821 412.668 646.22 409.122C646.397 407.815 646.478 406.496 646.464 405.177C646.186 401.857 645.977 398.92 645.768 396.869Z" fill="#FFA8A7"/>
<path d="M626.632 446.977L626.719 446.542C626.406 446.542 624.981 448.871 623.678 449.862C622.374 450.853 620.914 451.6 620.201 452.052C619.489 452.504 620.601 454.034 622.774 454.155C624.053 454.229 625.326 453.934 626.441 453.304C627.049 452.73 627.484 451.774 627.971 451.357C628.457 450.94 629.431 450.592 629.709 450.053C629.889 449.529 629.948 448.97 629.882 448.42C629.882 447.846 629.882 447.22 629.657 447.238V447.568C629.08 447.855 628.44 447.992 627.797 447.968C627.328 447.95 626.372 447.829 626.632 446.977Z" fill="#263238"/>
<path d="M629.883 420.072C629.883 420.072 631.186 410.877 631.534 409.452C630.495 408.883 629.527 408.195 628.649 407.401C629.251 408.259 629.907 409.077 630.613 409.852L629.883 420.072Z" fill="#263238"/>
<path d="M637.686 419.759C637.062 421.379 636.336 422.958 635.514 424.487C635.514 424.487 635.67 427.442 635.653 427.963L636.47 428.676C636.49 427.34 636.367 426.005 636.105 424.695C636.811 423.113 637.341 421.458 637.686 419.759V419.759Z" fill="#263238"/>
<path d="M636.122 380.114C637.652 380.287 639.171 380.536 640.676 380.861C636.47 383.816 640.085 389.812 640.085 389.812L637.843 396.017C639.349 397.993 640.572 400.169 641.475 402.483C640.294 403.838 633.272 407.94 625.259 402.778C625.259 402.778 625.729 398.259 626.389 394.853C625.242 389.326 624.912 387.379 625.259 386.075C626.198 382.426 628.353 380.097 630.821 379.958L636.122 380.114Z" fill="#F5F5F5"/>
<path d="M627.901 366.383C627.102 366.853 626.163 368.886 626.163 373.127C626.25 376.725 627.414 377.611 628.005 377.872C628.932 378.065 629.891 378.036 630.804 377.785V379.905C630.804 379.905 629.292 381.643 629.396 382.669C629.5 383.694 631.586 383.886 632.994 382.93C634.025 382.129 634.912 381.16 635.618 380.062V375.108C635.618 375.108 636.279 375.734 637.356 374.778C637.796 374.463 638.096 373.989 638.19 373.456C638.284 372.923 638.166 372.374 637.86 371.928C637.677 371.756 637.455 371.631 637.213 371.562C636.972 371.494 636.717 371.484 636.471 371.533C636.224 371.582 635.993 371.689 635.797 371.846C635.6 372.002 635.444 372.203 635.34 372.432C633.904 372.375 632.505 371.956 631.273 371.215C630.371 370.731 629.596 370.041 629.01 369.202C628.424 368.363 628.044 367.397 627.901 366.383Z" fill="#FFA8A7"/>
<path d="M630.213 372.223C630.213 372.343 630.26 372.458 630.345 372.543C630.43 372.628 630.545 372.675 630.665 372.675C630.784 372.675 630.899 372.628 630.984 372.543C631.069 372.458 631.116 372.343 631.116 372.223C631.121 372.162 631.114 372.1 631.094 372.041C631.075 371.982 631.044 371.928 631.004 371.881C630.964 371.834 630.914 371.796 630.859 371.768C630.804 371.74 630.744 371.724 630.682 371.719C630.617 371.719 630.553 371.732 630.494 371.758C630.435 371.784 630.381 371.821 630.337 371.869C630.293 371.916 630.259 371.972 630.238 372.033C630.217 372.094 630.208 372.159 630.213 372.223V372.223Z" fill="#263238"/>
<path d="M630.091 375.282L629.048 375.612C629.066 375.682 629.098 375.748 629.142 375.806C629.187 375.864 629.242 375.912 629.305 375.948C629.369 375.984 629.439 376.006 629.511 376.014C629.583 376.022 629.656 376.015 629.726 375.994C629.868 375.947 629.985 375.845 630.053 375.712C630.122 375.579 630.135 375.425 630.091 375.282V375.282Z" fill="#F28F8F"/>
<path d="M626.511 370.833L627.414 370.207C627.377 370.146 627.328 370.093 627.27 370.051C627.211 370.01 627.145 369.981 627.075 369.966C627.005 369.951 626.932 369.951 626.862 369.966C626.792 369.98 626.726 370.009 626.667 370.051C626.605 370.091 626.551 370.143 626.509 370.205C626.467 370.266 626.438 370.336 626.424 370.409C626.409 370.482 626.409 370.557 626.424 370.63C626.439 370.702 626.469 370.772 626.511 370.833V370.833Z" fill="#263238"/>
<path d="M626.719 371.893C626.715 371.955 626.722 372.017 626.741 372.075C626.761 372.134 626.791 372.188 626.832 372.235C626.872 372.282 626.921 372.32 626.977 372.348C627.032 372.376 627.092 372.393 627.154 372.397C627.275 372.397 627.392 372.35 627.48 372.266C627.567 372.181 627.619 372.067 627.623 371.945C627.623 371.886 627.611 371.827 627.589 371.772C627.566 371.717 627.533 371.667 627.491 371.626C627.449 371.584 627.399 371.55 627.344 371.528C627.289 371.505 627.231 371.493 627.171 371.493C627.112 371.493 627.053 371.505 626.998 371.528C626.943 371.55 626.894 371.584 626.852 371.626C626.81 371.667 626.776 371.717 626.754 371.772C626.731 371.827 626.719 371.886 626.719 371.945V371.893Z" fill="#263238"/>
<path d="M628.857 371.632L628.788 374.361L627.345 373.926L628.857 371.632Z" fill="#F28F8F"/>
<path d="M630.839 377.785C632.003 377.646 634.315 376.951 634.749 376.047C634.601 376.523 634.31 376.942 633.915 377.246C632.951 377.814 631.917 378.252 630.839 378.55V377.785Z" fill="#F28F8F"/>
<path d="M639.042 392.715L635.879 397.008L637.826 396.017L639.042 392.715Z" fill="#E0E0E0"/>
<path d="M487.274 467.243C488.054 462.921 488.276 458.517 487.935 454.138C487.927 454.035 487.886 453.938 487.818 453.859C487.751 453.781 487.66 453.727 487.559 453.703C487.459 453.68 487.353 453.69 487.258 453.73C487.163 453.771 487.084 453.841 487.031 453.93L483.677 460.152C483.677 460.152 483.277 464.706 482.86 467.817C482.554 470.653 481.972 473.453 481.122 476.177C480.972 476.564 480.688 476.884 480.322 477.081C479.516 477.549 478.784 478.135 478.15 478.819C477.559 479.357 477.072 479.462 477.142 479.653C477.23 479.865 477.397 480.035 477.607 480.129C477.817 480.222 478.054 480.232 478.271 480.157C478.754 480.009 479.216 479.799 479.644 479.531C479.263 480.358 478.746 481.116 478.115 481.773C476.672 483.285 476.551 484.259 479.192 484.485C480.844 484.624 482.251 483.703 483.781 480.14C484.368 478.838 484.861 477.496 485.258 476.125C486.284 472.579 486.84 469.416 487.274 467.243Z" fill="#B16668"/>
<path d="M502.969 516.604C502.969 516.604 503.178 516.604 503.821 517.004C504.551 517.459 505.188 518.049 505.698 518.742C505.767 519.246 505.729 519.76 505.585 520.248C505.441 520.736 505.195 521.189 504.864 521.575C504.21 522.558 503.865 523.714 503.873 524.895C503.817 525.656 503.603 526.397 503.243 527.07C502.884 527.744 502.388 528.335 501.787 528.805C500.71 529.553 499.389 530.317 498.78 530.126C498.172 529.935 498.137 529.188 498.902 525.885C499.54 523.708 499.994 521.482 500.258 519.228L502.969 516.604Z" fill="#263238"/>
<path d="M502.5 515.979L503.212 516.934C503.325 517.081 503.403 517.25 503.442 517.431C503.481 517.611 503.48 517.798 503.438 517.977C503.332 518.622 502.999 519.207 502.5 519.628C502.215 519.842 501.864 519.946 501.509 519.924C501.265 519.906 501.027 519.836 500.811 519.719C500.595 519.602 500.407 519.441 500.258 519.246L499.702 518.499L502.5 515.979Z" fill="#B16668"/>
<path d="M485.206 474.769L493.236 482.798H493.01L491.168 497.329C492.624 498.315 493.866 499.586 494.818 501.065C496.347 503.429 502.43 515.978 502.43 515.978C502.43 515.978 501.718 518.776 499.632 518.498C499.632 518.498 496.399 514.466 492.923 510.051C489.117 505.202 484.911 499.953 484.685 498.997C483.52 493.783 485.206 474.769 485.206 474.769Z" fill="#455A64"/>
<path d="M494.974 501.066C496.504 503.43 502.587 515.979 502.587 515.979C502.587 515.979 501.874 518.777 499.788 518.499C499.788 518.499 496.556 514.466 493.08 510.052L494.974 501.066Z" fill="#37474F"/>
<path d="M494.331 524.93C493.432 524.048 492.421 523.289 491.324 522.67C490.792 522.635 490.257 522.635 489.725 522.67C489.246 522.671 488.768 522.618 488.3 522.514C487.341 522.166 486.411 521.741 485.519 521.245C485.14 521.014 484.731 520.839 484.302 520.723C483.555 520.584 482.964 520.567 482.703 521.401C482.622 521.654 482.593 521.92 482.616 522.183C482.607 522.957 482.781 523.721 483.126 524.413C483.471 525.105 483.975 525.705 484.598 526.164C485.171 526.546 485.936 526.841 486.544 527.189C487.47 527.572 488.36 528.038 489.204 528.58C490.455 529.657 491.62 530.717 493.375 530.022C493.724 529.923 494.043 529.737 494.301 529.482C494.559 529.227 494.749 528.91 494.852 528.562C495.096 527.641 494.227 525.903 494.331 524.93Z" fill="#263238"/>
<path d="M485.293 473.518L502.5 475.256C502.968 480.222 502.539 485.232 501.231 490.047C499.841 496.286 498.294 502.839 498.294 502.839C499.036 505.25 499.09 507.82 498.45 510.26C497.112 514.623 494.626 526.216 494.626 526.216C493.835 524.548 492.445 523.239 490.733 522.548C490.733 522.548 491.359 516.448 491.741 512.033C492.124 507.618 492.35 503.934 492.489 501.205C492.715 496.86 493.34 482.729 493.34 482.729H493.114C493.114 482.729 486.353 479.531 485.241 474.7L485.293 473.518Z" fill="#455A64"/>
<path d="M493.236 482.799C491.292 481.897 489.484 480.727 487.865 479.323L492.054 483.233L491.289 496.321L493.236 482.799Z" fill="#37474F"/>
<path d="M491.602 452.226C489.047 452.226 485.988 453.043 484.772 455.389C483.686 458.369 482.957 461.467 482.599 464.618C482.599 464.618 483.555 466.687 487.135 466.443L491.602 452.226Z" fill="#263238"/>
<path d="M508.201 471.084C507.488 463.732 504.829 458.361 504.516 456.519L502.361 465.609C503.075 468.008 503.655 470.445 504.099 472.909C504.627 475.711 504.884 478.557 504.864 481.408C504.832 481.822 504.653 482.21 504.36 482.503C503.722 483.188 503.194 483.968 502.795 484.815C502.378 485.51 501.944 485.736 502.065 485.91C502.211 486.084 502.418 486.197 502.643 486.226C502.869 486.255 503.097 486.198 503.282 486.066C503.703 485.783 504.088 485.451 504.429 485.075C504.311 485.973 504.053 486.847 503.664 487.665C502.726 489.525 502.882 490.516 505.402 489.959C507.036 489.612 508.114 488.326 508.548 484.467C508.731 483.049 508.819 481.621 508.809 480.191C508.705 476.489 508.409 473.291 508.201 471.084Z" fill="#B16668"/>
<path d="M496.834 452.383C499.858 453.113 503.995 454.121 505.194 457.353C506.189 460.482 507.019 463.662 507.679 466.878C507.019 467.517 506.215 467.987 505.335 468.25C504.454 468.514 503.524 468.562 502.621 468.39L501.926 465.939L502.5 475.308C500.136 477.897 490.333 478.558 485.206 474.769C485.206 474.769 486.092 460.864 486.092 458.275C486.043 457.512 486.148 456.748 486.4 456.028C486.653 455.307 487.048 454.644 487.562 454.08C488.077 453.515 488.699 453.06 489.394 452.742C490.088 452.423 490.839 452.248 491.602 452.226L496.834 452.383Z" fill="#37474F"/>
<path d="M501.926 465.94L500.397 461.143L502.065 468.321L501.926 465.94Z" fill="#263238"/>
<path d="M497.963 438.895C498.236 438.865 498.511 438.897 498.77 438.987C499.028 439.077 499.263 439.224 499.458 439.416C500.101 440.077 499.962 441.294 499.458 444.075L497.477 444.3L497.963 438.895Z" fill="#263238"/>
<path d="M486.423 438.096C485.992 438.097 485.566 438.008 485.171 437.835C484.563 437.487 484.406 438.182 484.737 438.773C484.957 439.206 485.286 439.574 485.691 439.842C486.096 440.11 486.564 440.269 487.048 440.303C487.048 440.303 487.605 438.756 487.605 438.756L486.423 438.096Z" fill="#263238"/>
<path d="M497.042 444.3C497.338 444.474 497.755 443.918 498.12 443.536C498.261 443.371 498.443 443.245 498.647 443.17C498.852 443.096 499.072 443.075 499.286 443.11C499.501 443.145 499.703 443.234 499.873 443.37C500.043 443.505 500.176 443.682 500.258 443.883C500.849 445.152 499.476 446.838 498.676 447.359C498.454 447.553 498.175 447.67 497.882 447.695C497.588 447.72 497.294 447.652 497.042 447.499L496.834 452.348C496.474 453.123 495.929 453.798 495.247 454.313C494.565 454.828 493.767 455.168 492.923 455.302C490.073 455.702 490.664 453.356 491.602 452.191V450.453C490.894 450.607 490.166 450.642 489.447 450.557C488.622 449.96 487.983 449.14 487.605 448.194C486.388 445.79 486.122 443.016 486.857 440.425C487.865 436.079 492.541 435.94 495.322 437.696C498.103 439.451 497.042 444.3 497.042 444.3Z" fill="#B16668"/>
<path d="M497.042 444.805C497.181 444.805 497.737 443.866 498.12 443.536C498.502 443.206 497.963 438.895 497.963 438.895C498.106 438.449 498.136 437.974 498.051 437.513C497.966 437.053 497.769 436.62 497.477 436.254C496.469 435.211 494.539 435.384 493.114 435.332C491.372 435.345 489.645 435.002 488.039 434.324C486.023 433.438 485.866 433.334 485.623 434.22C485.426 434.95 485.4 435.716 485.547 436.458C485.695 437.199 486.013 437.897 486.475 438.496L487.135 439.573C487.889 440.022 488.744 440.273 489.621 440.303C491.482 440.29 493.332 440.009 495.113 439.469C495.652 439.469 495.773 439.921 496.069 441.381C496.364 442.841 496.538 444.787 497.042 444.805Z" fill="#263238"/>
<path d="M497.964 439.226L499.702 438.27C499.646 438.15 499.567 438.042 499.468 437.954C499.37 437.866 499.255 437.799 499.13 437.756C499.004 437.714 498.872 437.698 498.74 437.708C498.608 437.719 498.48 437.756 498.363 437.818C498.128 437.956 497.956 438.18 497.882 438.442C497.807 438.704 497.836 438.985 497.964 439.226V439.226Z" fill="#263238"/>
<path d="M491.602 450.471C492.818 450.236 494.011 449.893 495.165 449.445C495.705 449.166 496.147 448.73 496.434 448.194C496.296 448.728 496.054 449.231 495.721 449.671C495.044 450.54 491.602 451.166 491.602 451.166V450.471Z" fill="#9A4A4D"/>
<path d="M491.498 444.214C491.498 444.357 491.555 444.494 491.656 444.595C491.757 444.696 491.894 444.753 492.037 444.753C492.165 444.73 492.281 444.662 492.365 444.562C492.449 444.462 492.495 444.336 492.495 444.205C492.495 444.075 492.449 443.948 492.365 443.848C492.281 443.748 492.165 443.681 492.037 443.658C491.964 443.658 491.893 443.672 491.826 443.7C491.76 443.729 491.7 443.77 491.649 443.822C491.599 443.874 491.56 443.935 491.534 444.002C491.508 444.07 491.496 444.142 491.498 444.214V444.214Z" fill="#263238"/>
<path d="M492.089 442.215L493.219 442.841C493.295 442.683 493.308 442.502 493.257 442.334C493.205 442.167 493.092 442.025 492.941 441.937C492.867 441.896 492.786 441.87 492.702 441.862C492.618 441.854 492.534 441.863 492.454 441.889C492.374 441.915 492.3 441.958 492.237 442.014C492.174 442.07 492.124 442.138 492.089 442.215V442.215Z" fill="#263238"/>
<path d="M491.845 447.69L490.629 448.142C490.688 448.304 490.808 448.437 490.964 448.512C491.12 448.587 491.299 448.597 491.463 448.542C491.624 448.476 491.753 448.351 491.824 448.192C491.895 448.034 491.903 447.854 491.845 447.69V447.69Z" fill="#9A4A4D"/>
<path d="M486.805 442.649L487.848 441.867C487.8 441.796 487.737 441.736 487.665 441.691C487.592 441.645 487.511 441.615 487.426 441.602C487.342 441.588 487.255 441.593 487.172 441.615C487.089 441.637 487.012 441.675 486.944 441.728C486.808 441.835 486.717 441.99 486.691 442.161C486.665 442.332 486.706 442.507 486.805 442.649V442.649Z" fill="#263238"/>
<path d="M487.135 444.057C487.135 444.195 487.19 444.328 487.288 444.426C487.386 444.524 487.518 444.579 487.657 444.579C487.795 444.579 487.928 444.524 488.025 444.426C488.123 444.328 488.178 444.195 488.178 444.057C488.18 443.986 488.169 443.916 488.144 443.85C488.119 443.783 488.081 443.723 488.033 443.671C487.984 443.619 487.926 443.578 487.862 443.549C487.797 443.519 487.728 443.503 487.657 443.501C487.586 443.503 487.516 443.519 487.452 443.549C487.387 443.578 487.329 443.619 487.281 443.671C487.232 443.723 487.195 443.783 487.17 443.85C487.145 443.916 487.133 443.986 487.135 444.057V444.057Z" fill="#263238"/>
<path d="M489.621 443.988L490.107 447.134L488.369 446.925L489.621 443.988Z" fill="#9A4A4D"/>
<path d="M240.852 438.287C238.658 438.287 236.553 437.415 235.002 435.864C233.45 434.312 232.579 432.208 232.579 430.014V429.666C232.579 427.822 233.311 426.054 234.615 424.75C235.919 423.446 237.687 422.714 239.531 422.714H242.051C243.895 422.714 245.663 423.446 246.967 424.75C248.271 426.054 249.003 427.822 249.003 429.666V430.014C249.004 432.187 248.149 434.273 246.623 435.821C245.098 437.369 243.025 438.255 240.852 438.287V438.287Z" fill="#263238"/>
<path d="M246.987 455.25C245.892 449.706 243.789 443.588 243.894 440.824L245.51 440.928C246.476 440.991 247.392 441.379 248.108 442.029C248.825 442.679 249.3 443.554 249.455 444.509C250.029 448.124 250.915 453.634 251.193 455.893C251.556 458.714 252.178 461.495 253.053 464.201C253.202 464.59 253.495 464.907 253.87 465.088C254.663 465.567 255.388 466.152 256.025 466.826C256.616 467.364 257.103 467.469 257.033 467.66C256.944 467.872 256.778 468.042 256.568 468.136C256.358 468.229 256.121 468.239 255.904 468.164C255.424 468.008 254.963 467.798 254.53 467.538C254.912 468.365 255.429 469.123 256.06 469.78C257.503 471.292 257.624 472.266 254.982 472.492C253.244 472.631 251.923 471.71 250.394 468.147C249.807 466.845 249.314 465.503 248.917 464.132C248.065 460.586 247.422 457.44 246.987 455.25Z" fill="#B16668"/>
<path d="M243.216 440.738C244.747 440.591 246.29 440.836 247.7 441.45C248.271 441.781 248.749 442.251 249.089 442.816C249.429 443.382 249.621 444.024 249.647 444.683C249.977 446.317 250.516 450.61 250.516 450.61C250.516 450.61 249.612 452.591 245.597 451.775L243.216 440.738Z" fill="#263238"/>
<path d="M231.762 504.629C231.762 504.629 231.553 504.629 230.91 505.029C230.18 505.484 229.543 506.074 229.033 506.767C228.965 507.271 229.004 507.784 229.148 508.272C229.291 508.761 229.537 509.213 229.867 509.6C230.521 510.583 230.866 511.739 230.858 512.919C230.914 513.681 231.128 514.422 231.487 515.095C231.847 515.769 232.343 516.36 232.944 516.83C234.021 517.577 235.36 518.342 235.951 518.151C236.542 517.96 236.594 517.212 235.829 513.91C235.191 511.733 234.737 509.506 234.473 507.253L231.762 504.629Z" fill="#263238"/>
<path d="M232.231 504.003L231.518 504.959C231.406 505.105 231.328 505.275 231.289 505.455C231.25 505.635 231.251 505.822 231.292 506.002C231.399 506.646 231.732 507.232 232.231 507.653C232.516 507.866 232.867 507.971 233.222 507.948C233.466 507.93 233.704 507.86 233.92 507.743C234.136 507.627 234.324 507.465 234.473 507.27L235.029 506.523L232.231 504.003Z" fill="#B16668"/>
<path d="M249.125 463.072L244.971 464.636L241.495 470.824H241.721L243.563 485.354C242.107 486.34 240.865 487.611 239.913 489.091C238.384 491.454 232.301 504.003 232.301 504.003C232.301 504.003 233.013 506.801 235.099 506.523C235.099 506.523 238.332 502.491 241.808 498.076C244.772 494.56 247.524 490.868 250.046 487.022C251.645 481.391 249.125 463.072 249.125 463.072Z" fill="#BA68C8"/>
<path d="M239.844 489.09C238.314 491.454 232.231 504.003 232.231 504.003C232.231 504.003 232.944 506.801 235.029 506.523C235.029 506.523 238.262 502.491 241.738 498.076L239.844 489.09Z" fill="#BA68C8"/>
<path opacity="0.2" d="M239.844 489.09C238.314 491.454 232.231 504.003 232.231 504.003C232.231 504.003 232.944 506.801 235.029 506.523C235.029 506.523 238.262 502.491 241.738 498.076L239.844 489.09Z" fill="black"/>
<path d="M240.348 513.006C241.348 512.251 242.447 511.637 243.615 511.181C244.151 511.194 244.685 511.24 245.214 511.32C245.688 511.373 246.166 511.373 246.64 511.32C247.641 511.104 248.623 510.808 249.577 510.434C249.984 510.25 250.418 510.132 250.863 510.086C251.61 510.086 252.201 510.086 252.358 510.955C252.402 511.22 252.402 511.49 252.358 511.755C252.275 512.525 252.009 513.265 251.583 513.912C251.157 514.558 250.582 515.094 249.907 515.474C249.299 515.77 248.499 515.978 247.856 516.222C246.884 516.48 245.936 516.823 245.023 517.247C243.65 518.134 242.347 518.985 240.713 518.116C240.378 517.976 240.086 517.752 239.864 517.466C239.641 517.18 239.497 516.841 239.444 516.482C239.218 515.474 240.33 513.928 240.348 513.006Z" fill="#263238"/>
<path d="M248.621 462.307L232.527 463.333C231.379 467 231.397 470.285 232.666 477.411C233.581 481.999 234.836 486.513 236.42 490.916C235.687 493.336 235.65 495.914 236.316 498.355C237.636 502.717 240.157 513.754 240.157 513.754C241.327 512.663 242.688 511.797 244.172 511.199C244.172 511.199 243.389 504.542 243.007 500.127C242.625 495.713 242.399 492.028 242.26 489.299C242.034 484.954 241.408 470.824 241.408 470.824H241.634C241.634 470.824 247.526 468.668 248.586 463.871L248.621 462.307Z" fill="#BA68C8"/>
<path opacity="0.2" d="M241.425 470.823C243.367 469.918 245.175 468.748 246.796 467.347L242.625 471.258L243.372 484.345L241.425 470.823Z" fill="black"/>
<path d="M227 459.091C227.598 454.193 228.492 449.334 229.676 444.544C229.804 443.835 230.148 443.184 230.662 442.679C231.176 442.175 231.833 441.843 232.544 441.728V441.728C237.115 444.196 237.08 447.481 233.187 451.426C233.187 451.426 231.553 457.822 231.049 460.934C230.519 463.735 230.263 466.582 230.284 469.433C230.316 469.846 230.495 470.235 230.789 470.528C231.426 471.213 231.954 471.992 232.353 472.839C232.77 473.535 233.204 473.761 233.083 473.934C232.937 474.109 232.731 474.222 232.505 474.251C232.28 474.28 232.051 474.222 231.866 474.091C231.445 473.808 231.06 473.475 230.719 473.1C230.856 473.995 231.131 474.863 231.536 475.672C232.474 477.532 232.318 478.505 229.798 477.967C228.164 477.619 227.086 476.333 226.652 472.474C226.469 471.057 226.382 469.628 226.391 468.199C226.495 464.514 226.791 461.316 227 459.091Z" fill="#B16668"/>
<path d="M237.48 440.911L232.544 441.728C237.115 444.944 233.187 451.427 233.187 451.427L235.62 458.188C234.413 459.812 233.382 461.56 232.544 463.402C234.039 464.705 242.972 467.782 249.125 463.141C249.125 463.141 248.777 460.691 248.047 456.988C249.299 450.975 249.646 448.854 249.281 447.446C248.256 443.484 245.91 440.964 243.233 440.807L237.48 440.911Z" fill="#455A64"/>
<path d="M246.431 425.999C247.3 426.52 248.378 428.71 248.273 433.316C248.186 437.227 246.918 438.2 246.275 438.53C245.267 438.733 244.227 438.703 243.233 438.444V440.738C243.233 440.738 244.867 442.65 244.763 443.727C244.658 444.805 242.399 445.066 240.852 444.005C239.732 443.145 238.768 442.098 238.001 440.912V435.524C238.001 435.524 237.306 436.201 236.107 435.176C235.63 434.834 235.306 434.318 235.205 433.739C235.105 433.161 235.235 432.566 235.568 432.082C235.769 431.905 236.007 431.777 236.266 431.707C236.524 431.637 236.795 431.628 237.057 431.68C237.32 431.733 237.566 431.845 237.778 432.008C237.99 432.171 238.162 432.381 238.28 432.621C239.844 432.557 241.368 432.103 242.712 431.3C243.706 430.773 244.562 430.018 245.208 429.096C245.855 428.175 246.274 427.114 246.431 425.999V425.999Z" fill="#B16668"/>
<path d="M243.893 432.343C243.893 432.438 243.865 432.53 243.813 432.609C243.761 432.688 243.687 432.751 243.6 432.788C243.513 432.826 243.417 432.837 243.324 432.821C243.231 432.805 243.144 432.762 243.075 432.697C243.006 432.633 242.957 432.549 242.934 432.457C242.912 432.365 242.916 432.269 242.948 432.18C242.98 432.09 243.036 432.012 243.112 431.955C243.187 431.897 243.278 431.863 243.372 431.856C243.438 431.854 243.504 431.865 243.566 431.888C243.628 431.911 243.685 431.946 243.734 431.991C243.782 432.037 243.821 432.091 243.849 432.151C243.876 432.212 243.891 432.277 243.893 432.343Z" fill="#263238"/>
<path d="M244.032 435.663L245.162 436.01C245.142 436.088 245.107 436.16 245.058 436.224C245.009 436.287 244.948 436.34 244.878 436.379C244.808 436.418 244.731 436.442 244.651 436.451C244.572 436.459 244.491 436.451 244.415 436.427C244.263 436.376 244.138 436.267 244.067 436.124C243.995 435.98 243.983 435.815 244.032 435.663V435.663Z" fill="#9A4A4D"/>
<path d="M247.926 430.831L246.935 430.153C246.974 430.084 247.027 430.024 247.09 429.977C247.154 429.93 247.227 429.898 247.304 429.881C247.382 429.865 247.461 429.865 247.539 429.882C247.616 429.899 247.689 429.932 247.752 429.979C247.886 430.071 247.978 430.211 248.011 430.37C248.043 430.529 248.013 430.694 247.926 430.831Z" fill="#263238"/>
<path d="M247.7 432.047C247.714 432.12 247.711 432.195 247.692 432.267C247.674 432.338 247.64 432.405 247.592 432.462C247.545 432.519 247.486 432.565 247.419 432.597C247.352 432.628 247.279 432.644 247.204 432.644C247.13 432.644 247.057 432.628 246.99 432.597C246.923 432.565 246.864 432.519 246.817 432.462C246.769 432.405 246.735 432.338 246.717 432.267C246.698 432.195 246.695 432.12 246.709 432.047C246.704 431.982 246.713 431.916 246.734 431.854C246.755 431.792 246.789 431.735 246.833 431.687C246.877 431.638 246.93 431.598 246.989 431.571C247.049 431.543 247.113 431.528 247.178 431.526C247.248 431.523 247.316 431.535 247.381 431.56C247.445 431.586 247.504 431.624 247.552 431.673C247.601 431.722 247.64 431.78 247.665 431.845C247.69 431.909 247.702 431.978 247.7 432.047V432.047Z" fill="#263238"/>
<path d="M245.371 431.7L245.458 434.654L247.005 434.185L245.371 431.7Z" fill="#9A4A4D"/>
<path d="M243.216 438.391C241.947 438.217 239.375 437.47 238.975 436.462C239.129 436.982 239.446 437.439 239.879 437.765C240.923 438.382 242.045 438.855 243.216 439.173V438.391Z" fill="#9A4A4D"/>
<path d="M234.317 454.59L237.758 459.248L235.62 458.188L234.317 454.59Z" fill="#263238"/>
<path d="M235.429 421.862C236.082 422.232 236.605 422.793 236.929 423.47C237.253 424.146 237.361 424.905 237.24 425.646C237.119 426.386 236.773 427.071 236.251 427.609C235.728 428.146 235.053 428.511 234.317 428.653C233.581 428.796 232.818 428.709 232.133 428.405C231.447 428.1 230.872 427.593 230.483 426.952C230.095 426.31 229.913 425.565 229.961 424.816C230.009 424.068 230.286 423.352 230.754 422.766C231.272 422.049 232.044 421.556 232.912 421.388C233.781 421.22 234.681 421.39 235.429 421.862V421.862Z" fill="#263238"/>
<path d="M232.527 441.728C231.814 441.902 229.989 441.728 229.05 445.343C228.112 448.958 227.521 452.434 227.521 452.434C228.154 453.159 228.983 453.684 229.909 453.946C230.834 454.208 231.816 454.196 232.735 453.912C232.735 453.912 233.917 450.297 234.682 447.916C235.446 445.534 235.029 442.597 232.527 441.728Z" fill="#263238"/>
<path d="M112.427 382.548C111.699 378.5 111.489 374.377 111.801 370.277C111.805 370.177 111.842 370.082 111.905 370.006C111.969 369.93 112.056 369.876 112.153 369.855C112.25 369.833 112.352 369.844 112.442 369.886C112.532 369.927 112.606 369.998 112.652 370.086L115.798 375.908C115.798 375.908 116.163 380.184 116.563 383.104C116.838 385.758 117.38 388.379 118.18 390.925C118.319 391.289 118.584 391.591 118.927 391.777C119.684 392.221 120.37 392.778 120.96 393.428C121.517 393.932 121.968 394.036 121.916 394.21C121.828 394.405 121.672 394.561 121.476 394.647C121.28 394.734 121.06 394.745 120.856 394.679C120.401 394.539 119.964 394.346 119.553 394.106C119.92 394.873 120.407 395.577 120.995 396.191C122.351 397.617 122.473 398.538 119.987 398.746C118.423 398.885 117.119 398.016 115.677 394.679C115.132 393.453 114.668 392.194 114.286 390.908C113.435 387.553 112.844 384.598 112.427 382.548Z" fill="#FFA8A7"/>
<path d="M108.377 368.486C110.758 368.486 113.591 369.251 114.773 371.441C115.789 374.248 116.471 377.165 116.807 380.131C116.807 380.131 115.903 382.078 112.566 381.869L108.377 368.486Z" fill="#BA68C8"/>
<path opacity="0.2" d="M108.377 368.486C110.758 368.486 113.591 369.251 114.773 371.441C115.789 374.248 116.471 377.165 116.807 380.131C116.807 380.131 115.903 382.078 112.566 381.869L108.377 368.486Z" fill="black"/>
<path d="M89.3451 427.164C88.7542 426.868 88.3718 427.616 87.833 428.224C87.3652 428.661 87.0078 429.203 86.7902 429.806C86.8024 430.281 86.9176 430.747 87.1276 431.173C87.3377 431.599 87.6376 431.975 88.0068 432.274C88.4414 432.542 88.8187 432.894 89.117 433.308C89.4152 433.723 89.6286 434.192 89.7449 434.69C89.8077 435.316 90.0491 435.911 90.4405 436.404C90.8318 436.897 91.3565 437.267 91.9522 437.47C92.6348 437.756 93.3674 437.904 94.1074 437.904C94.8474 437.904 95.58 437.756 96.2626 437.47C97.0969 436.932 96.2626 436.341 95.1676 434.672C93.6555 432.5 92.4736 430.935 92.4736 428.902L89.3451 427.164Z" fill="#263238"/>
<path d="M90.5617 425.391L89.3103 427.216C89.177 427.402 89.0819 427.614 89.0307 427.837C88.9794 428.061 88.973 428.293 89.0118 428.519C89.0506 428.745 89.1338 428.962 89.2566 429.156C89.3795 429.349 89.5395 429.517 89.7275 429.649V429.649C90.106 429.875 90.5522 429.961 90.9876 429.891C91.423 429.821 91.8198 429.6 92.1086 429.266L94.0726 427.146L90.5617 425.391Z" fill="#FFA8A7"/>
<path d="M113.539 389.604C113.539 391.95 112.948 401.388 111.332 405.559C109.715 409.731 108.794 412.338 108.29 413.207C107.786 414.076 93.1514 428.328 93.1514 428.328C92.4542 428.269 91.7953 427.984 91.2746 427.517C90.7539 427.05 90.3999 426.425 90.2662 425.738C90.2662 425.738 96.2625 415.536 97.5661 413.45C99.278 411.422 101.261 409.638 103.458 408.149L103.041 389.882L113.539 389.604Z" fill="#37474F"/>
<path d="M110.324 439.372L113.409 438.673L112.387 434.164L109.302 434.863L110.324 439.372Z" fill="#FFA8A7"/>
<path d="M113.539 389.604H98.6958C98.3772 391.775 98.1915 393.963 98.1396 396.157C98.018 402.587 104.014 414.267 104.014 414.267C103.717 416.866 103.846 419.496 104.397 422.054C105.779 426.737 107.409 431.344 109.281 435.854C109.877 435.943 110.485 435.901 111.064 435.734C111.643 435.566 112.179 435.275 112.635 434.881C112.635 434.881 110.654 417.274 110.115 412.755C109.541 407.871 108.064 398.955 108.064 398.955C109.043 397.976 109.933 396.911 110.723 395.774C112.096 393.945 113.057 391.84 113.539 389.604" fill="#37474F"/>
<path d="M92.8039 386.145C93.4817 379.28 95.9672 374.24 96.28 372.501L98.3135 381.018C97.605 383.272 97.0248 385.564 96.5755 387.883C96.0739 390.507 95.8294 393.173 95.8455 395.844C95.8794 396.228 96.0525 396.586 96.3321 396.852C96.9411 397.493 97.4455 398.226 97.8269 399.024C98.2266 399.667 98.6264 399.893 98.5221 400.032C98.3858 400.198 98.1919 400.306 97.9792 400.335C97.7665 400.365 97.5507 400.312 97.375 400.189C96.9816 399.918 96.6201 399.603 96.2974 399.25C96.4205 400.092 96.6787 400.907 97.0621 401.666C97.9485 403.404 97.8095 404.343 95.3241 403.821C93.7946 403.491 92.7865 402.292 92.3868 398.607C92.21 397.276 92.1287 395.935 92.1434 394.592C92.3346 391.238 92.6127 388.231 92.8039 386.145Z" fill="#FFA8A7"/>
<path d="M103.476 368.625C100.625 369.321 96.7493 370.207 95.6195 373.283C94.6941 376.22 93.9167 379.202 93.2905 382.217C93.9129 382.812 94.6673 383.251 95.4919 383.499C96.3166 383.747 97.1882 383.796 98.0354 383.642L98.6959 381.331V389.604C100.921 392.037 108.672 393.167 113.539 389.604V374.152C113.586 373.434 113.487 372.713 113.247 372.035C113.008 371.356 112.633 370.732 112.145 370.203C111.658 369.673 111.068 369.248 110.411 368.953C109.754 368.658 109.045 368.499 108.325 368.486L103.476 368.625Z" fill="#BA68C8"/>
<path opacity="0.2" d="M98.6959 381.331L100.121 376.847L98.6959 383.347V381.331Z" fill="black"/>
<path d="M114.06 358.232C114.071 359.114 113.819 359.98 113.336 360.718C112.853 361.457 112.162 362.035 111.35 362.38C110.538 362.725 109.642 362.82 108.775 362.655C107.909 362.489 107.111 362.069 106.484 361.449C105.856 360.829 105.427 360.036 105.251 359.172C105.075 358.307 105.16 357.41 105.495 356.594C105.831 355.778 106.401 355.08 107.134 354.589C107.866 354.097 108.729 353.835 109.611 353.835C110.782 353.835 111.906 354.296 112.739 355.12C113.572 355.943 114.047 357.061 114.06 358.232V358.232Z" fill="#263238"/>
<path d="M102.398 355.99C102.145 355.964 101.889 355.994 101.649 356.079C101.408 356.163 101.19 356.298 101.008 356.476C100.399 357.102 100.538 358.215 101.008 360.839L102.867 361.065L102.398 355.99Z" fill="#263238"/>
<path d="M103.267 361.065C103.006 361.221 102.607 360.7 102.259 360.335C102.124 360.184 101.954 360.07 101.763 360.003C101.573 359.935 101.368 359.917 101.169 359.95C100.969 359.983 100.781 360.066 100.623 360.191C100.464 360.316 100.339 360.479 100.26 360.665C99.704 361.847 100.973 363.429 101.738 363.95C101.944 364.135 102.204 364.248 102.479 364.273C102.755 364.298 103.031 364.234 103.267 364.089L103.476 368.626C103.808 369.353 104.316 369.988 104.952 370.473C105.589 370.958 106.335 371.279 107.126 371.406C109.802 371.771 109.246 369.564 108.377 368.486V366.835C109.045 366.979 109.731 367.014 110.41 366.94C111.183 366.372 111.785 365.602 112.149 364.715C113.285 362.461 113.539 359.864 112.861 357.432C111.905 353.365 107.525 353.244 104.918 354.877C102.311 356.511 103.267 361.065 103.267 361.065Z" fill="#FFA8A7"/>
<path d="M103.267 361.517C103.145 361.517 102.607 360.648 102.259 360.335C101.911 360.022 102.398 355.99 102.398 355.99C102.27 355.571 102.246 355.128 102.327 354.698C102.409 354.268 102.594 353.864 102.867 353.522C103.806 352.531 105.631 352.705 106.952 352.653C108.945 352.551 110.944 352.598 112.931 352.792C113.266 352.784 113.591 352.909 113.834 353.139C113.916 353.274 113.967 353.424 113.985 353.58C114.003 353.736 113.987 353.894 113.939 354.043C113.754 354.916 113.292 355.706 112.622 356.295C111.952 356.884 111.109 357.24 110.219 357.311C108.452 357.305 106.696 357.041 105.005 356.529C104.501 356.529 104.397 356.946 104.119 358.267C103.841 359.588 103.736 361.517 103.267 361.517Z" fill="#263238"/>
<path d="M102.415 356.285L100.677 355.399C100.731 355.288 100.806 355.19 100.898 355.108C100.991 355.027 101.098 354.966 101.215 354.927C101.332 354.888 101.455 354.873 101.577 354.882C101.7 354.892 101.819 354.926 101.929 354.982C102.165 355.092 102.348 355.29 102.439 355.534C102.53 355.778 102.522 356.048 102.415 356.285Z" fill="#263238"/>
<path d="M108.36 366.835C107.227 366.617 106.116 366.297 105.04 365.879C104.528 365.619 104.109 365.206 103.841 364.697C103.969 365.202 104.199 365.676 104.518 366.088C105.144 366.905 108.36 367.496 108.36 367.496V366.835Z" fill="#F28F8F"/>
<path d="M108.446 360.961C108.46 361.033 108.458 361.108 108.439 361.18C108.42 361.252 108.386 361.318 108.339 361.375C108.292 361.432 108.232 361.478 108.165 361.51C108.098 361.541 108.025 361.558 107.951 361.558C107.877 361.558 107.804 361.541 107.737 361.51C107.67 361.478 107.61 361.432 107.563 361.375C107.516 361.318 107.482 361.252 107.463 361.18C107.445 361.108 107.442 361.033 107.456 360.961C107.442 360.888 107.445 360.813 107.463 360.741C107.482 360.669 107.516 360.603 107.563 360.546C107.61 360.489 107.67 360.443 107.737 360.411C107.804 360.38 107.877 360.363 107.951 360.363C108.025 360.363 108.098 360.38 108.165 360.411C108.232 360.443 108.292 360.489 108.339 360.546C108.386 360.603 108.42 360.669 108.439 360.741C108.458 360.813 108.46 360.888 108.446 360.961Z" fill="#263238"/>
<path d="M107.925 359.049L106.865 359.64C106.789 359.494 106.771 359.324 106.816 359.165C106.862 359.007 106.966 358.872 107.108 358.788C107.178 358.749 107.256 358.725 107.336 358.718C107.416 358.71 107.496 358.718 107.573 358.743C107.649 358.767 107.72 358.807 107.78 358.86C107.841 358.912 107.89 358.976 107.925 359.049Z" fill="#263238"/>
<path d="M108.151 364.263L109.281 364.68C109.255 364.757 109.215 364.828 109.161 364.889C109.108 364.95 109.043 365 108.97 365.036C108.897 365.071 108.818 365.092 108.737 365.097C108.656 365.101 108.575 365.089 108.499 365.062C108.423 365.033 108.353 364.99 108.294 364.934C108.235 364.878 108.188 364.81 108.156 364.736C108.124 364.661 108.106 364.581 108.106 364.5C108.105 364.419 108.12 364.338 108.151 364.263V364.263Z" fill="#F28F8F"/>
<path d="M112.861 359.518L111.888 358.771C111.933 358.704 111.991 358.646 112.059 358.603C112.127 358.559 112.204 358.53 112.283 358.517C112.363 358.503 112.445 358.507 112.523 358.527C112.602 358.547 112.675 358.582 112.739 358.632C112.864 358.739 112.945 358.889 112.967 359.052C112.99 359.215 112.952 359.381 112.861 359.518V359.518Z" fill="#263238"/>
<path d="M112.6 360.787C112.614 360.86 112.612 360.934 112.593 361.006C112.574 361.078 112.54 361.145 112.493 361.202C112.446 361.259 112.386 361.305 112.319 361.336C112.252 361.368 112.179 361.384 112.105 361.384C112.031 361.384 111.958 361.368 111.891 361.336C111.824 361.305 111.764 361.259 111.717 361.202C111.67 361.145 111.636 361.078 111.617 361.006C111.598 360.934 111.596 360.86 111.61 360.787C111.596 360.714 111.598 360.639 111.617 360.567C111.636 360.495 111.67 360.429 111.717 360.372C111.764 360.315 111.824 360.269 111.891 360.237C111.958 360.206 112.031 360.189 112.105 360.189C112.179 360.189 112.252 360.206 112.319 360.237C112.386 360.269 112.446 360.315 112.493 360.372C112.54 360.429 112.574 360.495 112.593 360.567C112.612 360.639 112.614 360.714 112.6 360.787Z" fill="#263238"/>
<path d="M110.237 360.77L109.767 363.707L111.401 363.516L110.237 360.77Z" fill="#F28F8F"/>
<path d="M113.052 437.157L112.948 436.706C113.278 436.706 114.686 439.069 116.042 440.077C117.397 441.085 118.857 441.815 119.518 442.32C120.178 442.824 119.118 444.336 116.893 444.457C115.596 444.534 114.303 444.232 113.174 443.588C112.548 443.015 112.096 442.041 111.61 441.607C111.123 441.172 110.132 440.825 109.872 440.286C109.661 439.732 109.595 439.134 109.68 438.548C109.68 437.974 109.68 437.331 109.906 437.349V437.679C110.487 437.973 111.133 438.116 111.784 438.096C112.34 438.148 113.313 438.027 113.052 437.157Z" fill="#263238"/>
<path d="M109.733 409.766C109.733 409.766 108.412 400.415 107.995 398.955C109.052 398.386 110.033 397.685 110.914 396.869C110.303 397.746 109.635 398.582 108.916 399.372L109.733 409.766Z" fill="#263238"/>
<path d="M101.79 409.453C102.429 411.103 103.172 412.711 104.014 414.267C104.014 414.267 103.841 417.274 103.875 417.882L103.041 418.595C103.021 417.236 103.143 415.879 103.406 414.545C102.685 412.911 102.143 411.203 101.79 409.453V409.453Z" fill="#263238"/>
</svg>
