<svg width="429" height="412" viewBox="0 0 429 412" fill="none" xmlns="http://www.w3.org/2000/svg">
<path d="M242.132 409.407C225.382 401.479 218.707 382.63 216.346 365.073C215.948 362.158 215.112 359.127 216.064 356.328C217.017 353.53 219.951 351.247 222.768 352.034C225.11 352.685 226.48 355.036 228.044 356.892C230.125 359.396 232.875 361.256 235.973 362.255C237.993 362.906 240.393 363.11 242.055 361.789C244.328 359.972 243.998 356.455 243.532 353.559C242.579 348.19 241.647 342.82 240.733 337.45C240.075 334.585 239.881 331.633 240.16 328.706C240.588 325.791 242.152 322.876 244.775 321.671C247.399 320.467 251.081 321.448 252.14 324.188C252.452 325.366 252.686 326.564 252.839 327.773C253.121 328.968 253.908 330.202 255.103 330.348C256.298 330.494 257.338 329.473 258.067 328.473C260.554 325.043 261.953 320.933 263.216 316.862C264.479 312.791 265.665 308.642 267.841 304.989C270.017 301.336 273.34 298.188 277.45 297.216C281.56 296.245 286.418 298.091 288.138 301.987C289.857 305.883 288.196 310.44 286.194 314.19C283.155 319.743 279.329 324.829 274.836 329.289C273.94 330.003 273.294 330.982 272.99 332.087C272.689 334.127 274.846 335.74 276.877 336.051C279.15 336.401 281.463 335.779 283.765 335.662C286.068 335.546 288.682 336.129 289.906 338.121C291.587 340.88 289.634 344.407 287.545 346.865C283.349 351.762 278.344 355.903 272.748 359.107C270.746 360.244 268.618 361.313 267.151 363.1C265.684 364.888 265.091 367.667 266.471 369.532C267.851 371.398 270.639 371.602 272.796 370.805C274.953 370.009 276.751 368.464 278.742 367.307C282.473 365.131 287.662 364.529 290.8 367.541C291.779 368.594 292.5 369.86 292.906 371.239C293.312 372.618 293.393 374.073 293.141 375.488C292.625 378.308 291.544 380.995 289.964 383.387C284.932 392.037 277.698 399.198 268.997 404.141C260.301 408.902 251.887 411.224 242.142 409.417" fill="#F5F5F5"/>
<path d="M244.785 397.689C246.073 387.69 247.935 377.773 250.362 367.987L252.227 360.283C252.839 357.747 253.452 355.24 254.171 352.831C255.623 348.206 257.329 343.665 259.281 339.228C261.117 334.973 263.012 330.989 264.81 327.287C266.607 323.585 268.366 320.165 270.095 317.124C272.795 312.301 275.875 307.7 279.306 303.366C280.52 301.831 281.502 300.675 282.172 299.898C282.493 299.529 282.755 299.237 282.94 299.014C283.124 298.79 283.212 298.722 283.221 298.732C283.151 298.844 283.073 298.951 282.988 299.052L282.25 299.966C281.609 300.763 280.656 301.909 279.471 303.493C276.115 307.869 273.091 312.491 270.425 317.319C268.725 320.369 266.996 323.789 265.208 327.491C263.42 331.193 261.555 335.177 259.738 339.432C257.803 343.869 256.116 348.41 254.685 353.035C253.937 355.434 253.335 357.893 252.742 360.458L250.877 368.172C248.456 377.937 246.584 387.831 245.271 397.806" fill="#E0E0E0"/>
<path d="M254.336 352.792C254.125 352.414 253.959 352.013 253.84 351.597C253.549 350.829 253.17 349.654 252.723 348.284C251.829 345.466 250.721 341.531 249.516 337.198C248.312 332.864 247.155 328.949 246.213 326.16C245.747 324.761 245.358 323.625 245.086 322.857C244.923 322.458 244.796 322.045 244.707 321.623C244.941 321.985 245.134 322.373 245.28 322.779C245.62 323.527 246.058 324.645 246.573 326.024C247.612 328.803 248.827 332.699 250.041 337.052C251.256 341.405 252.276 345.213 253.092 348.167C253.471 349.508 253.782 350.635 254.064 351.539C254.191 351.948 254.282 352.367 254.336 352.792V352.792Z" fill="#E0E0E0"/>
<path d="M290.431 339.52C289.961 339.716 289.473 339.862 288.973 339.957C288.002 340.2 286.671 340.55 284.999 341.036C281.647 342.007 277.071 343.445 272.087 345.291C267.103 347.137 262.662 349.013 259.456 350.451C257.863 351.16 256.59 351.772 255.706 352.19C255.261 352.432 254.796 352.633 254.316 352.792C254.718 352.482 255.151 352.215 255.608 351.995C256.464 351.519 257.717 350.859 259.291 350.052C262.429 348.517 266.86 346.584 271.854 344.728C276.116 343.133 280.458 341.761 284.863 340.618C286.554 340.171 287.934 339.88 288.896 339.695C289.401 339.589 289.915 339.53 290.431 339.52V339.52Z" fill="#E0E0E0"/>
<path d="M245.125 396.941C245 396.814 244.89 396.674 244.795 396.523L243.93 395.289C243.182 394.201 242.142 392.617 240.889 390.635C238.363 386.671 235.059 381.085 231.493 374.866C227.928 368.648 224.692 363.042 222.234 359.039L219.319 354.288L218.542 352.996C218.439 352.853 218.357 352.695 218.299 352.529C218.299 352.529 218.425 352.656 218.629 352.937C218.833 353.219 219.154 353.676 219.494 354.181C220.242 355.26 221.282 356.843 222.545 358.835C225.061 362.799 228.375 368.376 231.94 374.594C235.506 380.813 238.742 386.419 241.19 390.431L244.105 395.173C244.416 395.688 244.678 396.144 244.882 396.465C244.986 396.611 245.068 396.771 245.125 396.941V396.941Z" fill="#E0E0E0"/>
<path d="M291.937 372.603C291.8 372.722 291.646 372.82 291.48 372.894L290.129 373.613L285.116 376.227C280.88 378.442 275.07 381.561 268.657 384.971C262.244 388.381 256.405 391.5 252.14 393.618C250.002 394.677 248.253 395.561 247.049 396.076L245.591 396.718C245.431 396.802 245.262 396.868 245.086 396.912C245.225 396.795 245.378 396.697 245.543 396.62L246.903 395.902L251.916 393.278C256.143 391.073 261.953 387.954 268.366 384.534C274.778 381.114 280.627 378.014 284.883 375.896C287.02 374.837 288.769 373.953 289.974 373.438L291.373 372.797C291.55 372.704 291.74 372.638 291.937 372.603V372.603Z" fill="#E0E0E0"/>
<path d="M120.644 200.853C120.644 200.853 109.101 202.456 115.582 227.737C122.062 253.018 127.561 266.057 127.561 266.057C127.561 266.057 128.426 271.78 123.811 271.605C119.196 271.43 109.781 267.719 106.585 272.664C103.281 277.833 106.176 284.051 113.386 290.571C120.595 297.09 135.966 311.946 137.345 313.296C138.725 314.647 139.736 317.426 136.568 317.805C133.401 318.184 110.937 315.551 110.335 326.287C109.733 337.023 132.886 351.869 135.383 353.54C137.88 355.211 138.298 356.513 137.715 357.971C137.132 359.428 129.689 357.825 123.267 357.329C116.845 356.834 109.305 357.407 109.47 363.625C109.635 369.843 121.8 385.583 157.263 397.281L174.062 401.625L186.469 389.402C211.44 361.624 214.17 341.929 211.226 336.45C208.282 330.97 201.51 334.225 196.127 337.839C190.745 341.453 185.109 346.583 183.904 345.612C182.7 344.64 182.389 343.299 183.73 340.608C185.07 337.917 197.789 313.53 191.92 304.513C186.052 295.497 167.863 308.924 164.949 310.158C162.034 311.392 161.509 308.458 162.034 306.631C162.558 304.805 168.485 284.284 171.536 275.006C174.587 265.727 174.004 258.906 168.563 256.069C163.316 253.339 157.011 261.267 153.085 263.716C149.16 266.164 147.081 260.801 147.081 260.801C147.081 260.801 145.371 246.761 138.434 221.597C131.496 196.432 120.43 200.941 120.43 200.941" fill="#EBEBEB"/>
<path d="M174.052 405.802C169.029 387.342 160.644 354.307 153.309 325.946C145.973 297.585 139.308 272.013 134.372 253.494C131.904 244.245 129.903 236.763 128.543 231.565C127.863 228.991 127.328 226.979 126.959 225.6L126.551 224.045C126.463 223.695 126.434 223.511 126.434 223.511C126.434 223.511 126.502 223.676 126.609 224.026C126.716 224.375 126.862 224.91 127.056 225.571C127.455 226.95 128.028 228.942 128.747 231.507C130.204 236.666 132.264 244.138 134.771 253.387C139.794 271.848 146.527 297.508 153.863 325.81C161.198 354.113 169.515 387.177 174.451 405.695" fill="#E0E0E0"/>
<path d="M119.546 278.435C119.934 278.595 120.305 278.794 120.653 279.028C121.343 279.436 122.334 280.058 123.568 280.835C125.987 282.399 129.281 284.644 132.866 287.179L142.019 293.709L144.807 295.652C145.159 295.87 145.485 296.128 145.779 296.419C145.387 296.261 145.012 296.062 144.661 295.827C143.972 295.419 142.981 294.797 141.747 294.01C139.347 292.426 136.082 290.123 132.497 287.597L123.296 281.136L120.498 279.193C120.154 278.975 119.835 278.721 119.546 278.435V278.435Z" fill="#E0E0E0"/>
<path d="M147.188 295.613C147.061 295.535 151.385 288.55 156.836 280.009C162.286 271.469 166.824 264.609 166.95 264.687C167.076 264.765 162.753 271.76 157.292 280.301C151.832 288.841 147.314 295.672 147.188 295.613Z" fill="#E0E0E0"/>
<path d="M156.496 339.607C156.765 339.272 157.075 338.972 157.419 338.714L160.032 336.421C162.238 334.477 165.279 331.796 168.524 328.706C171.769 325.616 174.626 322.731 176.666 320.622C177.638 319.651 178.434 318.786 179.085 318.125C179.379 317.8 179.705 317.503 180.057 317.241C179.842 317.613 179.581 317.955 179.28 318.261C178.755 318.893 177.968 319.787 176.977 320.875C175.034 323.061 172.197 326.005 168.932 329.095C165.668 332.184 162.597 334.847 160.324 336.712C159.177 337.684 158.244 338.383 157.584 338.879C157.249 339.161 156.884 339.405 156.496 339.607V339.607Z" fill="#E0E0E0"/>
<path d="M128.076 329.571C128.468 329.618 128.853 329.712 129.223 329.853L132.303 330.824C134.887 331.65 138.453 332.826 142.378 334.147C146.304 335.468 149.85 336.712 152.405 337.635L155.427 338.743C155.803 338.86 156.165 339.02 156.505 339.219C156.113 339.179 155.727 339.088 155.359 338.947L152.279 337.975C149.694 337.149 146.129 335.974 142.203 334.643C138.278 333.311 134.732 332.078 132.176 331.164L129.155 330.047C128.776 329.937 128.413 329.777 128.076 329.571V329.571Z" fill="#E0E0E0"/>
<path d="M131.36 369.455C131.86 369.529 132.352 369.653 132.827 369.824L136.772 371.029C140.095 372.068 144.671 373.535 149.723 375.197C154.776 376.858 159.333 378.374 162.626 379.511L166.513 380.871C166.996 381.026 167.467 381.217 167.922 381.444C167.418 381.37 166.924 381.247 166.445 381.075L162.5 379.87C159.177 378.831 154.601 377.363 149.549 375.702C144.496 374.041 139.939 372.515 136.655 371.388L132.769 370.018C132.283 369.873 131.812 369.685 131.36 369.455Z" fill="#E0E0E0"/>
<path d="M167.125 380.91C167.467 380.49 167.848 380.103 168.262 379.754L171.478 376.732C174.188 374.177 177.919 370.631 181.932 366.598C185.945 362.566 189.491 358.826 192.037 356.105L195.049 352.879C195.403 352.467 195.79 352.084 196.205 351.733C195.922 352.19 195.596 352.619 195.233 353.015C194.573 353.822 193.582 354.959 192.318 356.358C189.841 359.156 186.343 362.945 182.311 366.977C178.279 371.009 174.538 374.527 171.74 377.014C170.341 378.248 169.204 379.249 168.398 379.929C168.001 380.291 167.576 380.619 167.125 380.91V380.91Z" fill="#E0E0E0"/>
<path d="M70.509 50.0901L61.0262 47.1753C61.0262 47.1753 58.5389 55.1424 50.222 52.7037C48.6119 52.2603 47.1794 51.3274 46.1228 50.034C45.0662 48.7407 44.4377 47.1509 44.3244 45.4847C44.1999 44.0796 44.4127 42.6651 44.945 41.3588C45.4773 40.0525 46.3138 38.8921 47.3849 37.9742C49.8236 35.8173 54.0987 34.5056 60.1323 37.6245L66.8072 16.2493L57.4313 13.3345L53.5449 25.8584C53.5449 25.8584 39.3207 25.1491 34.8027 39.6357C30.4791 53.5004 41.9051 60.6028 47.2295 62.2642C51.2713 63.5273 65.4664 66.8696 70.509 50.0901Z" fill="#F5F5F5"/>
<path d="M58.7013 8.88558L68.2174 11.855L70.99 2.96959L61.4739 0.000195223L58.7013 8.88558Z" fill="#F5F5F5"/>
<path d="M96.6742 25.9553L100.473 24.9837C100.357 24.5523 100.329 24.1019 100.391 23.6594C100.452 23.2169 100.602 22.7913 100.831 22.4079C101.061 22.0245 101.365 21.6911 101.726 21.4276C102.086 21.164 102.496 20.9757 102.931 20.8738C103.564 20.6827 104.241 20.6932 104.868 20.9039C105.494 21.1145 106.04 21.5149 106.429 22.0495C106.759 22.4933 106.98 23.009 107.073 23.5545C107.166 24.0999 107.128 24.6596 106.963 25.1877C106.604 26.4217 105.448 27.7625 102.766 27.9859L105.03 36.5457L108.78 35.5741L107.459 30.5607C108.881 29.7029 109.982 28.4011 110.591 26.856C111.2 25.3108 111.284 23.6082 110.83 22.0106C109.373 16.453 104.029 16.4822 101.921 17.036C100.289 17.4149 94.8379 19.2707 96.6742 25.9553Z" fill="#EBEBEB"/>
<path d="M110.104 36.8225L106.277 37.8481L107.235 41.42L111.061 40.3944L110.104 36.8225Z" fill="#EBEBEB"/>
<path d="M410.316 124.291L414.008 125.622C414.163 125.204 414.4 124.821 414.705 124.496C415.01 124.171 415.377 123.91 415.785 123.729C416.192 123.548 416.632 123.451 417.078 123.442C417.523 123.433 417.966 123.514 418.38 123.679C419.002 123.879 419.547 124.267 419.94 124.789C420.333 125.31 420.556 125.941 420.576 126.594C420.599 127.151 420.49 127.706 420.256 128.213C420.023 128.719 419.673 129.164 419.235 129.509C418.264 130.315 416.525 130.752 414.193 129.412L411.171 137.738L414.824 139.06L416.593 134.202C418.251 134.304 419.897 133.86 421.278 132.937C422.66 132.013 423.7 130.662 424.239 129.091C426.182 123.689 421.8 120.687 419.731 119.938C418.147 119.317 412.609 117.752 410.316 124.291Z" fill="#EBEBEB"/>
<path d="M414.278 140.747L410.569 139.404L409.315 142.866L413.024 144.209L414.278 140.747Z" fill="#EBEBEB"/>
<path d="M18.4896 166.575L26.2624 163.563C26.2624 163.563 23.7362 157.005 30.5083 154.255C31.8044 153.707 33.2386 153.574 34.6134 153.875C35.9881 154.176 37.2356 154.896 38.1839 155.936C38.9907 156.8 39.5819 157.843 39.9094 158.98C40.237 160.116 40.2916 161.313 40.0688 162.475C39.583 165.176 37.4455 168.304 31.8199 169.383L38.6211 186.998L46.3939 184.025L42.4104 173.706C42.4104 173.706 52.1264 166.73 47.5696 154.78C43.1488 143.354 31.8394 144.656 27.4963 146.336C24.1443 147.629 13.0292 152.846 18.4896 166.575Z" fill="#F5F5F5"/>
<path d="M47.8665 187.61L40.024 190.632L42.8464 197.957L50.6888 194.936L47.8665 187.61Z" fill="#F5F5F5"/>
<path d="M413.357 196.219L407.819 198.346C407.819 198.346 409.607 203 404.807 204.943C403.888 205.328 402.873 205.42 401.9 205.208C400.927 204.996 400.042 204.49 399.366 203.758C398.795 203.145 398.376 202.406 398.145 201.601C397.914 200.795 397.876 199.946 398.035 199.124C398.385 197.18 399.901 195.004 403.865 194.266L399.104 181.742L393.624 183.85L396.442 191.166C394.447 192.692 393.01 194.83 392.35 197.253C391.69 199.676 391.844 202.248 392.789 204.574C395.907 212.668 403.894 211.754 407.003 210.559C409.354 209.636 417.224 205.944 413.357 196.219Z" fill="#F5F5F5"/>
<path d="M392.54 181.312L398.098 179.171L396.1 173.985L390.542 176.126L392.54 181.312Z" fill="#F5F5F5"/>
<path d="M429 411.069C429 411.214 332.957 411.321 214.51 411.321C96.062 411.321 0 411.214 0 411.069C0 410.923 96.0232 410.816 214.51 410.816C332.996 410.816 429 410.932 429 411.069Z" fill="#263238"/>
<path d="M61.6092 385.836C62.5808 382.26 60.1809 378.675 57.5576 376.12C54.9343 373.565 51.796 371.213 50.426 367.784C48.2108 362.226 51.1839 355.036 47.4141 350.402C45.1891 347.681 41.2056 346.768 39.2332 343.853C38.3213 342.247 37.7182 340.484 37.4552 338.655C35.3587 329.424 30.8182 320.927 24.3095 314.054C23.8707 322.276 25.6527 330.465 29.4687 337.761C30.9941 340.676 32.879 343.513 33.355 346.768C34.1809 352.044 31.2272 357.456 32.5292 362.663C34.0157 368.59 40.6712 372.564 40.9821 378.666C41.2542 383.825 36.7557 388.382 37.0957 393.512C37.3682 395.709 38.1646 397.808 39.4178 399.633C43.4014 406.269 49.2698 410.835 58.1503 410.689L69.0322 411.068L61.6092 385.836Z" fill="#FF725E"/>
<g opacity="0.3">
<path opacity="0.3" d="M61.6092 385.836C62.5808 382.26 60.1809 378.675 57.5576 376.12C54.9343 373.565 51.796 371.213 50.426 367.784C48.2108 362.226 51.1839 355.036 47.4141 350.402C45.1891 347.681 41.2056 346.768 39.2332 343.853C38.3213 342.247 37.7182 340.484 37.4552 338.655C35.3587 329.424 30.8182 320.927 24.3095 314.054C23.8707 322.276 25.6527 330.465 29.4687 337.761C30.9941 340.676 32.879 343.513 33.355 346.768C34.1809 352.044 31.2272 357.456 32.5292 362.663C34.0157 368.59 40.6712 372.564 40.9821 378.666C41.2542 383.825 36.7557 388.382 37.0957 393.512C37.3682 395.709 38.1646 397.808 39.4178 399.633C43.4014 406.269 49.2698 410.835 58.1503 410.689L69.0322 411.068L61.6092 385.836Z" fill="black"/>
</g>
<path d="M71.2279 411.292C72.2246 411.445 73.2403 411.426 74.2302 411.233C75.432 411.051 76.6133 410.751 77.7571 410.339C79.3367 409.79 80.8142 408.983 82.1293 407.949C82.9205 407.313 83.5387 406.488 83.9267 405.55C84.2517 404.498 84.4219 403.405 84.432 402.304C84.4539 401.128 84.5414 399.954 84.6943 398.787C84.899 397.545 85.3481 396.356 86.0157 395.289C87.2982 393.035 89.4357 390.898 90.1158 387.837C90.7959 384.777 90.3296 381.57 89.8243 378.306C89.3191 375.041 88.8527 371.505 90.077 368.085C91.3012 364.665 93.633 361.604 94.8281 357.776C96.0231 353.948 95.4596 349.731 95.7122 345.621C95.7868 343.534 96.2687 341.481 97.1308 339.578C98.0052 337.635 99.2294 335.837 100.182 333.816C102.125 329.716 102.455 325.072 102.98 320.515C103.242 318.222 103.495 315.9 103.757 313.568C103.922 311.211 104.329 308.876 104.972 306.602C105.709 304.309 106.578 302.061 107.575 299.869C108.089 298.735 108.511 297.562 108.839 296.361C109.022 295.118 109.138 293.866 109.188 292.611C109.304 290.097 109.207 287.578 108.897 285.081C108.605 282.574 108.149 280.087 107.877 277.57C107.877 277.415 107.877 277.269 107.877 277.133L107.818 276.638L107.381 276.851C105.084 278.03 103.089 279.723 101.552 281.797C100.044 283.828 98.83 286.062 97.9469 288.433C96.13 293.106 95.479 298.003 94.5657 302.677C93.6524 307.35 92.4865 311.946 90.0964 315.832C88.9013 317.775 87.4536 319.544 86.21 321.428C84.8595 323.268 83.9368 325.386 83.5089 327.627C82.858 332.233 85.3939 336.274 84.8692 340.355C84.6325 342.354 83.9698 344.279 82.926 346C81.9544 347.739 80.7788 349.352 79.6711 350.965C78.5485 352.547 77.5728 354.228 76.7563 355.988C75.9878 357.711 75.5337 359.557 75.4155 361.439C75.1532 365.112 75.6681 368.59 75.4155 371.874C75.1122 375.004 74.1978 378.044 72.7242 380.822C71.4125 383.494 69.9454 385.913 68.7212 388.265C68.1091 389.431 67.5359 390.577 67.0695 391.733C66.6282 392.843 66.3026 393.996 66.0979 395.173C65.7727 397.228 65.7465 399.319 66.0202 401.381C66.3056 404.257 67.3817 406.998 69.1293 409.3C69.3964 409.648 69.6922 409.973 70.0134 410.272C70.228 410.497 70.4657 410.699 70.7227 410.874C71.1308 411.175 71.3445 411.311 71.3445 411.311C70.5678 410.697 69.8608 410 69.2361 409.232C67.568 406.922 66.5604 404.201 66.3214 401.362C66.0739 399.326 66.1197 397.264 66.4574 395.241C66.662 394.092 66.9876 392.969 67.429 391.889C67.9213 390.72 68.4759 389.578 69.0904 388.469C70.3243 386.137 71.8012 383.727 73.142 381.036C74.6596 378.214 75.604 375.12 75.9208 371.932C76.2122 368.58 75.707 365.082 75.9791 361.507C76.1042 359.685 76.5481 357.899 77.2907 356.231C78.1123 354.508 79.0878 352.862 80.2055 351.315C81.3131 349.702 82.4888 348.089 83.4992 346.311C84.6082 344.525 85.3175 342.519 85.5785 340.433C86.1031 336.09 83.5867 332.029 84.2376 327.744C84.6635 325.6 85.5558 323.577 86.8513 321.817C88.0852 319.961 89.5426 318.193 90.7376 316.201C93.2152 312.208 94.4103 307.525 95.3139 302.832C96.2175 298.139 96.8879 293.281 98.6756 288.695C99.5354 286.39 100.716 284.219 102.183 282.244C103.662 280.253 105.581 278.631 107.789 277.502L107.294 277.221C107.294 277.366 107.294 277.512 107.342 277.668C107.614 280.213 108.071 282.7 108.314 285.188C108.621 287.646 108.715 290.126 108.596 292.601C108.546 293.817 108.436 295.03 108.265 296.235C107.951 297.397 107.542 298.531 107.041 299.626C106.038 301.841 105.163 304.112 104.418 306.427C103.77 308.737 103.36 311.107 103.194 313.5C102.941 315.842 102.679 318.164 102.426 320.457C101.901 325.033 101.561 329.6 99.7055 333.554C98.7339 335.497 97.568 337.353 96.6644 339.335C95.7751 341.309 95.2801 343.438 95.207 345.602C94.9641 349.799 95.5082 353.909 94.3714 357.621C93.2347 361.332 90.8737 364.422 89.6786 367.929C88.4835 371.437 88.9208 375.148 89.4454 378.403C89.9701 381.658 90.4947 384.864 89.7952 387.75C89.0956 390.635 87.0941 392.792 85.7922 395.105C85.1058 396.218 84.6468 397.457 84.4417 398.748C84.2949 399.928 84.217 401.115 84.2085 402.304C84.2101 403.377 84.0529 404.445 83.7421 405.472C83.3822 406.362 82.8042 407.147 82.0613 407.755C80.7814 408.787 79.3404 409.601 77.7959 410.165C76.6672 410.6 75.4991 410.925 74.3079 411.136C73.5799 411.268 72.8422 411.34 72.1024 411.35C71.4903 411.292 71.2279 411.292 71.2279 411.292Z" fill="#263238"/>
<path d="M105.603 283.138C105.551 283.242 105.515 283.353 105.496 283.468L105.263 284.44C105.049 285.304 104.787 286.597 104.379 288.209C103.971 289.822 102.97 291.649 102.125 293.893C101.135 296.42 100.272 298.995 99.5404 301.608C98.7049 304.523 97.9762 307.729 97.1989 311.188C96.5383 314.872 95.3676 318.446 93.7206 321.807C92.8267 323.576 91.7774 325.363 91.0292 327.326C90.2447 329.33 89.719 331.426 89.465 333.564C88.9123 337.99 88.1275 342.385 87.1137 346.729C84.9373 355.638 82.8581 364.13 80.9635 371.864C79.0688 379.598 77.2811 386.516 75.8043 392.365C74.3274 398.214 73.2101 402.878 72.394 406.21C72.015 407.804 71.7138 409.057 71.5001 409.98C71.4126 410.378 71.3349 410.699 71.2766 410.952C71.2659 411.065 71.2659 411.179 71.2766 411.292C71.3331 411.191 71.3756 411.083 71.4029 410.971C71.4709 410.709 71.5681 410.398 71.6847 409.999C71.9276 409.096 72.2676 407.842 72.7049 406.259C73.5793 402.955 74.8132 398.263 76.3387 392.482C77.8641 386.7 79.6421 379.705 81.6339 372.02C83.6256 364.334 85.6466 355.784 87.8424 346.865C88.8497 342.509 89.6152 338.101 90.1354 333.661C90.3836 331.575 90.8928 329.528 91.6511 327.569C92.4186 325.626 93.3999 323.887 94.2938 322.099C96.237 318.553 97.0046 314.744 97.7721 311.314C98.5397 307.884 99.2198 304.639 100.017 301.744C100.813 298.848 101.649 296.264 102.484 294.029C103.32 291.795 104.243 289.949 104.641 288.277C105.04 286.606 105.224 285.363 105.399 284.469C105.464 284.067 105.522 283.743 105.574 283.497C105.603 283.254 105.623 283.138 105.603 283.138Z" fill="#263238"/>
<path d="M73.1517 411.34C80.2541 407.114 82.2944 394.289 79.3311 386.574C76.3677 378.86 71.1794 371.806 70.3826 363.576C69.7608 357.251 71.84 350.761 70.3826 344.582C68.3909 336.236 60.2489 329.774 60.346 321.195C60.3946 316.386 63.1345 311.858 62.911 307.049C62.6487 301.161 58.1211 296.478 55.3229 291.289C51.0284 283.332 50.7466 273.937 49.2795 265.056C47.8124 256.176 44.4215 246.596 36.5127 242.214C35.3468 249.783 33.355 254.971 33.9768 265.221C34.21 268.904 38.485 275.909 39.068 284.022C39.4178 288.88 39.651 293.679 39.9521 298.499C40.2533 303.318 40.5448 307.981 42.2257 312.373C43.5179 315.745 45.5874 318.805 46.5493 322.283C48.3468 328.822 45.9761 335.886 47.4335 342.532C48.6674 348.147 52.5538 352.976 53.3505 358.67C54.4581 366.666 49.2892 374.983 51.932 382.61C53.2533 386.399 56.3625 389.411 57.2466 393.346C57.9365 396.378 57.1883 399.594 57.8102 402.635C58.7818 407.551 68.1674 411.379 73.1711 411.058" fill="#FF725E"/>
<path d="M38.456 249.686C38.4427 249.828 38.4427 249.971 38.456 250.113C38.456 250.434 38.5532 250.842 38.6114 251.357C38.7766 252.455 38.9612 254.058 39.3304 256.137C39.6996 258.216 40.8073 260.567 41.6623 263.405C42.5173 266.242 43.4694 269.487 44.2662 273.121C45.0629 276.754 45.7624 280.806 46.4717 285.149C47.1809 289.492 47.9582 294.224 50.1152 298.751C51.0868 301.015 52.2333 303.289 53.03 305.718C53.8463 308.204 54.349 310.782 54.5262 313.393C54.9235 318.933 55.6208 324.447 56.6152 329.91C58.7916 341.123 60.8611 351.801 62.746 361.526C64.6309 371.252 66.5255 379.928 68.0412 387.274C69.5569 394.619 70.8005 400.487 71.6653 404.627L72.6369 409.339C72.7534 409.844 72.8409 410.242 72.9186 410.553C72.9449 410.696 72.9839 410.836 73.0352 410.971C73.0524 410.829 73.0524 410.686 73.0352 410.544C72.9769 410.223 72.9089 409.825 72.8215 409.31C72.6077 408.183 72.3065 406.589 71.9276 404.568C71.1114 400.419 69.9844 394.493 68.5173 387.177C67.0502 379.86 65.311 371.087 63.3775 361.4C61.444 351.713 59.4911 340.996 57.305 329.794C56.31 324.33 55.6094 318.816 55.2064 313.277C55.0214 310.612 54.5024 307.981 53.6615 305.446C52.7968 302.978 51.66 300.695 50.6593 298.44C48.5218 293.981 47.7445 289.327 47.0061 285.003C46.2676 280.68 45.5584 276.618 44.7131 272.965C43.8678 269.312 42.9448 266.047 41.9926 263.249C41.0404 260.451 39.9814 258.08 39.5539 256.05C39.1264 254.019 38.9224 252.387 38.7183 251.308C38.6212 250.803 38.5434 250.395 38.4851 250.074C38.4831 249.944 38.4734 249.814 38.456 249.686V249.686Z" fill="#263238"/>
<path d="M381.1 46.7186H377.214C377.217 47.1594 377.131 47.5962 376.962 48.0032C376.792 48.4103 376.543 48.7792 376.229 49.0882C375.914 49.3971 375.541 49.6398 375.131 49.8019C374.721 49.964 374.283 50.0421 373.842 50.0317C373.192 50.0551 372.55 49.8748 372.006 49.516C371.463 49.1572 371.045 48.6378 370.811 48.0302C370.606 47.5243 370.524 46.9771 370.571 46.4333C370.619 45.8896 370.794 45.3647 371.083 44.9017C371.744 43.8135 373.182 42.8322 375.786 43.2888V34.5444H371.967V39.655C370.4 40.1163 369.028 41.079 368.061 42.3953C367.094 43.7116 366.585 45.3089 366.614 46.942C366.614 52.5968 371.685 53.9084 373.862 53.9084C375.523 53.9473 381.178 53.5489 381.1 46.7186Z" fill="#FF725E"/>
<path d="M371.938 32.7759H375.815V29.1518H371.938V32.7759Z" fill="#FF725E"/>
<path d="M402.291 41.5496C402.304 41.3847 402.304 41.219 402.291 41.0541C402.291 40.7043 402.291 40.2282 402.291 39.6161C402.291 39.3052 402.291 38.9457 402.242 38.5571C402.194 38.1685 402.135 37.741 402.067 37.294C401.999 36.8471 401.931 36.3224 401.854 35.8075L401.446 34.1557C400.724 31.3112 399.542 28.6037 397.948 26.1401C395.632 22.4915 392.511 19.4224 388.824 17.1688C385.137 14.9151 380.983 13.5369 376.68 13.1401C375.387 13.0259 374.089 13 372.793 13.0623C372.142 13.0623 371.472 13.0623 370.85 13.1886L368.848 13.4898C366.102 14.0002 363.445 14.9068 360.959 16.1812C358.364 17.5543 355.979 19.2916 353.876 21.3404C351.723 23.5224 349.923 26.0268 348.542 28.7634C347.056 31.5846 346.082 34.6473 345.666 37.809C345.545 38.61 345.477 39.4182 345.462 40.2282C345.397 41.0395 345.381 41.8538 345.413 42.667C345.625 47.8791 347.254 52.9348 350.126 57.2895V56.9883C348.775 60.3598 347.444 63.6729 346.142 66.8987L345.909 67.4913L346.521 67.3164L357.112 64.4016L356.859 64.3434C360.426 67.0435 364.581 68.8614 368.984 69.6483C371.027 70.0291 373.109 70.1563 375.183 70.0272C376.183 70.0123 377.181 69.9181 378.166 69.7454L379.614 69.522C380.09 69.4345 380.585 69.2888 381.013 69.1819C387.539 67.5281 393.263 63.6051 397.161 58.1154C398.614 56.093 399.782 53.8795 400.629 51.5377C400.814 51.0227 400.989 50.5661 401.154 50.0608C401.319 49.5556 401.407 49.0892 401.514 48.652C401.62 48.2148 401.737 47.7679 401.834 47.3598C401.931 46.9517 401.961 46.5534 402.019 46.1744C402.106 45.4263 402.242 44.7656 402.271 44.2312C402.301 43.6969 402.271 43.1819 402.271 42.7738C402.271 42.3658 402.271 42.1132 402.271 41.8897C402.271 41.6662 402.271 41.5885 402.271 41.5885C402.257 41.6883 402.257 41.7898 402.271 41.8897C402.271 42.1132 402.271 42.4046 402.203 42.7738C402.135 43.143 402.145 43.658 402.106 44.2215C402.067 44.785 401.922 45.4457 401.805 46.1647C400.878 51.5421 398.41 56.5348 394.7 60.5362C390.99 64.5377 386.198 67.3758 380.906 68.7058C380.449 68.8127 379.993 68.9487 379.526 69.0362L378.098 69.2499C377.134 69.4108 376.16 69.4985 375.183 69.5123C373.147 69.6196 371.106 69.4859 369.101 69.1139C364.8 68.3224 360.744 66.5356 357.257 63.8964L357.141 63.7993H356.995L346.395 66.7141L346.764 67.1318L350.757 57.2312L350.816 57.0758L350.728 56.93C348.815 54.0354 347.457 50.8098 346.725 47.4181C346.39 45.8445 346.188 44.2454 346.123 42.6378C346.09 41.8441 346.106 41.0491 346.171 40.2574C346.177 39.4667 346.242 38.6775 346.366 37.8964C346.739 34.8089 347.656 31.812 349.076 29.0451C350.427 26.3707 352.18 23.9196 354.274 21.7776C356.332 19.7663 358.668 18.0615 361.212 16.7155C363.642 15.4515 366.244 14.5513 368.936 14.0436L370.879 13.7425C371.53 13.6453 372.181 13.655 372.822 13.6064C374.089 13.5462 375.358 13.5689 376.621 13.6744C380.854 14.0449 384.946 15.375 388.587 17.5635C392.229 19.7521 395.324 22.7417 397.637 26.3052C399.24 28.7259 400.441 31.3902 401.193 34.1946L401.63 35.8269C401.718 36.3418 401.795 36.7985 401.873 37.2843C401.951 37.7701 402.009 38.1587 402.077 38.5474C402.145 38.936 402.126 39.2858 402.155 39.5967C402.155 40.1991 402.233 40.6752 402.262 41.025C402.243 41.2003 402.253 41.3774 402.291 41.5496V41.5496Z" fill="#263238"/>
<path d="M112.55 156.131H168.66C168.66 156.131 168.66 109.018 217.619 108.182C243.046 107.735 256.23 124.398 261.593 137.155C267.812 151.972 265.927 168.859 257.59 182.607C248.078 198.298 227.578 214.067 189.763 207.402L189.404 332.418H244.892V258.304C244.892 258.304 322.707 238.192 322.707 152.4C322.707 70.348 256.356 52.6261 220.689 51.4796C200.849 50.848 193.659 49.993 169.117 53.4811C137.841 57.9504 111.889 94.2688 112.55 156.131Z" fill="#FF725E"/>
<path d="M245.562 358.476H189.248V411.069H245.562V358.476Z" fill="#FF725E"/>
<path opacity="0.1" d="M245.562 358.476H189.248V411.069H245.562V358.476Z" fill="black"/>
<path opacity="0.1" d="M112.55 156.131H168.66C168.66 156.131 168.66 109.018 217.619 108.182C243.046 107.735 256.23 124.398 261.593 137.155C267.812 151.972 265.927 168.859 257.59 182.607C248.078 198.298 227.578 214.067 189.763 207.402L189.404 332.418H244.892V258.304C244.892 258.304 322.707 238.192 322.707 152.4C322.707 70.348 256.356 52.6261 220.689 51.4796C200.849 50.848 193.659 49.993 169.117 53.4811C137.841 57.9504 111.889 94.2688 112.55 156.131Z" fill="black"/>
<path d="M89.2997 156.131H145.419C145.419 156.131 145.419 109.018 194.378 108.182C219.805 107.735 232.99 124.398 238.343 137.155C244.571 151.972 242.686 168.858 234.35 182.607C224.838 198.298 203.978 212.561 166.163 205.925V332.418H221.651V258.304C221.651 258.304 299.466 238.192 299.466 152.4C299.466 70.348 225.877 51.2949 194.388 51.2949C170.302 51.3241 88.2407 57.144 89.2997 156.131Z" fill="#FF725E"/>
<path opacity="0.3" d="M89.2997 156.131H145.419C145.419 156.131 145.419 109.018 194.378 108.182C219.805 107.735 232.99 124.398 238.343 137.155C244.571 151.972 242.686 168.858 234.35 182.607C224.838 198.298 203.978 212.561 166.163 205.925V332.418H221.651V258.304C221.651 258.304 299.466 238.192 299.466 152.4C299.466 70.348 225.877 51.2949 194.388 51.2949C170.302 51.3241 88.2407 57.144 89.2997 156.131Z" fill="black"/>
<path d="M222.321 358.476H166.007V411.069H222.321V358.476Z" fill="#FF725E"/>
<path opacity="0.3" d="M222.321 358.476H166.007V411.069H222.321V358.476Z" fill="black"/>
<path d="M200.713 108.435C200.435 108.459 200.155 108.459 199.877 108.435C199.324 108.435 198.527 108.25 197.487 108.24C194.548 108.096 191.601 108.22 188.685 108.61C184.359 109.157 180.103 110.157 175.986 111.592C173.559 112.441 171.195 113.46 168.912 114.643C166.445 115.876 164.122 117.378 161.985 119.122C159.863 120.882 157.961 122.892 156.321 125.107C154.766 127.156 153.347 129.305 152.075 131.539C149.95 135.345 148.265 139.381 147.052 143.568C146.229 146.393 145.663 149.288 145.361 152.215C145.244 153.245 145.215 154.061 145.186 154.605C145.187 154.885 145.161 155.165 145.108 155.441C145.083 155.163 145.083 154.883 145.108 154.605C145.108 154.051 145.108 153.235 145.196 152.196C145.419 149.237 145.937 146.307 146.741 143.451C147.909 139.216 149.572 135.133 151.696 131.287C152.971 129.027 154.396 126.856 155.961 124.787C157.615 122.535 159.54 120.495 161.694 118.714C163.856 116.946 166.209 115.424 168.708 114.177C171.005 112.972 173.385 111.933 175.83 111.068C179.985 109.638 184.281 108.66 188.646 108.153C191.582 107.792 194.547 107.724 197.497 107.949C198.299 108 199.097 108.097 199.887 108.24C200.167 108.286 200.443 108.351 200.713 108.435Z" fill="#263238"/>
<path d="M285.262 98.437C285.262 98.437 285.194 98.369 285.077 98.2233C284.96 98.0775 284.786 97.8249 284.591 97.5432L282.735 94.9198C282.337 94.3563 281.91 93.7053 281.404 93.0349L279.655 90.9071L277.654 88.449C276.925 87.594 276.07 86.7681 275.215 85.8645C274.36 84.9609 273.486 83.9991 272.495 83.076C271.504 82.153 270.445 81.2106 269.356 80.239C268.812 79.7532 268.278 79.2674 267.695 78.7524L265.888 77.3242C264.654 76.3526 263.43 75.381 262.099 74.4094C256.297 70.2584 250.143 66.6236 243.706 63.5469L238.586 61.2345L233.504 59.2913C231.843 58.6015 230.152 58.1157 228.52 57.5716C226.888 57.0275 225.294 56.4736 223.662 56.0947L219.018 54.8802C217.512 54.4819 216.016 54.239 214.587 53.9086C213.159 53.5783 211.78 53.2868 210.429 53.1216L206.543 52.5581C204.084 52.1403 201.83 52.0529 199.868 51.8585C198.896 51.7808 197.925 51.6739 197.118 51.6351L194.806 51.5768L191.599 51.4699H190.764H190.482C190.575 51.4553 190.67 51.4553 190.764 51.4699H191.599H194.806H197.128C197.973 51.4699 198.896 51.5865 199.887 51.6545C201.83 51.8197 204.123 51.8877 206.581 52.2861L210.468 52.8107C211.818 52.9662 213.198 53.316 214.636 53.5783C216.074 53.8406 217.551 54.1127 219.096 54.5499L223.759 55.7547C225.372 56.1239 226.966 56.7263 228.617 57.2218C230.269 57.7173 231.95 58.1934 233.611 58.9318L238.722 60.875L243.871 63.1971C250.342 66.2809 256.52 69.9425 262.332 74.1373C263.673 75.1089 264.897 76.1485 266.131 77.1104L267.938 78.4221C268.521 78.9079 269.055 79.3937 269.599 79.9183L272.728 82.8331C273.7 83.8047 274.574 84.7763 275.439 85.6605C276.303 86.5447 277.129 87.4094 277.858 88.2741L279.801 90.7517L281.531 92.9086C282.026 93.5887 282.444 94.2494 282.833 94.8518C283.59 95.9886 284.183 96.8825 284.601 97.5237L285.058 98.233C285.134 98.2919 285.203 98.3605 285.262 98.437V98.437Z" fill="#263238"/>
<path d="M279.413 218.915C279.297 219.125 279.157 219.321 278.995 219.498L277.654 221.082C277.1 221.791 276.401 222.636 275.536 223.579C274.671 224.521 273.748 225.629 272.621 226.775C271.494 227.922 270.289 229.204 268.919 230.497C267.549 231.789 266.063 233.149 264.479 234.567C257.533 240.63 249.918 245.882 241.782 250.22C239.898 251.192 238.12 252.163 236.4 252.911C234.68 253.659 233.077 254.427 231.6 255.049C230.123 255.671 228.763 256.186 227.578 256.642C226.392 257.099 225.353 257.468 224.498 257.74L222.555 258.372C222.329 258.461 222.094 258.526 221.855 258.566C222.064 258.446 222.286 258.348 222.516 258.275L224.459 257.556C225.304 257.254 226.324 256.866 227.5 256.38C228.676 255.894 230.036 255.408 231.493 254.718C232.951 254.029 234.563 253.378 236.244 252.532C237.925 251.687 239.723 250.793 241.598 249.812C245.3 247.772 249.293 245.381 253.325 242.622C257.357 239.863 260.981 236.958 264.207 234.218C265.791 232.819 267.306 231.507 268.657 230.186C270.007 228.864 271.271 227.669 272.388 226.523C273.505 225.376 274.487 224.317 275.361 223.384C276.235 222.452 276.954 221.636 277.537 220.955L278.898 219.411C279.056 219.232 279.228 219.066 279.413 218.915V218.915Z" fill="#263238"/>
<path d="M220.67 328.006C220.524 328.006 220.407 312.402 220.407 293.155C220.407 273.908 220.524 258.294 220.67 258.294C220.815 258.294 220.922 273.898 220.922 293.155C220.922 312.412 220.806 328.006 220.67 328.006Z" fill="#263238"/>
<path d="M222.807 407.503C222.661 407.503 222.555 396.553 222.555 383.047C222.555 369.542 222.661 358.583 222.807 358.583C222.953 358.583 223.06 369.532 223.06 383.047C223.06 396.562 222.943 407.503 222.807 407.503Z" fill="#263238"/>
<path d="M278.043 148.678C277.071 150.621 280.695 152.214 282.784 152.846C284.915 153.369 287.121 153.52 289.303 153.293C292.218 153.137 295.201 152.865 297.717 151.427C299.921 150.062 301.683 148.088 302.789 145.744C303.88 143.407 304.742 140.969 305.364 138.466C305.364 138.466 282.405 139.963 278.043 148.678Z" fill="#FF725E"/>
<g opacity="0.4">
<path opacity="0.4" d="M278.043 148.678C277.071 150.621 280.695 152.214 282.784 152.846C284.915 153.369 287.121 153.52 289.303 153.293C292.218 153.137 295.201 152.865 297.717 151.427C299.921 150.062 301.683 148.088 302.789 145.744C303.88 143.407 304.742 140.969 305.364 138.466C305.364 138.466 282.405 139.963 278.043 148.678Z" fill="black"/>
</g>
<path d="M342.887 142.46C346.672 145.144 351.208 146.566 355.848 146.521C358.073 146.645 360.266 145.954 362.018 144.578C362.766 143.888 363.33 143.014 364.097 142.353C364.622 141.906 365.234 141.566 365.729 141.09C365.991 140.865 366.193 140.578 366.316 140.256C366.44 139.934 366.482 139.586 366.439 139.244C366.247 138.4 365.774 137.646 365.098 137.106C362.465 135.61 359.317 135.668 356.285 135.736C353.252 135.868 350.255 136.454 347.395 137.475C345.044 138.272 342.586 139.419 341.391 141.556" fill="#FF725E"/>
<g opacity="0.4">
<path opacity="0.4" d="M366.439 139.244C366.095 138.424 365.491 137.741 364.719 137.301C362.086 135.804 359.317 135.668 356.285 135.736C353.252 135.868 350.255 136.454 347.395 137.475C345.044 138.272 342.586 139.419 341.391 141.556L342.887 142.46C346.672 145.145 351.208 146.566 355.848 146.521C358.073 146.645 360.266 145.954 362.018 144.578C362.766 143.888 363.33 143.014 364.097 142.353C364.622 141.906 365.234 141.566 365.729 141.09C365.991 140.865 366.193 140.578 366.316 140.256C366.44 139.934 366.482 139.586 366.439 139.244V139.244Z" fill="black"/>
</g>
<path d="M298.058 177.33L346.492 177.972C346.59 177.971 346.688 177.948 346.775 177.904C346.863 177.859 346.94 177.794 346.998 177.715C347.057 177.636 347.096 177.544 347.113 177.447C347.129 177.35 347.123 177.25 347.094 177.156L341.41 159.434C341.41 159.434 342.246 150.573 343.402 139.924C345.161 123.747 347.502 103.411 347.531 103.469C344.218 94.1809 324.67 92.6069 324.67 92.6069L302.391 93.9283L301.614 92.6166L295.201 95.5995C293.802 96.2501 292.457 97.0104 291.179 97.873C286.942 100.7 276.741 107.2 274.875 114.439C270.571 131.199 277.858 149.902 277.858 149.902L282.541 146.239C283.721 145.33 284.961 144.502 286.253 143.762L295.638 168.916C295.08 169.268 294.607 169.741 294.254 170.299C293.901 170.857 293.677 171.487 293.598 172.142C293.52 174.182 294.569 176.631 298.058 177.33" fill="#FF725E"/>
<g opacity="0.3">
<path opacity="0.3" d="M318.84 147.677C320.375 139.418 319.569 130.927 318.743 122.571C316.061 129.372 316.158 137.145 313.312 143.888C312.963 144.6 312.708 145.354 312.554 146.132C312.48 146.523 312.499 146.925 312.611 147.307C312.722 147.689 312.922 148.039 313.195 148.328C313.972 149.037 315.138 148.649 316.168 148.532C317.09 148.356 317.987 148.069 318.84 147.677" fill="black"/>
</g>
<g opacity="0.4">
<path opacity="0.4" d="M300.972 166.798C304.859 168.148 308.998 165.632 313.108 165.185C315.828 164.894 318.549 165.515 321.25 165.953C326.711 166.836 332.268 166.974 337.767 166.361C338.61 166.314 339.436 166.1 340.196 165.729C340.588 165.462 340.909 165.102 341.131 164.682C341.353 164.262 341.469 163.795 341.469 163.32C332.316 162.348 323.173 161.823 314.021 160.881C311.743 160.492 309.409 160.568 307.161 161.104C304.402 161.959 302.303 164.126 300.36 166.273" fill="black"/>
</g>
<path d="M365.04 136.057C361.085 127.147 347.143 102.507 347.143 102.507L336.348 116.042L338.865 142.615C338.865 142.615 344.568 136.251 360.512 136.125C361.671 136.171 362.804 136.476 363.83 137.017C364.855 137.559 365.747 138.323 366.439 139.253L365.04 136.057Z" fill="#FF725E"/>
<path d="M300.224 131.345C299.454 129.456 298.843 127.506 298.398 125.515C297.794 123.576 297.352 121.59 297.076 119.579C297.835 121.471 298.443 123.42 298.893 125.408C299.497 127.348 299.942 129.333 300.224 131.345V131.345Z" fill="#263238"/>
<path d="M335.532 114.245C335.884 114.493 336.209 114.776 336.504 115.09C337.362 115.919 338.167 116.802 338.913 117.733C341.426 120.804 343.192 124.415 344.072 128.284C344.53 130.423 344.632 132.622 344.374 134.794C344.131 136.786 343.752 138.535 343.499 140.011C343.247 141.488 343.091 142.693 343.013 143.529C343.011 143.963 342.966 144.396 342.877 144.821C342.809 144.387 342.789 143.947 342.819 143.509C342.862 142.319 342.972 141.131 343.149 139.953C343.354 138.467 343.694 136.698 343.917 134.745C344.142 132.623 344.027 130.478 343.577 128.391C342.707 124.595 341.019 121.034 338.632 117.956C336.854 115.566 335.454 114.322 335.532 114.245Z" fill="#263238"/>
<path d="M325.641 175.193C325.304 175.343 324.948 175.448 324.582 175.504C324.167 175.613 323.745 175.694 323.319 175.746C322.824 175.814 322.26 175.921 321.629 175.951C320.148 176.086 318.659 176.086 317.179 175.951C315.368 175.764 313.578 175.407 311.835 174.882C310.1 174.324 308.422 173.605 306.821 172.735C305.524 172.01 304.292 171.175 303.139 170.237C302.634 169.849 302.226 169.441 301.856 169.101C301.538 168.814 301.236 168.509 300.953 168.187C300.683 167.937 300.45 167.649 300.263 167.332C300.331 167.264 301.371 168.43 303.362 169.956C304.526 170.841 305.757 171.634 307.045 172.326C308.627 173.158 310.279 173.85 311.981 174.396C313.694 174.912 315.45 175.276 317.227 175.484C318.679 175.64 320.141 175.686 321.599 175.62C324.096 175.484 325.622 175.115 325.641 175.193Z" fill="#263238"/>
<path d="M340.594 169.674C340.823 170.114 340.952 170.598 340.973 171.093C341.128 172.277 341.039 173.481 340.711 174.629C340.377 175.804 339.7 176.853 338.767 177.641C338.058 178.234 337.514 178.419 337.485 178.37C337.456 178.322 337.912 178.001 338.525 177.399C339.31 176.579 339.881 175.578 340.186 174.484C340.963 171.919 340.409 169.684 340.594 169.674Z" fill="#263238"/>
<path d="M337.961 173.094C338.172 174.094 338.088 175.133 337.718 176.085C337.349 177.037 336.711 177.861 335.882 178.457C335.775 178.351 336.679 177.389 337.242 175.902C337.806 174.416 337.815 173.104 337.961 173.094Z" fill="#263238"/>
<path d="M329.294 141.128C328.78 141.999 328.202 142.83 327.565 143.616C327.063 144.493 326.494 145.331 325.865 146.122C326.051 145.097 326.492 144.135 327.147 143.324C327.665 142.422 328.404 141.666 329.294 141.128V141.128Z" fill="#263238"/>
<path d="M296.046 117.596C295.306 117.162 294.589 116.688 293.899 116.178C290.444 113.908 286.522 112.443 282.424 111.893C281.567 111.831 280.713 111.717 279.869 111.553C280.73 111.434 281.603 111.434 282.463 111.553C286.673 111.912 290.704 113.414 294.123 115.896C294.84 116.371 295.487 116.943 296.046 117.596Z" fill="#263238"/>
<path d="M347.143 102.187C345.404 103.587 343.779 105.124 342.285 106.782C340.909 108.552 339.677 110.43 338.602 112.398C338.717 111.736 338.944 111.099 339.273 110.513C339.976 109.056 340.857 107.692 341.896 106.452C342.938 105.214 344.133 104.114 345.452 103.178C345.954 102.752 346.526 102.417 347.143 102.187Z" fill="#263238"/>
<path d="M327.147 94.1807C327.236 94.3208 327.307 94.4708 327.361 94.6276C327.551 95.0676 327.703 95.5226 327.818 95.9878C328.227 97.7193 328.227 99.5225 327.818 101.254C327.213 103.839 325.829 106.175 323.853 107.948C321.36 110.061 318.182 111.194 314.915 111.135C311.644 111.146 308.458 110.1 305.83 108.152C303.737 106.554 302.038 104.496 300.865 102.138C300.075 100.559 299.519 98.8735 299.214 97.1343C299.125 96.6658 299.066 96.1919 299.039 95.7158C299.011 95.5485 299.011 95.3779 299.039 95.2106C299.039 95.2106 299.146 95.8907 299.418 97.0955C299.796 98.7855 300.393 100.419 301.196 101.953C302.381 104.241 304.064 106.233 306.122 107.783C308.653 109.658 311.716 110.679 314.866 110.698C318.016 110.756 321.081 109.68 323.504 107.666C325.412 105.959 326.766 103.718 327.39 101.234C327.822 99.5578 327.882 97.8067 327.565 96.1044C327.38 94.8219 327.089 94.2001 327.147 94.1807Z" fill="#263238"/>
<g opacity="0.3">
<path opacity="0.3" d="M330.548 142.848C330.548 142.362 330.47 141.789 330.043 141.546C329.907 141.478 329.757 141.442 329.605 141.442C329.454 141.442 329.304 141.478 329.168 141.546C328.896 141.693 328.656 141.891 328.459 142.129C327.317 143.318 326.433 144.731 325.865 146.278L330.626 145.86C330.596 144.879 330.577 143.849 330.548 142.848Z" fill="black"/>
</g>
<g opacity="0.3">
<path opacity="0.3" d="M346.356 132.831C345.877 130.107 344.684 127.558 342.897 125.447C344.957 132.17 344.267 135.969 343.111 140.575L343.363 139.933C344.694 137.242 346.715 135.551 346.356 132.831Z" fill="black"/>
</g>
<path d="M336.844 358.689L333.939 402.265L314.992 402.042L312.01 356.736L336.844 358.689Z" fill="#FFBE9D"/>
<path d="M334.473 396.533V397.796C334.473 397.796 355.848 406.385 356.052 410.427L313.603 410.194L314.264 396.076C320.589 399.04 327.206 399.409 334.473 396.533Z" fill="#FF725E"/>
<path d="M318.568 400.604C318.165 400.726 317.821 400.99 317.599 401.348C317.377 401.706 317.293 402.132 317.363 402.547C317.467 402.962 317.728 403.32 318.09 403.546C318.452 403.773 318.888 403.85 319.306 403.762C319.739 403.633 320.108 403.347 320.341 402.961C320.575 402.575 320.656 402.116 320.57 401.673C320.416 401.253 320.104 400.91 319.702 400.716C319.299 400.522 318.837 400.492 318.413 400.633" fill="white"/>
<path d="M313.603 410.194L313.759 406.803L354.41 408.28C354.41 408.28 356.295 409.115 356.072 410.437L313.603 410.194Z" fill="#263238"/>
<path d="M334.629 397.913C334.629 398.117 333.579 398.204 332.559 398.884C331.539 399.564 330.985 400.41 330.8 400.332C330.616 400.254 330.927 399.049 332.18 398.272C333.433 397.495 334.677 397.689 334.629 397.913Z" fill="#263238"/>
<path d="M339.069 399.778C339.117 399.982 338.214 400.322 337.505 401.196C336.795 402.071 336.591 402.994 336.377 402.984C336.164 402.974 336.047 401.799 336.951 400.74C337.854 399.681 339.059 399.632 339.069 399.778Z" fill="#263238"/>
<path d="M341.566 405.122C341.371 405.122 341.09 404.15 341.634 402.994C342.178 401.838 343.14 401.42 343.227 401.585C343.315 401.75 342.712 402.362 342.256 403.305C341.799 404.247 341.78 405.102 341.566 405.122Z" fill="#263238"/>
<path d="M333.385 39.9947C334.483 37.2742 333.152 33.9805 330.791 32.2219C328.302 30.5839 325.268 29.9939 322.348 30.5799C319.466 31.1841 316.676 32.1641 314.05 33.4947C312.829 32.2631 311.289 31.3951 309.603 30.9878C307.917 30.5804 306.152 30.6497 304.503 31.1879C302.854 31.7261 301.387 32.712 300.266 34.0355C299.145 35.3591 298.414 36.9681 298.155 38.6831C297.104 38.4186 296.002 38.4453 294.965 38.76C293.928 39.0748 292.997 39.6659 292.271 40.4699C291.545 41.2738 291.052 42.2603 290.844 43.3234C290.636 44.3865 290.721 45.4862 291.091 46.5044L304.227 51.1195L318.568 76.3811C320.687 78.1893 323.392 79.1647 326.178 79.1252C328.964 79.0857 331.64 78.0341 333.707 76.1666C335.775 74.2991 337.092 71.7432 337.413 68.9759C337.735 66.2085 337.039 63.4187 335.454 61.127C336.258 60.4124 336.94 59.5725 337.475 58.6397C338.621 57.962 339.621 57.0633 340.417 55.9958C341.212 54.9283 341.788 53.7133 342.11 52.4215C343.383 46.7959 339.03 40.6554 333.385 39.9947Z" fill="#263238"/>
<path d="M324.689 92.6066C323.873 88.4967 323.309 85.6791 323.319 85.7082C323.329 85.7374 331.092 82.6963 330.528 71.8824C330.256 66.4997 328.206 58.0176 326.302 51.1387C324.592 44.9399 318.811 38.1096 312.7 40.0819L294.171 49.1178C292.315 49.7202 291.995 51.4691 292.432 53.3637V54.3353L299.631 84.1245L302.673 97.4354C303.321 100.169 304.969 102.56 307.292 104.139C309.616 105.718 312.446 106.37 315.226 105.966C316.744 105.753 318.202 105.231 319.512 104.433C320.821 103.636 321.954 102.579 322.84 101.328C323.726 100.077 324.347 98.6581 324.665 97.1583C324.983 95.6586 324.991 94.1096 324.689 92.6066V92.6066Z" fill="#FFBE9D"/>
<path d="M326.234 58.3285C326.312 58.6733 326.255 59.0348 326.074 59.3385C325.893 59.6422 325.602 59.865 325.262 59.9608C325.091 60.0088 324.911 60.0215 324.734 59.9982C324.558 59.9749 324.387 59.9161 324.234 59.8253C324.081 59.7346 323.947 59.6137 323.842 59.47C323.736 59.3263 323.661 59.1628 323.62 58.9892C323.543 58.6457 323.6 58.2855 323.781 57.9834C323.962 57.6813 324.252 57.4604 324.592 57.3667C324.763 57.3172 324.942 57.303 325.119 57.325C325.296 57.3471 325.466 57.4048 325.62 57.4948C325.773 57.5848 325.907 57.7052 326.012 57.8485C326.118 57.9918 326.193 58.1552 326.234 58.3285V58.3285Z" fill="#263238"/>
<path d="M325.389 56.2594C325.253 56.4732 324.077 55.9388 322.639 56.2594C321.201 56.58 320.288 57.5128 320.093 57.367C319.899 57.2213 320.093 56.9492 320.492 56.5217C321.026 55.9569 321.722 55.5702 322.484 55.4141C323.235 55.252 324.019 55.3372 324.718 55.657C325.262 55.8805 325.447 56.172 325.389 56.2594Z" fill="#263238"/>
<path d="M312.126 61.5155C312.204 61.859 312.146 62.2192 311.965 62.5213C311.785 62.8235 311.494 63.0443 311.155 63.1381C310.987 63.1869 310.811 63.202 310.638 63.1824C310.464 63.1629 310.296 63.1091 310.143 63.0241C309.99 62.9392 309.856 62.8248 309.748 62.6876C309.64 62.5504 309.56 62.3931 309.513 62.2248C309.435 61.88 309.492 61.5185 309.673 61.2148C309.854 60.9111 310.144 60.6883 310.484 60.5925C310.653 60.5438 310.829 60.5291 311.003 60.5493C311.177 60.5695 311.346 60.6241 311.499 60.71C311.651 60.7959 311.786 60.9114 311.893 61.0497C312.001 61.188 312.08 61.3463 312.126 61.5155Z" fill="#263238"/>
<path d="M311.417 59.6891C311.291 59.9028 310.105 59.3588 308.667 59.6891C307.229 60.0194 306.316 60.9327 306.122 60.7967C305.927 60.6607 306.122 60.3789 306.52 59.9417C307.057 59.3819 307.752 58.999 308.512 58.8438C309.263 58.6842 310.045 58.7658 310.747 59.077C311.261 59.3102 311.485 59.5725 311.417 59.6891Z" fill="#263238"/>
<path d="M318.733 68.8219C319.446 68.4289 320.202 68.1224 320.987 67.9086C321.347 67.792 321.687 67.6463 321.696 67.384C321.646 66.9975 321.48 66.6353 321.22 66.3444L319.54 63.7599C317.188 60.0775 315.401 57.0267 315.546 56.9587C315.692 56.8907 317.723 59.7763 320.074 63.4587L321.716 66.0626C322.038 66.4611 322.214 66.9587 322.211 67.4714C322.182 67.6112 322.123 67.7428 322.037 67.857C321.952 67.9712 321.842 68.0651 321.716 68.1321C321.526 68.2327 321.323 68.3079 321.114 68.3556C320.345 68.6187 319.544 68.7756 318.733 68.8219Z" fill="#263238"/>
<path d="M323.319 85.7083C318.405 86.819 313.279 86.5432 308.512 84.9116C308.512 84.9116 313.603 91.5574 323.873 88.3802L323.319 85.7083Z" fill="#EB996E"/>
<path d="M311.66 57.6295C311.563 58.0473 310.076 58.0375 308.386 58.4553C306.695 58.8731 305.354 59.5047 305.082 59.1743C304.966 59.0189 305.16 58.6108 305.675 58.2027C306.359 57.6263 307.172 57.2231 308.046 57.0271C308.911 56.8217 309.813 56.8217 310.679 57.0271C311.368 57.1534 311.728 57.4352 311.66 57.6295Z" fill="#263238"/>
<path d="M324.835 51.6732C324.602 52.0619 323.358 51.9647 321.92 52.2465C320.482 52.5282 319.345 53.014 319.005 52.7323C318.85 52.5865 319.005 52.2173 319.423 51.7607C320.065 51.2211 320.84 50.8653 321.667 50.7308C322.481 50.5668 323.324 50.6273 324.106 50.9057C324.699 51.1777 324.932 51.4789 324.835 51.6732Z" fill="#263238"/>
<path d="M298.747 42.1615C298.962 43.214 299.407 44.2063 300.048 45.0678C300.69 45.9293 301.514 46.6389 302.461 47.1463C303.407 47.6536 304.454 47.9461 305.527 48.0031C306.6 48.0602 307.672 47.8802 308.667 47.4762C310.203 46.8544 311.796 45.6884 313.351 46.252C314.905 46.8155 315.546 49.0307 317.033 49.8566C319.219 51.0808 321.891 48.9627 324.33 49.1765C326.273 49.3416 327.74 50.8282 329.246 52.0913C330.752 53.3544 332.831 54.3065 334.531 53.3932C334.142 51.7707 333.565 50.199 332.812 48.7101C332.052 47.2112 330.795 46.0228 329.256 45.3484C328.401 45.0083 327.478 44.8917 326.661 44.4739C324.903 43.5801 324.116 41.5591 322.843 40.0337C322.007 39.0725 320.954 38.3243 319.771 37.8511C318.589 37.378 317.31 37.1936 316.042 37.3132C313.943 37.527 311.951 38.586 309.833 38.4986C308.269 38.4306 306.773 37.731 305.209 37.7602C302.167 37.7602 299.884 40.4807 298.194 43.0165" fill="#263238"/>
<path d="M308.988 44.3863C307.589 44.2794 304.732 43.9879 303.79 42.9969C302.833 41.926 301.611 41.1254 300.246 40.6753C298.882 40.2251 297.424 40.1412 296.017 40.4319C294.621 40.848 293.396 41.7014 292.521 42.8663C291.647 44.0312 291.169 45.4461 291.159 46.9027C289.459 47.3176 287.903 48.1839 286.654 49.41C285.406 50.6362 284.512 52.1768 284.067 53.8691C283.614 55.6407 283.599 57.4956 284.022 59.2743C284.445 61.053 285.294 62.7024 286.496 64.0806C287.079 64.8104 287.612 65.5799 288.089 66.3833C287.43 67.2006 286.851 68.079 286.359 69.0066C284.135 73.9229 290.168 75.8078 290.168 75.8078C290.168 79.1113 293.229 79.0918 295.182 79.0821C297.135 79.0724 298.213 84.2899 299.738 84.0858L298.194 67.9864C298.42 68.0744 298.66 68.1205 298.903 68.1225C302.585 68.1905 301.623 61.2144 300.438 59.3781C301.535 58.0123 302.462 56.518 303.197 54.9281C303.864 52.4977 303.911 49.9389 303.333 47.4857C304.567 47.3302 309.59 44.4252 308.988 44.3863Z" fill="#263238"/>
<path d="M298.679 68.8417C298.554 68.3302 298.301 67.8587 297.944 67.4713C297.587 67.084 297.138 66.7933 296.638 66.6264C296.139 66.4596 295.605 66.422 295.087 66.5171C294.569 66.6123 294.083 66.8371 293.676 67.1706C292.704 68.0062 292.189 69.4053 292.772 71.7468C294.346 78.0039 300.302 75.1377 300.263 74.9628C300.224 74.7879 299.36 71.4262 298.679 68.8417Z" fill="#FFBE9D"/>
<path d="M297.756 73.0681C297.756 73.0681 297.669 73.175 297.504 73.3013C297.274 73.4774 296.985 73.5576 296.697 73.5248C295.978 73.447 295.152 72.5532 294.842 71.4164C294.693 70.8852 294.664 70.3281 294.754 69.7841C294.764 69.5728 294.825 69.367 294.931 69.1843C295.038 69.0016 295.187 68.8474 295.366 68.7348C295.484 68.6712 295.621 68.651 295.752 68.6776C295.883 68.7042 296.001 68.776 296.085 68.8805C296.212 69.0263 296.202 69.1623 296.241 69.172C296.28 69.1817 296.348 69.0263 296.241 68.7834C296.166 68.6393 296.047 68.5234 295.901 68.453C295.695 68.3698 295.465 68.3698 295.259 68.453C295.015 68.5689 294.805 68.7445 294.647 68.9637C294.489 69.1828 294.389 69.4383 294.356 69.7064C294.23 70.3183 294.253 70.9515 294.424 71.5524C294.532 72.1166 294.805 72.6362 295.208 73.0459C295.61 73.4556 296.125 73.7371 296.688 73.8551C296.87 73.8625 297.053 73.8289 297.221 73.7566C297.389 73.6842 297.539 73.5752 297.659 73.4373C297.786 73.2236 297.786 73.0778 297.756 73.0681Z" fill="#EB996E"/>
<path d="M332.229 60.1066C332.229 60.1066 332.802 59.6694 333.599 58.6978C334.698 57.2978 335.372 55.6117 335.542 53.8398C335.67 52.6301 335.551 51.407 335.192 50.2448C334.777 48.9118 334.008 47.7163 332.967 46.7859C331.765 45.7363 330.31 45.0191 328.745 44.7055C327.181 44.3919 325.561 44.4928 324.048 44.9982C323.756 45.0954 323.484 45.2411 323.212 45.3577C322.94 45.4743 322.697 45.6492 322.445 45.7949L322.056 46.0087V45.5812C322.048 44.8285 321.768 44.1041 321.269 43.5408C320.758 42.9941 320.13 42.5691 319.433 42.2972C318.113 41.7472 316.651 41.6382 315.265 41.9862C312.583 42.5984 310.309 43.8226 308.162 44.0752C306.478 44.3678 304.746 44.0213 303.304 43.1036C302.924 42.8418 302.594 42.5125 302.333 42.132C302.177 41.8697 302.099 41.7239 302.119 41.7142C302.471 42.194 302.901 42.6111 303.392 42.9481C304.81 43.767 306.476 44.0464 308.084 43.7351C309.203 43.5246 310.297 43.199 311.349 42.7635C312.584 42.2699 313.85 41.8577 315.138 41.5296C315.857 41.3558 316.595 41.2806 317.334 41.3061C318.114 41.3473 318.88 41.5249 319.598 41.8308C320.341 42.1482 321.004 42.626 321.541 43.2299C322.116 43.8876 322.439 44.7274 322.454 45.6006L322.066 45.3868L322.872 44.9205C323.173 44.8039 323.455 44.6484 323.766 44.5416C325.361 43.9953 327.073 43.881 328.726 44.2103C330.38 44.5397 331.917 45.301 333.181 46.4167C334.274 47.406 335.073 48.6764 335.493 50.0894C335.929 51.5869 335.988 53.1691 335.664 54.6948C335.34 56.2205 334.644 57.6424 333.637 58.8338C333.317 59.199 332.955 59.5251 332.559 59.8054C332.461 59.9188 332.351 60.0199 332.229 60.1066Z" fill="#455A64"/>
<path d="M330.966 38.1392C330.328 37.8154 329.647 37.5831 328.945 37.4493C328.141 37.3395 327.324 37.416 326.554 37.6728C325.558 37.9775 324.693 38.6068 324.096 39.4605L323.853 39.8006L323.708 39.412C323.2 38.2176 322.384 37.1801 321.342 36.4065C320.3 35.6328 319.071 35.151 317.781 35.0106C315.755 34.9344 313.758 35.5136 312.087 36.6623C310.664 37.5902 309.15 38.3715 307.569 38.9942C306.48 39.4064 305.306 39.5465 304.149 39.4022C303.841 39.3453 303.539 39.2608 303.246 39.1496C303.051 39.0622 302.945 39.0136 302.954 38.9942C302.964 38.9747 303.392 39.1205 304.179 39.1982C305.296 39.268 306.415 39.0854 307.453 38.6638C308.989 37.9939 310.462 37.1875 311.854 36.2543C312.714 35.7203 313.625 35.2744 314.575 34.9232C315.618 34.5427 316.734 34.3999 317.839 34.5054C319.217 34.6558 320.529 35.1771 321.634 36.0138C322.739 36.8504 323.597 37.9711 324.116 39.2565H323.737C324.405 38.3434 325.359 37.68 326.448 37.3716C327.275 37.1318 328.146 37.0886 328.993 37.2453C329.529 37.3471 330.043 37.5446 330.509 37.8283C330.675 37.9096 330.829 38.0143 330.966 38.1392V38.1392Z" fill="#455A64"/>
<path d="M318.17 71.6982C317.943 71.5084 317.678 71.3688 317.394 71.2884C317.109 71.2081 316.811 71.1888 316.518 71.2318C316.176 71.3049 315.853 71.449 315.57 71.6549C315.287 71.8608 315.051 72.1238 314.876 72.4269C314.876 72.4269 314.827 72.4755 314.818 72.5046C314.684 72.7265 314.623 72.9847 314.643 73.243C314.685 73.5245 314.796 73.7912 314.965 74.0199C315.135 74.2486 315.357 74.4322 315.614 74.5547C316.025 74.7629 316.49 74.8391 316.946 74.7731C317.401 74.707 317.825 74.5018 318.16 74.1855C318.478 73.8499 318.655 73.4058 318.657 72.9438C318.659 72.4817 318.485 72.0363 318.17 71.6982V71.6982Z" fill="#FF725E"/>
<path d="M318.655 74.7197C318.578 74.7197 318.49 74.4283 318.228 74.0299C317.912 73.4959 317.44 73.0716 316.875 72.8145C316.31 72.5573 315.68 72.4797 315.07 72.5919C314.594 72.66 314.303 72.796 314.274 72.728C314.244 72.66 314.468 72.4268 314.992 72.2422C315.679 72.0212 316.424 72.0627 317.081 72.3588C317.745 72.6543 318.27 73.1934 318.549 73.8647C318.753 74.37 318.723 74.71 318.655 74.7197Z" fill="#263238"/>
<path d="M298.825 75.9244C298.825 75.9244 299.107 76.4102 298.738 77.1486C298.529 77.5904 298.161 77.9374 297.708 78.1202C297.425 78.2215 297.122 78.2557 296.824 78.2203C296.525 78.1849 296.239 78.0808 295.988 77.9162C295.732 77.7607 295.516 77.5483 295.356 77.2955C295.196 77.0427 295.096 76.7563 295.065 76.4588C295.036 75.9788 295.177 75.504 295.463 75.1179C295.969 74.4767 296.532 74.4573 296.532 74.5156C296.532 74.5739 296.105 74.739 295.765 75.322C295.568 75.6486 295.486 76.0316 295.531 76.4102C295.568 76.6319 295.652 76.8432 295.777 77.0293C295.903 77.2155 296.068 77.3722 296.26 77.4887C296.45 77.61 296.663 77.69 296.885 77.7235C297.108 77.7569 297.335 77.7431 297.552 77.683C297.911 77.5546 298.22 77.3167 298.436 77.0029C298.815 76.4005 298.747 75.9244 298.825 75.9244Z" fill="#FF725E"/>
<path d="M295.551 75.5457C295.599 75.5457 295.551 75.8761 295.094 76.0898C294.87 76.183 294.623 76.2101 294.384 76.1678C294.145 76.1255 293.923 76.0156 293.744 75.8511C293.565 75.6866 293.437 75.4744 293.375 75.2395C293.313 75.0046 293.32 74.7569 293.394 74.5255C293.489 74.2628 293.671 74.0401 293.909 73.894C294.307 73.6511 294.608 73.7483 294.599 73.8066C294.589 73.8649 294.365 73.9329 294.123 74.1758C294.003 74.3251 293.93 74.5064 293.913 74.6969C293.896 74.8874 293.936 75.0787 294.027 75.2467C294.119 75.4148 294.257 75.5522 294.427 75.6417C294.596 75.7312 294.787 75.7688 294.978 75.7498C295.308 75.6817 295.483 75.5069 295.551 75.5457Z" fill="#FF725E"/>
<path d="M306.229 161.834C306.229 161.834 330.285 163.233 344.51 163.359C355.518 163.466 360.434 160.541 362.63 153.458C364.476 147.522 360.512 136.125 360.512 136.125C353.06 136.125 348.464 137.194 343.674 139.438L344.947 144.646L306.161 147.988L306.229 161.834Z" fill="#FFBE9D"/>
<path d="M353.031 150.203C351.987 148.847 350.769 147.635 349.407 146.599C347.945 145.705 346.37 145.012 344.723 144.539C345.242 144.464 345.771 144.511 346.268 144.675C347.491 144.964 348.65 145.474 349.688 146.181C350.729 146.89 351.628 147.786 352.341 148.824C352.885 149.62 353.089 150.174 353.031 150.203Z" fill="#EB996E"/>
<path d="M297.426 139.399C297.426 139.399 289.984 141.187 284.513 144.84L290.343 160.638C292.286 165.827 298.223 168.411 302.974 165.691C310.29 161.503 312.874 149.3 312.874 149.3L320.91 114.439L307.589 106.093L297.475 139.399" fill="#FFBE9D"/>
<path d="M307.54 106.093L308.084 94.6277L305.102 82.9685C304.936 82.3273 304.859 81.5208 305.383 81.1322C305.644 80.9327 305.965 80.8295 306.292 80.8401C306.62 80.8507 306.934 80.9745 307.181 81.1905C307.987 82.0261 311.874 92.2182 311.874 92.2182C311.874 92.2182 317.771 88.6815 318.821 88.5066C319.87 88.3317 321.182 91.5089 321.269 91.7518C321.308 92.4638 321.308 93.1773 321.269 93.8893C321.269 93.8893 324.913 93.9962 325.243 94.4917C325.508 95.504 325.648 96.5448 325.661 97.5911C325.661 97.5911 327.205 98.0866 327.448 99.2525C327.691 100.418 328.197 102.342 327.448 102.77C326.7 103.197 325.185 104.033 325.185 104.033C325.185 104.033 324.572 109.979 324.407 110.523C324.242 111.067 320.832 114.409 320.832 114.409L307.54 106.093Z" fill="#FFBE9D"/>
<path d="M295.143 165.924C295.143 165.924 295.502 166.138 296.26 166.38C297.368 166.728 298.541 166.821 299.69 166.652C301.536 166.389 303.265 165.592 304.664 164.36C306.514 162.682 308.076 160.712 309.289 158.53C310.004 157.247 310.605 155.904 311.087 154.517C311.592 152.991 312.01 151.437 312.34 149.863C313.098 146.589 313.924 143.062 314.798 139.312C316.547 131.821 318.51 123.445 320.628 114.419V114.351H320.676C321.347 113.691 322.017 113.02 322.688 112.321C323.018 111.971 323.348 111.621 323.659 111.262C323.815 111.077 323.98 110.892 324.106 110.708C324.204 110.525 324.261 110.322 324.271 110.115C324.534 108.172 324.738 106.161 324.951 104.13V104.004L325.068 103.945L326.924 102.906C327.06 102.818 327.273 102.721 327.361 102.644C327.454 102.559 327.515 102.446 327.536 102.323C327.581 102.001 327.581 101.674 327.536 101.351C327.442 100.639 327.296 99.9341 327.099 99.2429C326.768 98.6385 326.213 98.1883 325.554 97.9895L325.389 97.9312V97.7661C325.389 97.2025 325.33 96.6196 325.262 96.0463C325.236 95.7592 325.194 95.4738 325.136 95.1913C325.113 95.0668 325.074 94.9459 325.019 94.8318C325.019 94.7638 325.019 94.8318 324.961 94.7735C324.908 94.7458 324.853 94.7231 324.796 94.7055C323.627 94.4509 322.436 94.3174 321.24 94.3072H320.987V94.0546C320.987 93.4522 320.987 92.7818 320.987 92.1114C320.947 91.8827 320.868 91.6625 320.754 91.4604C320.657 91.2272 320.54 91.0037 320.424 90.7706C320.196 90.3205 319.93 89.8914 319.627 89.488C319.49 89.3001 319.322 89.136 319.131 89.0022C319.061 88.9427 318.975 88.9054 318.883 88.895C318.791 88.8846 318.699 88.9016 318.617 88.9439C318.146 89.124 317.689 89.335 317.247 89.5755C315.439 90.5471 313.671 91.5187 311.942 92.568L311.689 92.7235L311.582 92.4514C310.669 90.1487 309.756 87.8752 308.862 85.6502C308.415 84.5329 307.978 83.4155 307.531 82.3176C307.462 82.0717 307.325 81.8501 307.136 81.6783C306.947 81.5064 306.713 81.3913 306.462 81.346C306.23 81.269 305.978 81.2732 305.749 81.3579C305.519 81.4426 305.325 81.6029 305.199 81.8124C305.078 82.0208 305.027 82.2626 305.053 82.5022C305.053 82.716 305.189 83.0463 305.247 83.3087C305.403 83.8722 305.549 84.426 305.694 84.9798C305.986 86.0972 306.268 87.1951 306.559 88.2833C307.129 90.4726 307.689 92.6101 308.24 94.6958V94.7638C308.046 98.7539 307.861 102.575 307.686 106.229V106.209L298.835 135.007L296.338 143.023C296.046 143.927 295.823 144.636 295.667 145.132C295.512 145.627 295.415 145.841 295.415 145.841C295.415 145.841 295.463 145.588 295.599 145.112L296.211 142.984C296.775 141.109 297.581 138.398 298.602 134.939C300.7 127.983 303.683 118.053 307.288 106.083V106.132C307.456 102.491 307.628 98.6697 307.803 94.6667V94.7347C307.249 92.6457 306.676 90.5082 306.102 88.3318L305.228 85.0284C305.082 84.4746 304.936 83.9111 304.781 83.3573C304.697 83.0663 304.629 82.7712 304.577 82.4731C304.541 82.1358 304.613 81.7959 304.781 81.5015C304.961 81.1984 305.238 80.9655 305.568 80.8408C305.894 80.7454 306.239 80.7345 306.571 80.8093C306.902 80.8841 307.209 81.0421 307.463 81.2683C307.706 81.4971 307.887 81.7849 307.987 82.1039L309.318 85.4365C310.222 87.6711 311.126 89.9447 312.049 92.2377L311.689 92.1114C313.428 91.0815 315.177 90.0516 317.023 89.0897C317.49 88.8458 317.97 88.6285 318.461 88.4387C318.615 88.3749 318.782 88.3514 318.947 88.3707C319.113 88.3947 319.272 88.4544 319.413 88.5456C319.647 88.7135 319.854 88.9167 320.025 89.148C320.35 89.5731 320.633 90.0287 320.871 90.5082C320.997 90.7511 321.114 90.9843 321.22 91.2272C321.359 91.4845 321.451 91.764 321.492 92.0531C321.492 92.7429 321.492 93.3841 321.492 93.9963L321.25 93.7339C322.499 93.7423 323.743 93.8856 324.961 94.1614C325.045 94.1906 325.126 94.2264 325.204 94.2683C325.311 94.3265 325.398 94.4142 325.457 94.5209C325.532 94.6786 325.587 94.8451 325.622 95.0164C325.68 95.3273 325.719 95.6188 325.758 95.92C325.816 96.5127 325.855 97.0957 325.884 97.6786L325.709 97.4454C326.107 97.562 326.476 97.7582 326.795 98.0221C327.114 98.286 327.376 98.6121 327.565 98.9806C327.778 99.7189 327.934 100.472 328.031 101.235C328.099 101.624 328.099 102.021 328.031 102.41C327.989 102.646 327.865 102.859 327.682 103.013C327.522 103.119 327.357 103.217 327.186 103.304L325.34 104.266L325.466 104.081C325.243 106.112 325.039 108.104 324.767 110.076L324.708 110.455C324.686 110.609 324.622 110.753 324.524 110.873C324.381 111.086 324.222 111.287 324.048 111.475C323.717 111.845 323.387 112.204 323.076 112.554C322.406 113.253 321.735 113.924 321.055 114.584L321.123 114.468C318.986 123.484 317.004 131.859 315.226 139.351C314.342 143.091 313.496 146.618 312.719 149.883C312.386 151.468 311.958 153.032 311.436 154.566C310.936 155.966 310.319 157.321 309.59 158.617C308.349 160.828 306.75 162.817 304.859 164.505C303.418 165.746 301.644 166.536 299.758 166.779C298.584 166.936 297.389 166.817 296.27 166.429C295.985 166.324 295.709 166.198 295.444 166.05L295.143 165.924Z" fill="#EB996E"/>
<path d="M321.279 93.9186C321.279 93.9866 320.948 94.0255 320.433 94.0449C319.78 94.0574 319.129 94.1355 318.49 94.2781C317.874 94.4295 317.306 94.7336 316.839 95.1623C316.489 95.4926 316.333 95.7744 316.256 95.7452C316.178 95.7161 316.256 95.3663 316.576 94.9194C317.029 94.3536 317.658 93.9566 318.364 93.7923C319.044 93.6247 319.75 93.5917 320.443 93.6952C320.968 93.7632 321.279 93.8506 321.279 93.9186Z" fill="#EB996E"/>
<path d="M318.461 94.0256C318.335 93.977 318.325 93.6758 318.461 93.3552C318.597 93.0346 318.791 92.8111 318.918 92.8597C319.044 92.9082 319.063 93.2094 318.918 93.5301C318.772 93.8507 318.558 94.0742 318.461 94.0256Z" fill="#EB996E"/>
<path d="M325.826 97.5525C324.883 97.8443 323.898 97.9789 322.911 97.9508C322.6 97.9405 322.292 98.0048 322.011 98.1383C321.731 98.2719 321.486 98.4708 321.298 98.7184C321.046 99.1168 321.133 99.4471 321.055 99.4665C320.978 99.486 320.744 99.1459 320.987 98.563C321.121 98.2347 321.365 97.9633 321.677 97.7954C322.037 97.598 322.434 97.4788 322.843 97.4456C323.835 97.2937 324.847 97.33 325.826 97.5525V97.5525Z" fill="#EB996E"/>
<path d="M325.185 101.05C325.321 101.05 325.398 101.769 325.359 102.653C325.321 103.537 325.175 104.237 325.039 104.237C324.903 104.237 324.815 103.508 324.854 102.624C324.893 101.74 325.039 101.04 325.185 101.05Z" fill="#EB996E"/>
<path d="M329.217 127.215L330.082 124.242C330.121 124.106 330.195 123.982 330.297 123.884C330.399 123.785 330.525 123.715 330.662 123.679C330.799 123.644 330.943 123.645 331.08 123.682C331.217 123.72 331.341 123.792 331.442 123.892L332.579 125.048L333.278 122.24C333.319 122.078 333.409 121.933 333.536 121.823C333.663 121.714 333.82 121.646 333.986 121.629C334.153 121.612 334.321 121.647 334.467 121.728C334.613 121.81 334.73 121.934 334.803 122.085L336.387 125.408L329.217 127.215Z" fill="white"/>
<path d="M336.407 126.681C335.32 127.206 334.166 127.579 332.977 127.788C331.827 128.164 330.63 128.373 329.421 128.41C331.658 127.512 334.009 126.93 336.407 126.681V126.681Z" fill="white"/>
<path d="M278.626 110.096C278.626 110.096 278.266 110.465 277.761 111.252C277.083 112.373 276.637 113.618 276.449 114.915C276.172 116.845 276.114 118.801 276.274 120.744C276.381 122.95 276.556 125.36 276.828 127.886C277.288 132.2 277.973 136.487 278.878 140.73C279.218 142.363 279.529 143.645 279.743 144.617C279.84 145.025 279.928 145.365 279.996 145.656C280.064 145.948 280.073 146.025 280.073 146.025C280.073 146.025 280.025 145.909 279.957 145.676C279.889 145.442 279.782 145.034 279.675 144.636C279.432 143.732 279.102 142.431 278.703 140.798C277.759 136.557 277.055 132.265 276.595 127.944C276.323 125.418 276.158 122.999 276.061 120.793C275.913 118.848 275.985 116.892 276.274 114.963C276.483 113.65 276.959 112.393 277.673 111.271C277.936 110.838 278.257 110.443 278.626 110.096V110.096Z" fill="white"/>
<path d="M299.078 96.8622L298.854 96.9788L298.213 97.2897C297.659 97.552 296.853 97.9406 295.891 98.475C293.383 99.8735 290.948 101.398 288.594 103.042C285.815 104.985 283.357 106.753 281.56 108.036L279.432 109.542L278.839 109.94C278.773 109.993 278.701 110.038 278.625 110.076C278.681 110.011 278.746 109.955 278.82 109.911L279.383 109.483L281.472 107.919C283.25 106.607 285.699 104.781 288.478 102.876C290.836 101.225 293.288 99.7136 295.823 98.3487C296.794 97.8338 297.611 97.4646 298.184 97.2217L298.835 96.9496C299.029 96.8816 299.029 96.8525 299.078 96.8622Z" fill="white"/>
<path d="M345.413 103.188C345.352 103.154 345.297 103.111 345.248 103.061L344.811 102.682C344.269 102.225 343.702 101.8 343.111 101.41C341.138 100.152 339.045 99.0943 336.863 98.252C334.688 97.3902 332.466 96.6506 330.208 96.0367C329.333 95.7938 328.634 95.6189 328.138 95.5023L327.584 95.3566C327.517 95.3426 327.452 95.3198 327.39 95.2886H327.594L328.158 95.3955C328.653 95.4926 329.362 95.6481 330.237 95.8715C332.516 96.447 334.756 97.1707 336.941 98.0382C339.136 98.8803 341.231 99.9621 343.188 101.264C344.003 101.815 344.75 102.461 345.413 103.188V103.188Z" fill="white"/>
<path d="M299.35 177.35C299.218 177.326 299.09 177.284 298.971 177.223C298.633 177.075 298.308 176.9 297.999 176.699C297.476 176.385 297.019 175.971 296.656 175.481C296.293 174.991 296.029 174.434 295.881 173.842C295.614 172.647 295.748 171.398 296.26 170.286C296.408 169.941 296.597 169.615 296.824 169.315C296.979 169.111 297.086 169.013 297.096 169.023C296.831 169.438 296.594 169.869 296.386 170.315C295.935 171.407 295.83 172.611 296.085 173.765C296.364 174.903 297.056 175.898 298.028 176.553C298.835 177.136 299.369 177.311 299.35 177.35Z" fill="white"/>
<path d="M296.26 166.827C296.467 167.213 296.62 167.625 296.717 168.051C296.869 168.46 296.96 168.889 296.989 169.324C296.768 168.948 296.61 168.537 296.522 168.11C296.363 167.7 296.274 167.266 296.26 166.827Z" fill="white"/>
<path d="M309.396 384.67L339.03 384.524L338.495 282.069L338.214 177.846L298.057 177.331L290.838 190.933C287.885 196.401 286.002 202.383 285.291 208.558C284.805 213.28 288.341 228.631 289.566 232.517L300.613 267.553L309.396 384.67Z" fill="#263238"/>
<path d="M346.91 177.971L379.478 266.746C381.407 272.466 382.048 278.542 381.354 284.539C380.66 290.535 378.649 296.304 375.465 301.432L337.65 375.274L316.392 348.672L348.027 282.603L320.142 237.375L324.835 178.107L337.971 177.894L346.91 177.971Z" fill="#263238"/>
<path d="M335.513 207.712C335.513 207.712 335.513 207.868 335.513 208.169C335.513 208.47 335.561 208.937 335.6 209.51C335.668 210.705 335.756 212.425 335.872 214.65C336.096 219.148 336.407 225.609 336.844 233.586C337.281 241.563 337.65 251.075 338.136 261.665C338.369 266.951 338.622 272.499 338.874 278.251C339.059 281.165 338.981 284.08 339.01 286.995C339.04 289.91 339.01 292.98 339.01 296.031C339.01 320.447 339.088 342.551 339.117 358.573C339.117 366.559 339.117 373.03 339.117 377.529C339.117 379.754 339.117 381.483 339.117 382.688C339.117 383.251 339.117 383.659 339.117 384.029C339.117 384.398 339.117 384.485 339.117 384.485C339.117 384.485 339.117 384.33 339.117 384.029V382.688C339.117 381.483 339.117 379.773 339.059 377.529C339.059 373.03 338.981 366.569 338.923 358.582C338.855 342.561 338.768 320.457 338.67 296.041C338.67 292.99 338.67 289.978 338.67 287.005C338.67 284.032 338.729 281.097 338.544 278.26C338.301 272.518 338.058 266.97 337.835 261.685C337.388 251.114 336.98 241.602 336.649 233.596C336.319 225.59 336.076 219.158 335.892 214.659C335.814 212.444 335.756 210.715 335.717 209.51C335.717 208.937 335.717 208.538 335.717 208.169C335.717 207.8 335.513 207.712 335.513 207.712Z" fill="#455A64"/>
<path d="M334.765 179.72C334.878 180.033 334.947 180.36 334.969 180.692C335.075 181.314 335.192 182.217 335.328 183.344C335.581 185.589 335.853 188.708 336.008 192.157C336.164 195.606 336.173 198.734 336.125 200.998C336.125 202.125 336.057 203.048 336.008 203.68C336.018 204.008 335.979 204.335 335.892 204.651C335.769 203.438 335.727 202.217 335.765 200.998C335.765 198.734 335.658 195.625 335.503 192.176C335.348 188.727 335.134 185.628 334.969 183.432C334.83 182.199 334.762 180.96 334.765 179.72V179.72Z" fill="#455A64"/>
<path d="M328.235 181.722C328.284 181.79 327.73 182.043 327.575 182.829C327.531 183.043 327.543 183.264 327.609 183.472C327.676 183.679 327.794 183.866 327.954 184.015C328.146 184.194 328.385 184.313 328.644 184.36C328.902 184.406 329.169 184.378 329.411 184.277C329.644 184.157 329.838 183.974 329.972 183.749C330.106 183.524 330.174 183.266 330.169 183.004C330.16 182.787 330.095 182.575 329.982 182.39C329.868 182.205 329.708 182.051 329.518 181.945C329.123 181.754 328.682 181.677 328.245 181.722C328.245 181.722 328.342 181.596 328.595 181.518C328.959 181.429 329.343 181.467 329.683 181.625C329.954 181.738 330.189 181.924 330.361 182.162C330.532 182.401 330.634 182.682 330.655 182.975C330.693 183.337 330.617 183.702 330.438 184.018C330.258 184.334 329.984 184.587 329.653 184.739C329.323 184.891 328.953 184.936 328.596 184.867C328.239 184.798 327.912 184.619 327.662 184.355C327.456 184.15 327.309 183.892 327.239 183.609C327.169 183.326 327.177 183.03 327.264 182.752C327.361 182.388 327.581 182.069 327.886 181.848C328.08 181.712 328.226 181.693 328.235 181.722Z" fill="#455A64"/>
<path d="M312.69 179.963C312.833 180.27 312.922 180.598 312.952 180.935C313.108 181.807 313.138 182.697 313.04 183.578C312.9 184.889 312.521 186.163 311.922 187.338C311.199 188.799 310.128 190.06 308.803 191.01C307.478 191.961 305.94 192.571 304.324 192.788C303.031 192.982 301.713 192.932 300.438 192.643C299.575 192.455 298.744 192.145 297.97 191.72C297.678 191.581 297.409 191.398 297.173 191.176C298.247 191.659 299.367 192.033 300.516 192.293C301.898 192.58 303.324 192.578 304.705 192.286C306.086 191.995 307.391 191.42 308.539 190.598C309.687 189.776 310.651 188.726 311.373 187.512C312.094 186.299 312.555 184.949 312.729 183.549C312.843 182.356 312.83 181.154 312.69 179.963Z" fill="#455A64"/>
<path d="M350.815 188.475C350.181 188.548 349.539 188.471 348.94 188.251C347.472 187.789 346.154 186.944 345.122 185.803C344.08 184.667 343.365 183.27 343.052 181.761C342.899 181.145 342.899 180.501 343.052 179.886C343.14 179.886 343.149 180.595 343.441 181.683C343.835 183.089 344.551 184.384 345.532 185.465C346.514 186.546 347.734 187.384 349.096 187.911C350.106 188.31 350.825 188.378 350.815 188.475Z" fill="#455A64"/>
<path d="M362.387 284.177C361.9 284.733 361.318 285.196 360.667 285.547C359.985 285.98 359.242 286.307 358.462 286.519C357.481 286.779 356.445 286.752 355.479 286.441C353.782 285.801 352.328 284.646 351.321 283.137C350.858 282.571 350.476 281.943 350.184 281.272C350.708 281.772 351.183 282.322 351.602 282.914C352.634 284.282 354.027 285.335 355.625 285.955C356.44 286.173 357.292 286.222 358.127 286.1C358.962 285.978 359.764 285.688 360.483 285.246C361.097 284.853 361.732 284.497 362.387 284.177V284.177Z" fill="#455A64"/>
<path d="M354.964 289.842C353.816 288.652 352.79 287.35 351.904 285.955C350.882 284.656 349.99 283.26 349.241 281.787C350.397 282.972 351.426 284.275 352.312 285.674C353.341 286.965 354.231 288.362 354.964 289.842V289.842Z" fill="#455A64"/>
<path d="M305.179 211.142C305.043 211.19 304.703 210.637 304.402 209.888C304.101 209.14 303.975 208.509 304.101 208.45C304.227 208.392 304.577 208.956 304.868 209.704C305.16 210.452 305.306 211.142 305.179 211.142Z" fill="#FAFAFA"/>
<path d="M323.99 213.843C323.844 213.843 323.737 213.367 323.737 212.774C323.737 212.182 323.844 211.696 323.99 211.696C324.135 211.696 324.242 212.182 324.242 212.774C324.242 213.367 324.126 213.843 323.99 213.843Z" fill="#FAFAFA"/>
<path d="M316.256 224.064C316.12 224.064 315.964 223.481 315.916 222.733C315.867 221.985 315.916 221.382 316.071 221.373C316.226 221.363 316.372 221.956 316.421 222.704C316.469 223.452 316.392 224.054 316.256 224.064Z" fill="#FAFAFA"/>
<path d="M302.129 231.545C302.012 231.633 301.614 231.273 301.089 230.904C300.564 230.535 300.117 230.253 300.117 230.117C300.117 229.981 300.759 230.059 301.351 230.486C301.944 230.914 302.245 231.545 302.129 231.545Z" fill="#FAFAFA"/>
<path d="M327.031 241.077C326.914 240.999 327.031 240.582 327.361 240.105C327.691 239.629 327.992 239.357 328.109 239.435C328.226 239.513 328.109 239.94 327.779 240.407C327.448 240.873 327.147 241.155 327.031 241.077Z" fill="#FAFAFA"/>
<path d="M311.66 243.768C311.524 243.768 311.407 242.962 311.407 241.981C311.407 240.999 311.524 240.183 311.66 240.183C311.796 240.183 311.913 240.99 311.913 241.981C311.913 242.972 311.767 243.768 311.66 243.768Z" fill="#FAFAFA"/>
<path d="M306.627 254.67C306.549 254.777 306.044 254.553 305.5 254.155C304.956 253.756 304.528 253.348 304.655 253.232C304.781 253.115 305.247 253.348 305.792 253.747C306.336 254.145 306.715 254.553 306.627 254.67Z" fill="#FAFAFA"/>
<path d="M322.192 258.459C322.25 258.585 321.939 258.848 321.493 259.052C321.046 259.256 320.638 259.304 320.579 259.178C320.521 259.052 320.842 258.789 321.289 258.585C321.735 258.381 322.144 258.333 322.192 258.459Z" fill="#FAFAFA"/>
<path d="M311.66 276.239C311.543 276.297 311.038 275.549 310.543 274.558C310.047 273.567 309.746 272.712 309.872 272.615C309.998 272.518 310.504 273.305 310.99 274.296C311.475 275.287 311.747 276.132 311.66 276.239Z" fill="#FAFAFA"/>
<path d="M328.828 274.587C328.702 274.519 328.925 273.868 329.314 273.12C329.703 272.372 330.14 271.828 330.286 271.896C330.431 271.964 330.188 272.615 329.79 273.363C329.392 274.111 328.945 274.655 328.828 274.587Z" fill="#FAFAFA"/>
<path d="M321.298 289.638C321.152 289.638 321.172 288.851 321.016 287.937C320.861 287.024 320.628 286.295 320.764 286.227C320.9 286.159 321.366 286.849 321.522 287.86C321.677 288.87 321.434 289.667 321.298 289.638Z" fill="#FAFAFA"/>
<path d="M313.234 298.236C313.137 298.334 312.651 297.964 312.155 297.42C311.66 296.876 311.339 296.361 311.446 296.264C311.553 296.167 312.029 296.536 312.525 297.08C313.02 297.624 313.341 298.139 313.234 298.236Z" fill="#FAFAFA"/>
<path d="M332.802 301.501C332.705 301.404 333.064 300.879 333.608 300.325C334.152 299.771 334.658 299.412 334.764 299.509C334.871 299.606 334.502 300.141 333.968 300.685C333.433 301.229 332.909 301.598 332.802 301.501Z" fill="#FAFAFA"/>
<path d="M321.551 314.374C321.415 314.374 321.415 313.607 321.551 312.713C321.687 311.819 321.901 311.12 322.046 311.139C322.192 311.158 322.182 311.897 322.046 312.791C321.91 313.685 321.687 314.394 321.551 314.374Z" fill="#FAFAFA"/>
<path d="M313.982 320.622C313.856 320.69 313.428 320.185 313.01 319.495C312.593 318.805 312.379 318.193 312.495 318.125C312.612 318.057 313.04 318.552 313.467 319.242C313.895 319.932 314.099 320.544 313.982 320.622Z" fill="#FAFAFA"/>
<path d="M332.219 328.501C332.306 328.618 331.811 329.114 331.111 329.609C330.412 330.105 329.8 330.416 329.712 330.299C329.625 330.182 330.13 329.687 330.82 329.191C331.51 328.696 332.141 328.395 332.219 328.501Z" fill="#FAFAFA"/>
<path d="M317.023 338.733C316.887 338.684 317.023 337.907 317.149 336.935C317.276 335.963 317.198 335.167 317.344 335.147C317.49 335.128 317.742 335.944 317.645 336.984C317.548 338.023 317.149 338.791 317.023 338.733Z" fill="#FAFAFA"/>
<path d="M323.096 353.423C322.979 353.51 322.571 353.18 322.173 352.684C321.774 352.189 321.551 351.713 321.658 351.625C321.764 351.538 322.173 351.868 322.571 352.364C322.969 352.859 323.202 353.335 323.096 353.423Z" fill="#FAFAFA"/>
<path d="M316.46 363.275C316.343 363.353 315.809 362.78 315.265 361.983C314.72 361.186 314.38 360.487 314.487 360.409C314.594 360.331 315.138 360.904 315.682 361.701C316.226 362.498 316.576 363.197 316.46 363.275Z" fill="#FAFAFA"/>
<path d="M334.735 350.907C334.609 350.858 334.619 350.499 334.735 350.11C334.852 349.721 335.114 349.43 335.25 349.478C335.386 349.527 335.367 349.887 335.25 350.285C335.134 350.683 334.871 350.965 334.735 350.907Z" fill="#FAFAFA"/>
<path d="M326.671 374.371C326.545 374.303 326.788 373.613 326.982 372.748C327.176 371.884 327.244 371.155 327.39 371.145C327.536 371.135 327.682 371.922 327.478 372.855C327.273 373.788 326.788 374.449 326.671 374.371Z" fill="#FAFAFA"/>
<path d="M331.918 224.22C331.791 224.278 331.481 223.89 331.228 223.345C330.975 222.801 330.868 222.316 330.995 222.257C331.121 222.199 331.432 222.588 331.685 223.132C331.937 223.676 332.063 224.162 331.918 224.22Z" fill="#FAFAFA"/>
<path d="M318.461 193.964C318.539 194.081 317.859 194.625 317.13 195.402C316.401 196.18 315.906 196.898 315.78 196.83C315.653 196.762 315.984 195.859 316.751 195.062C317.519 194.265 318.364 193.838 318.461 193.964Z" fill="#FAFAFA"/>
<path d="M330.441 193.653C330.295 193.653 330.072 193.099 329.732 192.439C329.392 191.778 329.081 191.234 329.188 191.137C329.294 191.04 329.819 191.467 330.159 192.205C330.499 192.944 330.567 193.575 330.441 193.653Z" fill="#FAFAFA"/>
<path d="M293.034 203.476C292.908 203.418 293.034 202.777 293.336 202.038C293.637 201.3 293.967 200.727 294.103 200.785C294.239 200.843 294.103 201.475 293.802 202.223C293.501 202.971 293.2 203.525 293.034 203.476Z" fill="#FAFAFA"/>
<path d="M294.249 218.147C294.152 218.254 293.598 217.943 293.005 217.448C292.412 216.952 292.034 216.476 292.092 216.359C292.15 216.243 292.743 216.563 293.336 217.059C293.928 217.554 294.336 218.04 294.249 218.147Z" fill="#FAFAFA"/>
<path d="M318.791 182.315C318.665 182.315 318.393 182.004 318.199 181.508C318.005 181.013 317.946 180.537 318.073 180.537C318.199 180.537 318.471 180.848 318.665 181.343C318.86 181.839 318.918 182.266 318.791 182.315Z" fill="#FAFAFA"/>
<path d="M342.294 189.485C342.158 189.485 342.168 188.873 342.294 188.183C342.421 187.493 342.673 186.949 342.809 186.978C342.945 187.007 342.936 187.6 342.809 188.29C342.683 188.98 342.43 189.514 342.294 189.485Z" fill="#FAFAFA"/>
<path d="M347.813 200.591C347.687 200.532 347.862 199.813 348.211 198.968C348.561 198.123 348.94 197.491 349.066 197.54C349.193 197.588 349.066 198.317 348.678 199.162C348.289 200.008 347.949 200.639 347.813 200.591Z" fill="#FAFAFA"/>
<path d="M343.878 209.549C343.752 209.607 343.285 208.936 342.839 208.052C342.392 207.168 342.139 206.381 342.265 206.323C342.392 206.265 342.848 206.935 343.295 207.819C343.742 208.703 344.004 209.481 343.878 209.549Z" fill="#FAFAFA"/>
<path d="M352.292 218.507C352.166 218.458 352.292 217.894 352.506 217.253C352.72 216.612 353.06 216.126 353.196 216.175C353.332 216.223 353.196 216.787 352.982 217.428C352.768 218.069 352.467 218.555 352.292 218.507Z" fill="#FAFAFA"/>
<path d="M344.772 227.28C344.655 227.358 344.354 227.096 344.111 226.707C343.868 226.318 343.752 225.93 343.878 225.852C344.004 225.774 344.286 226.037 344.539 226.435C344.791 226.833 344.889 227.212 344.772 227.28Z" fill="#FAFAFA"/>
<path d="M346.375 245.391C346.278 245.478 345.666 245.002 345.025 244.302C344.383 243.603 343.946 242.971 344.053 242.874C344.16 242.777 344.762 243.263 345.404 243.962C346.045 244.662 346.482 245.293 346.375 245.391Z" fill="#FAFAFA"/>
<path d="M356.237 234.985C356.13 235.072 355.596 234.587 355.052 233.887C354.507 233.188 354.158 232.566 354.265 232.478C354.371 232.391 354.906 232.886 355.45 233.576C355.994 234.266 356.354 234.907 356.237 234.985Z" fill="#FAFAFA"/>
<path d="M361.649 249.336C361.522 249.278 361.746 248.549 362.144 247.713C362.543 246.878 362.96 246.236 363.116 246.295C363.271 246.353 363.028 247.091 362.63 247.927C362.232 248.763 361.775 249.404 361.649 249.336Z" fill="#FAFAFA"/>
<path d="M350.145 261.15C350.019 261.218 349.572 260.684 348.95 260.111C348.328 259.537 347.755 259.139 347.813 258.993C347.871 258.848 348.61 259.11 349.29 259.741C349.97 260.373 350.261 261.082 350.145 261.15Z" fill="#FAFAFA"/>
<path d="M350.864 273.324C350.864 273.46 350.378 273.577 349.785 273.577C349.193 273.577 348.717 273.46 348.717 273.324C348.717 273.188 349.193 273.072 349.785 273.072C350.378 273.072 350.864 273.188 350.864 273.324Z" fill="#FAFAFA"/>
<path d="M362.688 269.924C362.562 269.856 362.815 269.244 362.999 268.486C363.184 267.728 363.262 267.067 363.407 267.058C363.553 267.048 363.709 267.757 363.495 268.603C363.281 269.448 362.795 270.002 362.688 269.924Z" fill="#FAFAFA"/>
<path d="M374.435 274.014C374.309 274.063 373.949 273.373 373.638 272.489C373.327 271.604 373.182 270.847 373.308 270.808C373.434 270.769 373.803 271.439 374.114 272.323C374.425 273.208 374.571 273.965 374.435 274.014Z" fill="#FAFAFA"/>
<path d="M372.56 290.726C372.443 290.658 372.744 289.842 373.23 288.899C373.716 287.957 374.202 287.248 374.347 287.316C374.493 287.384 374.173 288.2 373.677 289.132C373.182 290.065 372.686 290.813 372.56 290.726Z" fill="#FAFAFA"/>
<path d="M361.843 300.529C361.717 300.578 361.318 299.907 360.949 299.023C360.58 298.139 360.395 297.381 360.531 297.323C360.667 297.265 361.056 297.945 361.416 298.829C361.775 299.713 361.969 300.529 361.843 300.529Z" fill="#FAFAFA"/>
<path d="M349.97 304.328C349.97 304.464 349.562 304.58 349.066 304.58C348.571 304.58 348.173 304.464 348.173 304.328C348.173 304.192 348.581 304.075 349.066 304.075C349.552 304.075 349.97 304.192 349.97 304.328Z" fill="#FAFAFA"/>
<path d="M356.771 319.961C356.645 319.961 356.373 319.427 356.169 318.688C355.965 317.95 355.926 317.309 356.062 317.279C356.198 317.25 356.46 317.814 356.664 318.552C356.868 319.291 356.907 319.883 356.771 319.961Z" fill="#FAFAFA"/>
<path d="M348.173 314.714C348.056 314.646 348.173 314.19 348.493 313.694C348.814 313.199 349.135 312.859 349.251 312.927C349.368 312.995 349.251 313.461 348.93 313.957C348.61 314.452 348.299 314.792 348.173 314.714Z" fill="#FAFAFA"/>
<path d="M347.998 331.921C347.862 331.921 347.667 331.27 347.57 330.425C347.473 329.58 347.502 328.89 347.638 328.871C347.774 328.851 347.969 329.521 348.066 330.367C348.163 331.212 348.134 331.902 347.998 331.921Z" fill="#FAFAFA"/>
</svg>
