<svg width="803" height="598" viewBox="0 0 803 598" fill="none" xmlns="http://www.w3.org/2000/svg">
<path d="M802.555 525.513H0V525.914H802.555V525.513Z" fill="#E6E6E6"/>
<path d="M715.639 539.397H660.423V539.799H715.639V539.397Z" fill="#E6E6E6"/>
<path d="M416.767 539.397H400.266V539.799H416.767V539.397Z" fill="#E6E6E6"/>
<path d="M643.649 547.294H612.574V547.696H643.649V547.294Z" fill="#E6E6E6"/>
<path d="M185.599 540.344H116.274V540.746H185.599V540.344Z" fill="#E6E6E6"/>
<path d="M206.529 534.63H178.376V535.032H206.529V534.63Z" fill="#E6E6E6"/>
<path d="M512.576 551.628H362.209V552.029H512.576V551.628Z" fill="#E6E6E6"/>
<path d="M380.411 453.925H70.4804C68.0525 453.921 65.7254 452.953 64.01 451.235C62.2947 449.517 61.3313 447.188 61.3313 444.76V9.08492C61.3524 6.67088 62.3252 4.36266 64.0382 2.66162C65.7513 0.960591 68.0663 0.00413539 70.4804 0H380.411C382.842 0 385.173 0.965615 386.892 2.68442C388.611 4.40322 389.576 6.73442 389.576 9.16518V444.76C389.576 447.191 388.611 449.522 386.892 451.241C385.173 452.96 382.842 453.925 380.411 453.925V453.925ZM70.4804 0.321023C68.1589 0.325275 65.9339 1.25049 64.2938 2.89358C62.6537 4.53667 61.7326 6.76337 61.7326 9.08492V444.76C61.7326 447.082 62.6537 449.308 64.2938 450.951C65.9339 452.594 68.1589 453.52 70.4804 453.524H380.411C382.734 453.52 384.961 452.595 386.604 450.952C388.246 449.31 389.171 447.083 389.175 444.76V9.08492C389.171 6.7619 388.246 4.53523 386.604 2.8926C384.961 1.24996 382.734 0.325266 380.411 0.321023H70.4804Z" fill="#E6E6E6"/>
<path d="M727.613 453.925H417.666C415.236 453.921 412.908 452.954 411.19 451.236C409.472 449.518 408.505 447.189 408.501 444.76V9.08492C408.526 6.66941 409.502 4.36121 411.218 2.66062C412.933 0.96003 415.25 0.00409029 417.666 0H727.613C730.024 0.00835379 732.335 0.966676 734.044 2.66726C735.754 4.36784 736.725 6.67365 736.746 9.08492V444.76C736.746 447.185 735.784 449.512 734.073 451.229C732.361 452.947 730.038 453.917 727.613 453.925V453.925ZM417.666 0.321023C415.343 0.325266 413.116 1.24996 411.473 2.8926C409.831 4.53523 408.906 6.7619 408.902 9.08492V444.76C408.906 447.083 409.831 449.31 411.473 450.952C413.116 452.595 415.343 453.52 417.666 453.524H727.613C729.936 453.52 732.162 452.595 733.805 450.952C735.448 449.31 736.372 447.083 736.376 444.76V9.08492C736.372 6.7619 735.448 4.53523 733.805 2.8926C732.162 1.24996 729.936 0.325266 727.613 0.321023H417.666Z" fill="#E6E6E6"/>
<path d="M327.892 525.513H464.037C450.699 475.209 458.692 421.037 487.986 370.732H351.84C322.531 421.037 314.602 475.209 327.892 525.513Z" fill="#FAFAFA"/>
<path d="M323.253 443.01H460.875C465.601 417.534 474.767 393.085 487.954 370.781H350.347C337.161 393.087 327.99 417.534 323.253 443.01V443.01Z" fill="#E6E6E6"/>
<path d="M120.223 423.974L670.519 423.974C679.561 423.974 686.891 416.644 686.891 407.602V68.6985C686.891 59.6564 679.561 52.3264 670.519 52.3264L120.223 52.3264C111.181 52.3264 103.851 59.6564 103.851 68.6985V407.602C103.851 416.644 111.181 423.974 120.223 423.974Z" fill="#E6E6E6"/>
<path d="M127.943 423.974L678.239 423.974C687.281 423.974 694.611 416.644 694.611 407.602V68.6985C694.611 59.6564 687.281 52.3264 678.239 52.3264L127.943 52.3264C118.901 52.3264 111.571 59.6564 111.571 68.6985V407.602C111.571 416.644 118.901 423.974 127.943 423.974Z" fill="#F5F5F5"/>
<path d="M111.571 370.748L694.611 370.748V71.1544L111.571 71.1544V370.748Z" fill="white"/>
<path d="M403.107 409.191C409.268 409.191 414.263 404.196 414.263 398.035C414.263 391.874 409.268 386.88 403.107 386.88C396.946 386.88 391.952 391.874 391.952 398.035C391.952 404.196 396.946 409.191 403.107 409.191Z" fill="#E6E6E6"/>
<path d="M353.124 514.743H508.547C511.404 514.743 514.143 515.877 516.163 517.897C518.183 519.917 519.317 522.656 519.317 525.513H342.386C342.386 522.662 343.516 519.927 345.529 517.909C347.542 515.89 350.273 514.751 353.124 514.743V514.743Z" fill="#F5F5F5"/>
<path d="M316.207 514.743H344.039C346.893 514.747 349.628 515.884 351.645 517.903C353.661 519.922 354.794 522.659 354.794 525.513H305.356C305.358 524.093 305.641 522.686 306.188 521.375C306.735 520.064 307.536 518.874 308.544 517.874C309.552 516.873 310.748 516.081 312.063 515.544C313.378 515.007 314.786 514.734 316.207 514.743V514.743Z" fill="#E6E6E6"/>
<path d="M456.654 28.3304C456.65 25.9264 455.693 23.6222 453.993 21.9224C452.293 20.2226 449.989 19.2657 447.585 19.2615H165.086C162.683 19.2699 160.381 20.2281 158.682 21.927C156.983 23.6259 156.025 25.9277 156.017 28.3304V57.5113H456.654V28.3304Z" fill="#E6E6E6"/>
<path d="M383.349 45.2482C387.134 45.2482 390.202 42.1796 390.202 38.3943C390.202 34.6091 387.134 31.5405 383.349 31.5405C379.563 31.5405 376.495 34.6091 376.495 38.3943C376.495 42.1796 379.563 45.2482 383.349 45.2482Z" fill="white"/>
<path d="M407.634 45.2482C411.419 45.2482 414.488 42.1796 414.488 38.3943C414.488 34.6091 411.419 31.5405 407.634 31.5405C403.849 31.5405 400.78 34.6091 400.78 38.3943C400.78 42.1796 403.849 45.2482 407.634 45.2482Z" fill="white"/>
<path d="M431.935 45.2482C435.72 45.2482 438.789 42.1796 438.789 38.3943C438.789 34.6091 435.72 31.5405 431.935 31.5405C428.15 31.5405 425.081 34.6091 425.081 38.3943C425.081 42.1796 428.15 45.2482 431.935 45.2482Z" fill="white"/>
<path d="M165.166 254.057H447.665C450.066 254.053 452.368 253.098 454.068 251.402C455.767 249.705 456.726 247.405 456.734 245.004V57.5112H156.097V245.004C156.11 247.404 157.07 249.702 158.768 251.397C160.467 253.093 162.766 254.049 165.166 254.057V254.057Z" fill="#FAFAFA"/>
<path d="M476.878 58.6668C476.87 56.2685 475.913 53.9708 474.217 52.2749C472.521 50.579 470.224 49.6225 467.825 49.614H185.406C183.005 49.6182 180.703 50.5729 179.004 52.2692C177.305 53.9656 176.346 56.2657 176.337 58.6668V87.8638H476.878V58.6668Z" fill="#F5F5F5"/>
<path d="M403.573 75.5846C407.358 75.5846 410.427 72.516 410.427 68.7308C410.427 64.9455 407.358 61.877 403.573 61.877C399.788 61.877 396.719 64.9455 396.719 68.7308C396.719 72.516 399.788 75.5846 403.573 75.5846Z" fill="#E6E6E6"/>
<path d="M427.874 75.5846C431.659 75.5846 434.728 72.516 434.728 68.7308C434.728 64.9455 431.659 61.877 427.874 61.877C424.089 61.877 421.02 64.9455 421.02 68.7308C421.02 72.516 424.089 75.5846 427.874 75.5846Z" fill="#E6E6E6"/>
<path d="M459.062 68.7308C459.062 70.0863 458.66 71.4114 457.906 72.5385C457.153 73.6657 456.083 74.5441 454.831 75.0629C453.578 75.5816 452.2 75.7173 450.871 75.4529C449.541 75.1884 448.32 74.5357 447.361 73.5772C446.403 72.6186 445.75 71.3974 445.486 70.0679C445.221 68.7384 445.357 67.3603 445.876 66.1079C446.394 64.8556 447.273 63.7851 448.4 63.032C449.527 62.2789 450.852 61.877 452.208 61.877C454.025 61.877 455.769 62.599 457.054 63.8844C458.339 65.1697 459.062 66.913 459.062 68.7308V68.7308Z" fill="#E6E6E6"/>
<path d="M185.406 284.41H467.906C470.307 284.401 472.607 283.442 474.303 281.743C476 280.044 476.954 277.742 476.958 275.341V87.8638H176.337V275.341C176.342 277.745 177.298 280.049 178.998 281.749C180.698 283.448 183.002 284.405 185.406 284.41V284.41Z" fill="white"/>
<path d="M497.119 89.0196C497.115 86.6156 496.158 84.3114 494.458 82.6116C492.758 80.9118 490.454 79.9549 488.05 79.9507H205.631C203.227 79.9549 200.923 80.9118 199.223 82.6116C197.523 84.3114 196.566 86.6156 196.562 89.0196V118.2H497.119V89.0196Z" fill="#FAFAFA"/>
<path d="M423.813 105.937C427.599 105.937 430.667 102.869 430.667 99.0833C430.667 95.2981 427.599 92.2295 423.813 92.2295C420.028 92.2295 416.959 95.2981 416.959 99.0833C416.959 102.869 420.028 105.937 423.813 105.937Z" fill="#F0F0F0"/>
<path d="M448.099 105.937C451.884 105.937 454.953 102.869 454.953 99.0833C454.953 95.2981 451.884 92.2295 448.099 92.2295C444.313 92.2295 441.245 95.2981 441.245 99.0833C441.245 102.869 444.313 105.937 448.099 105.937Z" fill="#F0F0F0"/>
<path d="M479.254 99.0833C479.257 100.443 478.857 101.773 478.104 102.904C477.351 104.036 476.279 104.919 475.024 105.442C473.769 105.964 472.387 106.102 471.054 105.839C469.72 105.576 468.494 104.923 467.532 103.963C466.57 103.003 465.914 101.779 465.647 100.446C465.381 99.1125 465.516 97.7303 466.036 96.4741C466.555 95.2179 467.436 94.144 468.566 93.3884C469.696 92.6328 471.025 92.2295 472.384 92.2295C474.203 92.2295 475.948 92.9511 477.236 94.236C478.524 95.5208 479.25 97.2641 479.254 99.0833Z" fill="#F0F0F0"/>
<path d="M205.631 314.762H488.13C490.533 314.754 492.835 313.795 494.533 312.096C496.232 310.398 497.191 308.096 497.199 305.693V118.2H196.562V305.693C196.57 308.096 197.528 310.398 199.227 312.096C200.926 313.795 203.228 314.754 205.631 314.762V314.762Z" fill="#E6E6E6"/>
<path opacity="0.5" d="M573.024 198.071H469.511V352.643H624.099V198.071H573.024ZM521.902 199.275H571.805V249.194H521.853L521.902 199.275ZM571.805 300.316H521.853V250.397H571.756L571.805 300.316ZM470.779 199.275H520.682V249.194H470.731L470.779 199.275ZM470.779 250.397H520.682V300.316H470.731L470.779 250.397ZM520.634 351.519H470.731V301.6H520.634V351.519ZM571.756 351.519H521.853V301.6H571.756V351.519ZM622.879 351.519H573.024V301.6H622.927L622.879 351.519ZM622.879 300.397H573.024V250.397H622.927L622.879 300.397ZM573.024 249.194V199.275H622.927V249.194H573.024Z" fill="#E6E6E6"/>
<path d="M531.259 174.267L711.69 174.267V92.2136L531.259 92.2136V174.267Z" fill="#F5F5F5"/>
<path d="M711.69 124.203V174.283H531.292V112.085C561.227 112.085 577.198 139.532 614.228 139.532C651.257 139.532 662.413 124.203 711.69 124.203Z" fill="white"/>
<path d="M711.69 148.136C671.145 148.136 657.758 130.207 634.982 130.207C612.205 130.207 601.017 149.035 572.639 149.035C543.073 149.035 531.259 134.235 531.259 134.235V174.363H711.69V148.136Z" fill="#E6E6E6"/>
<path d="M401.278 598C573.157 598 712.492 589.865 712.492 579.83C712.492 569.795 573.157 561.66 401.278 561.66C229.398 561.66 90.0627 569.795 90.0627 579.83C90.0627 589.865 229.398 598 401.278 598Z" fill="#F5F5F5"/>
<path d="M324.232 251.232C317.51 227.179 320.185 201.471 331.713 179.317C343.242 157.163 362.762 140.22 386.318 131.924L392.369 151.089C373.92 157.803 358.662 171.196 349.612 188.619C340.562 206.041 338.378 226.226 343.494 245.18L324.232 251.232Z" fill="#407BFF"/>
<path d="M373.333 311.777C365.767 307.87 358.75 302.98 352.466 297.234C340.543 286.304 331.496 272.605 326.126 257.347L345.291 251.296C349.771 263.709 357.316 274.788 367.226 283.502C377.136 292.217 389.089 298.284 401.972 301.14C414.856 303.995 428.253 303.547 440.917 299.836C453.581 296.125 465.101 289.273 474.406 279.915L489.222 293.495C474.403 308.541 455.149 318.437 434.289 321.728C413.429 325.019 392.063 321.531 373.333 311.777V311.777Z" fill="#407BFF"/>
<path opacity="0.7" d="M373.333 311.777C365.767 307.87 358.75 302.98 352.466 297.234C340.543 286.304 331.496 272.605 326.126 257.347L345.291 251.296C349.771 263.709 357.316 274.788 367.226 283.502C377.136 292.217 389.089 298.284 401.972 301.14C414.856 303.995 428.253 303.547 440.917 299.836C453.581 296.125 465.101 289.273 474.406 279.915L489.222 293.495C474.403 308.541 455.149 318.437 434.289 321.728C413.429 325.019 392.063 321.531 373.333 311.777V311.777Z" fill="white"/>
<path d="M478.82 275.18C489.575 262.432 495.976 246.582 497.09 229.942C498.204 213.301 493.973 196.739 485.014 182.671C476.055 168.604 462.836 157.766 447.285 151.738C431.734 145.711 414.665 144.808 398.565 149.163L392.514 129.902C417.109 123.013 443.42 125.958 465.884 138.112C488.349 150.267 505.207 170.68 512.897 195.037C517.897 210.991 518.761 227.954 515.409 244.333C512.056 260.713 504.597 275.972 493.732 288.679L478.82 275.18Z" fill="#407BFF"/>
<path opacity="0.3" d="M478.82 275.18C489.575 262.432 495.976 246.582 497.09 229.942C498.204 213.301 493.973 196.739 485.014 182.671C476.055 168.604 462.836 157.766 447.285 151.738C431.734 145.711 414.665 144.808 398.565 149.163L392.514 129.902C417.109 123.013 443.42 125.958 465.884 138.112C488.349 150.267 505.207 170.68 512.897 195.037C517.897 210.991 518.761 227.954 515.409 244.333C512.056 260.713 504.597 275.972 493.732 288.679L478.82 275.18Z" fill="black"/>
<path d="M437.312 200.96C435.044 198.691 432.351 196.891 429.388 195.662C426.424 194.434 423.247 193.801 420.039 193.8C416.831 193.8 413.654 194.431 410.689 195.658C407.725 196.885 405.031 198.684 402.762 200.952C400.493 203.22 398.693 205.913 397.464 208.876C396.236 211.84 395.603 215.017 395.603 218.225C395.602 221.433 396.233 224.61 397.46 227.575C398.687 230.539 400.486 233.233 402.754 235.502L420.025 252.773L437.312 235.502C441.892 230.921 444.464 224.708 444.464 218.231C444.464 211.753 441.892 205.541 437.312 200.96V200.96Z" fill="#407BFF"/>
<path opacity="0.3" d="M437.312 200.96C435.044 198.691 432.351 196.891 429.388 195.662C426.424 194.434 423.247 193.801 420.039 193.8C416.831 193.8 413.654 194.431 410.689 195.658C407.725 196.885 405.031 198.684 402.762 200.952C400.493 203.22 398.693 205.913 397.464 208.876C396.236 211.84 395.603 215.017 395.603 218.225C395.602 221.433 396.233 224.61 397.46 227.575C398.687 230.539 400.486 233.233 402.754 235.502L420.025 252.773L437.312 235.502C441.892 230.921 444.464 224.708 444.464 218.231C444.464 211.753 441.892 205.541 437.312 200.96V200.96Z" fill="black"/>
<path d="M421.004 257.893H419.078V265.598H421.004V257.893Z" fill="#407BFF"/>
<path opacity="0.3" d="M421.004 257.893H419.078V265.598H421.004V257.893Z" fill="black"/>
<path d="M421.004 271.552H419.078V279.257H421.004V271.552Z" fill="#407BFF"/>
<path opacity="0.3" d="M421.004 271.552H419.078V279.257H421.004V271.552Z" fill="black"/>
<path d="M353.365 333.895H287.989V570.617H353.365V333.895Z" fill="#407BFF"/>
<path opacity="0.7" d="M353.365 333.895H287.989V570.617H353.365V333.895Z" fill="white"/>
<path d="M384.745 333.895H353.365V570.617H384.745V333.895Z" fill="#407BFF"/>
<path opacity="0.5" d="M384.745 333.895H353.365V570.617H384.745V333.895Z" fill="white"/>
<path d="M474.246 421.021H472.577V457.874H474.246V421.021Z" fill="#263238"/>
<path d="M474.246 399.352H472.577V414.167H474.246V399.352Z" fill="#263238"/>
<path d="M520.682 480.73H455.306V570.617H520.682V480.73Z" fill="#407BFF"/>
<path opacity="0.5" d="M520.682 480.73H455.306V570.617H520.682V480.73Z" fill="black"/>
<path d="M552.062 480.73H520.682V570.617H552.062V480.73Z" fill="#407BFF"/>
<path opacity="0.6" d="M552.062 480.73H520.682V570.617H552.062V480.73Z" fill="black"/>
<path d="M437.023 283.848H371.647V570.617H437.023V283.848Z" fill="#407BFF"/>
<path opacity="0.7" d="M437.023 283.848H371.647V570.617H437.023V283.848Z" fill="black"/>
<path d="M468.403 283.848H437.023V570.617H468.403V283.848Z" fill="#407BFF"/>
<path opacity="0.8" d="M468.403 283.848H437.023V570.617H468.403V283.848Z" fill="black"/>
<path d="M565.368 217.701C563.121 235.454 560.296 253.254 557.776 270.863C557.463 273.435 556.997 275.986 556.379 278.503C555.658 281.081 554.735 283.598 553.619 286.031C551.49 290.608 548.828 294.918 545.689 298.872C542.699 302.671 539.403 306.22 535.834 309.482C534.1 311.087 532.255 312.692 530.393 314.088C528.531 315.485 526.685 316.929 524.55 318.326L518.852 311.215C520.184 309.738 521.693 308.005 523.057 306.4C524.422 304.795 525.77 303.061 527.086 301.36C529.659 298.033 532.013 294.543 534.133 290.91C536.175 287.503 537.858 283.894 539.157 280.14C539.754 278.403 540.21 276.621 540.521 274.811C540.802 272.912 540.984 270.999 541.067 269.081C541.661 259.964 542.559 250.943 543.555 241.938C544.55 232.934 545.738 224.041 547.15 215.085L565.368 217.701Z" fill="#E58A7B"/>
<path d="M569.365 211.602C573.458 222.468 552.736 254.458 552.736 254.458L528.451 241.28C532.105 231.325 536.824 221.794 542.527 212.854C551.067 200.045 564.887 199.676 569.365 211.602Z" fill="#407BFF"/>
<path opacity="0.2" d="M569.365 211.602C573.458 222.468 552.736 254.458 552.736 254.458L528.451 241.28C532.105 231.325 536.824 221.794 542.527 212.854C551.067 200.045 564.887 199.676 569.365 211.602Z" fill="black"/>
<path d="M554.951 203.287C554.951 203.287 540.617 239.964 554.229 308.245H619.187C619.637 298.278 613.361 249.643 622.975 202.677C615.799 201.286 608.539 200.363 601.242 199.917C592.047 199.386 582.829 199.386 573.634 199.917C567.328 200.552 561.081 201.679 554.951 203.287V203.287Z" fill="#407BFF"/>
<path opacity="0.2" d="M554.951 203.287C554.951 203.287 540.617 239.964 554.229 308.245H619.187C619.637 298.278 613.361 249.643 622.975 202.677C615.799 201.286 608.539 200.363 601.242 199.917C592.047 199.386 582.829 199.386 573.634 199.917C567.328 200.552 561.081 201.679 554.951 203.287V203.287Z" fill="black"/>
<path d="M563.57 564.871H551.436L548.193 536.749H560.344L563.57 564.871Z" fill="#E58A7B"/>
<path d="M649.026 564.871H636.892L627.422 536.749H639.572L649.026 564.871Z" fill="#E58A7B"/>
<path d="M635.271 563.394H650.07C650.311 563.393 650.545 563.475 650.733 563.628C650.92 563.78 651.049 563.992 651.097 564.229L653.505 575.031C653.557 575.294 653.551 575.564 653.485 575.824C653.42 576.083 653.297 576.325 653.126 576.531C652.956 576.737 652.741 576.903 652.498 577.015C652.256 577.128 651.991 577.185 651.723 577.182C646.908 577.102 643.489 576.829 637.486 576.829C633.794 576.829 626.25 577.214 621.097 577.214C615.945 577.214 615.335 572.174 617.422 571.709C626.78 569.67 630.263 566.893 633.296 564.148C633.838 563.661 634.542 563.392 635.271 563.394V563.394Z" fill="#263238"/>
<path d="M551.516 563.394H564.774C565.017 563.395 565.252 563.478 565.441 563.63C565.631 563.781 565.763 563.992 565.817 564.229L568.209 575.031C568.267 575.292 568.266 575.562 568.205 575.821C568.143 576.081 568.024 576.324 567.856 576.531C567.687 576.738 567.474 576.904 567.232 577.017C566.991 577.129 566.726 577.186 566.46 577.182C561.644 577.102 554.758 576.829 548.803 576.829C541.773 576.829 535.706 577.214 527.455 577.214C522.463 577.214 521.035 572.174 523.17 571.709C532.672 569.638 540.425 569.413 548.643 564.341C549.496 563.769 550.49 563.442 551.516 563.394Z" fill="#263238"/>
<path d="M523.266 306.576L513.09 315.083L526.46 322.932C528.431 321.41 529.863 319.298 530.548 316.904C531.232 314.51 531.133 311.959 530.264 309.626L523.266 306.576Z" fill="#E58A7B"/>
<path d="M548.209 536.765L549.863 551.259H562.013L560.344 536.765H548.209Z" fill="#CF6F64"/>
<path d="M639.572 536.765H627.422L632.301 551.259H644.452L639.572 536.765Z" fill="#CF6F64"/>
<path opacity="0.2" d="M609.749 225.117C611.868 214.395 615.993 216.257 619.91 221.537C618.236 235.749 617.464 250.053 617.598 264.362C614.934 259.819 606.202 243.078 609.749 225.117Z" fill="black"/>
<path d="M598.498 168.842C596.764 177.718 595.03 193.994 601.242 199.917C601.242 199.917 598.819 208.937 582.302 208.937C564.148 208.937 573.634 199.933 573.634 199.933C583.538 197.557 583.265 190.206 581.548 183.304L598.498 168.842Z" fill="#E58A7B"/>
<path d="M591.596 174.749L581.564 183.304C581.992 184.907 582.277 186.545 582.414 188.199C586.202 187.654 591.403 183.496 591.804 179.532C592.022 177.938 591.951 176.318 591.596 174.749V174.749Z" fill="#CF6F64"/>
<path d="M570.264 141.507C564.293 144.043 561.05 160.768 568.658 164.636C576.267 168.505 581.58 136.723 570.264 141.507Z" fill="#263238"/>
<path d="M599.557 155.471C598.819 167.493 598.995 174.572 592.928 180.751C583.795 190.029 568.931 184.523 566.074 172.517C563.49 161.715 565.127 143.85 576.909 139.067C579.5 138 582.321 137.614 585.103 137.944C587.885 138.275 590.537 139.311 592.806 140.955C595.076 142.598 596.887 144.795 598.068 147.335C599.25 149.876 599.762 152.677 599.557 155.471Z" fill="#E58A7B"/>
<path d="M562.463 133.963C569.734 122.936 570.874 128.248 570.761 133.497C577.182 127.43 589.043 119.693 594.838 126.756C595.524 127.484 595.97 128.406 596.117 129.396C596.263 130.386 596.103 131.397 595.657 132.293C603.12 130.303 610.648 129.741 609.284 137.799C608.08 144.926 602.992 147.542 595.865 147.59C583.089 149.356 552.158 149.532 562.463 133.963Z" fill="#263238"/>
<path d="M598.706 167.253C592.286 169.869 579.365 146.29 598.803 143.513C618.24 140.736 608.995 163.031 598.706 167.253Z" fill="#263238"/>
<path d="M604.998 168.729C603.373 171.287 600.808 173.103 597.855 173.785C593.939 174.652 592.189 171.089 593.474 167.493C594.629 164.283 598.048 159.933 601.9 160.672C602.739 160.851 603.519 161.236 604.171 161.793C604.822 162.35 605.325 163.061 605.632 163.861C605.94 164.661 606.043 165.525 605.932 166.375C605.822 167.226 605.501 168.035 604.998 168.729V168.729Z" fill="#E58A7B"/>
<path d="M611.338 147.157C610.446 146.162 609.319 145.407 608.061 144.958C606.802 144.51 605.452 144.383 604.131 144.588C604.131 144.588 610.407 139.645 611.338 147.157Z" fill="#263238"/>
<path d="M554.229 308.181C554.229 308.181 520.056 395.018 521.308 432.064C522.672 470.586 545.384 548.45 545.384 548.45H565.962C565.962 548.45 557.535 472.818 558.45 435.001C559.445 393.75 596.973 308.197 596.973 308.197L554.229 308.181Z" fill="#407BFF"/>
<path opacity="0.2" d="M581.515 336.929L583.49 341.407C576.287 359.965 570.03 378.876 564.742 398.068C564.18 376.174 568.707 352.033 581.515 336.929Z" fill="black"/>
<path d="M577.278 308.181C577.278 308.181 570.36 396.976 577.92 431.775C586.202 469.848 626.587 548.418 626.587 548.418H648.834C648.834 548.418 619.075 472.978 614.34 435.226C609.22 394.312 619.155 308.214 619.155 308.214L577.278 308.181Z" fill="#407BFF"/>
<path d="M581.323 158.906C581.323 159.885 580.793 160.688 580.151 160.688C579.509 160.688 578.995 159.885 578.995 158.906C578.995 157.927 579.509 157.14 580.151 157.14C580.793 157.14 581.323 157.847 581.323 158.906Z" fill="#263238"/>
<path d="M570.248 158.906C570.248 159.885 569.718 160.688 569.092 160.688C568.466 160.688 567.92 159.885 567.92 158.906C567.92 157.927 568.45 157.14 569.092 157.14C569.734 157.14 570.248 157.847 570.248 158.906Z" fill="#263238"/>
<path d="M573.763 159.323C572.595 162.311 571.023 165.125 569.092 167.686C569.759 168.166 570.522 168.493 571.329 168.646C572.136 168.798 572.967 168.772 573.763 168.569V159.323Z" fill="#DF5753"/>
<path d="M576.62 171.282C576.543 171.282 576.47 171.251 576.416 171.197C576.361 171.143 576.331 171.069 576.331 170.993C576.331 170.916 576.361 170.843 576.416 170.788C576.47 170.734 576.543 170.704 576.62 170.704C577.838 170.731 579.046 170.47 580.145 169.943C581.243 169.416 582.202 168.637 582.944 167.67C582.965 167.638 582.992 167.611 583.024 167.59C583.055 167.569 583.091 167.554 583.128 167.547C583.165 167.539 583.204 167.539 583.241 167.547C583.278 167.554 583.314 167.569 583.345 167.59C583.405 167.632 583.446 167.695 583.461 167.767C583.476 167.838 583.463 167.913 583.426 167.975C582.643 169.035 581.615 169.89 580.429 170.465C579.244 171.041 577.937 171.321 576.62 171.282V171.282Z" fill="#263238"/>
<path d="M584.645 155.262C584.559 155.26 584.473 155.239 584.396 155.2C584.318 155.161 584.25 155.106 584.196 155.038C583.777 154.447 583.224 153.965 582.582 153.63C581.94 153.295 581.228 153.118 580.504 153.112C580.428 153.118 580.351 153.109 580.278 153.085C580.205 153.061 580.138 153.022 580.081 152.971C580.024 152.919 579.978 152.857 579.946 152.788C579.914 152.718 579.896 152.643 579.894 152.566C579.885 152.415 579.936 152.267 580.035 152.153C580.134 152.039 580.274 151.968 580.424 151.956C581.338 151.951 582.24 152.163 583.055 152.577C583.87 152.99 584.575 153.591 585.111 154.331C585.202 154.456 585.241 154.611 585.22 154.764C585.199 154.916 585.12 155.055 584.999 155.15C584.893 155.218 584.771 155.257 584.645 155.262Z" fill="#263238"/>
<path d="M565.4 155.022C565.315 155.037 565.228 155.037 565.143 155.022C565.075 154.989 565.013 154.943 564.963 154.886C564.913 154.83 564.874 154.763 564.85 154.691C564.826 154.619 564.817 154.543 564.823 154.467C564.83 154.392 564.851 154.318 564.887 154.251C565.266 153.424 565.839 152.701 566.557 152.142C567.275 151.583 568.117 151.205 569.012 151.041C569.154 151.039 569.292 151.089 569.4 151.182C569.507 151.275 569.577 151.405 569.595 151.546C569.612 151.687 569.578 151.83 569.497 151.947C569.416 152.064 569.295 152.147 569.156 152.18V152.18C568.455 152.333 567.8 152.648 567.242 153.099C566.685 153.551 566.241 154.127 565.946 154.781C565.887 154.868 565.804 154.937 565.708 154.98C565.611 155.022 565.505 155.037 565.4 155.022Z" fill="#263238"/>
<path d="M627.598 212.115C628.642 214.363 629.524 216.369 630.359 218.536C631.194 220.703 631.964 222.757 632.815 224.956C634.42 229.226 635.752 233.56 636.972 237.974C638.192 242.388 639.203 246.898 640.038 251.489L640.616 254.94L641.033 258.471C641.193 259.643 641.258 260.847 641.354 262.05L641.466 263.848V264.298V265.052C641.466 265.614 641.466 266.127 641.466 266.657C641.148 269.818 640.233 272.89 638.77 275.71C637.629 277.978 636.337 280.165 634.901 282.259C632.242 286.087 629.331 289.733 626.186 293.174C620.136 299.836 613.572 306.013 606.555 311.648L600.135 305.228C605.383 298.519 610.616 291.584 615.383 284.699C617.704 281.346 619.847 277.874 621.804 274.297C622.699 272.692 623.477 271.024 624.131 269.306C624.608 268.208 624.879 267.033 624.934 265.839C624.934 265.839 624.934 265.839 624.934 265.839C624.934 265.839 624.934 265.935 624.934 265.839V265.469L624.709 264.025C624.565 263.046 624.436 262.083 624.211 261.103L623.634 258.166L622.943 255.213C621.964 251.264 620.857 247.3 619.573 243.351C618.289 239.402 616.924 235.47 615.464 231.537C614.003 227.605 612.398 223.64 610.905 220.013L627.598 212.115Z" fill="#E58A7B"/>
<path d="M631.242 565.593C630.417 565.656 629.596 565.435 628.914 564.967C628.685 564.774 628.51 564.524 628.405 564.243C628.301 563.962 628.272 563.658 628.32 563.362C628.319 563.197 628.364 563.035 628.448 562.893C628.533 562.751 628.656 562.636 628.802 562.559C630.166 561.869 634.067 564.277 634.516 564.55C634.563 564.58 634.601 564.624 634.623 564.675C634.646 564.726 634.654 564.783 634.645 564.839C634.634 564.896 634.607 564.949 634.567 564.992C634.528 565.035 634.476 565.065 634.42 565.079C633.382 565.365 632.316 565.537 631.242 565.593ZM629.444 563.073C629.316 563.063 629.187 563.091 629.075 563.153C628.995 563.153 628.898 563.266 628.882 563.49C628.862 563.684 628.888 563.879 628.958 564.06C629.028 564.241 629.139 564.403 629.283 564.534C630.64 565.144 632.176 565.218 633.585 564.742C632.325 563.924 630.919 563.357 629.444 563.073V563.073Z" fill="#407BFF"/>
<path d="M634.356 565.16H634.227C632.959 564.47 630.536 561.821 630.792 560.457C630.836 560.246 630.951 560.056 631.117 559.919C631.283 559.781 631.492 559.705 631.707 559.702C631.925 559.677 632.146 559.697 632.355 559.761C632.565 559.824 632.76 559.93 632.927 560.072C634.34 561.227 634.629 564.726 634.645 564.887C634.646 564.937 634.635 564.987 634.613 565.031C634.59 565.076 634.557 565.115 634.516 565.144C634.466 565.165 634.41 565.171 634.356 565.16ZM631.916 560.184H631.771C631.402 560.184 631.37 560.393 631.354 560.473C631.21 561.275 632.751 563.282 634.003 564.229C633.915 562.847 633.418 561.523 632.574 560.425C632.39 560.269 632.157 560.183 631.916 560.184Z" fill="#407BFF"/>
<path d="M546.46 565.593C545.423 565.686 544.386 565.419 543.522 564.839C543.325 564.668 543.172 564.451 543.076 564.208C542.981 563.965 542.947 563.702 542.977 563.442C542.986 563.286 543.033 563.134 543.114 562.999C543.195 562.865 543.308 562.753 543.442 562.672C544.935 561.853 549.863 564.277 550.36 564.614C550.416 564.641 550.461 564.684 550.49 564.739C550.519 564.793 550.53 564.855 550.521 564.916C550.512 564.977 550.484 565.034 550.44 565.078C550.397 565.121 550.341 565.15 550.28 565.16C549.022 565.417 547.743 565.562 546.46 565.593V565.593ZM544.261 563.073C544.077 563.061 543.894 563.1 543.731 563.185C543.674 563.212 543.626 563.255 543.594 563.31C543.563 563.364 543.549 563.428 543.554 563.49C543.53 563.659 543.549 563.831 543.608 563.99C543.666 564.15 543.764 564.293 543.892 564.405C544.646 565.079 546.652 565.192 549.317 564.742C547.739 563.901 546.029 563.337 544.261 563.073V563.073Z" fill="#407BFF"/>
<path d="M550.232 565.16C550.19 565.174 550.145 565.174 550.103 565.16C548.643 564.502 545.737 561.949 545.962 560.505C545.962 560.184 546.235 559.783 547.038 559.702C547.325 559.673 547.615 559.702 547.891 559.788C548.166 559.873 548.422 560.013 548.643 560.2C550.248 561.468 550.521 564.742 550.521 564.871C550.528 564.922 550.522 564.975 550.502 565.023C550.482 565.071 550.45 565.112 550.408 565.144C550.352 565.166 550.291 565.172 550.232 565.16V565.16ZM547.343 560.184H547.166C546.652 560.184 546.62 560.441 546.604 560.505C546.476 561.323 548.45 563.394 549.943 564.293C549.807 562.91 549.246 561.604 548.338 560.553C548.062 560.312 547.708 560.181 547.343 560.184V560.184Z" fill="#407BFF"/>
<path d="M602.944 303.446L591.034 306.657L600.905 318.631C600.905 318.631 610.456 313.671 608.401 308.326L602.944 303.446Z" fill="#E58A7B"/>
<path d="M584.87 314.666L593.49 324.168L600.905 318.583L591.034 306.608L584.87 314.666Z" fill="#E58A7B"/>
<path d="M622.654 548.932H651.739V541.099L619.236 540.602L622.654 548.932Z" fill="#407BFF"/>
<path opacity="0.4" d="M622.654 548.932H651.739V541.099L619.236 540.602L622.654 548.932Z" fill="black"/>
<path d="M540.714 548.932H569.798V541.019L537.295 540.602L540.714 548.932Z" fill="#407BFF"/>
<path opacity="0.4" d="M540.714 548.932H569.798V541.019L537.295 540.602L540.714 548.932Z" fill="black"/>
<path d="M625.512 203.464C636.346 207.637 647.181 246.064 647.181 246.064L618.289 257.428C618.289 257.428 609.669 237.557 606.732 222.79C603.714 207.3 613.232 198.745 625.512 203.464Z" fill="#407BFF"/>
<path opacity="0.2" d="M625.512 203.464C636.346 207.637 647.181 246.064 647.181 246.064L618.289 257.428C618.289 257.428 609.669 237.557 606.732 222.79C603.714 207.3 613.232 198.745 625.512 203.464Z" fill="black"/>
<path d="M508.387 264.442C505.309 275.172 505.618 286.59 509.269 297.138C512.61 306.956 518.706 315.604 526.829 322.05C537.65 330.617 551.321 334.755 565.076 333.626C578.832 332.498 591.646 326.187 600.926 315.971C610.206 305.755 615.26 292.396 615.065 278.596C614.871 264.795 609.442 251.584 599.878 241.634V241.634C593.308 234.792 585.046 229.808 575.93 227.188C567.499 224.749 558.606 224.376 550.001 226.1C541.396 227.824 533.333 231.594 526.492 237.091C525.247 238.095 524.057 239.167 522.929 240.301C516.04 246.927 511.024 255.255 508.387 264.442V264.442Z" fill="#407BFF"/>
<path opacity="0.6" d="M508.387 264.442C505.309 275.172 505.618 286.59 509.269 297.138C512.61 306.956 518.706 315.604 526.829 322.05C537.65 330.617 551.321 334.755 565.076 333.626C578.832 332.498 591.646 326.187 600.926 315.971C610.206 305.755 615.26 292.396 615.065 278.596C614.871 264.795 609.442 251.584 599.878 241.634V241.634C593.308 234.792 585.046 229.808 575.93 227.188C567.499 224.749 558.606 224.376 550.001 226.1C541.396 227.824 533.333 231.594 526.492 237.091C525.247 238.095 524.057 239.167 522.929 240.301C516.04 246.927 511.024 255.255 508.387 264.442V264.442Z" fill="black"/>
<path d="M593.04 239.499L553.875 277.299L538.868 329.625C550.386 332.933 562.673 332.346 573.824 327.957C584.975 323.568 594.366 315.621 600.539 305.35C606.713 295.079 609.324 283.058 607.968 271.151C606.612 259.245 601.365 248.118 593.04 239.499V239.499Z" fill="#407BFF"/>
<path opacity="0.9" d="M593.04 239.499L553.875 277.299L538.868 329.625C550.386 332.933 562.673 332.346 573.824 327.957C584.975 323.568 594.366 315.621 600.539 305.35C606.713 295.079 609.324 283.058 607.968 271.151C606.612 259.245 601.365 248.118 593.04 239.499V239.499Z" fill="white"/>
<g opacity="0.7">
<path opacity="0.7" d="M553.876 277.299L593.04 239.483C586.402 232.606 578.071 227.598 568.883 224.963C559.696 222.328 549.976 222.158 540.703 224.472C531.429 226.785 522.928 231.5 516.055 238.142C509.182 244.784 504.179 253.118 501.549 262.307L553.876 277.299Z" fill="#407BFF"/>
<path opacity="0.44" d="M553.876 277.299L593.04 239.483C586.402 232.606 578.071 227.598 568.883 224.963C559.696 222.328 549.976 222.158 540.703 224.472C531.429 226.785 522.928 231.5 516.055 238.142C509.182 244.784 504.179 253.118 501.549 262.307L553.876 277.299Z" fill="white"/>
</g>
<path d="M512.255 322.306L524.052 326.03L526.412 322.981L513.041 315.132L512.255 322.306Z" fill="#E58A7B"/>
<path d="M553.875 277.299L501.565 262.307C497.592 276.183 499.291 291.068 506.289 303.691C513.287 316.315 525.011 325.643 538.884 329.625L553.875 277.299Z" fill="#407BFF"/>
<path opacity="0.6" d="M553.875 277.299L501.565 262.307C497.592 276.183 499.291 291.068 506.289 303.691C513.287 316.315 525.011 325.643 538.884 329.625L553.875 277.299Z" fill="black"/>
<path d="M253.993 203.624C251.184 206.498 248.166 209.676 245.389 212.854C242.613 216.032 239.82 219.274 237.203 222.597C234.587 225.919 232.115 229.338 229.74 232.789L228.006 235.406L226.401 238.054C225.855 238.937 225.342 239.836 224.796 240.735L223.464 243.19C222.922 244.591 222.613 246.072 222.549 247.572C222.42 249.507 222.42 251.448 222.549 253.383C222.849 257.546 223.385 261.688 224.154 265.79C224.876 269.996 225.759 274.217 226.802 278.406C227.845 282.596 228.873 286.865 230.012 291.007L223.833 293.318C220.089 285.141 216.961 276.696 214.475 268.054C213.194 263.614 212.212 259.094 211.538 254.522C211.199 252.081 211.028 249.62 211.024 247.155C210.98 244.249 211.469 241.361 212.469 238.632C212.854 237.701 213.062 237.316 213.319 236.77L214.074 235.165C214.571 234.105 215.101 233.062 215.679 232.051L217.284 228.985L219.049 226C221.409 222.073 223.976 218.274 226.738 214.619C229.467 210.976 232.292 207.412 235.277 203.994C238.263 200.575 241.296 197.3 244.747 194.01L253.993 203.624Z" fill="#E58A7B"/>
<path d="M228.311 288.39L239.29 291.601L231.987 299.016C231.987 299.016 224.073 296.576 222.966 291.183L228.311 288.39Z" fill="#E58A7B"/>
<path d="M245.951 300.107L244.089 307.186L231.987 299.064L239.29 291.665L245.951 300.107Z" fill="#E58A7B"/>
<path d="M147.67 499.109L156.659 508.756L181.056 491.292L172.052 481.646L147.67 499.109Z" fill="#E58A7B"/>
<path d="M266.946 534.454L264.795 551.051L251.938 548.9L253.928 533.491L266.946 534.454Z" fill="#CF6F64"/>
<path d="M172.052 481.646L181.04 491.308L170.944 498.531L161.635 489.093L172.052 481.646Z" fill="#CF6F64"/>
<path d="M289.466 270.253C289.466 270.253 264.041 355.404 251.617 404.488C238.519 456.221 175.968 498.403 175.968 498.403L162.614 485.129C162.614 485.129 204.427 449.816 217.188 401.551C242.966 303.526 230.574 282.772 251.12 262.837L289.466 270.253Z" fill="#407BFF"/>
<path opacity="0.6" d="M289.466 270.253C289.466 270.253 264.041 355.404 251.617 404.488C238.519 456.221 175.968 498.403 175.968 498.403L162.614 485.129C162.614 485.129 204.427 449.816 217.188 401.551C242.966 303.526 230.574 282.772 251.12 262.837L289.466 270.253Z" fill="black"/>
<path d="M160.591 507.215L153.095 494.374C152.973 494.151 152.773 493.981 152.533 493.896C152.294 493.81 152.032 493.814 151.795 493.909L141.105 498.21C140.84 498.336 140.604 498.517 140.412 498.739C140.221 498.962 140.078 499.222 139.994 499.504C139.909 499.785 139.884 500.081 139.921 500.372C139.957 500.664 140.055 500.944 140.206 501.196C142.903 505.61 144.412 507.616 147.718 513.25C149.757 516.717 152.373 521.982 155.166 526.765C157.959 531.549 162.726 529.109 161.972 526.878C158.601 516.846 160.367 513.94 161.025 509.478C161.144 508.696 160.991 507.898 160.591 507.215V507.215Z" fill="#263238"/>
<path d="M177.108 500.297L160.447 483.716L164.973 478.692L185.262 495.963L177.108 500.297Z" fill="#F5F5F5"/>
<path opacity="0.3" d="M277.524 288.39C260.846 301.231 259.723 350.283 260.108 372.434C268.599 341.471 278.631 307.009 284.49 287.09C282.885 285.71 280.589 286.015 277.524 288.39Z" fill="black"/>
<path d="M163.288 514.213C163.13 514.21 162.973 514.182 162.822 514.133C161.217 513.651 160.11 510.746 159.612 509.061C159.594 509.001 159.593 508.938 159.61 508.878C159.627 508.818 159.662 508.765 159.709 508.724C159.758 508.688 159.817 508.669 159.877 508.669C159.938 508.669 159.996 508.688 160.046 508.724C160.527 508.964 164.749 511.163 164.861 512.833C164.878 513.013 164.849 513.195 164.776 513.361C164.703 513.527 164.588 513.671 164.444 513.78C164.118 514.05 163.711 514.203 163.288 514.213V514.213ZM160.415 509.606C161.201 511.838 162.148 513.282 162.999 513.555C163.188 513.603 163.386 513.602 163.574 513.551C163.763 513.5 163.935 513.402 164.074 513.266C164.143 513.226 164.197 513.166 164.231 513.095C164.266 513.023 164.278 512.943 164.267 512.865C164.171 512.03 162.116 510.537 160.415 509.606Z" fill="#407BFF"/>
<path d="M163.721 510.152C162.332 510.148 160.962 509.836 159.709 509.237C159.665 509.206 159.63 509.165 159.606 509.117C159.582 509.07 159.569 509.018 159.569 508.964C159.569 508.911 159.582 508.859 159.606 508.811C159.63 508.764 159.665 508.723 159.709 508.691C159.853 508.691 163.015 506.781 164.813 507.375C165.046 507.442 165.26 507.56 165.441 507.721C165.622 507.882 165.764 508.082 165.856 508.306C165.98 508.521 166.026 508.772 165.988 509.017C165.95 509.262 165.83 509.487 165.647 509.654C165.081 510.034 164.401 510.21 163.721 510.152V510.152ZM160.511 508.948C161.988 509.542 164.54 509.783 165.214 509.189C165.326 509.093 165.423 508.932 165.214 508.563C165.154 508.418 165.062 508.288 164.946 508.182C164.829 508.077 164.69 507.998 164.54 507.953C163.128 507.873 161.724 508.22 160.511 508.948V508.948Z" fill="#407BFF"/>
<path d="M250.076 563.362L263.094 564.325L266.946 534.438L253.945 533.475L250.076 563.362Z" fill="#E58A7B"/>
<path d="M302.467 272.869C302.467 272.869 305.677 375.901 298.438 414.712C290.862 455.081 267.797 546.893 267.797 546.893L249.033 544.47C249.033 544.47 260.911 451.71 265.935 411.615C271.44 367.891 264.233 265.469 264.233 265.469L302.467 272.869Z" fill="#407BFF"/>
<path opacity="0.6" d="M302.467 272.869C302.467 272.869 305.677 375.901 298.438 414.712C290.862 455.081 267.797 546.893 267.797 546.893L249.033 544.47C249.033 544.47 260.911 451.71 265.935 411.615C271.44 367.891 264.233 265.469 264.233 265.469L302.467 272.869Z" fill="black"/>
<path d="M316.913 150.303C316.736 151.346 317.154 152.277 317.828 152.421C318.502 152.566 319.192 151.811 319.433 150.816C319.674 149.821 319.192 148.842 318.518 148.714C317.844 148.585 317.09 149.275 316.913 150.303Z" fill="#263238"/>
<path d="M318.133 148.681L320.749 148.441C320.749 148.441 319.144 150.142 318.133 148.681Z" fill="#263238"/>
<path d="M317.619 151.474C318.157 154.016 319.037 156.473 320.236 158.778C319.636 159.052 318.985 159.194 318.325 159.194C317.666 159.194 317.015 159.052 316.415 158.778L317.619 151.474Z" fill="#DF5753"/>
<path d="M319.417 146.065C319.297 146.065 319.18 146.031 319.081 145.965C318.981 145.899 318.902 145.806 318.855 145.696C318.552 144.968 318.086 144.319 317.494 143.799C316.901 143.278 316.197 142.901 315.436 142.694C315.357 142.681 315.282 142.652 315.214 142.609C315.146 142.566 315.087 142.51 315.041 142.445C314.995 142.379 314.962 142.305 314.944 142.227C314.927 142.148 314.925 142.067 314.939 141.988C314.97 141.827 315.063 141.685 315.198 141.592C315.333 141.499 315.499 141.462 315.661 141.491C316.621 141.727 317.512 142.186 318.262 142.83C319.012 143.474 319.6 144.285 319.979 145.198C320.045 145.348 320.05 145.517 319.993 145.67C319.936 145.823 319.821 145.947 319.674 146.017L319.417 146.065Z" fill="#263238"/>
<path d="M283.976 158.906C284.217 166.771 283.414 180.96 277.251 184.989C277.251 184.989 278.053 193.015 292.226 195.824C307.812 198.841 300.958 189.58 300.958 189.58C292.772 185.904 294.04 179.676 296.496 174.074L283.976 158.906Z" fill="#E58A7B"/>
<path d="M324.104 200.992C327.314 203.432 330.845 206.016 334.328 208.375C337.812 210.735 341.375 213.191 345.002 215.326C348.63 217.46 352.306 219.563 355.997 221.537C359.676 223.439 363.453 225.143 367.314 226.642C367.651 226.77 367.538 226.642 367.618 226.754H367.827C368.035 226.784 368.246 226.784 368.453 226.754C369.095 226.757 369.735 226.693 370.363 226.561C372.067 226.145 373.72 225.542 375.291 224.764C378.927 222.919 382.401 220.771 385.676 218.343C389.111 215.919 392.466 213.271 395.756 210.51C399.047 207.749 402.321 204.876 405.467 202.019L410.282 206.433C404.778 213.606 398.632 220.263 391.92 226.321C388.4 229.467 384.589 232.272 380.54 234.699C378.26 236.037 375.837 237.114 373.317 237.909C371.83 238.355 370.293 238.613 368.742 238.68C367.852 238.729 366.96 238.691 366.078 238.568C365.602 238.512 365.13 238.426 364.665 238.311C364.248 238.198 363.59 238.022 363.413 237.942C354.67 235.057 346.256 231.259 338.309 226.609C334.393 224.33 330.524 221.971 326.768 219.435C323.012 216.899 319.417 214.314 315.741 211.313L324.104 200.992Z" fill="#E58A7B"/>
<path d="M404.488 203.239L408.308 193.4L416.334 201.425C416.334 201.425 412.529 208.745 407.072 208.761L404.488 203.239Z" fill="#E58A7B"/>
<path d="M416.221 190.559L423.845 192.95L416.398 201.409L408.34 193.4L416.221 190.559Z" fill="#E58A7B"/>
<path d="M263.896 562.463H249.274C249.018 562.46 248.771 562.549 248.576 562.714C248.381 562.879 248.253 563.109 248.214 563.362L246.24 574.935C246.201 575.224 246.225 575.519 246.309 575.799C246.394 576.078 246.538 576.337 246.731 576.556C246.925 576.775 247.163 576.95 247.43 577.069C247.697 577.188 247.986 577.249 248.279 577.246C253.383 577.166 255.839 576.861 262.275 576.861C266.224 576.861 274.41 577.278 279.931 577.278C285.453 577.278 285.822 571.869 283.559 571.371C273.415 569.188 269.482 566.155 266.111 563.265C265.497 562.735 264.708 562.449 263.896 562.463V562.463Z" fill="#263238"/>
<path d="M282.692 140.768C281.392 153.609 280.557 158.954 285.902 166.707C293.928 178.344 309.979 177.622 315.163 165.567C319.77 154.733 321.15 135.6 309.513 128.152C307.039 126.471 304.169 125.464 301.187 125.23C298.205 124.996 295.213 125.542 292.507 126.815C289.8 128.088 287.471 130.044 285.75 132.491C284.029 134.938 282.975 137.79 282.692 140.768Z" fill="#E58A7B"/>
<path d="M284.104 168.697C278.005 166.209 272.307 156.386 272.532 141.025C272.756 125.664 284.201 116.756 304.634 123.224C325.067 129.693 304.04 176.851 284.104 168.697Z" fill="#263238"/>
<path d="M301.408 124.637C307.427 122.277 320.749 125.198 320.749 137.734L307.796 148.248L301.408 124.637Z" fill="#263238"/>
<path d="M299.722 124.525C307.748 124.059 310.862 124.091 318.133 126.13C313.35 120.383 304.393 122.277 299.722 124.525Z" fill="#263238"/>
<path d="M306.672 147.445C306.424 149.83 306.911 152.233 308.069 154.331C309.674 157.285 312.098 156.884 312.997 154.492C313.815 152.341 313.96 148.216 311.712 146.001C309.465 143.786 307.058 144.797 306.672 147.445Z" fill="#E58A7B"/>
<path d="M273.8 129.677C278.455 132.534 294.281 130.174 297.7 124.091C301.119 118.008 289.305 107.831 278.599 108.2C267.893 108.57 263.431 123.288 273.8 129.677Z" fill="#407BFF"/>
<path d="M271.793 548.017L245.036 544.566L245.373 538.209L274.474 539.478L271.793 548.017Z" fill="#F5F5F5"/>
<path d="M268.744 564.742C267.368 564.718 265.997 564.562 264.651 564.277C264.588 564.266 264.53 564.236 264.487 564.189C264.443 564.143 264.416 564.083 264.41 564.02C264.402 563.956 264.412 563.892 264.441 563.835C264.47 563.778 264.515 563.73 264.57 563.699C265.164 563.394 270.429 560.729 272.002 561.628C272.15 561.708 272.275 561.826 272.362 561.97C272.449 562.114 272.497 562.278 272.5 562.447C272.531 562.725 272.494 563.007 272.39 563.268C272.286 563.528 272.12 563.759 271.906 563.94C270.977 564.567 269.859 564.851 268.744 564.742V564.742ZM265.678 563.843C268.551 564.325 270.686 564.196 271.504 563.49C271.643 563.367 271.75 563.212 271.817 563.039C271.884 562.866 271.909 562.679 271.89 562.495C271.89 562.427 271.873 562.36 271.839 562.3C271.805 562.241 271.756 562.192 271.697 562.158C270.846 561.676 267.845 562.816 265.678 563.843Z" fill="#407BFF"/>
<path d="M264.715 564.277C264.651 564.291 264.586 564.291 264.522 564.277C264.481 564.242 264.448 564.197 264.429 564.147C264.409 564.096 264.403 564.041 264.41 563.988C264.41 563.763 265.036 558.434 267.941 558.434H268.198C269.033 558.514 269.273 558.948 269.338 559.285C269.578 560.761 266.416 563.586 264.843 564.293L264.715 564.277ZM267.925 559.012C266.047 559.012 265.309 562.094 265.068 563.426C266.673 562.447 268.84 560.216 268.695 559.349C268.695 559.349 268.695 559.076 268.102 559.012H267.925Z" fill="#407BFF"/>
<path d="M254.715 183.528C245.678 183.946 237.059 198.921 237.059 198.921L248.985 223.287C248.985 223.287 265.148 209.82 265.357 196.578C265.533 187.975 263.591 183.127 254.715 183.528Z" fill="#407BFF"/>
<path opacity="0.8" d="M254.715 183.528C245.678 183.946 237.059 198.921 237.059 198.921L248.985 223.287C248.985 223.287 265.148 209.82 265.357 196.578C265.533 187.975 263.591 183.127 254.715 183.528Z" fill="white"/>
<path d="M251.055 262.805L303.253 272.917C327.908 200.302 322.017 197.958 322.017 197.958C318.182 195.888 314.227 194.049 310.172 192.453L309.449 192.18C306.127 190.976 305.42 190.783 300.942 189.483C293.254 187.67 286.095 186.193 277.235 184.909L275.549 184.668C273.944 184.475 272.339 184.299 270.814 184.154C269.787 184.042 268.744 183.978 267.765 183.898L264.394 183.721C258.68 183.432 254.603 183.528 254.603 183.528C257.588 228.841 255.405 241.858 251.055 262.805Z" fill="#407BFF"/>
<path opacity="0.6" d="M251.055 262.805L303.253 272.917C327.908 200.302 322.017 197.958 322.017 197.958C318.182 195.888 314.227 194.049 310.172 192.453L309.449 192.18C306.127 190.976 305.42 190.783 300.942 189.483C293.254 187.67 286.095 186.193 277.235 184.909L275.549 184.668C273.944 184.475 272.339 184.299 270.814 184.154C269.787 184.042 268.744 183.978 267.765 183.898L264.394 183.721C258.68 183.432 254.603 183.528 254.603 183.528C257.588 228.841 255.405 241.858 251.055 262.805Z" fill="white"/>
<path opacity="0.2" d="M309.289 215.422C311.359 219.499 313.815 224.908 317.106 228.648C318.053 225.213 318.839 222.228 319.513 219.451L309.289 215.422Z" fill="#407BFF"/>
<path d="M267.444 226.321C280.461 216.032 283.206 206.465 281.392 198.103C279.578 189.74 277.492 175.15 278.984 170.27C280.477 165.391 285.678 155.262 284.618 146.611C283.559 137.959 281.087 125.937 283.463 120.736C285.838 115.536 293.382 112.454 287.267 105.071C284.297 101.491 271.713 100.945 268.423 110.929C265.132 120.913 251.617 125.231 246.304 126.226C240.991 127.221 231.634 133.192 230.012 142.919C228.391 152.646 221.858 156.482 212.886 161.474C203.913 166.466 191.008 186.032 196.145 203.4C203.079 227.171 248.054 241.698 267.444 226.321Z" fill="#263238"/>
<path d="M306.576 193.56C310.621 190.35 328.036 200.912 333.365 205.326L330.251 228.215C330.251 228.215 305.372 217.91 303.671 210.863C301.841 203.528 303.366 196.016 306.576 193.56Z" fill="#407BFF"/>
<path opacity="0.6" d="M306.576 193.56C310.621 190.35 328.036 200.912 333.365 205.326L330.251 228.215C330.251 228.215 305.372 217.91 303.671 210.863C301.841 203.528 303.366 196.016 306.576 193.56Z" fill="white"/>
<path d="M250.766 259.61L247.652 263.8C247.412 264.121 247.781 264.57 248.375 264.699L303.125 275.292C303.591 275.389 304.024 275.292 304.104 274.939L305.34 270.381C305.42 270.076 305.067 269.723 304.554 269.626L251.681 259.386C251.523 259.338 251.354 259.334 251.193 259.374C251.032 259.413 250.885 259.495 250.766 259.61Z" fill="#407BFF"/>
<path d="M256.898 266.866L255.485 266.593C255.213 266.593 255.02 266.352 255.068 266.175L256.673 260.269C256.673 260.092 256.994 259.996 257.283 260.044L258.696 260.317C258.969 260.317 259.161 260.557 259.113 260.734L257.508 266.641C257.46 266.817 257.187 266.914 256.898 266.866Z" fill="#407BFF"/>
<path d="M292.66 273.864L291.231 273.591C290.958 273.591 290.766 273.35 290.814 273.174L292.419 267.267C292.419 267.106 292.74 267.01 293.029 267.058L294.441 267.331C294.73 267.331 294.923 267.572 294.875 267.749L293.27 273.655C293.206 273.832 292.933 273.928 292.66 273.864Z" fill="#407BFF"/>
<path opacity="0.6" d="M256.898 266.866L255.485 266.593C255.213 266.593 255.02 266.352 255.068 266.175L256.673 260.269C256.673 260.092 256.994 259.996 257.283 260.044L258.696 260.317C258.969 260.317 259.161 260.557 259.113 260.734L257.508 266.641C257.46 266.817 257.187 266.914 256.898 266.866Z" fill="black"/>
<path opacity="0.6" d="M292.66 273.864L291.231 273.591C290.958 273.591 290.766 273.35 290.814 273.174L292.419 267.267C292.419 267.106 292.74 267.01 293.029 267.058L294.441 267.331C294.73 267.331 294.923 267.572 294.875 267.749L293.27 273.655C293.206 273.832 292.933 273.928 292.66 273.864Z" fill="black"/>
</svg>
